<svg width="466" height="412" viewBox="0 0 466 412" fill="none" xmlns="http://www.w3.org/2000/svg">
<path d="M198.74 57.8398H25.1504V213.14H198.74V57.8398Z" fill="#FAFAFA"/>
<path d="M198.74 213.14C198.74 213.14 198.74 212.14 198.74 210.26C198.74 208.38 198.74 205.57 198.74 201.94C198.74 194.65 198.68 183.99 198.64 170.42C198.59 143.28 198.52 104.51 198.44 57.8397L198.83 58.2298L25.1698 58.2998L25.6298 57.8397C25.6298 114.34 25.6298 167.51 25.6298 213.14L25.2198 212.74L150.77 212.94L186.19 213.05H195.56H197.98H198.81C198.81 213.05 198.55 213.05 198.02 213.05H195.65L186.36 213.1L151.04 213.21L25.2198 213.41H24.8098V213C24.8098 167.37 24.8098 114.2 24.7598 57.6997V57.2397H25.2398L198.81 57.3097H199.21V57.6997C199.13 104.47 199.06 143.33 199.01 170.52C199.01 184.06 198.93 194.69 198.91 201.96C198.91 205.56 198.91 208.32 198.91 210.21C198.91 212.1 198.74 213.14 198.74 213.14Z" fill="#E0E0E0"/>
<path d="M91.7104 85.43C91.7104 85.69 82.5704 85.9 71.3104 85.9C60.0504 85.9 50.9004 85.69 50.9004 85.43C50.9004 85.17 60.0004 85 71.3104 85C82.6204 85 91.7104 85.18 91.7104 85.43Z" fill="#E0E0E0"/>
<path d="M165.259 97.0999C165.259 97.3499 140.159 97.5599 109.259 97.5599C78.3595 97.5599 53.1895 97.3499 53.1895 97.0999C53.1895 96.8499 78.2895 96.6299 109.259 96.6299C140.229 96.6299 165.259 96.8399 165.259 97.0999Z" fill="#E0E0E0"/>
<path d="M58.5092 116.85H51.1992V124.16H58.5092V116.85Z" fill="#E0E0E0"/>
<path d="M76.5092 116.85H69.1992V124.16H76.5092V116.85Z" fill="#E0E0E0"/>
<path d="M94.8393 116.52H87.5293V123.83H94.8393V116.52Z" fill="#E0E0E0"/>
<path d="M112.509 116.85H105.199V124.16H112.509V116.85Z" fill="#E0E0E0"/>
<path d="M130.519 116.85H123.209V124.16H130.519V116.85Z" fill="#E0E0E0"/>
<path d="M148.519 116.85H141.209V124.16H148.519V116.85Z" fill="#E0E0E0"/>
<path d="M166.519 116.85H159.209V124.16H166.519V116.85Z" fill="#EBEBEB"/>
<path d="M58.5092 132.4H51.1992V139.71H58.5092V132.4Z" fill="#EBEBEB"/>
<path d="M76.5092 132.4H69.1992V139.71H76.5092V132.4Z" fill="#E0E0E0"/>
<path d="M94.5092 132.4H87.1992V139.71H94.5092V132.4Z" fill="#EBEBEB"/>
<path d="M112.509 132.4H105.199V139.71H112.509V132.4Z" fill="#E0E0E0"/>
<path d="M130.519 132.4H123.209V139.71H130.519V132.4Z" fill="#E0E0E0"/>
<path d="M148.849 132.06H141.539V139.37H148.849V132.06Z" fill="#E0E0E0"/>
<path d="M166.519 132.4H159.209V139.71H166.519V132.4Z" fill="#E0E0E0"/>
<path d="M58.5092 147.94H51.1992V155.25H58.5092V147.94Z" fill="#E0E0E0"/>
<path d="M76.8393 147.61H69.5293V154.92H76.8393V147.61Z" fill="#E0E0E0"/>
<path d="M94.5092 147.94H87.1992V155.25H94.5092V147.94Z" fill="#E0E0E0"/>
<path d="M112.509 147.94H105.199V155.25H112.509V147.94Z" fill="#EBEBEB"/>
<path d="M130.519 147.94H123.209V155.25H130.519V147.94Z" fill="#E0E0E0"/>
<path d="M148.519 147.94H141.209V155.25H148.519V147.94Z" fill="#E0E0E0"/>
<path d="M166.519 147.94H159.209V155.25H166.519V147.94Z" fill="#E0E0E0"/>
<path d="M58.5092 163.49H51.1992V170.8H58.5092V163.49Z" fill="#E0E0E0"/>
<path d="M76.5092 163.49H69.1992V170.8H76.5092V163.49Z" fill="#E0E0E0"/>
<path d="M94.5092 163.49H87.1992V170.8H94.5092V163.49Z" fill="#E0E0E0"/>
<path d="M112.849 163.16H105.539V170.47H112.849V163.16Z" fill="#E0E0E0"/>
<path d="M130.519 163.49H123.209V170.8H130.519V163.49Z" fill="#E0E0E0"/>
<path d="M148.519 163.49H141.209V170.8H148.519V163.49Z" fill="#EBEBEB"/>
<path d="M166.519 163.49H159.209V170.8H166.519V163.49Z" fill="#E0E0E0"/>
<path d="M58.5092 179.04H51.1992V186.35H58.5092V179.04Z" fill="#E0E0E0"/>
<path d="M76.5092 179.04H69.1992V186.35H76.5092V179.04Z" fill="#EBEBEB"/>
<path d="M94.5092 179.04H87.1992V186.35H94.5092V179.04Z" fill="#E0E0E0"/>
<path d="M112.509 179.04H105.199V186.35H112.509V179.04Z" fill="#E0E0E0"/>
<path d="M130.519 179.04H123.209V186.35H130.519V179.04Z" fill="#E0E0E0"/>
<path d="M148.849 178.71H141.539V186.02H148.849V178.71Z" fill="#E0E0E0"/>
<path d="M166.519 179.04H159.209V186.35H166.519V179.04Z" fill="#E0E0E0"/>
<path d="M394.765 20.8659L383.605 20.9263L383.906 76.4355L395.066 76.3751L394.765 20.8659Z" fill="#E0E0E0"/>
<path d="M315.847 21.0131L286.957 21.1694L287.123 51.809L316.012 51.6527L315.847 21.0131Z" fill="#EBEBEB"/>
<path d="M344.606 20.8476L315.717 21.0039L315.883 51.6435L344.772 51.4871L344.606 20.8476Z" fill="#F5F5F5"/>
<path d="M286.999 29.6499C306.199 29.8099 325.413 29.7199 344.639 29.3799C344.711 29.367 344.775 29.3293 344.822 29.2736C344.868 29.2178 344.894 29.1475 344.894 29.0749C344.894 29.0023 344.868 28.9321 344.822 28.8763C344.775 28.8206 344.711 28.7829 344.639 28.7699C325.449 28.6599 306.199 28.7699 287.009 29.1199C286.948 29.1319 286.892 29.1649 286.853 29.2133C286.813 29.2616 286.791 29.3223 286.791 29.3849C286.791 29.4476 286.813 29.5083 286.853 29.5566C286.892 29.605 286.948 29.638 287.009 29.6499H286.999Z" fill="#E0E0E0"/>
<path d="M321.45 51.1428L268.961 51.4268L269.096 76.3964L321.585 76.1124L321.45 51.1428Z" fill="#EBEBEB"/>
<path d="M373.688 50.86L321.199 51.144L321.334 76.1137L373.824 75.8297L373.688 50.86Z" fill="#F5F5F5"/>
<path d="M269 58.3897C303.87 58.7897 338.86 58.3897 373.72 57.8697C373.791 57.8567 373.856 57.8191 373.902 57.7633C373.949 57.7076 373.974 57.6373 373.974 57.5647C373.974 57.4921 373.949 57.4218 373.902 57.3661C373.856 57.3103 373.791 57.2727 373.72 57.2597C338.85 57.0797 303.86 57.0997 269 57.8597C268.938 57.8717 268.883 57.9047 268.843 57.953C268.803 58.0014 268.781 58.0621 268.781 58.1247C268.781 58.1873 268.803 58.248 268.843 58.2964C268.883 58.3447 268.938 58.3777 269 58.3897Z" fill="#E0E0E0"/>
<path d="M452.709 76.4199H249.359V85.3699H452.709V76.4199Z" fill="#E0E0E0"/>
<path d="M290.9 80.7197H282.65V111.25H290.9V80.7197Z" fill="#E0E0E0"/>
<path d="M414.139 80.7197H405.879V111.25H414.139V80.7197Z" fill="#E0E0E0"/>
<path d="M405.652 0.167158L394.492 0.227539L394.905 76.5664L406.065 76.506L405.652 0.167158Z" fill="#EBEBEB"/>
<path d="M423.295 12.3575L405.965 12.5308L406.584 74.4008L423.914 74.2275L423.295 12.3575Z" fill="#F5F5F5"/>
<path d="M423 26.32C420.12 26.616 417.223 26.7162 414.33 26.62C411.44 26.7161 408.546 26.6159 405.67 26.32C405.67 26.15 409.55 26.02 414.33 26.02C419.11 26.02 423 26.15 423 26.32Z" fill="#E0E0E0"/>
<path d="M423 23.7199C420.12 24.0159 417.223 24.1161 414.33 24.0199C411.44 24.1161 408.546 24.0158 405.67 23.7199C405.67 23.5499 409.55 23.4199 414.33 23.4199C419.11 23.4199 423 23.5499 423 23.7199Z" fill="#E0E0E0"/>
<path d="M423 66.9997C417.23 67.3997 411.44 67.3997 405.67 66.9997C405.67 66.8297 409.55 66.6997 414.33 66.6997C419.11 66.6997 423 66.7897 423 66.9997Z" fill="#E0E0E0"/>
<path d="M423 64.3601C417.23 64.7601 411.44 64.7601 405.67 64.3601C405.67 64.1901 409.55 64.0601 414.33 64.0601C419.11 64.0601 423 64.1901 423 64.3601Z" fill="#E0E0E0"/>
<path d="M414.57 58.6901C414.41 58.6901 414.27 52.4501 414.27 44.7501C414.27 37.0501 414.41 30.8101 414.57 30.8101C414.73 30.8101 414.87 37.0501 414.87 44.7501C414.87 52.4501 414.74 58.6901 414.57 58.6901Z" fill="#E0E0E0"/>
<path d="M442.02 29.5898H423.15V76.2898H442.02V29.5898Z" fill="#EBEBEB"/>
<path d="M403.109 13.2198C403.109 13.8551 402.921 14.4761 402.568 15.0042C402.215 15.5323 401.713 15.9437 401.126 16.1864C400.538 16.429 399.892 16.492 399.27 16.3674C398.647 16.2427 398.075 15.936 397.626 15.486C397.178 15.0361 396.873 14.4632 396.75 13.8399C396.627 13.2165 396.692 12.5708 396.937 11.9844C397.181 11.3981 397.594 10.8974 398.123 10.5459C398.653 10.1944 399.274 10.0078 399.909 10.0098C400.759 10.0124 401.573 10.3518 402.173 10.9535C402.773 11.5552 403.109 12.3702 403.109 13.2198Z" fill="#E0E0E0"/>
<path d="M400.89 22.04H398.91V67.46H400.89V22.04Z" fill="#E0E0E0"/>
<path d="M58.2597 311.83C63.4997 309.13 69.6597 308.78 75.4697 309.74C78.5897 310.26 81.8397 311.19 83.9697 313.54C86.0997 315.89 86.4897 320.01 84.0497 322.02C82.5997 323.22 80.5797 323.4 78.6997 323.38C74.1497 323.33 69.0997 322.53 65.4697 325.26C63.3897 326.83 62.0097 329.42 59.5397 330.19C57.0697 330.96 54.3697 329.51 53.0897 327.32C51.9068 325.042 51.6455 322.396 52.3597 319.93C52.6525 318.217 53.3374 316.594 54.3608 315.189C55.3843 313.784 56.7186 312.634 58.2597 311.83Z" fill="#356BB3"/>
<path d="M46.27 288.69C49.47 293.26 55.69 291.74 58.58 288.96C61.47 286.18 62.68 282.12 63.79 278.27C66.32 269.46 68.88 260.27 66.99 251.27C66.5393 248.552 65.3452 246.012 63.54 243.93C62.6277 242.902 61.461 242.131 60.1569 241.696C58.8528 241.261 57.4572 241.176 56.11 241.45C52.97 242.28 51.03 245.35 49.62 248.28C45.4666 256.905 43.2904 266.348 43.25 275.92C43.25 280.37 43.76 285.04 46.25 288.72" fill="#356BB3"/>
<path d="M37.4804 295.25C40.9604 291.12 41.6204 285.11 40.0704 279.94C38.5204 274.77 35.0704 270.38 31.0104 266.79C26.2733 262.577 20.7606 259.326 14.7804 257.22C12.4659 256.282 9.97488 255.859 7.48038 255.98C6.23451 256.051 5.02481 256.425 3.95646 257.07C2.88811 257.715 1.99348 258.611 1.35038 259.68C-0.359621 262.94 1.28038 266.89 3.05038 270.12C6.17281 275.801 9.73713 281.228 13.7104 286.35C16.9104 290.47 20.5704 294.53 25.4404 296.35C30.3104 298.17 35.3704 298 38.0004 294.66" fill="#356BB3"/>
<path d="M46.0602 357.63C46.2264 356.952 46.3236 356.258 46.3502 355.56C46.4902 354.04 46.6802 352.15 46.9002 349.89C47.1794 347.097 47.6033 344.32 48.1702 341.57C48.9106 338.226 49.9137 334.946 51.1702 331.76C52.4114 328.58 54.0946 325.59 56.1702 322.88C57.8646 320.676 60.0309 318.878 62.5102 317.62C64.1994 316.799 66.0088 316.252 67.8702 316C68.5687 315.972 69.2624 315.871 69.9402 315.7C69.2424 315.622 68.5381 315.622 67.8402 315.7C65.9129 315.846 64.0269 316.334 62.2702 317.14C59.6648 318.373 57.3789 320.19 55.5902 322.45C53.4239 325.198 51.675 328.251 50.4002 331.51C49.1116 334.75 48.1078 338.096 47.4002 341.51C46.8621 344.292 46.4914 347.104 46.2902 349.93C46.1102 352.34 46.0502 354.29 46.0102 355.64C45.9551 356.303 45.9719 356.971 46.0602 357.63Z" fill="#263238"/>
<path d="M46.4507 353.27C46.4883 352.938 46.4883 352.602 46.4507 352.27V349.51C46.4507 347.12 46.4507 343.66 46.5707 339.39C46.7807 330.84 47.5707 321.64 48.9407 308.67C50.2807 296.48 52.0907 282.28 54.0007 273.06C54.4007 270.96 54.8207 269.06 55.2007 267.42C55.5807 265.78 55.8907 264.33 56.2007 263.17C56.5107 262.01 56.6807 261.17 56.8507 260.5C56.9496 260.175 57.0067 259.839 57.0207 259.5C56.8674 259.783 56.753 260.086 56.6807 260.4C56.4707 261.09 56.2107 261.97 55.8807 263.04C55.5507 264.11 55.1607 265.6 54.7507 267.26C54.3407 268.92 53.8607 270.79 53.4107 272.88C51.0559 283.778 49.2801 294.794 48.0907 305.88C46.6707 318.88 46.0307 330.71 45.9707 339.27C45.9707 343.56 45.9707 347.03 46.1207 349.42C46.1907 350.54 46.2507 351.42 46.2907 352.17C46.2939 352.542 46.3477 352.912 46.4507 353.27Z" fill="#263238"/>
<path d="M46.5001 330.45C46.5764 329.492 46.5764 328.529 46.5001 327.57C46.3372 324.957 46.0435 322.354 45.6201 319.77C44.9931 315.939 44.1484 312.146 43.0901 308.41C41.8422 303.825 40.2441 299.341 38.3101 295C34.9996 286.968 30.2557 279.605 24.3101 273.27C23.2799 272.188 22.1845 271.169 21.0301 270.22C20.5201 269.8 20.0801 269.37 19.6201 269.04L18.3501 268.16C17.6098 267.569 16.824 267.038 16.0001 266.57C15.8601 266.75 19.4301 268.86 23.9401 273.65C29.6666 280.043 34.2623 287.364 37.5301 295.3C39.4153 299.63 41.0121 304.08 42.3101 308.62C43.5501 312.8 44.3801 316.62 45.0001 319.87C45.6201 323.12 45.9401 325.76 46.1501 327.6C46.1997 328.557 46.3167 329.51 46.5001 330.45Z" fill="#263238"/>
<path d="M24.4512 370.71L26.7312 402.04H66.9812L69.2712 370.71H24.4512Z" fill="#263238"/>
<path d="M74.0705 358.36H20.5605V370.71H74.0705V358.36Z" fill="#263238"/>
<path d="M20.5605 400.84V404.26H23.0705H73.1905V400.84H20.5605Z" fill="#455A64"/>
<path d="M25.5403 410.29L23.0703 404.26H71.2703L68.3903 410.29H25.5403Z" fill="#455A64"/>
<path d="M68.5209 381C68.4708 381.102 68.4069 381.196 68.3309 381.28C68.1709 381.5 67.9809 381.76 67.7309 382.08L65.3909 385.08L65.2809 385.22L65.1809 385.08L59.4209 377.08H59.7509L54.0809 385.08L53.9009 385.33L53.7009 385.1L46.9809 377.1H47.3709C47.2509 377.24 47.1209 377.4 47.0009 377.56L41.0009 385.1L40.8009 385.35L40.6209 385.09L34.9409 377.09H35.2709C32.4809 380.28 30.1009 382.98 28.2709 385.09L28.1509 385.23L28.0609 385.07C27.1309 383.53 26.4009 382.29 25.8709 381.4C25.6409 381 25.4509 380.68 25.3109 380.4C25.2348 380.292 25.1742 380.175 25.1309 380.05C25.1309 380.05 25.2209 380.15 25.3709 380.36L25.9909 381.3L28.2909 384.91H28.0709L34.9409 376.85L35.1209 376.65L35.2709 376.87L41.0009 384.87H40.6009L46.6009 377.32L46.9709 376.86L47.1709 376.62L47.3609 376.85C49.7209 379.66 51.9809 382.37 54.0709 384.85H53.6909L59.4209 376.85L59.5909 376.62L59.7509 376.85L65.3909 384.91H65.1909L67.6309 382L68.2809 381.24C68.4342 381.033 68.5142 380.953 68.5209 381Z" fill="#E0E0E0"/>
<path d="M69.8313 370.5C69.8313 370.64 59.7413 370.75 47.3113 370.75C34.8813 370.75 24.7812 370.64 24.7812 370.5C24.7812 370.36 34.8613 370.25 47.3113 370.25C59.7613 370.25 69.8313 370.36 69.8313 370.5Z" fill="#455A64"/>
<path d="M71.8604 404.6C71.8604 404.74 60.8604 404.85 47.3804 404.85C33.9004 404.85 22.9004 404.74 22.9004 404.6C22.9004 404.46 33.9004 404.35 47.3804 404.35C60.8604 404.35 71.8604 404.46 71.8604 404.6Z" fill="#263238"/>
<path d="M347.1 278.11H440.63C444.643 278.11 448.491 279.704 451.329 282.541C454.166 285.379 455.76 289.227 455.76 293.24V410.86H332V293.24C332 289.232 333.59 285.389 336.421 282.552C339.252 279.715 343.092 278.118 347.1 278.11Z" fill="#455A64"/>
<path d="M445.34 278.79C445.49 278.79 445.6 308.34 445.6 344.79C445.6 381.24 445.49 410.79 445.34 410.79C445.19 410.79 445.08 381.24 445.08 344.79C445.08 308.34 445.2 278.79 445.34 278.79Z" fill="#263238"/>
<path d="M384.36 134C395.742 150.295 402.268 169.484 403.18 189.34C403.76 202.64 401.97 216.81 408.28 228.53C417.34 245.35 436.93 244.78 442.93 262.91C445.54 270.8 440.73 288.15 439.43 296.36C437.96 305.68 443.66 313.51 442.19 322.84C440.84 331.39 434.44 337.49 426.76 341.47C419.92 345.01 413.6 345.11 406.49 342.16C392.93 336.55 381.65 330.63 372 319.59C358.44 304.09 354.34 282.59 352 262.16C346.894 216.978 347.926 171.314 355.07 126.41" fill="#263238"/>
<path d="M413.35 344.07C413.491 344.024 413.634 343.988 413.78 343.96C414.07 343.89 414.51 343.82 415.07 343.65C419.288 342.503 423.069 340.125 425.93 336.82C427.006 335.56 427.828 334.103 428.35 332.53C428.849 330.74 429.134 328.897 429.2 327.04C429.273 322.757 428.836 318.48 427.9 314.3C427.03 309.76 425.9 304.92 425.56 299.67C425.394 296.99 425.586 294.299 426.13 291.67C426.757 288.938 427.606 286.263 428.67 283.67C429.759 281.009 430.713 278.296 431.53 275.54C432.378 272.722 432.616 269.757 432.23 266.84C431.764 263.937 430.653 261.176 428.98 258.76C427.344 256.408 425.441 254.254 423.31 252.34C419.18 248.48 414.71 245.34 410.89 241.72C404.075 235.414 398.576 227.821 394.71 219.38C393.212 216.148 391.968 212.805 390.99 209.38C390.51 207.89 390.23 206.45 389.89 205.15C389.55 203.85 389.4 202.63 389.18 201.55C388.87 199.36 388.63 197.67 388.57 196.55C388.57 195.99 388.49 195.55 388.47 195.23C388.45 194.91 388.47 194.78 388.47 194.78C388.47 194.78 388.47 194.93 388.54 195.23C388.61 195.53 388.63 195.98 388.7 196.54C388.79 197.69 389.06 199.38 389.4 201.54C389.63 202.62 389.88 203.82 390.15 205.13C390.42 206.44 390.79 207.84 391.29 209.33C392.294 212.721 393.554 216.03 395.06 219.23C398.953 227.594 404.446 235.116 411.23 241.37C415.03 244.91 419.51 248.08 423.68 251.96C425.84 253.902 427.769 256.086 429.43 258.47C431.147 260.952 432.285 263.789 432.76 266.77C433.159 269.756 432.917 272.794 432.05 275.68C431.27 278.52 430.18 281.21 429.17 283.85C428.115 286.411 427.265 289.053 426.63 291.75C426.09 294.343 425.898 296.996 426.06 299.64C426.33 304.82 427.49 309.64 428.35 314.21C429.27 318.426 429.686 322.736 429.59 327.05C429.506 328.938 429.204 330.811 428.69 332.63C428.134 334.231 427.283 335.713 426.18 337C424.416 339.046 422.269 340.728 419.86 341.95C418.358 342.747 416.762 343.352 415.11 343.75C414.532 343.901 413.944 344.008 413.35 344.07Z" fill="#455A64"/>
<path d="M227.16 379.8L275.16 357.01C275.16 357.01 293.85 266.26 297.39 259.45C300.93 252.64 315.69 246.75 315.69 246.75L313.22 369.63L308.82 398L241.14 404.41L227.16 379.8Z" fill="#356BB3"/>
<path d="M186.209 401.3C185.939 401.3 184.609 402.12 185.719 404.23C186.829 406.34 194.969 413.31 197.359 410.88C199.749 408.45 196.099 405.49 196.099 405.49L186.209 401.3Z" fill="#FFBE9D"/>
<path d="M196.44 405.58C196.44 405.58 206.26 406.82 210.03 408.26C214.14 409.82 219.14 408.75 222.5 406.48C224.409 405.208 226.191 403.755 227.82 402.14L240.34 401.94C242.14 399.832 243.32 397.267 243.751 394.529C244.182 391.792 243.846 388.988 242.78 386.43C242.109 384.65 241.142 382.996 239.92 381.54C238.43 379.93 236.08 378.63 232.02 377.93L217.15 381.14C217.15 381.14 194.15 379.49 190.01 381.43C190.01 381.43 184.86 384.48 183.27 385.76C182.67 386.25 180.84 392.11 184.59 395.16C184.59 395.16 181.33 397.75 183.1 400.08L183.94 401.08C183.94 401.08 181.75 403.92 182.88 405.16C184.01 406.4 193.88 412.16 197.39 410.8C200.9 409.44 198 406.15 196.44 405.55" fill="#FFBE9D"/>
<path d="M187.059 390.09C187.474 390.212 187.882 390.359 188.279 390.53C189.049 390.82 190.179 391.24 191.599 391.69C192.299 391.92 193.079 392.15 193.929 392.37C194.779 392.59 195.689 392.78 196.639 393.09C197.673 393.373 198.607 393.937 199.339 394.72C199.743 395.154 200.022 395.688 200.149 396.266C200.275 396.845 200.244 397.447 200.059 398.01C199.824 398.576 199.395 399.041 198.849 399.32C198.335 399.572 197.779 399.728 197.209 399.78C196.163 399.842 195.113 399.785 194.079 399.61C192.348 399.33 190.647 398.888 188.999 398.29C187.589 397.79 186.479 397.29 185.709 396.99C185.301 396.842 184.91 396.655 184.539 396.43C184.957 396.541 185.368 396.678 185.769 396.84C186.549 397.12 187.679 397.55 189.089 398.01C190.717 398.562 192.39 398.974 194.089 399.24C195.081 399.395 196.087 399.442 197.089 399.38C197.608 399.334 198.113 399.191 198.579 398.96C199.032 398.723 199.386 398.333 199.579 397.86C199.741 397.374 199.772 396.854 199.67 396.353C199.569 395.851 199.337 395.384 198.999 395C198.318 394.27 197.45 393.741 196.489 393.47C195.569 393.16 194.649 392.96 193.809 392.72C192.969 392.48 192.179 392.23 191.479 391.99C190.059 391.5 188.949 390.99 188.189 390.7C187.794 390.532 187.416 390.328 187.059 390.09Z" fill="#EB996E"/>
<path d="M187.94 383C188.354 383.116 188.758 383.263 189.15 383.44C189.93 383.74 191.05 384.17 192.45 384.63C193.85 385.09 195.54 385.63 197.45 386.06C198.498 386.224 199.494 386.628 200.36 387.24C200.819 387.622 201.122 388.159 201.21 388.75C201.298 389.345 201.211 389.953 200.96 390.5C200.706 391.021 200.346 391.485 199.904 391.86C199.461 392.235 198.946 392.514 198.39 392.68C197.381 393.008 196.308 393.094 195.26 392.93C193.554 392.589 191.881 392.1 190.26 391.47L186.95 390.31C186.54 390.181 186.139 390.024 185.75 389.84C186.175 389.911 186.593 390.018 187 390.16L190.35 391.16C191.98 391.74 193.651 392.195 195.35 392.52C196.34 392.662 197.35 392.573 198.3 392.26C198.805 392.105 199.273 391.848 199.674 391.504C200.075 391.16 200.401 390.736 200.63 390.26C200.866 389.806 200.946 389.286 200.858 388.782C200.769 388.278 200.517 387.817 200.14 387.47C199.322 386.899 198.385 386.52 197.4 386.36C195.49 385.88 193.8 385.36 192.4 384.84C191 384.32 189.9 383.84 189.14 383.52C188.727 383.379 188.325 383.206 187.94 383Z" fill="#EB996E"/>
<path d="M192.67 385C192.466 384.347 192.315 383.678 192.22 383C191.995 382.35 191.831 381.681 191.73 381C192.207 381.52 192.517 382.172 192.62 382.87C192.871 383.555 192.888 384.304 192.67 385Z" fill="#EB996E"/>
<path d="M227.3 385.32L218.55 382C218.55 382 194.26 370.66 193.85 371.28C193.44 371.9 192.12 371.82 192.41 374.78C192.7 377.74 206.85 383.72 207.3 384.78C207.75 385.84 207 391 212.23 394.71C217.46 398.42 221.23 398.51 221.23 398.51" fill="#FFBE9D"/>
<path d="M221.229 398.42H220.999L220.399 398.36C219.629 398.238 218.87 398.054 218.129 397.81C215.402 396.881 212.882 395.431 210.709 393.54C209.237 392.162 208.196 390.387 207.709 388.43C207.458 387.354 207.284 386.261 207.189 385.16C207.172 385.034 207.142 384.91 207.099 384.79C207.042 384.693 206.963 384.611 206.869 384.55C206.641 384.384 206.404 384.231 206.159 384.09C205.669 383.8 205.159 383.52 204.619 383.24C202.519 382.11 200.269 380.98 198.009 379.68C196.851 379.027 195.726 378.316 194.639 377.55C194.076 377.155 193.548 376.714 193.059 376.23C192.799 375.982 192.574 375.699 192.389 375.39C192.29 375.22 192.222 375.034 192.189 374.84C192.169 374.661 192.169 374.48 192.189 374.3C192.109 373.576 192.238 372.844 192.559 372.19C192.758 371.881 193.02 371.619 193.329 371.42C193.455 371.339 193.569 371.241 193.669 371.13C193.669 371.13 193.669 371.13 193.749 371.04C193.798 371.003 193.858 370.985 193.919 370.99C193.976 370.984 194.033 370.984 194.089 370.99L194.359 371.06C195.669 371.46 196.879 371.99 198.089 372.49C200.489 373.49 202.779 374.49 204.959 375.49C209.329 377.49 213.229 379.27 216.509 380.81C217.329 381.18 218.099 381.57 218.839 381.89L220.979 382.73L224.409 384.09L226.569 384.96L227.119 385.2C227.249 385.2 227.309 385.28 227.309 385.29C227.309 385.3 227.239 385.29 227.109 385.23L226.539 385.04L224.349 384.23L220.889 383L218.729 382.19C217.969 381.88 217.199 381.5 216.379 381.13L204.799 375.9C202.609 374.9 200.319 373.9 197.919 372.9C196.719 372.41 195.499 371.9 194.239 371.49L194.019 371.44H193.939C193.939 371.44 193.939 371.38 193.939 371.34C194.219 371.52 194.009 371.4 194.069 371.44C193.95 371.588 193.808 371.716 193.649 371.82C193.382 371.984 193.157 372.206 192.989 372.47C192.708 373.058 192.597 373.713 192.669 374.36C192.663 374.673 192.735 374.982 192.879 375.26C193.046 375.538 193.248 375.793 193.479 376.02C193.952 376.486 194.464 376.911 195.009 377.29C196.089 378.07 197.219 378.75 198.339 379.4C200.589 380.7 202.819 381.84 204.929 382.97C205.459 383.26 205.929 383.54 206.479 383.85C206.737 383.997 206.988 384.157 207.229 384.33C207.375 384.428 207.492 384.563 207.569 384.72C207.62 384.866 207.653 385.017 207.669 385.17C207.764 386.259 207.928 387.342 208.159 388.41C208.616 390.315 209.609 392.05 211.019 393.41C213.15 395.296 215.616 396.764 218.289 397.74C219.017 397.997 219.762 398.201 220.519 398.35C220.779 398.41 220.979 398.43 221.119 398.45L221.229 398.42Z" fill="#EB996E"/>
<path d="M194.439 399.56C194.762 399.599 195.076 399.69 195.369 399.83C196.191 400.16 196.962 400.605 197.659 401.15C198.146 401.53 198.588 401.963 198.979 402.44C199.225 402.709 199.415 403.025 199.537 403.368C199.659 403.712 199.711 404.076 199.689 404.44C199.609 404.854 199.415 405.237 199.129 405.546C198.843 405.855 198.476 406.078 198.069 406.19C197.234 406.419 196.349 406.391 195.529 406.11C192.748 405.287 190.05 404.206 187.469 402.88C186.692 402.475 185.938 402.027 185.209 401.54C184.93 401.38 184.671 401.185 184.439 400.96C184.737 401.078 185.022 401.225 185.289 401.4C185.829 401.71 186.609 402.14 187.599 402.62C190.184 403.855 192.858 404.891 195.599 405.72C196.347 405.979 197.154 406.01 197.919 405.81C198.256 405.722 198.562 405.542 198.803 405.292C199.045 405.041 199.213 404.73 199.289 404.39C199.311 404.068 199.27 403.746 199.167 403.44C199.064 403.135 198.902 402.853 198.689 402.61C198.323 402.144 197.907 401.718 197.449 401.34C196.525 400.622 195.514 400.024 194.439 399.56Z" fill="#EB996E"/>
<g opacity="0.3">
<path d="M308.479 398C300.619 371.49 293.689 337.35 285.829 310.84C282.949 335.31 286.549 367.62 291.049 391.84C291.579 394.68 291.819 397.46 294.049 399.33L308.479 398Z" fill="black"/>
</g>
<path d="M295.609 379.8C295.499 379.8 295.169 378.07 294.099 375.42C293.47 373.875 292.718 372.384 291.849 370.96C290.765 369.232 289.527 367.605 288.149 366.1C286.752 364.611 285.218 363.255 283.569 362.05C282.218 361.072 280.786 360.209 279.289 359.47C276.729 358.21 275.009 357.75 275.039 357.65C275.456 357.699 275.865 357.796 276.259 357.94C276.733 358.06 277.198 358.213 277.649 358.4C278.262 358.614 278.863 358.861 279.449 359.14C280.989 359.845 282.462 360.689 283.849 361.66C285.541 362.864 287.112 364.231 288.539 365.74C289.937 367.283 291.183 368.957 292.259 370.74C293.123 372.195 293.856 373.725 294.449 375.31C294.719 375.98 294.879 376.61 295.049 377.16C295.204 377.627 295.324 378.105 295.409 378.59C295.515 378.986 295.582 379.391 295.609 379.8Z" fill="#263238"/>
<path d="M310.589 245.51C310.589 245.51 285.459 301.66 285.459 312C285.459 322.34 304.289 393.93 304.289 393.93C304.109 396.78 303.379 411.05 303.379 411.05L408.969 411.42L410.579 388.72L402.339 367.09L410.569 305.94C410.569 305.94 416.109 270.44 416.569 260.51C417.189 248.09 375.109 233.69 376.259 231.97L368.999 222.21L327.389 256L319.159 232.24L309.299 241.55L310.589 245.51Z" fill="#356BB3"/>
<path d="M379.739 260.45C368.309 279.78 347.399 315 347.399 315L309.919 357.74C309.919 357.74 307.469 379.45 312.369 386.11C317.269 392.77 325.679 397.32 325.679 397.32C325.679 397.32 335.569 397.32 348.139 386.81C360.709 376.3 395.379 332.87 395.379 332.87L407.289 318.5C407.289 318.5 421.489 283.62 418.839 265.87C417.839 259.02 414.899 256.18 411.019 253.04C401.249 245.17 386.129 249.64 379.739 260.45Z" fill="#356BB3"/>
<path d="M411.7 306.4C411.65 306.537 411.59 306.671 411.52 306.8C411.39 307.08 411.2 307.45 410.97 307.94C410.47 308.94 409.71 310.39 408.67 312.23C406.6 315.92 403.38 321.13 399.18 327.42C397.07 330.56 394.72 333.97 392.13 337.59C389.54 341.21 386.6 344.94 384.18 349.3C381.76 353.66 379.56 358.42 376.91 363.18C374.188 368.112 370.996 372.77 367.38 377.09C363.763 381.428 359.508 385.191 354.76 388.25C350.311 391.089 345.341 393.013 340.14 393.91C335.433 394.745 330.6 394.54 325.98 393.31C323.89 392.745 321.875 391.929 319.98 390.88C318.217 389.95 316.561 388.83 315.04 387.54C313.646 386.385 312.397 385.065 311.32 383.61C310.351 382.317 309.526 380.922 308.86 379.45C307.832 377.081 307.158 374.575 306.86 372.01C306.688 370.393 306.632 368.765 306.69 367.14C306.69 366.6 306.75 366.14 306.77 365.87C306.76 365.727 306.76 365.583 306.77 365.44C306.781 365.583 306.781 365.727 306.77 365.87C306.77 366.18 306.77 366.6 306.77 367.14C306.751 368.757 306.838 370.374 307.03 371.98C307.366 374.517 308.067 376.993 309.11 379.33C309.783 380.774 310.607 382.141 311.57 383.41C312.642 384.839 313.885 386.132 315.27 387.26C316.777 388.524 318.416 389.621 320.16 390.53C322.029 391.552 324.013 392.348 326.07 392.9C330.642 394.094 335.42 394.278 340.07 393.44C345.202 392.54 350.103 390.63 354.49 387.82C359.195 384.783 363.413 381.05 367 376.75C370.595 372.459 373.767 367.831 376.47 362.93C379.12 358.2 381.26 353.4 383.77 349.06C386.221 345.007 388.892 341.091 391.77 337.33C394.37 333.73 396.77 330.33 398.86 327.21C403.1 320.96 406.36 315.78 408.48 312.13C409.55 310.3 410.34 308.87 410.86 307.89L411.47 306.77C411.533 306.638 411.61 306.514 411.7 306.4Z" fill="#263238"/>
<path d="M307.999 355.83C307.999 355.9 307.469 356.23 306.779 357C305.861 357.975 305.295 359.229 305.172 360.563C305.048 361.897 305.375 363.233 306.099 364.36C306.629 365.24 307.099 365.67 307.099 365.73C307.099 365.79 306.469 365.45 305.809 364.57C304.947 363.403 304.545 361.96 304.68 360.516C304.814 359.071 305.477 357.727 306.539 356.74C306.927 356.301 307.434 355.984 307.999 355.83Z" fill="#263238"/>
<path d="M314.93 367.17C315.131 367.196 315.328 367.243 315.52 367.31L316.22 367.5L317.22 367.68C319.297 367.954 321.41 367.755 323.4 367.1C326.361 366.108 329.084 364.515 331.4 362.42C334.151 359.779 336.646 356.882 338.85 353.77C341.089 350.632 343.668 347.751 346.54 345.18C347.9 344.04 349.23 343.03 350.34 341.94C351.397 340.97 352.247 339.796 352.84 338.49C353.237 337.535 353.393 336.498 353.293 335.468C353.194 334.439 352.842 333.451 352.27 332.59C351.787 331.998 351.165 331.534 350.46 331.24C350.658 331.277 350.852 331.334 351.04 331.41C351.579 331.651 352.054 332.014 352.43 332.47C353.063 333.35 353.465 334.376 353.598 335.453C353.731 336.529 353.59 337.622 353.19 338.63C352.594 339.994 351.73 341.225 350.65 342.25C349.52 343.37 348.18 344.41 346.85 345.55C344.025 348.117 341.484 350.98 339.27 354.09C337.039 357.229 334.507 360.143 331.71 362.79C329.346 364.897 326.566 366.484 323.55 367.45C321.503 368.091 319.334 368.238 317.22 367.88L316.22 367.65C315.94 367.57 315.71 367.47 315.53 367.41C315.321 367.354 315.119 367.273 314.93 367.17Z" fill="#263238"/>
<path d="M384.829 254.51C384.703 254.719 384.563 254.919 384.409 255.11C384.079 255.53 383.659 256.11 383.129 256.78C381.989 258.2 380.419 260.32 378.499 262.96C373.606 269.896 369.154 277.134 365.169 284.63C360.449 293.39 356.549 301.52 353.559 307.32C352.079 310.23 350.859 312.57 349.969 314.17L348.999 316C348.89 316.219 348.76 316.427 348.609 316.62C348.685 316.388 348.782 316.163 348.899 315.95L349.839 314.06L353.269 307.15C356.169 301.3 360.029 293.15 364.749 284.37C368.738 276.85 373.249 269.619 378.249 262.73C380.249 260.12 381.819 258.02 383.009 256.64L384.369 255.03C384.503 254.84 384.658 254.666 384.829 254.51Z" fill="#263238"/>
<g opacity="0.3">
<path d="M306.8 365.44C311.67 368.08 317.03 367.8 322.47 366.74C327.962 365.642 332.907 362.682 336.47 358.36C335.647 363.173 333.392 367.627 330 371.14C326.54 374.53 321.52 376.49 316.76 375.62C312 374.75 307.18 370.27 306.76 365.44" fill="black"/>
</g>
<g opacity="0.3">
<path d="M352.9 336.58C355.991 341.345 357.07 347.141 355.9 352.7C360.03 346.38 361 338.38 359.9 330.91C358.8 323.44 355.75 316.39 352.37 309.64C352.37 309.64 348.65 315.94 348.61 316.64C348.43 320.28 349.77 327.12 350.47 330.69C351.404 331.586 352.1 332.701 352.497 333.933C352.893 335.165 352.977 336.477 352.74 337.75" fill="black"/>
</g>
<g opacity="0.3">
<path d="M323.32 391.6C333.26 399.35 348.01 399.71 358.88 393.35C369.35 387.22 375.8 376.18 381.78 365.63C391.05 349.29 402.35 329.08 408.97 311.5C408.97 311.5 390.42 336.81 384.83 347.72C381.104 355.095 376.874 362.206 372.17 369C366.848 376.656 359.653 382.82 351.271 386.904C342.888 390.989 333.6 392.857 324.29 392.33" fill="black"/>
</g>
<path d="M303.379 411C303.363 410.897 303.363 410.792 303.379 410.69C303.379 410.45 303.379 410.15 303.379 409.78C303.379 408.93 303.449 407.78 303.509 406.31C303.649 403.31 303.839 399.01 304.079 393.88V394C302.289 388 300.189 380.72 298.009 372.86C295.129 362.44 292.699 352.96 291.059 346.07C290.249 342.63 289.609 339.83 289.209 337.89C289.019 336.96 288.869 336.21 288.759 335.66C288.7 335.399 288.656 335.135 288.629 334.87C288.73 335.115 288.807 335.369 288.859 335.63L289.409 337.85C289.899 339.85 290.579 342.59 291.409 345.98C293.139 352.85 295.629 362.31 298.509 372.72C300.679 380.58 302.749 387.86 304.509 393.87V393.94C304.199 399.07 303.939 403.34 303.749 406.38C303.649 407.83 303.569 408.99 303.509 409.84C303.509 410.2 303.449 410.5 303.429 410.74C303.423 410.828 303.406 410.915 303.379 411Z" fill="#263238"/>
<path d="M409 252.46C409 252.54 407.92 252.16 406.19 251.73C403.933 251.161 401.625 250.826 399.3 250.73C396.974 250.666 394.648 250.847 392.36 251.27C390.6 251.6 389.53 251.9 389.51 251.82C389.732 251.677 389.975 251.569 390.23 251.5C390.902 251.268 391.587 251.071 392.28 250.91C394.573 250.375 396.926 250.139 399.28 250.21C401.651 250.281 404.004 250.658 406.28 251.33C406.961 251.528 407.629 251.768 408.28 252.05C408.78 252.3 409 252.42 409 252.46Z" fill="#263238"/>
<path d="M375.57 234C375.497 234.182 375.407 234.356 375.3 234.52L374.45 235.95C373.7 237.19 372.59 238.95 371.18 241.14C368.35 245.47 364.3 251.38 359.51 257.66C355.66 262.73 351.93 267.28 348.88 270.84L348.66 271.09L348.53 270.79C347.07 267.61 345.87 264.97 345 263.06C344.61 262.18 344.3 261.46 344.05 260.91C343.927 260.664 343.83 260.406 343.76 260.14C343.92 260.366 344.058 260.607 344.17 260.86C344.44 261.4 344.78 262.1 345.22 262.96C346.13 264.85 347.39 267.46 348.9 270.62L348.56 270.57C351.56 266.97 355.25 262.41 359.1 257.35C363.88 251.07 367.96 245.21 370.87 240.93L374.28 235.84L375.21 234.46C375.309 234.291 375.43 234.137 375.57 234Z" fill="#263238"/>
<path d="M399.88 395.27C399.73 395.27 400.19 390.06 400.88 383.67C401.57 377.28 402.28 372.12 402.42 372.14C402.56 372.16 402.1 377.34 401.42 383.73C400.74 390.12 400 395.28 399.88 395.27Z" fill="#263238"/>
<path d="M327.5 393.9C328.068 396.781 328.466 399.692 328.69 402.62C329.095 405.527 329.319 408.456 329.36 411.39C328.798 408.508 328.4 405.597 328.17 402.67C327.777 399.762 327.553 396.834 327.5 393.9Z" fill="#263238"/>
<path d="M380.911 279.69C380.862 279.492 380.767 279.308 380.633 279.153C380.498 278.999 380.329 278.88 380.139 278.804C379.949 278.729 379.744 278.7 379.541 278.72C379.338 278.74 379.142 278.809 378.971 278.92L378.901 278.98C378.744 279.12 378.626 279.298 378.559 279.497C378.492 279.696 378.478 279.91 378.519 280.116C378.559 280.322 378.653 280.514 378.79 280.673C378.927 280.832 379.103 280.953 379.301 281.023C379.499 281.094 379.712 281.111 379.919 281.074C380.126 281.037 380.319 280.947 380.481 280.812C380.642 280.678 380.766 280.504 380.839 280.307C380.913 280.11 380.934 279.897 380.901 279.69H380.911Z" fill="white"/>
<path d="M370.479 254.27C370.43 254.072 370.335 253.888 370.201 253.733C370.067 253.579 369.897 253.46 369.708 253.384C369.518 253.309 369.312 253.28 369.109 253.3C368.906 253.32 368.71 253.389 368.539 253.5L368.479 253.56C368.322 253.7 368.204 253.878 368.137 254.077C368.07 254.277 368.056 254.49 368.097 254.696C368.137 254.902 368.231 255.094 368.368 255.253C368.505 255.412 368.681 255.533 368.879 255.603C369.077 255.674 369.29 255.691 369.497 255.654C369.704 255.617 369.898 255.527 370.059 255.392C370.22 255.258 370.344 255.084 370.418 254.887C370.491 254.69 370.512 254.477 370.479 254.27Z" fill="white"/>
<path d="M346.55 274.74C346.502 274.541 346.407 274.357 346.272 274.203C346.138 274.049 345.969 273.929 345.779 273.854C345.589 273.779 345.384 273.75 345.181 273.77C344.977 273.79 344.782 273.859 344.61 273.97H344.55C344.394 274.109 344.276 274.287 344.209 274.486C344.141 274.684 344.127 274.897 344.166 275.103C344.206 275.309 344.299 275.501 344.435 275.661C344.572 275.82 344.747 275.941 344.945 276.012C345.142 276.084 345.355 276.102 345.561 276.066C345.768 276.03 345.962 275.941 346.124 275.808C346.286 275.675 346.41 275.501 346.485 275.305C346.56 275.109 346.582 274.897 346.55 274.69V274.74Z" fill="white"/>
<path d="M320.68 264.46C320.633 264.262 320.539 264.078 320.406 263.924C320.272 263.769 320.104 263.649 319.915 263.574C319.726 263.498 319.521 263.469 319.318 263.49C319.115 263.51 318.921 263.579 318.75 263.69L318.68 263.75C318.523 263.89 318.405 264.068 318.338 264.267C318.272 264.466 318.258 264.68 318.298 264.886C318.338 265.092 318.432 265.284 318.569 265.443C318.706 265.602 318.883 265.723 319.081 265.793C319.279 265.864 319.491 265.881 319.698 265.844C319.905 265.807 320.099 265.717 320.26 265.582C320.422 265.448 320.545 265.274 320.619 265.077C320.692 264.88 320.713 264.667 320.68 264.46Z" fill="white"/>
<path d="M316.109 254.33C316.061 254.131 315.965 253.947 315.831 253.793C315.697 253.639 315.528 253.519 315.338 253.444C315.148 253.368 314.943 253.34 314.739 253.36C314.536 253.38 314.341 253.448 314.169 253.56L314.099 253.62C313.938 253.759 313.816 253.939 313.746 254.14C313.676 254.342 313.659 254.558 313.699 254.768C313.738 254.978 313.832 255.173 313.971 255.335C314.11 255.497 314.289 255.62 314.49 255.692C314.691 255.763 314.907 255.78 315.117 255.742C315.327 255.704 315.523 255.611 315.686 255.473C315.849 255.335 315.973 255.157 316.045 254.957C316.118 254.756 316.136 254.54 316.099 254.33H316.109Z" fill="white"/>
<path d="M318.1 242.63C318.051 242.431 317.956 242.247 317.821 242.093C317.687 241.939 317.518 241.819 317.328 241.744C317.138 241.669 316.933 241.64 316.73 241.66C316.526 241.68 316.331 241.749 316.159 241.86L316.089 241.91C315.933 242.049 315.815 242.227 315.748 242.426C315.68 242.625 315.666 242.837 315.706 243.043C315.745 243.249 315.838 243.442 315.974 243.601C316.111 243.76 316.286 243.882 316.484 243.953C316.681 244.024 316.894 244.042 317.1 244.006C317.307 243.97 317.501 243.881 317.663 243.748C317.825 243.615 317.949 243.441 318.024 243.245C318.099 243.049 318.121 242.837 318.089 242.63H318.1Z" fill="white"/>
<path d="M303.769 258.73C303.721 258.532 303.626 258.348 303.491 258.193C303.357 258.039 303.188 257.92 302.998 257.844C302.808 257.769 302.603 257.74 302.4 257.76C302.196 257.78 302.001 257.849 301.829 257.96L301.759 258.01C301.603 258.149 301.485 258.327 301.417 258.526C301.35 258.725 301.336 258.938 301.375 259.144C301.415 259.35 301.508 259.542 301.644 259.701C301.781 259.86 301.956 259.982 302.154 260.053C302.351 260.124 302.564 260.142 302.77 260.106C302.977 260.071 303.171 259.982 303.333 259.848C303.495 259.715 303.619 259.542 303.694 259.346C303.769 259.15 303.791 258.937 303.759 258.73H303.769Z" fill="white"/>
<path d="M337 263.37C336.953 263.171 336.859 262.987 336.726 262.833C336.593 262.679 336.424 262.559 336.235 262.483C336.046 262.408 335.841 262.379 335.639 262.399C335.436 262.42 335.241 262.488 335.07 262.6L335 262.66C334.843 262.8 334.726 262.978 334.659 263.177C334.592 263.376 334.578 263.589 334.618 263.795C334.659 264.002 334.752 264.194 334.889 264.353C335.027 264.512 335.203 264.633 335.401 264.703C335.599 264.773 335.812 264.791 336.019 264.754C336.225 264.717 336.419 264.627 336.58 264.492C336.742 264.358 336.865 264.183 336.939 263.986C337.013 263.79 337.034 263.577 337 263.37Z" fill="white"/>
<path d="M308.859 284.24C308.811 284.041 308.715 283.857 308.581 283.703C308.447 283.549 308.278 283.429 308.088 283.354C307.898 283.279 307.693 283.25 307.49 283.27C307.286 283.29 307.091 283.359 306.919 283.47H306.849C306.692 283.609 306.575 283.787 306.507 283.986C306.44 284.184 306.426 284.397 306.465 284.603C306.505 284.809 306.598 285.001 306.734 285.161C306.871 285.32 307.046 285.441 307.244 285.512C307.441 285.584 307.653 285.602 307.86 285.566C308.067 285.53 308.261 285.441 308.423 285.308C308.585 285.175 308.709 285.001 308.784 284.805C308.859 284.609 308.881 284.397 308.849 284.19L308.859 284.24Z" fill="white"/>
<path d="M283.14 344.26C283.092 344.061 282.996 343.877 282.862 343.723C282.728 343.569 282.559 343.449 282.369 343.374C282.179 343.299 281.974 343.27 281.771 343.29C281.567 343.31 281.372 343.379 281.2 343.49L281.14 343.54C280.984 343.679 280.866 343.857 280.798 344.056C280.731 344.254 280.717 344.467 280.756 344.673C280.796 344.879 280.889 345.071 281.025 345.231C281.162 345.39 281.337 345.511 281.535 345.582C281.732 345.654 281.944 345.672 282.151 345.636C282.358 345.6 282.552 345.511 282.714 345.378C282.876 345.245 283 345.071 283.075 344.875C283.15 344.679 283.172 344.467 283.14 344.26Z" fill="white"/>
<path d="M292.319 309.64C292.27 309.441 292.175 309.257 292.041 309.103C291.907 308.949 291.738 308.829 291.548 308.754C291.358 308.678 291.152 308.65 290.949 308.67C290.746 308.69 290.55 308.759 290.379 308.87L290.309 308.93C290.152 309.07 290.034 309.248 289.967 309.447C289.9 309.646 289.886 309.859 289.927 310.066C289.967 310.272 290.061 310.464 290.198 310.623C290.335 310.782 290.512 310.903 290.71 310.973C290.908 311.043 291.12 311.061 291.327 311.024C291.534 310.987 291.728 310.897 291.889 310.762C292.05 310.628 292.174 310.453 292.248 310.256C292.321 310.06 292.342 309.847 292.309 309.64H292.319Z" fill="white"/>
<path d="M360 248.86C359.951 248.661 359.856 248.477 359.722 248.323C359.588 248.169 359.419 248.049 359.229 247.974C359.039 247.899 358.834 247.87 358.63 247.89C358.427 247.91 358.231 247.979 358.06 248.09L357.99 248.14C357.833 248.279 357.715 248.457 357.648 248.656C357.581 248.855 357.566 249.067 357.606 249.273C357.646 249.479 357.738 249.672 357.875 249.831C358.011 249.99 358.187 250.112 358.384 250.183C358.582 250.254 358.794 250.272 359.001 250.236C359.208 250.2 359.401 250.111 359.563 249.978C359.725 249.845 359.85 249.671 359.925 249.475C359.999 249.279 360.022 249.067 359.99 248.86H360Z" fill="white"/>
<path d="M392.24 317.78C392.191 317.581 392.096 317.397 391.962 317.243C391.828 317.089 391.659 316.969 391.469 316.894C391.279 316.819 391.074 316.79 390.87 316.81C390.667 316.83 390.471 316.899 390.3 317.01L390.23 317.07C390.069 317.21 389.947 317.389 389.877 317.591C389.806 317.792 389.79 318.008 389.83 318.218C389.869 318.428 389.963 318.623 390.102 318.786C390.241 318.948 390.419 319.07 390.62 319.142C390.822 319.213 391.038 319.231 391.248 319.192C391.458 319.154 391.654 319.061 391.817 318.923C391.98 318.786 392.103 318.607 392.176 318.407C392.248 318.206 392.267 317.99 392.23 317.78H392.24Z" fill="white"/>
<path d="M404.81 258.47C404.763 258.272 404.669 258.087 404.536 257.933C404.403 257.779 404.234 257.659 404.045 257.584C403.856 257.508 403.651 257.479 403.448 257.499C403.246 257.52 403.051 257.588 402.88 257.7L402.81 257.75C402.653 257.889 402.536 258.067 402.468 258.266C402.401 258.464 402.386 258.677 402.426 258.883C402.466 259.089 402.559 259.281 402.695 259.441C402.831 259.6 403.007 259.721 403.204 259.792C403.402 259.863 403.614 259.882 403.821 259.846C404.028 259.81 404.222 259.721 404.384 259.588C404.546 259.455 404.67 259.281 404.745 259.085C404.82 258.889 404.842 258.677 404.81 258.47Z" fill="white"/>
<path d="M399.881 297.31C399.832 297.111 399.737 296.927 399.603 296.773C399.468 296.619 399.299 296.499 399.109 296.424C398.919 296.348 398.714 296.32 398.511 296.34C398.308 296.36 398.112 296.428 397.941 296.54L397.871 296.6C397.709 296.739 397.587 296.919 397.517 297.12C397.447 297.322 397.431 297.538 397.47 297.748C397.51 297.958 397.604 298.153 397.742 298.315C397.881 298.477 398.06 298.6 398.261 298.672C398.462 298.743 398.678 298.76 398.888 298.722C399.098 298.684 399.294 298.591 399.457 298.453C399.62 298.315 399.744 298.137 399.817 297.937C399.889 297.736 399.908 297.52 399.871 297.31H399.881Z" fill="white"/>
<path d="M371.67 325.36C371.622 325.161 371.527 324.977 371.392 324.823C371.258 324.669 371.089 324.549 370.899 324.474C370.709 324.399 370.504 324.37 370.301 324.39C370.097 324.41 369.902 324.479 369.73 324.59L369.66 324.65C369.504 324.79 369.386 324.968 369.319 325.167C369.252 325.366 369.238 325.58 369.278 325.786C369.319 325.992 369.412 326.184 369.55 326.343C369.687 326.502 369.863 326.623 370.061 326.693C370.259 326.763 370.472 326.781 370.679 326.744C370.886 326.707 371.079 326.617 371.241 326.482C371.402 326.348 371.526 326.173 371.599 325.977C371.673 325.78 371.694 325.567 371.66 325.36H371.67Z" fill="white"/>
<path d="M372.859 302C372.811 301.802 372.715 301.618 372.581 301.463C372.447 301.309 372.278 301.19 372.088 301.114C371.898 301.039 371.693 301.01 371.489 301.03C371.286 301.05 371.091 301.119 370.919 301.23L370.849 301.29C370.688 301.43 370.566 301.609 370.496 301.811C370.426 302.012 370.409 302.229 370.449 302.438C370.488 302.648 370.582 302.844 370.721 303.006C370.86 303.168 371.039 303.291 371.24 303.362C371.441 303.433 371.657 303.451 371.867 303.413C372.077 303.374 372.273 303.281 372.436 303.144C372.599 303.006 372.723 302.828 372.795 302.627C372.868 302.426 372.886 302.21 372.849 302H372.859Z" fill="white"/>
<path d="M389.869 258.67C389.822 258.472 389.728 258.288 389.595 258.133C389.462 257.979 389.294 257.859 389.104 257.784C388.915 257.708 388.71 257.679 388.508 257.7C388.305 257.72 388.11 257.789 387.939 257.9L387.869 257.96C387.713 258.1 387.595 258.278 387.528 258.477C387.461 258.676 387.447 258.89 387.487 259.096C387.528 259.302 387.621 259.494 387.759 259.653C387.896 259.812 388.072 259.933 388.27 260.003C388.468 260.073 388.681 260.091 388.888 260.054C389.095 260.017 389.288 259.927 389.45 259.792C389.611 259.658 389.735 259.484 389.808 259.287C389.882 259.09 389.903 258.877 389.869 258.67Z" fill="white"/>
<path d="M367 236.05C366.953 235.852 366.858 235.668 366.725 235.513C366.592 235.359 366.424 235.239 366.235 235.164C366.045 235.088 365.841 235.059 365.638 235.08C365.435 235.1 365.24 235.168 365.07 235.28L365 235.33C364.843 235.469 364.725 235.647 364.658 235.846C364.59 236.045 364.576 236.257 364.616 236.463C364.655 236.669 364.748 236.861 364.885 237.021C365.021 237.18 365.196 237.301 365.394 237.373C365.591 237.444 365.804 237.462 366.011 237.426C366.217 237.39 366.411 237.301 366.573 237.168C366.735 237.035 366.859 236.861 366.934 236.665C367.009 236.469 367.032 236.257 367 236.05Z" fill="white"/>
<path d="M366.131 272.52C366.084 272.32 365.99 272.135 365.856 271.979C365.722 271.824 365.553 271.703 365.362 271.627C365.171 271.552 364.965 271.523 364.761 271.545C364.557 271.566 364.361 271.636 364.191 271.75L364.131 271.8C363.974 271.939 363.856 272.117 363.789 272.316C363.721 272.515 363.707 272.727 363.747 272.933C363.786 273.139 363.879 273.332 364.015 273.491C364.152 273.65 364.327 273.772 364.525 273.843C364.722 273.914 364.935 273.932 365.141 273.896C365.348 273.86 365.542 273.771 365.704 273.638C365.866 273.505 365.99 273.331 366.065 273.135C366.14 272.939 366.162 272.727 366.131 272.52Z" fill="white"/>
<path d="M336.889 383.77C336.84 383.578 336.747 383.4 336.616 383.25C336.486 383.101 336.322 382.984 336.138 382.909C335.955 382.834 335.756 382.803 335.558 382.819C335.36 382.835 335.169 382.897 334.999 383L334.929 383.05C334.773 383.189 334.655 383.367 334.587 383.566C334.52 383.764 334.506 383.977 334.545 384.183C334.585 384.389 334.678 384.581 334.814 384.741C334.951 384.9 335.126 385.021 335.324 385.092C335.521 385.163 335.734 385.182 335.94 385.146C336.147 385.11 336.341 385.021 336.503 384.888C336.665 384.754 336.789 384.581 336.864 384.385C336.939 384.189 336.961 383.977 336.929 383.77H336.889Z" fill="white"/>
<path d="M303.34 365.47C303.292 365.271 303.196 365.087 303.062 364.933C302.928 364.779 302.759 364.659 302.569 364.584C302.379 364.509 302.174 364.48 301.971 364.5C301.767 364.52 301.572 364.589 301.4 364.7L301.33 364.76C301.174 364.9 301.056 365.078 300.989 365.277C300.922 365.476 300.908 365.689 300.948 365.896C300.989 366.102 301.082 366.294 301.219 366.453C301.357 366.612 301.533 366.733 301.731 366.803C301.929 366.873 302.142 366.891 302.349 366.854C302.556 366.817 302.749 366.727 302.911 366.592C303.072 366.458 303.196 366.283 303.269 366.087C303.343 365.89 303.364 365.677 303.33 365.47H303.34Z" fill="white"/>
<path d="M276.211 374.44C276.162 374.242 276.067 374.058 275.933 373.903C275.798 373.749 275.629 373.63 275.439 373.554C275.249 373.479 275.044 373.45 274.841 373.47C274.638 373.49 274.442 373.559 274.271 373.67L274.211 373.72C274.054 373.859 273.936 374.037 273.869 374.236C273.801 374.435 273.787 374.647 273.827 374.854C273.866 375.06 273.959 375.252 274.095 375.411C274.232 375.57 274.407 375.692 274.605 375.763C274.802 375.834 275.015 375.852 275.221 375.816C275.428 375.781 275.622 375.692 275.784 375.558C275.946 375.425 276.07 375.252 276.145 375.056C276.22 374.86 276.243 374.647 276.211 374.44Z" fill="white"/>
<path d="M273.31 389.89C273.262 389.691 273.167 389.507 273.032 389.353C272.898 389.199 272.729 389.079 272.539 389.004C272.349 388.928 272.144 388.9 271.941 388.92C271.737 388.94 271.542 389.009 271.37 389.12L271.3 389.17C271.144 389.309 271.026 389.487 270.959 389.686C270.891 389.884 270.877 390.097 270.916 390.303C270.956 390.509 271.049 390.701 271.185 390.861C271.322 391.02 271.497 391.141 271.695 391.212C271.892 391.283 272.105 391.302 272.311 391.266C272.518 391.23 272.712 391.141 272.874 391.008C273.036 390.874 273.16 390.701 273.235 390.505C273.31 390.309 273.332 390.097 273.3 389.89H273.31Z" fill="white"/>
<path d="M298.74 395.06C298.692 394.861 298.597 394.677 298.462 394.523C298.328 394.369 298.159 394.249 297.969 394.174C297.779 394.098 297.574 394.07 297.371 394.09C297.167 394.11 296.972 394.178 296.8 394.29L296.74 394.35C296.584 394.49 296.466 394.668 296.399 394.867C296.332 395.066 296.318 395.279 296.359 395.485C296.399 395.692 296.492 395.884 296.63 396.043C296.767 396.202 296.943 396.323 297.141 396.393C297.339 396.463 297.552 396.481 297.759 396.444C297.966 396.407 298.159 396.317 298.321 396.182C298.482 396.047 298.606 395.873 298.679 395.676C298.753 395.48 298.774 395.267 298.74 395.06Z" fill="white"/>
<path d="M290.24 360.46C290.191 360.262 290.096 360.078 289.962 359.923C289.828 359.769 289.659 359.65 289.469 359.574C289.279 359.499 289.074 359.47 288.87 359.49C288.667 359.51 288.471 359.579 288.3 359.69L288.23 359.75C288.069 359.89 287.947 360.069 287.877 360.271C287.806 360.472 287.79 360.689 287.83 360.898C287.869 361.108 287.963 361.304 288.102 361.466C288.241 361.628 288.419 361.751 288.62 361.822C288.822 361.893 289.038 361.911 289.248 361.872C289.458 361.834 289.654 361.741 289.817 361.604C289.98 361.466 290.103 361.288 290.176 361.087C290.248 360.886 290.267 360.67 290.23 360.46H290.24Z" fill="white"/>
<path d="M321.439 369.26C321.393 369.06 321.298 368.874 321.165 368.719C321.031 368.563 320.861 368.443 320.671 368.367C320.48 368.291 320.274 368.263 320.07 368.284C319.866 368.306 319.67 368.376 319.499 368.49L319.439 368.54C319.282 368.679 319.164 368.857 319.097 369.056C319.03 369.254 319.015 369.467 319.055 369.673C319.095 369.879 319.188 370.071 319.324 370.231C319.46 370.39 319.636 370.511 319.833 370.582C320.031 370.653 320.243 370.672 320.45 370.636C320.657 370.6 320.851 370.511 321.012 370.378C321.174 370.244 321.299 370.071 321.374 369.875C321.448 369.679 321.471 369.467 321.439 369.26Z" fill="white"/>
<path d="M395.609 360.41C395.564 360.21 395.471 360.024 395.338 359.869C395.206 359.713 395.037 359.592 394.847 359.516C394.657 359.441 394.451 359.412 394.248 359.434C394.044 359.455 393.849 359.526 393.679 359.64L393.609 359.69C393.452 359.829 393.334 360.007 393.267 360.206C393.2 360.404 393.185 360.617 393.225 360.823C393.265 361.029 393.357 361.221 393.494 361.381C393.63 361.54 393.806 361.661 394.003 361.732C394.201 361.803 394.413 361.822 394.62 361.786C394.827 361.75 395.02 361.661 395.182 361.528C395.344 361.394 395.469 361.221 395.544 361.025C395.618 360.829 395.641 360.617 395.609 360.41Z" fill="white"/>
<path d="M349.719 404.38C349.671 404.181 349.575 403.997 349.441 403.843C349.307 403.689 349.138 403.569 348.948 403.494C348.758 403.419 348.553 403.39 348.35 403.41C348.146 403.43 347.951 403.499 347.779 403.61L347.709 403.67C347.552 403.81 347.435 403.988 347.368 404.187C347.301 404.386 347.287 404.6 347.327 404.806C347.368 405.012 347.461 405.204 347.598 405.363C347.736 405.522 347.912 405.643 348.11 405.713C348.308 405.783 348.521 405.801 348.728 405.764C348.934 405.727 349.128 405.637 349.289 405.502C349.451 405.368 349.574 405.194 349.648 404.997C349.722 404.8 349.743 404.587 349.709 404.38H349.719Z" fill="white"/>
<path d="M369.289 379.9C369.242 379.702 369.148 379.518 369.015 379.363C368.882 379.209 368.713 379.089 368.524 379.014C368.335 378.938 368.13 378.909 367.928 378.93C367.725 378.95 367.53 379.019 367.359 379.13L367.289 379.19C367.132 379.33 367.015 379.508 366.948 379.707C366.881 379.906 366.867 380.12 366.907 380.326C366.948 380.532 367.041 380.724 367.178 380.883C367.316 381.042 367.492 381.163 367.69 381.233C367.888 381.303 368.101 381.321 368.308 381.284C368.515 381.247 368.708 381.157 368.87 381.022C369.031 380.888 369.154 380.714 369.228 380.517C369.302 380.32 369.323 380.107 369.289 379.9Z" fill="white"/>
<path d="M380.92 399.81C380.875 399.611 380.784 399.426 380.653 399.269C380.522 399.113 380.356 398.99 380.168 398.911C379.98 398.831 379.776 398.798 379.573 398.814C379.37 398.829 379.173 398.893 379 399L378.94 399.06C378.783 399.2 378.665 399.378 378.598 399.577C378.531 399.776 378.517 399.99 378.558 400.196C378.598 400.402 378.692 400.594 378.829 400.753C378.966 400.912 379.142 401.033 379.34 401.103C379.538 401.174 379.751 401.191 379.958 401.154C380.165 401.117 380.359 401.027 380.52 400.892C380.681 400.758 380.805 400.584 380.878 400.387C380.952 400.19 380.973 399.977 380.94 399.77L380.92 399.81Z" fill="white"/>
<path d="M348.569 295.55C348.52 295.351 348.425 295.167 348.291 295.013C348.157 294.859 347.988 294.739 347.798 294.664C347.608 294.589 347.402 294.56 347.199 294.58C346.996 294.6 346.8 294.669 346.629 294.78L346.559 294.84C346.402 294.98 346.284 295.158 346.217 295.357C346.15 295.556 346.136 295.769 346.177 295.976C346.217 296.182 346.311 296.374 346.448 296.533C346.585 296.692 346.762 296.813 346.96 296.883C347.158 296.953 347.37 296.971 347.577 296.934C347.784 296.897 347.978 296.807 348.139 296.672C348.3 296.538 348.424 296.363 348.498 296.167C348.571 295.97 348.592 295.757 348.559 295.55H348.569Z" fill="white"/>
<path d="M374.9 346.38C374.852 346.181 374.756 345.997 374.622 345.843C374.488 345.689 374.319 345.569 374.129 345.494C373.939 345.419 373.734 345.39 373.531 345.41C373.327 345.43 373.132 345.499 372.96 345.61L372.89 345.66C372.734 345.799 372.616 345.977 372.548 346.176C372.481 346.375 372.467 346.587 372.506 346.793C372.546 346.999 372.639 347.192 372.775 347.351C372.912 347.51 373.087 347.632 373.285 347.703C373.482 347.774 373.694 347.792 373.901 347.756C374.108 347.72 374.302 347.631 374.464 347.498C374.626 347.365 374.75 347.191 374.825 346.995C374.9 346.799 374.922 346.587 374.89 346.38H374.9Z" fill="white"/>
<path d="M366.359 365.63C366.311 365.431 366.215 365.247 366.081 365.093C365.947 364.939 365.778 364.819 365.588 364.744C365.398 364.669 365.193 364.64 364.99 364.66C364.786 364.68 364.591 364.749 364.419 364.86L364.349 364.91C364.192 365.049 364.075 365.227 364.007 365.426C363.94 365.625 363.926 365.837 363.965 366.043C364.005 366.249 364.098 366.442 364.234 366.601C364.371 366.76 364.546 366.882 364.744 366.953C364.941 367.024 365.153 367.042 365.36 367.006C365.567 366.97 365.761 366.881 365.923 366.748C366.085 366.615 366.209 366.441 366.284 366.245C366.359 366.049 366.381 365.837 366.349 365.63H366.359Z" fill="white"/>
<path d="M394.43 381.09C394.382 380.891 394.286 380.707 394.152 380.553C394.018 380.399 393.849 380.279 393.659 380.204C393.469 380.129 393.264 380.1 393.06 380.12C392.857 380.14 392.662 380.209 392.49 380.32L392.42 380.38C392.263 380.52 392.146 380.698 392.079 380.897C392.012 381.096 391.998 381.31 392.038 381.516C392.079 381.722 392.172 381.914 392.309 382.073C392.447 382.232 392.623 382.353 392.821 382.423C393.019 382.493 393.232 382.511 393.439 382.474C393.645 382.437 393.839 382.347 394 382.212C394.162 382.078 394.285 381.904 394.359 381.707C394.433 381.51 394.454 381.297 394.42 381.09H394.43Z" fill="white"/>
<path d="M317.619 403.42C317.573 403.22 317.478 403.034 317.345 402.879C317.211 402.724 317.041 402.603 316.851 402.527C316.66 402.451 316.454 402.423 316.25 402.444C316.046 402.466 315.85 402.536 315.679 402.65L315.609 402.7C315.452 402.839 315.334 403.017 315.267 403.216C315.2 403.414 315.185 403.627 315.225 403.833C315.265 404.039 315.357 404.231 315.494 404.391C315.63 404.55 315.806 404.671 316.003 404.742C316.201 404.814 316.413 404.832 316.62 404.796C316.827 404.76 317.02 404.671 317.182 404.538C317.344 404.405 317.469 404.231 317.544 404.035C317.618 403.839 317.641 403.627 317.609 403.42H317.619Z" fill="white"/>
<path d="M253.619 397.57C253.57 397.371 253.475 397.187 253.341 397.033C253.207 396.879 253.038 396.759 252.848 396.684C252.658 396.609 252.453 396.58 252.249 396.6C252.046 396.62 251.85 396.689 251.679 396.8L251.609 396.86C251.448 397 251.326 397.179 251.256 397.381C251.185 397.582 251.169 397.798 251.209 398.008C251.248 398.218 251.342 398.413 251.481 398.576C251.619 398.738 251.798 398.861 251.999 398.932C252.2 399.003 252.417 399.021 252.627 398.982C252.836 398.944 253.033 398.851 253.196 398.713C253.358 398.576 253.482 398.398 253.555 398.197C253.627 397.996 253.646 397.78 253.609 397.57H253.619Z" fill="white"/>
<path d="M310 387.06C309.951 386.861 309.856 386.677 309.722 386.523C309.588 386.369 309.418 386.249 309.229 386.174C309.039 386.098 308.833 386.07 308.63 386.09C308.427 386.11 308.231 386.178 308.06 386.29L307.99 386.35C307.828 386.489 307.707 386.669 307.636 386.87C307.566 387.072 307.55 387.288 307.589 387.498C307.629 387.708 307.723 387.903 307.862 388.065C308 388.227 308.179 388.35 308.38 388.422C308.581 388.493 308.798 388.51 309.007 388.472C309.217 388.434 309.414 388.341 309.576 388.203C309.739 388.065 309.863 387.887 309.936 387.687C310.008 387.486 310.027 387.27 309.99 387.06H310Z" fill="white"/>
<path d="M256 375.63C255.953 375.43 255.859 375.244 255.725 375.089C255.591 374.933 255.422 374.813 255.231 374.737C255.041 374.661 254.834 374.633 254.63 374.654C254.426 374.676 254.23 374.746 254.06 374.86L254 374.91C253.843 375.049 253.725 375.227 253.658 375.426C253.59 375.624 253.576 375.837 253.616 376.043C253.655 376.249 253.748 376.441 253.885 376.601C254.021 376.76 254.196 376.881 254.394 376.952C254.591 377.023 254.804 377.042 255.011 377.006C255.217 376.97 255.411 376.881 255.573 376.748C255.735 376.615 255.859 376.441 255.934 376.245C256.009 376.049 256.032 375.837 256 375.63Z" fill="white"/>
<path d="M346.199 339.33C346.151 339.131 346.055 338.947 345.921 338.793C345.787 338.639 345.618 338.519 345.428 338.444C345.238 338.368 345.033 338.34 344.829 338.36C344.626 338.38 344.431 338.448 344.259 338.56L344.189 338.61C344.032 338.749 343.914 338.927 343.847 339.126C343.78 339.324 343.765 339.537 343.805 339.743C343.845 339.949 343.938 340.141 344.074 340.301C344.21 340.46 344.386 340.581 344.583 340.652C344.781 340.723 344.993 340.742 345.2 340.706C345.407 340.67 345.601 340.581 345.762 340.448C345.924 340.314 346.049 340.141 346.124 339.945C346.198 339.749 346.221 339.537 346.189 339.33H346.199Z" fill="white"/>
<path d="M327.32 284.24C327.272 284.041 327.176 283.857 327.042 283.703C326.908 283.549 326.739 283.429 326.549 283.354C326.359 283.279 326.154 283.25 325.951 283.27C325.747 283.29 325.552 283.359 325.38 283.47H325.31C325.153 283.609 325.036 283.787 324.968 283.986C324.901 284.184 324.886 284.397 324.926 284.603C324.966 284.809 325.059 285.001 325.195 285.161C325.331 285.32 325.507 285.441 325.704 285.512C325.902 285.584 326.114 285.602 326.321 285.566C326.528 285.53 326.722 285.441 326.884 285.308C327.046 285.175 327.17 285.001 327.245 284.805C327.32 284.609 327.342 284.397 327.31 284.19L327.32 284.24Z" fill="white"/>
<path d="M322.6 332C322.551 331.802 322.456 331.618 322.322 331.463C322.188 331.309 322.019 331.19 321.829 331.114C321.639 331.039 321.433 331.01 321.23 331.03C321.027 331.05 320.831 331.119 320.66 331.23L320.6 331.29C320.443 331.43 320.325 331.608 320.258 331.807C320.191 332.007 320.178 332.22 320.218 332.426C320.258 332.632 320.352 332.824 320.489 332.983C320.626 333.142 320.802 333.263 321 333.333C321.198 333.404 321.411 333.421 321.618 333.384C321.825 333.347 322.019 333.257 322.18 333.122C322.341 332.988 322.465 332.814 322.539 332.617C322.612 332.42 322.633 332.207 322.6 332Z" fill="white"/>
<path d="M314.92 316.43C314.871 316.231 314.776 316.047 314.642 315.893C314.507 315.739 314.338 315.619 314.148 315.544C313.958 315.469 313.753 315.44 313.55 315.46C313.347 315.48 313.151 315.549 312.98 315.66H312.92C312.763 315.799 312.645 315.977 312.578 316.176C312.51 316.374 312.496 316.587 312.536 316.793C312.575 316.999 312.668 317.191 312.804 317.351C312.941 317.51 313.116 317.631 313.314 317.702C313.511 317.773 313.724 317.792 313.93 317.756C314.137 317.72 314.331 317.631 314.493 317.498C314.655 317.365 314.779 317.191 314.854 316.995C314.929 316.799 314.952 316.587 314.92 316.38V316.43Z" fill="white"/>
<path d="M348.89 365.41C348.842 365.211 348.747 365.027 348.612 364.873C348.478 364.719 348.309 364.599 348.119 364.524C347.929 364.449 347.724 364.42 347.521 364.44C347.317 364.46 347.122 364.529 346.95 364.64L346.88 364.7C346.719 364.839 346.597 365.019 346.527 365.22C346.457 365.422 346.441 365.638 346.48 365.848C346.52 366.058 346.613 366.253 346.752 366.415C346.891 366.577 347.07 366.7 347.271 366.772C347.472 366.843 347.688 366.861 347.898 366.822C348.108 366.784 348.304 366.691 348.467 366.553C348.63 366.416 348.754 366.237 348.826 366.037C348.899 365.836 348.918 365.62 348.88 365.41H348.89Z" fill="white"/>
<path d="M324.94 355.8C324.897 355.598 324.806 355.409 324.674 355.25C324.542 355.091 324.372 354.966 324.181 354.887C323.99 354.809 323.783 354.778 323.577 354.797C323.371 354.817 323.173 354.886 323 355L322.93 355.06C322.773 355.2 322.655 355.378 322.588 355.577C322.522 355.776 322.508 355.99 322.548 356.196C322.588 356.402 322.682 356.594 322.819 356.753C322.956 356.912 323.133 357.033 323.331 357.103C323.529 357.173 323.741 357.191 323.948 357.154C324.155 357.117 324.349 357.027 324.51 356.892C324.672 356.758 324.795 356.584 324.869 356.387C324.942 356.19 324.963 355.977 324.93 355.77L324.94 355.8Z" fill="white"/>
<path d="M335.189 303.05C335.142 302.852 335.048 302.668 334.915 302.513C334.782 302.359 334.613 302.239 334.424 302.164C334.235 302.088 334.03 302.059 333.827 302.08C333.625 302.1 333.43 302.168 333.259 302.28L333.189 302.33C333.032 302.469 332.914 302.647 332.847 302.846C332.78 303.045 332.765 303.257 332.805 303.463C332.845 303.669 332.938 303.861 333.074 304.021C333.21 304.18 333.386 304.301 333.583 304.373C333.781 304.444 333.993 304.462 334.2 304.426C334.407 304.39 334.601 304.301 334.762 304.168C334.924 304.035 335.049 303.861 335.124 303.665C335.198 303.469 335.221 303.257 335.189 303.05Z" fill="white"/>
<path d="M298.74 340.4C298.692 340.201 298.597 340.018 298.462 339.863C298.328 339.709 298.159 339.589 297.969 339.514C297.779 339.439 297.574 339.41 297.371 339.43C297.167 339.45 296.972 339.519 296.8 339.63L296.74 339.69C296.584 339.83 296.466 340.008 296.399 340.207C296.332 340.406 296.318 340.62 296.359 340.826C296.399 341.032 296.492 341.224 296.63 341.383C296.767 341.542 296.943 341.663 297.141 341.733C297.339 341.803 297.552 341.821 297.759 341.784C297.966 341.747 298.159 341.657 298.321 341.522C298.482 341.388 298.606 341.214 298.679 341.017C298.753 340.82 298.774 340.607 298.74 340.4Z" fill="white"/>
<path d="M355 323.26C354.951 323.061 354.856 322.877 354.722 322.723C354.588 322.569 354.419 322.449 354.229 322.374C354.039 322.299 353.834 322.27 353.63 322.29C353.427 322.31 353.231 322.379 353.06 322.49L352.99 322.54C352.833 322.679 352.715 322.857 352.648 323.056C352.581 323.254 352.566 323.467 352.606 323.673C352.646 323.879 352.738 324.071 352.875 324.231C353.011 324.39 353.187 324.511 353.384 324.582C353.582 324.654 353.794 324.672 354.001 324.636C354.208 324.6 354.401 324.511 354.563 324.378C354.725 324.245 354.85 324.071 354.925 323.875C354.999 323.679 355.022 323.467 354.99 323.26H355Z" fill="white"/>
<path d="M407.19 278.5C407.141 278.302 407.046 278.118 406.912 277.963C406.778 277.809 406.609 277.69 406.419 277.614C406.229 277.539 406.024 277.51 405.82 277.53C405.617 277.55 405.421 277.619 405.25 277.73L405.18 277.79C405.023 277.93 404.905 278.108 404.838 278.307C404.772 278.507 404.758 278.72 404.798 278.926C404.838 279.132 404.932 279.324 405.069 279.483C405.206 279.642 405.383 279.763 405.581 279.833C405.779 279.904 405.991 279.921 406.198 279.884C406.405 279.847 406.599 279.757 406.76 279.622C406.922 279.488 407.045 279.314 407.119 279.117C407.192 278.92 407.213 278.707 407.18 278.5H407.19Z" fill="white"/>
<path d="M386 244.61C385.952 244.411 385.857 244.227 385.722 244.073C385.588 243.919 385.419 243.799 385.229 243.724C385.039 243.649 384.834 243.62 384.631 243.64C384.427 243.66 384.232 243.729 384.06 243.84L383.99 243.9C383.834 244.04 383.716 244.218 383.649 244.417C383.582 244.616 383.568 244.83 383.609 245.036C383.649 245.242 383.742 245.434 383.88 245.593C384.017 245.752 384.193 245.873 384.391 245.943C384.589 246.013 384.802 246.031 385.009 245.994C385.216 245.957 385.409 245.867 385.571 245.732C385.732 245.598 385.856 245.423 385.929 245.227C386.003 245.03 386.024 244.817 385.99 244.61H386Z" fill="white"/>
<path d="M344.939 248.86C344.891 248.661 344.795 248.477 344.661 248.323C344.527 248.169 344.358 248.049 344.168 247.974C343.978 247.899 343.773 247.87 343.57 247.89C343.366 247.91 343.171 247.979 342.999 248.09L342.929 248.14C342.773 248.279 342.655 248.457 342.587 248.656C342.52 248.855 342.506 249.067 342.545 249.273C342.585 249.479 342.678 249.672 342.814 249.831C342.951 249.99 343.126 250.112 343.324 250.183C343.521 250.254 343.734 250.272 343.94 250.236C344.147 250.2 344.341 250.111 344.503 249.978C344.665 249.845 344.789 249.671 344.864 249.475C344.939 249.279 344.961 249.067 344.929 248.86H344.939Z" fill="white"/>
<path d="M303.049 127.21C295.179 132.21 292.049 142.72 293.529 148.93C294.289 152.06 295.709 155.21 295.089 158.36C294.559 161.09 292.589 163.28 291.089 165.64C288.617 169.613 287.482 174.272 287.849 178.936C288.215 183.601 290.065 188.025 293.127 191.563C296.188 195.101 300.302 197.566 304.865 198.598C309.429 199.631 314.203 199.176 318.489 197.3" fill="#263238"/>
<path d="M298.389 168.2C279.229 126.06 324.809 104.89 349.669 111.91C373.039 118.51 383.009 130.14 386.859 145.77C390.709 161.4 390.519 178.35 384.389 193.24C381.389 200.58 375.929 208.04 368.039 208.96" fill="#263238"/>
<path d="M320.839 271.11C320.509 250.97 320.269 223.32 320.269 223.43C320.269 223.54 302.999 220.56 299.369 198C297.589 186.77 298.159 168.36 299.099 153.31C299.959 139.76 308.929 123.14 322.429 124.57L364.579 135.22C366.558 135.427 368.386 136.372 369.701 137.865C371.017 139.358 371.722 141.29 371.679 143.28L368.939 230.45" fill="#FFBE9D"/>
<path d="M306.639 167.08C306.623 167.829 306.9 168.556 307.412 169.103C307.924 169.651 308.63 169.976 309.379 170.01C309.745 170.044 310.115 170.005 310.465 169.894C310.816 169.783 311.14 169.602 311.42 169.364C311.7 169.125 311.929 168.833 312.094 168.504C312.258 168.175 312.356 167.817 312.379 167.45C312.393 166.7 312.115 165.974 311.604 165.426C311.093 164.877 310.388 164.549 309.639 164.51C309.273 164.477 308.903 164.518 308.553 164.63C308.202 164.742 307.877 164.924 307.598 165.163C307.318 165.402 307.09 165.695 306.925 166.025C306.76 166.354 306.663 166.713 306.639 167.08Z" fill="#263238"/>
<path d="M336.559 167.08C336.545 167.828 336.824 168.551 337.336 169.097C337.847 169.642 338.552 169.966 339.299 170C339.665 170.034 340.034 169.995 340.385 169.884C340.736 169.773 341.06 169.592 341.34 169.354C341.62 169.115 341.849 168.823 342.013 168.494C342.178 168.165 342.275 167.807 342.299 167.44C342.316 166.69 342.038 165.964 341.526 165.417C341.014 164.869 340.308 164.544 339.559 164.51C339.192 164.476 338.822 164.516 338.471 164.627C338.12 164.739 337.795 164.92 337.515 165.16C337.235 165.399 337.006 165.693 336.842 166.023C336.678 166.353 336.582 166.712 336.559 167.08Z" fill="#263238"/>
<path d="M303.52 161.82C303.87 162.21 306.12 160.66 309.23 160.82C312.34 160.98 314.57 162.56 314.93 162.19C315.1 162.03 314.75 161.34 313.78 160.58C312.466 159.598 310.879 159.049 309.24 159.01C307.619 158.953 306.023 159.411 304.68 160.32C303.7 161 303.35 161.64 303.52 161.82Z" fill="#263238"/>
<path d="M333.101 162.56C333.461 162.94 335.651 161.3 338.761 161.3C341.871 161.3 344.171 162.84 344.501 162.46C344.671 162.29 344.301 161.61 343.301 160.89C341.95 159.957 340.342 159.467 338.701 159.49C337.081 159.49 335.504 160.009 334.201 160.97C333.241 161.71 332.921 162.39 333.101 162.56Z" fill="#263238"/>
<path d="M322.42 186.56C322.42 186.38 320.5 186.05 317.36 185.64C316.56 185.56 315.81 185.4 315.68 184.86C315.609 184.037 315.794 183.213 316.21 182.5C316.95 180.58 317.74 178.56 318.56 176.44C321.83 167.82 324.19 160.72 323.84 160.59C323.49 160.46 320.56 167.35 317.3 175.98L315.04 182.08C314.539 183.039 314.394 184.144 314.63 185.2C314.746 185.48 314.924 185.73 315.151 185.931C315.378 186.132 315.648 186.278 315.94 186.36C316.379 186.483 316.833 186.547 317.29 186.55C320.45 186.72 322.41 186.73 322.42 186.56Z" fill="#263238"/>
<path d="M320.27 223.43C330.901 223.592 341.369 220.802 350.51 215.37C350.51 215.37 342.87 231.07 320.27 228.96V223.43Z" fill="#EB996E"/>
<path d="M332.331 158.13C332.631 158.98 335.751 158.57 339.401 159.02C343.051 159.47 346.011 160.45 346.501 159.69C346.721 159.33 346.201 158.53 345.011 157.69C343.419 156.685 341.619 156.056 339.748 155.85C337.877 155.644 335.983 155.866 334.211 156.5C332.871 157.06 332.191 157.73 332.331 158.13Z" fill="#263238"/>
<path d="M304.239 154C304.789 154.71 306.939 154 309.519 153.94C312.099 153.88 314.289 154.42 314.789 153.68C315.009 153.32 314.669 152.61 313.709 151.94C312.435 151.117 310.935 150.711 309.419 150.78C307.904 150.81 306.434 151.305 305.209 152.2C304.299 152.91 303.999 153.64 304.239 154Z" fill="#263238"/>
<path d="M367.81 173C368.14 172.84 379.9 167.64 380.04 181.16C380.18 194.68 366.57 192.03 366.54 191.64C366.51 191.25 367.81 173 367.81 173Z" fill="#FFBE9D"/>
<path d="M370.619 186.46C370.679 186.46 370.859 186.62 371.259 186.8C371.824 187.025 372.454 187.025 373.019 186.8C374.439 186.26 375.619 183.98 375.659 181.54C375.689 180.382 375.453 179.232 374.969 178.18C374.84 177.758 374.609 177.374 374.297 177.062C373.985 176.75 373.601 176.519 373.179 176.39C372.908 176.32 372.621 176.348 372.369 176.469C372.117 176.589 371.915 176.795 371.799 177.05C371.619 177.43 371.709 177.7 371.639 177.72C371.569 177.74 371.339 177.5 371.449 176.94C371.52 176.605 371.703 176.305 371.969 176.09C372.152 175.947 372.36 175.842 372.583 175.78C372.806 175.718 373.039 175.701 373.269 175.73C373.825 175.834 374.345 176.079 374.779 176.442C375.213 176.804 375.547 177.271 375.749 177.8C376.338 178.964 376.633 180.255 376.609 181.56C376.549 184.28 375.179 186.85 373.229 187.43C372.867 187.539 372.486 187.566 372.112 187.509C371.738 187.452 371.382 187.312 371.069 187.1C370.649 186.79 370.579 186.48 370.619 186.46Z" fill="#EB996E"/>
<path d="M317.931 117.88C310.411 121.77 307.311 137.15 310.421 145.03C313.531 152.91 321.921 156.75 330.191 158.56C338.461 160.37 346.571 160.56 354.731 158.32C355.291 163.8 358.581 169.43 363.901 170.88C370.951 172.79 378.051 166.34 379.621 159.21C381.191 152.08 378.831 144.74 376.511 137.81" fill="#263238"/>
<path d="M377.58 166.93C377.58 166.93 377.24 167.33 376.53 167.93C375.538 168.77 374.5 169.554 373.42 170.28C371.807 171.393 370.033 172.253 368.16 172.83C365.821 173.568 363.306 173.529 360.99 172.72C358.711 171.801 356.801 170.152 355.56 168.03C354.556 166.335 353.893 164.46 353.61 162.51C353.413 161.213 353.343 159.9 353.4 158.59C353.379 158.11 353.436 157.631 353.57 157.17C353.72 157.17 353.57 159.22 354.15 162.41C354.493 164.264 355.171 166.039 356.15 167.65C357.338 169.605 359.122 171.126 361.24 171.99C363.407 172.738 365.754 172.787 367.95 172.13C369.767 171.604 371.5 170.827 373.1 169.82C375.88 168.08 377.5 166.82 377.58 166.93Z" fill="#263238"/>
<path d="M323.339 195.24C323.737 196.412 324.303 197.52 325.019 198.53C325.379 199.035 325.843 199.459 326.379 199.771C326.915 200.083 327.512 200.277 328.129 200.34C328.789 200.335 329.438 200.168 330.017 199.852C330.596 199.536 331.088 199.082 331.449 198.53C332.147 197.398 332.469 196.075 332.369 194.75C332.319 193.56 331.769 192.14 330.589 192C330.093 191.982 329.601 192.093 329.159 192.32L322.939 194.84" fill="#EB996E"/>
<path d="M325.82 200.35C325.82 200.16 327.22 200.71 329.14 199.94C330.228 199.519 331.122 198.711 331.65 197.67C331.948 197.035 332.109 196.344 332.122 195.643C332.136 194.942 332.002 194.246 331.73 193.6C331.586 193.27 331.404 192.958 331.19 192.67C330.94 192.41 330.98 192.42 330.72 192.46C330.46 192.5 330.05 192.72 329.72 192.85L328.72 193.27C327.39 193.81 326.18 194.27 325.17 194.66C323.17 195.42 321.84 195.82 321.78 195.66C321.72 195.5 322.9 194.86 324.86 193.92C325.86 193.45 327.01 192.92 328.32 192.31L329.32 191.86C329.69 191.71 329.96 191.55 330.46 191.39C330.758 191.291 331.081 191.291 331.38 191.39C331.653 191.506 331.891 191.693 332.07 191.93C332.737 192.797 333.14 193.839 333.231 194.93C333.321 196.02 333.095 197.114 332.58 198.08C332.248 198.693 331.797 199.234 331.255 199.671C330.713 200.109 330.089 200.435 329.42 200.63C328.55 200.915 327.619 200.953 326.73 200.74C326.09 200.63 325.8 200.42 325.82 200.35Z" fill="#263238"/>
<path d="M383.001 163.73C381.621 163.63 370.451 165.08 371.331 185.83C372.151 205.22 385.751 200.95 390.091 193.65C394.171 186.74 396.551 164.68 383.001 163.73Z" fill="#455A64"/>
<path d="M389.869 166.18C389.838 166.002 389.821 165.821 389.819 165.64C389.819 165.23 389.819 164.71 389.759 164.05C389.759 162.62 389.659 160.62 389.589 158.14C389.489 153.05 389.349 145.96 389.179 137.79L389.429 138.03H383.679L383.939 137.77C383.939 139.31 384.019 140.94 384.069 142.6C384.259 150.38 384.439 157.6 384.589 163.71V163.89H384.419C382.058 164.434 379.961 165.785 378.489 167.71C377.374 169.202 376.569 170.902 376.119 172.71C375.819 173.875 375.616 175.062 375.509 176.26C375.509 176.67 375.459 176.99 375.449 177.2C375.439 177.41 375.449 177.53 375.449 177.53C375.436 177.42 375.436 177.31 375.449 177.2C375.449 176.99 375.449 176.67 375.449 176.25C375.498 175.037 375.665 173.831 375.949 172.65C376.366 170.789 377.159 169.033 378.279 167.49C379.789 165.486 381.949 164.072 384.389 163.49L384.219 163.71C384.049 157.64 383.839 150.39 383.619 142.6C383.569 140.95 383.529 139.32 383.489 137.77V137.5H389.759V137.75C389.849 145.93 389.929 153.01 389.989 158.11C389.989 160.59 389.989 162.59 389.989 164.02C389.989 164.68 389.989 165.2 389.989 165.6C389.976 165.798 389.936 165.993 389.869 166.18Z" fill="#455A64"/>
<path d="M383 137.78C383 137.78 377.16 124.12 363.25 117.37C357.93 114.72 352.342 112.648 346.58 111.19C346.58 111.19 354.7 109.27 367.83 115.11C373.83 117.77 379.83 121.22 383.83 126.41C386.35 129.7 389.51 136.13 389.5 137.78H383Z" fill="#455A64"/>
<path d="M347 303.25C347 303.25 347.08 303.15 347.25 302.98C347.42 302.81 347.68 302.55 348 302.2C348.96 301.185 349.861 300.117 350.7 299C352.035 297.213 353.254 295.343 354.35 293.4C355.65 291.13 357.01 288.45 358.48 285.46C361.43 279.46 364.84 272.24 368.38 263.94C370.14 259.79 371.94 255.38 373.74 250.73L375.08 247.21C375.502 245.978 376.041 244.789 376.69 243.66C377.382 242.489 378.386 241.533 379.59 240.9C380.203 240.563 380.891 240.387 381.59 240.39C381.972 240.416 382.339 240.548 382.65 240.77C382.945 241.009 383.176 241.319 383.32 241.67V241.74V241.82C383.235 242.296 383.051 242.749 382.78 243.15C382.478 243.567 382.033 243.859 381.53 243.97C380.569 244.103 379.591 243.924 378.74 243.46C377.846 243.043 377.118 242.339 376.67 241.46C376.222 240.581 376.082 239.578 376.27 238.61C376.474 237.615 377.059 236.739 377.9 236.17C378.73 235.591 379.73 235.306 380.74 235.36C381.263 235.363 381.777 235.498 382.235 235.751C382.692 236.005 383.079 236.369 383.36 236.81C383.501 237.063 383.567 237.351 383.549 237.64C383.532 237.929 383.431 238.206 383.26 238.44C382.93 238.858 382.49 239.177 381.99 239.36C381.151 239.679 380.233 239.718 379.37 239.473C378.507 239.228 377.746 238.712 377.2 238C376.668 237.274 376.436 236.372 376.55 235.48C376.638 234.61 376.986 233.788 377.55 233.12C378.123 232.445 378.924 232.004 379.8 231.88C380.242 231.822 380.692 231.868 381.114 232.014C381.536 232.159 381.918 232.401 382.23 232.72C382.55 233.064 382.722 233.52 382.71 233.99C382.704 234.224 382.65 234.454 382.55 234.666C382.45 234.878 382.307 235.067 382.13 235.22C381.804 235.514 381.413 235.726 380.989 235.841C380.565 235.956 380.12 235.969 379.69 235.88C379.274 235.771 378.885 235.576 378.549 235.307C378.213 235.038 377.938 234.702 377.74 234.32C377.352 233.603 377.105 232.819 377.01 232.01C376.728 230.438 376.912 228.818 377.54 227.35C377.89 226.601 378.497 226.001 379.25 225.66C380.02 225.375 380.871 225.403 381.62 225.74C382.012 225.882 382.358 226.13 382.617 226.456C382.877 226.783 383.041 227.176 383.09 227.59C383.11 228.013 382.999 228.433 382.771 228.791C382.544 229.149 382.212 229.428 381.82 229.59C381.464 229.772 381.07 229.868 380.67 229.868C380.27 229.868 379.876 229.772 379.52 229.59C378.843 229.199 378.334 228.572 378.09 227.83C377.864 227.126 377.819 226.376 377.96 225.65C378.038 224.942 378.192 224.245 378.42 223.57C378.646 222.876 379.066 222.262 379.63 221.8C380.184 221.355 380.829 221.038 381.52 220.87C381.879 220.767 382.261 220.767 382.62 220.87C382.965 220.989 383.276 221.188 383.53 221.45C383.785 221.7 383.985 221.999 384.12 222.33C384.265 222.686 384.265 223.084 384.12 223.44C383.959 223.769 383.701 224.041 383.381 224.22C383.061 224.398 382.695 224.475 382.33 224.44C381.653 224.43 380.996 224.21 380.45 223.81C379.414 223.046 378.7 221.923 378.45 220.66C378.188 219.413 378.384 218.114 379 217C379.271 216.465 379.657 215.997 380.13 215.63C380.597 215.276 381.142 215.039 381.72 214.94C382.297 214.823 382.898 214.907 383.42 215.18C383.678 215.32 383.898 215.522 384.058 215.768C384.219 216.015 384.316 216.297 384.34 216.59C384.337 217.142 384.151 217.677 383.81 218.111C383.47 218.546 382.995 218.855 382.46 218.99C381.958 219.097 381.437 219.059 380.956 218.882C380.474 218.705 380.053 218.396 379.74 217.99C379.139 217.267 378.789 216.369 378.74 215.43C378.827 213.795 379.164 212.183 379.74 210.65C380.15 209.21 380.52 207.89 380.86 206.71C381.53 204.36 382.05 202.53 382.42 201.27C382.59 200.66 382.73 200.19 382.83 199.86C382.93 199.53 382.99 199.38 382.99 199.38C382.99 199.38 382.99 199.55 382.88 199.87C382.77 200.19 382.67 200.69 382.52 201.3C382.18 202.57 381.68 204.41 381.05 206.76L379.98 210.71C379.64 212.16 378.98 213.71 379.05 215.41C379.123 216.289 379.473 217.123 380.05 217.79C380.326 218.149 380.698 218.423 381.122 218.582C381.546 218.741 382.006 218.778 382.45 218.69C382.899 218.574 383.299 218.318 383.59 217.958C383.882 217.597 384.05 217.153 384.07 216.69C384.049 216.455 383.971 216.229 383.842 216.032C383.713 215.835 383.537 215.673 383.33 215.56C382.878 215.336 382.364 215.269 381.87 215.37C381.346 215.46 380.852 215.676 380.43 216C380.011 216.34 379.67 216.766 379.43 217.25C378.934 218.276 378.804 219.44 379.06 220.55C379.3 221.71 379.963 222.74 380.92 223.44C381.399 223.784 381.97 223.976 382.56 223.99C382.837 224.023 383.118 223.971 383.364 223.841C383.611 223.71 383.812 223.508 383.94 223.26C384.002 222.982 383.985 222.693 383.891 222.425C383.797 222.156 383.631 221.919 383.41 221.74C383.204 221.532 382.955 221.371 382.68 221.27C382.395 221.195 382.095 221.195 381.81 221.27C381.18 221.407 380.595 221.702 380.111 222.127C379.626 222.552 379.258 223.093 379.04 223.7C378.822 224.348 378.678 225.019 378.61 225.7C378.475 226.366 378.516 227.055 378.73 227.7C378.929 228.33 379.357 228.861 379.93 229.19C380.22 229.335 380.54 229.411 380.865 229.411C381.19 229.411 381.51 229.335 381.8 229.19C382.099 229.073 382.355 228.868 382.534 228.602C382.713 228.335 382.806 228.021 382.8 227.7C382.756 227.377 382.623 227.072 382.416 226.82C382.21 226.568 381.938 226.377 381.63 226.27C380.996 225.993 380.281 225.968 379.63 226.2C378.991 226.498 378.478 227.011 378.18 227.65C377.606 229.031 377.443 230.548 377.71 232.02C377.798 232.766 378.025 233.488 378.38 234.15C378.543 234.468 378.77 234.748 379.047 234.974C379.325 235.199 379.646 235.365 379.99 235.46C380.342 235.535 380.706 235.527 381.054 235.435C381.401 235.343 381.722 235.17 381.99 234.93C382.115 234.819 382.217 234.684 382.289 234.533C382.36 234.381 382.401 234.217 382.407 234.05C382.414 233.883 382.386 233.716 382.327 233.559C382.267 233.403 382.176 233.26 382.06 233.14C381.8 232.883 381.485 232.688 381.138 232.572C380.791 232.456 380.422 232.421 380.06 232.47C379.308 232.58 378.624 232.965 378.14 233.55C377.615 234.113 377.295 234.836 377.23 235.603C377.164 236.37 377.358 237.136 377.78 237.78C378.26 238.396 378.925 238.842 379.677 239.055C380.428 239.267 381.228 239.234 381.96 238.96C382.352 238.799 382.696 238.541 382.96 238.21C383.073 238.055 383.138 237.87 383.149 237.679C383.159 237.487 383.115 237.297 383.02 237.13C382.78 236.77 382.454 236.474 382.072 236.27C381.69 236.066 381.263 235.959 380.83 235.96C379.946 235.891 379.066 236.137 378.347 236.655C377.627 237.173 377.115 237.93 376.9 238.79C376.737 239.625 376.855 240.49 377.234 241.252C377.614 242.013 378.235 242.628 379 243C379.743 243.422 380.603 243.59 381.45 243.48C381.831 243.361 382.169 243.131 382.418 242.819C382.668 242.507 382.818 242.128 382.85 241.73V241.88C382.753 241.604 382.577 241.362 382.345 241.184C382.112 241.006 381.832 240.9 381.54 240.88C380.92 240.877 380.31 241.035 379.77 241.34C378.643 241.93 377.704 242.823 377.06 243.92C376.426 245.016 375.9 246.172 375.49 247.37L374.13 250.9C372.33 255.54 370.51 259.9 368.73 264.1C365.17 272.4 361.73 279.64 358.73 285.6C357.24 288.6 355.86 291.25 354.53 293.52C353.409 295.456 352.163 297.317 350.8 299.09C349.686 300.609 348.412 302.003 347 303.25Z" fill="white"/>
<path d="M395.089 154C394.967 152.729 394.661 151.482 394.179 150.3C392.726 147.119 390.178 144.567 386.999 143.11C384.816 142.124 382.47 141.551 380.079 141.42C377.327 141.278 374.568 141.487 371.869 142.04C366.139 143.1 360.119 145.57 353.379 146.59C350.093 147.025 346.765 147.025 343.479 146.59C340.429 146.131 337.442 145.318 334.579 144.17C329.718 142.212 325.298 139.302 321.579 135.61C319.076 133.141 316.959 130.309 315.299 127.21C315.019 126.738 314.771 126.246 314.559 125.74L314.079 124.63C313.959 124.36 313.869 124.13 313.789 123.95C313.751 123.874 313.724 123.793 313.709 123.71C313.762 123.777 313.805 123.851 313.839 123.93L314.169 124.59L314.699 125.67C314.927 126.17 315.188 126.654 315.479 127.12C317.194 130.154 319.336 132.925 321.839 135.35C327.743 141.132 335.331 144.89 343.509 146.08C346.748 146.51 350.03 146.51 353.269 146.08C359.919 145.08 365.949 142.62 371.749 141.58C374.486 141.033 377.282 140.838 380.069 141C382.511 141.148 384.902 141.755 387.119 142.79C390.352 144.304 392.917 146.951 394.329 150.23C394.68 151.122 394.912 152.057 395.019 153.01V153.75C395.055 153.829 395.078 153.914 395.089 154Z" fill="#455A64"/>
<path d="M380 132.45C379.764 132.508 379.523 132.548 379.28 132.57C378.81 132.64 378.11 132.74 377.22 132.9C375.44 133.19 372.89 133.76 369.75 134.54C366.077 135.53 362.338 136.255 358.56 136.71C353.919 137.185 349.236 137.081 344.62 136.4C340.003 135.73 335.481 134.515 331.15 132.78C327.6 131.374 324.199 129.615 321 127.53C319.66 126.62 318.46 125.78 317.44 124.98C316.42 124.18 315.56 123.49 314.9 122.87L313.38 121.44C313.04 121.11 312.86 120.93 312.88 120.91C313.084 121.042 313.275 121.192 313.45 121.36L315.03 122.71C315.71 123.31 316.62 123.95 317.62 124.71C318.62 125.47 319.86 126.3 321.2 127.18C328.329 131.677 336.321 134.63 344.66 135.85C349.24 136.52 353.884 136.634 358.49 136.19C362.246 135.781 365.968 135.113 369.63 134.19C372.78 133.46 375.36 132.94 377.16 132.7C378.06 132.58 378.76 132.51 379.24 132.48C379.492 132.443 379.747 132.433 380 132.45Z" fill="#455A64"/>
<path d="M381.48 199.45C381.346 199.424 381.216 199.384 381.09 199.33C380.742 199.183 380.407 199.006 380.09 198.8C378.881 198.005 377.877 196.936 377.16 195.68C376.134 193.801 375.521 191.725 375.36 189.59C375.13 187.008 375.13 184.411 375.36 181.83C375.577 179.249 376.005 176.691 376.64 174.18C377.095 172.106 377.846 170.109 378.87 168.25C379.608 166.989 380.637 165.923 381.87 165.14C382.185 164.933 382.52 164.758 382.87 164.62C383.12 164.53 383.26 164.49 383.26 164.51C383.26 164.53 382.75 164.74 381.94 165.31C380.81 166.137 379.875 167.202 379.2 168.43C378.238 170.281 377.538 172.256 377.12 174.3C376.513 176.791 376.099 179.325 375.88 181.88C375.671 184.429 375.671 186.991 375.88 189.54C376.008 191.632 376.566 193.674 377.52 195.54C378.18 196.777 379.11 197.85 380.24 198.68C381 199.21 381.51 199.4 381.48 199.45Z" fill="#263238"/>
<path d="M336.502 196.36L326.238 198.374C324.694 198.677 323.687 200.175 323.99 201.72L324.065 202.102C324.368 203.647 325.866 204.653 327.411 204.35L337.675 202.336C339.219 202.033 340.226 200.536 339.923 198.991L339.848 198.608C339.545 197.064 338.047 196.057 336.502 196.36Z" fill="#455A64"/>
<path d="M338.469 197.88L385.919 183C386.482 182.824 387.093 182.877 387.617 183.149C388.141 183.42 388.537 183.888 388.719 184.45C388.81 184.739 388.843 185.043 388.814 185.345C388.785 185.646 388.695 185.939 388.551 186.205C388.406 186.471 388.209 186.705 387.971 186.893C387.734 187.082 387.461 187.22 387.169 187.3L338.649 200.4L338.469 197.88Z" fill="#455A64"/>
<path d="M373.54 191.34C374.048 191.116 374.573 190.932 375.11 190.79L379.45 189.47C381.27 188.91 383.51 188.31 385.87 187.54C386.453 187.322 386.982 186.981 387.42 186.54C387.852 186.1 388.093 185.507 388.09 184.89C388.088 184.587 387.99 184.292 387.81 184.048C387.631 183.804 387.379 183.622 387.09 183.53C386.431 183.362 385.738 183.383 385.09 183.59L370.86 188.17L366.53 189.51C366.034 189.714 365.522 189.878 365 190C365.5 189.756 366.018 189.553 366.55 189.39L370.83 187.89C374.46 186.66 379.44 184.95 385.04 183.16C385.785 182.944 386.575 182.944 387.32 183.16C387.7 183.297 388.03 183.546 388.266 183.875C388.501 184.203 388.632 184.596 388.64 185C388.641 185.748 388.346 186.467 387.82 187C387.294 187.462 386.672 187.803 386 188C383.55 188.77 381.36 189.31 379.51 189.83L375.17 191C374.639 191.164 374.093 191.278 373.54 191.34Z" fill="#263238"/>
<path d="M295.999 155C297.619 160.7 291.829 165.59 289.789 171.16C287.789 176.54 289.489 182.57 291.919 187.77C294.349 192.97 297.549 197.89 298.789 203.48C301.859 217.28 289.379 232.15 291.789 246.08C292.649 251.16 294.699 256.46 296.469 261.29C298.179 265.845 298.179 270.865 296.469 275.42C293.769 283.42 289.189 287.17 285.969 294.95C284.319 298.95 284.449 303.39 284.529 307.69C284.609 311.99 284.589 316.49 282.669 320.35C280.749 324.21 276.369 327.19 272.209 326.07C274.454 328.585 277.465 330.29 280.777 330.921C284.089 331.552 287.517 331.074 290.529 329.56C295.999 326.64 299.059 320.72 301.679 315.1C314.359 287.89 321.069 285.59 320.679 255.57C320.679 253.64 320.299 223.57 320.299 223.57C317.671 222.865 315.151 221.805 312.809 220.42C298.649 210.64 298.129 193.22 298.239 179.71" fill="#263238"/>
<path d="M324.3 246.08V257.41C324.3 257.41 315.59 301.86 312.97 326.55C310.35 351.24 309.92 357.76 309.92 357.76C309.92 357.76 316.17 367.51 329.24 350.95C342.31 334.39 344.64 331.78 349.87 331.49C349.87 331.49 343.48 262.06 343.77 259.49C344.094 257.668 344.894 255.963 346.09 254.55L324.3 246.08Z" fill="#FFBE9D"/>
<path d="M341.439 220.52C341.439 220.52 327.209 239.4 326.049 242C324.889 244.6 324.299 246.06 324.299 246.06L346.089 254.49L367.299 231.25L375.139 210.62L372.809 186.22C372.809 186.22 368.169 185.93 367.299 190C366.766 192.577 366.567 195.212 366.709 197.84L360.209 192.61L349.719 189.42C349.719 189.42 347.249 193.48 351.319 195.52C355.389 197.56 356.549 197.52 356.549 197.52L360.209 203.91L358.609 211.07L351.189 204.07C350.47 203.391 349.537 202.986 348.55 202.924C347.564 202.861 346.587 203.147 345.789 203.73L340.989 207.21L336.499 205.21L327.789 213L324.299 216.19C324.299 216.19 326.629 220.55 331.299 218.52L335.949 216.52L341.439 220.52Z" fill="#FFBE9D"/>
<path d="M324.3 249.91C324.287 249.707 324.287 249.503 324.3 249.3C324.3 248.9 324.35 248.3 324.44 247.53C324.557 246.568 324.741 245.616 324.99 244.68C325.301 243.388 325.814 242.152 326.51 241.02C329.77 236.02 334.9 229.02 341.3 220.41V220.67L335.78 216.61H335.97L333.1 217.88C332.115 218.36 331.091 218.758 330.04 219.07C328.896 219.344 327.692 219.206 326.64 218.68C325.57 218.129 324.681 217.282 324.08 216.24L324 216.1L324.13 215.98C327.87 212.46 332.04 208.91 336.32 205.11L336.45 205L336.59 205.08L340.46 207.37H340.21L344.73 204.37C345.52 203.86 346.23 203.37 347.08 202.85C347.543 202.62 348.06 202.522 348.575 202.566C349.09 202.61 349.583 202.795 350 203.1L358.81 210.55L358.4 210.69C358.88 208.54 359.4 206.21 359.92 203.86V204.04L356.26 197.65L356.49 197.78C355.868 197.695 355.26 197.53 354.68 197.29C354.11 197.08 353.54 196.84 352.97 196.59C352.4 196.34 351.84 196.06 351.28 195.79C350.99 195.65 350.71 195.46 350.43 195.3C350.156 195.105 349.902 194.884 349.67 194.64C349.334 194.284 349.073 193.864 348.901 193.406C348.729 192.947 348.651 192.459 348.67 191.97C348.702 191.014 348.966 190.081 349.44 189.25L349.54 189.08L349.74 189.14L360.22 192.34H360.27L366.77 197.57L366.36 197.79C366.22 195.2 366.405 192.603 366.91 190.06C367.016 189.404 367.26 188.778 367.625 188.223C367.991 187.668 368.469 187.197 369.03 186.84C370.148 186.18 371.433 185.857 372.73 185.91H373V186.13C373.82 194.8 374.59 202.98 375.3 210.53V210.58C372.4 218.18 369.76 225.08 367.42 231.19L351 249.31L346.54 254.14C346.03 254.67 345.64 255.09 345.37 255.38L344.96 255.79C344.96 255.79 345.08 255.63 345.33 255.34L346.46 254.07L350.86 249.18L367.2 231.18V231.23L375 210.59V210.69C374.27 203.14 373.49 194.97 372.65 186.29L372.88 186.52C371.687 186.471 370.506 186.77 369.48 187.38C368.976 187.7 368.547 188.125 368.221 188.625C367.895 189.125 367.68 189.69 367.59 190.28C367.089 192.777 366.907 195.327 367.05 197.87V198.45L366.6 198.09L360 192.83H360.09L349.61 189.64L349.9 189.52C349.478 190.274 349.242 191.117 349.21 191.98C349.192 192.403 349.259 192.825 349.406 193.222C349.554 193.619 349.78 193.982 350.07 194.29C350.277 194.501 350.501 194.695 350.74 194.87C351.01 195.02 351.25 195.18 351.53 195.32C352.09 195.59 352.64 195.87 353.2 196.11C354.254 196.624 355.365 197.01 356.51 197.26H356.67L356.73 197.36L360.39 203.75L360.44 203.84V203.94C359.91 206.29 359.44 208.62 358.91 210.77L358.82 211.19L358.49 210.91L349.71 203.48C349.369 203.226 348.964 203.071 348.541 203.032C348.117 202.993 347.692 203.072 347.31 203.26C346.57 203.7 345.77 204.26 345.01 204.75L340.48 207.75L340.36 207.83L340.23 207.76L336.36 205.46H336.64C332.36 209.24 328.18 212.79 324.43 216.29L324.48 216.03C325.032 216.995 325.852 217.78 326.84 218.29C327.803 218.78 328.91 218.908 329.96 218.65C330.989 218.348 331.993 217.964 332.96 217.5L335.83 216.24H335.94L336.03 216.3L341.54 220.38L341.69 220.49L341.58 220.64C335.15 229.25 329.97 236.19 326.67 241.14C325.975 242.252 325.453 243.462 325.12 244.73C324.865 245.657 324.668 246.599 324.53 247.55C324.42 248.32 324.37 248.92 324.34 249.31C324.31 249.7 324.3 249.91 324.3 249.91Z" fill="#EB996E"/>
<path d="M351.26 224.89C351.16 224.89 351.54 223.35 351.7 220.89C351.805 219.456 351.572 218.017 351.02 216.69C350.185 215.135 348.997 213.799 347.55 212.79C344.966 210.809 342.271 208.976 339.48 207.3L336.93 205.8C336.602 205.638 336.293 205.44 336.01 205.21C336.362 205.296 336.699 205.434 337.01 205.62C337.65 205.91 338.56 206.37 339.66 206.98C342.522 208.577 345.262 210.381 347.86 212.38C349.372 213.435 350.602 214.847 351.44 216.49C352.014 217.888 352.227 219.408 352.06 220.91C351.974 221.901 351.811 222.884 351.57 223.85C351.516 224.209 351.411 224.559 351.26 224.89Z" fill="#EB996E"/>
<path d="M366.509 215.83C366.573 214.949 366.697 214.074 366.879 213.21C367.191 211.125 367.342 209.018 367.329 206.91C367.302 204.796 367.115 202.686 366.769 200.6C366.577 199.743 366.44 198.875 366.359 198C366.727 198.806 366.986 199.656 367.129 200.53C368.052 204.726 368.09 209.069 367.239 213.28C367.11 214.159 366.865 215.016 366.509 215.83Z" fill="#EB996E"/>
<path d="M269.4 141.73L259 123.36C265.44 112.899 267.735 100.407 265.433 88.34C263.131 76.2728 256.399 65.5029 246.56 58.1472C236.721 50.7915 224.486 47.3819 212.261 48.5887C200.035 49.7955 188.703 55.5313 180.492 64.6687C172.281 73.8061 167.785 85.6844 167.886 97.9688C167.988 110.253 172.681 122.055 181.043 131.055C189.404 140.055 200.83 145.602 213.074 146.606C225.317 147.61 237.494 143.998 247.21 136.48L269.4 141.73Z" fill="white"/>
<path d="M269.4 141.73L247.14 136.63H246.95L247.07 136.47L247.25 136.65C244.131 139.071 240.738 141.115 237.14 142.74C232.856 144.657 228.32 145.95 223.67 146.58C221.093 146.939 218.49 147.07 215.89 146.97C214.56 146.9 213.19 146.86 211.82 146.75L207.67 146.12C195.301 143.672 184.332 136.598 177 126.34C172.907 120.673 170.076 114.194 168.7 107.34C167.279 100.103 167.477 92.6415 169.28 85.4901C171.133 78.0152 174.743 71.0902 179.81 65.2901L181.81 63.0801C182.47 62.3401 183.26 61.7301 183.97 61.0801C184.679 60.3759 185.423 59.7084 186.2 59.0801L188.56 57.3201C189.336 56.7446 190.152 56.2233 191 55.7601L193.49 54.2501L196.1 53.0001C196.949 52.5512 197.828 52.1603 198.73 51.8301C205.718 49.0696 213.235 47.9112 220.73 48.4401C227.821 48.9371 234.717 50.9854 240.93 54.4401C252.098 60.6551 260.448 70.9277 264.25 83.1301C265.777 88.3226 266.499 93.7187 266.39 99.1301C266.259 103.818 265.451 108.463 263.99 112.92C262.769 116.629 261.114 120.18 259.06 123.5V123.37L269.37 141.8C268.93 141.03 265.59 135.24 258.84 123.49V123.43V123.37C260.861 120.057 262.489 116.52 263.69 112.83C265.115 108.394 265.9 103.778 266.02 99.1201C266.107 93.7571 265.375 88.4123 263.85 83.2701C260.053 71.1889 251.762 61.0265 240.69 54.8801C234.533 51.4796 227.707 49.4692 220.69 48.9901C213.266 48.4671 205.819 49.6188 198.9 52.3601C198.008 52.687 197.139 53.0745 196.3 53.5201L193.72 54.7701L191.25 56.2701C190.406 56.739 189.6 57.274 188.84 57.8701L186.5 59.6101C185.71 60.1701 185.04 60.9001 184.3 61.5301C183.56 62.1601 182.82 62.8101 182.16 63.5301L180.16 65.7101C175.148 71.4546 171.576 78.3105 169.74 85.7101C167.955 92.789 167.754 100.174 169.15 107.34C170.513 114.116 173.309 120.522 177.35 126.13C184.63 136.273 195.487 143.274 207.73 145.72L211.84 146.35C213.2 146.47 214.56 146.5 215.84 146.58C218.419 146.684 221.002 146.564 223.56 146.22C232.109 145.088 240.206 141.714 247.03 136.44L247.81 135.84L247.21 136.63L247.13 136.42L269.4 141.73Z" fill="#263238"/>
<path d="M206.471 97.6299C206.471 98.421 206.236 99.1944 205.797 99.8522C205.357 100.51 204.732 101.023 204.001 101.325C203.271 101.628 202.466 101.707 201.69 101.553C200.914 101.399 200.202 101.018 199.642 100.458C199.083 99.8989 198.702 99.1862 198.548 98.4102C198.393 97.6343 198.472 96.8301 198.775 96.0992C199.078 95.3682 199.591 94.7435 200.248 94.304C200.906 93.8645 201.68 93.6299 202.471 93.6299C203.532 93.6299 204.549 94.0513 205.299 94.8015C206.049 95.5516 206.471 96.569 206.471 97.6299Z" fill="#263238"/>
<path d="M222.43 97.6299C222.43 98.421 222.195 99.1944 221.756 99.8522C221.316 100.51 220.691 101.023 219.96 101.325C219.23 101.628 218.425 101.707 217.649 101.553C216.873 101.399 216.161 101.018 215.601 100.458C215.042 99.8989 214.661 99.1862 214.507 98.4102C214.352 97.6343 214.431 96.8301 214.734 96.0992C215.037 95.3682 215.55 94.7435 216.207 94.304C216.865 93.8645 217.639 93.6299 218.43 93.6299C219.491 93.6299 220.508 94.0513 221.258 94.8015C222.008 95.5516 222.43 96.569 222.43 97.6299Z" fill="#263238"/>
<path d="M238.359 95.63C238.757 96.3149 238.943 97.1024 238.892 97.8928C238.842 98.6832 238.558 99.4409 238.077 100.07C237.596 100.699 236.939 101.171 236.189 101.426C235.439 101.681 234.63 101.708 233.865 101.503C233.1 101.298 232.413 100.871 231.891 100.275C231.37 99.679 231.036 98.9417 230.934 98.1563C230.832 97.371 230.965 96.5729 231.316 95.8632C231.668 95.1536 232.222 94.5643 232.909 94.17C233.826 93.6437 234.914 93.5018 235.935 93.7754C236.957 94.049 237.828 94.7158 238.359 95.63Z" fill="#263238"/>
<path d="M466 411.14C466 411.29 364.34 411.4 239 411.4C113.66 411.4 12 411.29 12 411.14C12 410.99 113.63 410.88 239.05 410.88C364.47 410.88 466 411 466 411.14Z" fill="#263238"/>
<path d="M337.551 411.39C339.897 407.819 343.062 404.86 346.783 402.759C350.503 400.658 354.671 399.476 358.941 399.31C373.551 398.81 380.851 411.39 380.851 411.39H337.551Z" fill="#455A64"/>
<path d="M365.551 411C365.358 410.284 365.214 409.556 365.121 408.82C364.335 405.351 362.267 402.307 359.331 400.3C358.684 399.938 358.06 399.537 357.461 399.1C358.216 399.216 358.936 399.496 359.571 399.92C361.165 400.851 362.531 402.125 363.569 403.651C364.607 405.177 365.291 406.916 365.571 408.74C365.728 409.486 365.721 410.257 365.551 411Z" fill="#263238"/>
<path d="M328.511 410.86V410.76C328.488 409.289 327.886 407.886 326.836 406.855C325.786 405.824 324.373 405.247 322.901 405.25H198.561C197.073 405.25 195.646 405.841 194.594 406.893C193.542 407.945 192.951 409.372 192.951 410.86H328.511Z" fill="#455A64"/>
<path d="M90.4707 193C90.4707 195.62 92.4707 351.78 92.4707 351.78L208.471 379.69H218.001L211.901 161.69H203.181L90.4707 193Z" fill="#263238"/>
<path d="M115.001 345.29L79.0508 411.17H111.911C106.031 410.59 163.911 411.17 163.911 411.17L111.911 397.38L128.181 360.43L126.791 345.29H115.001Z" fill="#263238"/>
<path d="M115.8 357.45L111.91 234.65L147.23 231.27L151.58 362.38L138.97 363.02L115.8 357.45Z" fill="#263238"/>
<path d="M156.52 367.24C156.52 367.24 156.52 367.05 156.52 366.67C156.52 366.29 156.52 365.72 156.52 364.99C156.52 363.49 156.52 361.3 156.52 358.47C156.52 352.76 156.47 344.47 156.44 334.04C156.44 313.17 156.39 283.8 156.35 249.74L156.6 249.99H114.85L115.11 249.73V255.39C115.11 288.61 115.11 319.52 115.06 345.28V345.33C104.24 365.16 95.2703 381.62 88.9903 393.12C85.8503 398.86 83.3803 403.36 81.6903 406.44C80.8503 407.96 80.2003 409.12 79.7603 409.93C79.3203 410.74 79.0703 411.11 79.0703 411.11C79.0703 411.11 79.2803 410.69 79.7003 409.9C80.1203 409.11 80.7603 407.9 81.5703 406.37C83.2403 403.28 85.6703 398.76 88.7703 393L114.67 345.12V345.23C114.67 319.47 114.67 288.56 114.67 255.34V249.42H156.85V249.67C156.85 283.73 156.78 313.1 156.76 333.97C156.76 344.39 156.7 352.69 156.68 358.4C156.68 361.23 156.68 363.4 156.68 364.92C156.68 365.65 156.68 366.21 156.68 366.6C156.68 366.99 156.52 367.24 156.52 367.24Z" fill="#455A64"/>
<path d="M128.18 360.43C128.31 360.48 123.31 372.05 117.01 386.25C110.71 400.45 105.49 411.93 105.36 411.87C105.23 411.81 110.23 400.25 116.53 386.04C122.83 371.83 128.05 360.37 128.18 360.43Z" fill="#455A64"/>
<path d="M208.421 379.73C208.421 379.73 208.421 379.54 208.421 379.17C208.421 378.8 208.421 378.23 208.421 377.52C208.421 376.05 208.371 373.92 208.341 371.18C208.341 365.68 208.171 357.72 207.981 347.88C207.611 328.2 206.721 301.03 205.631 271.02C204.541 241.01 203.711 213.81 203.431 194.13C203.281 184.29 203.211 176.32 203.241 170.82C203.241 168.08 203.241 165.95 203.241 164.48C203.241 163.77 203.241 163.23 203.241 162.83C203.241 162.43 203.241 162.27 203.241 162.27C203.241 162.27 203.241 162.46 203.241 162.83C203.241 163.2 203.241 163.77 203.241 164.48C203.241 165.95 203.241 168.08 203.321 170.82C203.321 176.32 203.481 184.28 203.681 194.12C204.111 213.8 205.001 241 206.091 271C207.181 301 208.011 328.19 208.291 347.87C208.441 357.71 208.501 365.68 208.481 371.18C208.481 373.92 208.481 376.05 208.481 377.52C208.481 378.23 208.481 378.78 208.481 379.17C208.481 379.56 208.421 379.73 208.421 379.73Z" fill="#455A64"/>
<path d="M150.192 248.83C150.342 248.83 150.452 274.95 150.452 307.16C150.452 339.37 150.342 365.49 150.192 365.49C150.042 365.49 149.932 339.38 149.932 307.16C149.932 274.94 150.052 248.83 150.192 248.83Z" fill="#455A64"/>
<path d="M87.7006 400.89C87.5115 400.673 87.344 400.439 87.2006 400.19C87.0306 399.95 86.8407 399.66 86.6207 399.33C86.356 398.938 86.1156 398.531 85.9007 398.11C84.4344 395.464 83.3663 392.617 82.7307 389.66C81.8082 385.265 81.5989 380.751 82.1107 376.29C82.7364 370.828 84.2003 365.495 86.4506 360.48C87.6413 357.89 89.1641 355.466 90.9807 353.27C91.3943 352.725 91.8384 352.204 92.3106 351.71C92.7706 351.21 93.2106 350.71 93.6706 350.23C94.6706 349.32 95.5407 348.39 96.5307 347.6C98.355 346.048 100.298 344.64 102.341 343.39C103.341 342.85 104.251 342.28 105.191 341.83C106.131 341.38 107.021 340.9 107.921 340.58C110.7 339.389 113.637 338.608 116.641 338.26C117.452 338.149 118.271 338.099 119.091 338.11C119.377 338.086 119.664 338.086 119.951 338.11C119.67 338.158 119.386 338.188 119.101 338.2C118.287 338.237 117.475 338.321 116.671 338.45C113.702 338.872 110.805 339.7 108.061 340.91C107.171 341.24 106.311 341.74 105.371 342.17C104.431 342.6 103.531 343.17 102.561 343.75C100.549 345.004 98.6363 346.412 96.8406 347.96C95.8406 348.74 94.9706 349.67 94.0206 350.57C93.5706 351.04 93.1307 351.57 92.6807 352.03C92.2206 352.523 91.7867 353.041 91.3806 353.58C89.5929 355.747 88.0938 358.137 86.9206 360.69C84.692 365.653 83.232 370.927 82.5906 376.33C82.0598 380.742 82.2285 385.21 83.0906 389.57C83.695 392.505 84.7046 395.342 86.0906 398C86.2896 398.428 86.5167 398.842 86.7706 399.24L87.3007 400.13C87.4508 400.374 87.5844 400.628 87.7006 400.89Z" fill="#455A64"/>
</svg>
