<svg width="394" height="340" viewBox="0 0 394 340" fill="none" xmlns="http://www.w3.org/2000/svg">
<path d="M200 339.56C307.082 339.56 393.89 334.492 393.89 328.24C393.89 321.988 307.082 316.92 200 316.92C92.9175 316.92 6.10999 321.988 6.10999 328.24C6.10999 334.492 92.9175 339.56 200 339.56Z" fill="#F5F5F5"/>
<path d="M338.8 33.03L296.05 98.12L294.17 100.99L290.45 102.71L158.13 164.2L171.2 208.99L174.19 219.23L163.83 227.79L74.5599 314.54H0.689941L134.25 203.62L126.16 159.58L123.96 147.59L134.3 142.83L275.32 77.9L321.25 21.08L308.93 18.64L347.66 2.57001L345.67 44.46L338.8 33.03Z" fill="#263238"/>
<path opacity="0.6" d="M338.8 33.03L296.05 98.12L294.17 100.99L290.45 102.71L158.13 164.2L171.2 208.99L174.19 219.23L163.83 227.79L74.5599 314.54H0.689941L134.25 203.62L126.16 159.58L123.96 147.59L134.3 142.83L275.32 77.9L321.25 21.08L308.93 18.64L347.66 2.57001L345.67 44.46L338.8 33.03Z" fill="#FAFAFA"/>
<path d="M316.45 310.49H245.65C244.954 310.49 244.39 311.054 244.39 311.75V327.89C244.39 328.586 244.954 329.15 245.65 329.15H316.45C317.146 329.15 317.71 328.586 317.71 327.89V311.75C317.71 311.054 317.146 310.49 316.45 310.49Z" fill="#356BB3"/>
<path opacity="0.2" d="M250.57 311.57H247.67V328.24H250.57V311.57Z" fill="black"/>
<path opacity="0.2" d="M257.16 311.49H255.05V328.16H257.16V311.49Z" fill="black"/>
<path opacity="0.2" d="M263.23 311.57H262.17V328.24H263.23V311.57Z" fill="black"/>
<path opacity="0.2" d="M271.41 311.49H270.88V328.16H271.41V311.49Z" fill="black"/>
<path opacity="0.2" d="M311.53 328.16H314.43V311.49H311.53V328.16Z" fill="black"/>
<path opacity="0.2" d="M304.94 328.24H307.05V311.57H304.94V328.24Z" fill="black"/>
<path opacity="0.2" d="M298.88 328.16H299.93V311.49H298.88V328.16Z" fill="black"/>
<path opacity="0.2" d="M290.69 328.24H291.22V311.57H290.69V328.24Z" fill="black"/>
<path opacity="0.2" d="M280.92 328.24H281.18V311.57H280.92V328.24Z" fill="black"/>
<path opacity="0.2" d="M315.75 313.33H246.5C246.267 313.33 246.043 313.237 245.878 313.072C245.713 312.907 245.62 312.683 245.62 312.45C245.623 312.217 245.716 311.995 245.881 311.831C246.045 311.666 246.267 311.573 246.5 311.57H315.75C315.983 311.57 316.207 311.663 316.372 311.828C316.537 311.993 316.63 312.217 316.63 312.45C316.631 312.566 316.609 312.681 316.566 312.788C316.522 312.896 316.457 312.993 316.375 313.075C316.293 313.157 316.196 313.222 316.088 313.266C315.981 313.309 315.866 313.331 315.75 313.33Z" fill="white"/>
<path d="M318.45 291.88H247.65C246.954 291.88 246.39 292.444 246.39 293.14V309.28C246.39 309.976 246.954 310.54 247.65 310.54H318.45C319.146 310.54 319.71 309.976 319.71 309.28V293.14C319.71 292.444 319.146 291.88 318.45 291.88Z" fill="#356BB3"/>
<path opacity="0.2" d="M252.57 292.96H249.67V309.63H252.57V292.96Z" fill="black"/>
<path opacity="0.2" d="M259.17 292.88H257.06V309.55H259.17V292.88Z" fill="black"/>
<path opacity="0.2" d="M265.23 292.96H264.18V309.63H265.23V292.96Z" fill="black"/>
<path opacity="0.2" d="M273.41 292.88H272.88V309.55H273.41V292.88Z" fill="black"/>
<path opacity="0.2" d="M313.54 309.54H316.44V292.87H313.54V309.54Z" fill="black"/>
<path opacity="0.2" d="M306.94 309.62H309.05V292.95H306.94V309.62Z" fill="black"/>
<path opacity="0.2" d="M300.87 309.54H301.93V292.87H300.87V309.54Z" fill="black"/>
<path opacity="0.2" d="M292.69 309.62H293.22V292.95H292.69V309.62Z" fill="black"/>
<path opacity="0.2" d="M282.92 309.62H283.18V292.95H282.92V309.62Z" fill="black"/>
<path opacity="0.2" d="M317.75 294.72H248.5C248.267 294.717 248.045 294.624 247.881 294.459C247.716 294.295 247.623 294.073 247.62 293.84C247.62 293.607 247.713 293.383 247.878 293.218C248.043 293.053 248.267 292.96 248.5 292.96H317.75C317.866 292.959 317.981 292.981 318.088 293.024C318.196 293.068 318.293 293.133 318.375 293.215C318.457 293.297 318.522 293.394 318.566 293.502C318.609 293.609 318.631 293.724 318.63 293.84C318.63 294.073 318.537 294.297 318.372 294.462C318.207 294.627 317.983 294.72 317.75 294.72Z" fill="white"/>
<path d="M318.45 273.27H247.65C246.954 273.27 246.39 273.834 246.39 274.53V290.67C246.39 291.366 246.954 291.93 247.65 291.93H318.45C319.146 291.93 319.71 291.366 319.71 290.67V274.53C319.71 273.834 319.146 273.27 318.45 273.27Z" fill="#356BB3"/>
<path opacity="0.2" d="M252.57 274.34H249.67V291.01H252.57V274.34Z" fill="black"/>
<path opacity="0.2" d="M259.17 274.26H257.06V290.93H259.17V274.26Z" fill="black"/>
<path opacity="0.2" d="M265.23 274.34H264.18V291.01H265.23V274.34Z" fill="black"/>
<path opacity="0.2" d="M273.41 274.26H272.88V290.93H273.41V274.26Z" fill="black"/>
<path opacity="0.2" d="M313.54 290.93H316.44V274.26H313.54V290.93Z" fill="black"/>
<path opacity="0.2" d="M306.94 291.01H309.05V274.34H306.94V291.01Z" fill="black"/>
<path opacity="0.2" d="M300.87 290.93H301.93V274.26H300.87V290.93Z" fill="black"/>
<path opacity="0.2" d="M292.69 291.01H293.22V274.34H292.69V291.01Z" fill="black"/>
<path opacity="0.2" d="M282.92 291.01H283.18V274.34H282.92V291.01Z" fill="black"/>
<path opacity="0.2" d="M317.75 276.1H248.5C248.267 276.1 248.043 276.007 247.878 275.842C247.713 275.677 247.62 275.453 247.62 275.22C247.623 274.987 247.716 274.765 247.881 274.601C248.045 274.436 248.267 274.343 248.5 274.34H317.75C317.983 274.34 318.207 274.433 318.372 274.598C318.537 274.763 318.63 274.987 318.63 275.22C318.631 275.336 318.609 275.451 318.566 275.558C318.522 275.666 318.457 275.763 318.375 275.845C318.293 275.927 318.196 275.992 318.088 276.036C317.981 276.079 317.866 276.101 317.75 276.1Z" fill="white"/>
<path d="M316.45 254.65H245.65C244.954 254.65 244.39 255.214 244.39 255.91V272.05C244.39 272.746 244.954 273.31 245.65 273.31H316.45C317.146 273.31 317.71 272.746 317.71 272.05V255.91C317.71 255.214 317.146 254.65 316.45 254.65Z" fill="#356BB3"/>
<path opacity="0.2" d="M250.57 255.73H247.67V272.4H250.57V255.73Z" fill="black"/>
<path opacity="0.2" d="M257.16 255.65H255.05V272.32H257.16V255.65Z" fill="black"/>
<path opacity="0.2" d="M263.23 255.73H262.17V272.4H263.23V255.73Z" fill="black"/>
<path opacity="0.2" d="M271.41 255.65H270.88V272.32H271.41V255.65Z" fill="black"/>
<path opacity="0.2" d="M311.53 272.31H314.43V255.64H311.53V272.31Z" fill="black"/>
<path opacity="0.2" d="M304.94 272.39H307.05V255.72H304.94V272.39Z" fill="black"/>
<path opacity="0.2" d="M298.88 272.31H299.93V255.64H298.88V272.31Z" fill="black"/>
<path opacity="0.2" d="M290.69 272.39H291.22V255.72H290.69V272.39Z" fill="black"/>
<path opacity="0.2" d="M280.92 272.39H281.18V255.72H280.92V272.39Z" fill="black"/>
<path opacity="0.2" d="M315.75 257.49H246.5C246.267 257.487 246.045 257.394 245.881 257.229C245.716 257.065 245.623 256.843 245.62 256.61C245.62 256.377 245.713 256.153 245.878 255.988C246.043 255.823 246.267 255.73 246.5 255.73H315.75C315.866 255.729 315.981 255.751 316.088 255.794C316.196 255.838 316.293 255.903 316.375 255.985C316.457 256.067 316.522 256.164 316.566 256.272C316.609 256.379 316.631 256.494 316.63 256.61C316.63 256.843 316.537 257.067 316.372 257.232C316.207 257.397 315.983 257.49 315.75 257.49Z" fill="white"/>
<path d="M313.45 236.04H242.65C241.954 236.04 241.39 236.604 241.39 237.3V253.44C241.39 254.136 241.954 254.7 242.65 254.7H313.45C314.146 254.7 314.71 254.136 314.71 253.44V237.3C314.71 236.604 314.146 236.04 313.45 236.04Z" fill="#356BB3"/>
<path opacity="0.2" d="M247.57 237.11H244.67V253.78H247.57V237.11Z" fill="black"/>
<path opacity="0.2" d="M254.16 237.03H252.05V253.7H254.16V237.03Z" fill="black"/>
<path opacity="0.2" d="M260.22 237.11H259.17V253.78H260.22V237.11Z" fill="black"/>
<path opacity="0.2" d="M268.41 237.03H267.88V253.7H268.41V237.03Z" fill="black"/>
<path opacity="0.2" d="M308.53 253.7H311.43V237.03H308.53V253.7Z" fill="black"/>
<path opacity="0.2" d="M301.93 253.78H304.04V237.11H301.93V253.78Z" fill="black"/>
<path opacity="0.2" d="M295.88 253.7H296.93V237.03H295.88V253.7Z" fill="black"/>
<path opacity="0.2" d="M287.7 253.78H288.23V237.11H287.7V253.78Z" fill="black"/>
<path opacity="0.2" d="M277.92 253.78H278.18V237.11H277.92V253.78Z" fill="black"/>
<path opacity="0.2" d="M312.75 238.87H243.5C243.384 238.871 243.269 238.85 243.162 238.806C243.054 238.762 242.957 238.697 242.875 238.615C242.793 238.533 242.728 238.436 242.684 238.328C242.64 238.221 242.619 238.106 242.62 237.99C242.62 237.757 242.713 237.533 242.878 237.368C243.043 237.203 243.267 237.11 243.5 237.11H312.75C312.983 237.11 313.207 237.203 313.372 237.368C313.537 237.533 313.63 237.757 313.63 237.99C313.631 238.106 313.609 238.221 313.566 238.328C313.522 238.436 313.457 238.533 313.375 238.615C313.293 238.697 313.196 238.762 313.088 238.806C312.981 238.85 312.866 238.871 312.75 238.87Z" fill="white"/>
<path d="M316.45 217.42H245.65C244.954 217.42 244.39 217.984 244.39 218.68V234.82C244.39 235.516 244.954 236.08 245.65 236.08H316.45C317.146 236.08 317.71 235.516 317.71 234.82V218.68C317.71 217.984 317.146 217.42 316.45 217.42Z" fill="#356BB3"/>
<path opacity="0.2" d="M250.57 218.5H247.67V235.17H250.57V218.5Z" fill="black"/>
<path opacity="0.2" d="M257.16 218.42H255.05V235.09H257.16V218.42Z" fill="black"/>
<path opacity="0.2" d="M263.23 218.5H262.17V235.17H263.23V218.5Z" fill="black"/>
<path opacity="0.2" d="M271.41 218.42H270.88V235.09H271.41V218.42Z" fill="black"/>
<path opacity="0.2" d="M311.53 235.08H314.43V218.41H311.53V235.08Z" fill="black"/>
<path opacity="0.2" d="M304.94 235.16H307.05V218.49H304.94V235.16Z" fill="black"/>
<path opacity="0.2" d="M298.88 235.08H299.93V218.41H298.88V235.08Z" fill="black"/>
<path opacity="0.2" d="M290.69 235.16H291.22V218.49H290.69V235.16Z" fill="black"/>
<path opacity="0.2" d="M280.92 235.16H281.18V218.49H280.92V235.16Z" fill="black"/>
<path opacity="0.2" d="M315.75 220.26H246.5C246.267 220.26 246.043 220.167 245.878 220.002C245.713 219.837 245.62 219.613 245.62 219.38C245.62 219.147 245.713 218.923 245.878 218.758C246.043 218.593 246.267 218.5 246.5 218.5H315.75C315.866 218.499 315.981 218.52 316.088 218.564C316.196 218.608 316.293 218.673 316.375 218.755C316.457 218.837 316.522 218.934 316.566 219.042C316.609 219.149 316.631 219.264 316.63 219.38C316.631 219.496 316.609 219.611 316.566 219.718C316.522 219.826 316.457 219.923 316.375 220.005C316.293 220.087 316.196 220.152 316.088 220.196C315.981 220.239 315.866 220.261 315.75 220.26Z" fill="white"/>
<path d="M316.45 198.81H245.65C244.954 198.81 244.39 199.374 244.39 200.07V216.21C244.39 216.906 244.954 217.47 245.65 217.47H316.45C317.146 217.47 317.71 216.906 317.71 216.21V200.07C317.71 199.374 317.146 198.81 316.45 198.81Z" fill="#356BB3"/>
<path opacity="0.2" d="M250.57 199.88H247.67V216.55H250.57V199.88Z" fill="black"/>
<path opacity="0.2" d="M257.16 199.8H255.05V216.47H257.16V199.8Z" fill="black"/>
<path opacity="0.2" d="M263.23 199.88H262.17V216.55H263.23V199.88Z" fill="black"/>
<path opacity="0.2" d="M271.41 199.8H270.88V216.47H271.41V199.8Z" fill="black"/>
<path opacity="0.2" d="M311.53 216.47H314.43V199.8H311.53V216.47Z" fill="black"/>
<path opacity="0.2" d="M304.94 216.55H307.05V199.88H304.94V216.55Z" fill="black"/>
<path opacity="0.2" d="M298.88 216.47H299.93V199.8H298.88V216.47Z" fill="black"/>
<path opacity="0.2" d="M290.69 216.55H291.22V199.88H290.69V216.55Z" fill="black"/>
<path opacity="0.2" d="M280.92 216.55H281.18V199.88H280.92V216.55Z" fill="black"/>
<path opacity="0.2" d="M315.75 201.65H246.5C246.266 201.647 246.042 201.552 245.877 201.386C245.712 201.219 245.62 200.994 245.62 200.76C245.623 200.527 245.716 200.305 245.881 200.141C246.045 199.976 246.267 199.883 246.5 199.88H315.75C315.983 199.88 316.207 199.973 316.372 200.138C316.537 200.303 316.63 200.527 316.63 200.76C316.631 200.876 316.609 200.992 316.566 201.1C316.522 201.208 316.458 201.306 316.376 201.389C316.294 201.472 316.196 201.537 316.089 201.582C315.982 201.627 315.866 201.65 315.75 201.65Z" fill="white"/>
<path d="M319.45 180.19H248.65C247.954 180.19 247.39 180.754 247.39 181.45V197.59C247.39 198.286 247.954 198.85 248.65 198.85H319.45C320.146 198.85 320.71 198.286 320.71 197.59V181.45C320.71 180.754 320.146 180.19 319.45 180.19Z" fill="#356BB3"/>
<path opacity="0.2" d="M253.57 181.27H250.67V197.94H253.57V181.27Z" fill="black"/>
<path opacity="0.2" d="M260.17 181.19H258.06V197.86H260.17V181.19Z" fill="black"/>
<path opacity="0.2" d="M266.24 181.27H265.18V197.94H266.24V181.27Z" fill="black"/>
<path opacity="0.2" d="M274.41 181.19H273.88V197.86H274.41V181.19Z" fill="black"/>
<path opacity="0.2" d="M314.54 197.85H317.44V181.18H314.54V197.85Z" fill="black"/>
<path opacity="0.2" d="M307.94 197.94H310.05V181.27H307.94V197.94Z" fill="black"/>
<path opacity="0.2" d="M301.88 197.85H302.93V181.18H301.88V197.85Z" fill="black"/>
<path opacity="0.2" d="M293.69 197.94H294.22V181.27H293.69V197.94Z" fill="black"/>
<path opacity="0.2" d="M283.93 197.94H284.19V181.27H283.93V197.94Z" fill="black"/>
<path opacity="0.2" d="M318.75 183H249.51C249.394 183.001 249.278 182.979 249.17 182.936C249.062 182.892 248.964 182.828 248.881 182.746C248.798 182.664 248.733 182.566 248.688 182.459C248.643 182.352 248.62 182.236 248.62 182.12C248.62 182.004 248.643 181.888 248.688 181.781C248.733 181.673 248.798 181.576 248.881 181.494C248.964 181.412 249.062 181.348 249.17 181.304C249.278 181.26 249.394 181.239 249.51 181.24H318.75C318.866 181.239 318.982 181.26 319.09 181.304C319.198 181.348 319.296 181.412 319.379 181.494C319.461 181.576 319.527 181.673 319.572 181.781C319.617 181.888 319.64 182.004 319.64 182.12C319.64 182.236 319.617 182.352 319.572 182.459C319.527 182.566 319.461 182.664 319.379 182.746C319.296 182.828 319.198 182.892 319.09 182.936C318.982 182.979 318.866 183.001 318.75 183Z" fill="white"/>
<path d="M314.45 161.58H243.65C242.954 161.58 242.39 162.144 242.39 162.84V178.98C242.39 179.676 242.954 180.24 243.65 180.24H314.45C315.146 180.24 315.71 179.676 315.71 178.98V162.84C315.71 162.144 315.146 161.58 314.45 161.58Z" fill="#356BB3"/>
<path opacity="0.2" d="M248.57 162.66H245.67V179.33H248.57V162.66Z" fill="black"/>
<path opacity="0.2" d="M255.16 162.57H253.05V179.24H255.16V162.57Z" fill="black"/>
<path opacity="0.2" d="M261.22 162.66H260.17V179.33H261.22V162.66Z" fill="black"/>
<path opacity="0.2" d="M269.41 162.57H268.88V179.24H269.41V162.57Z" fill="black"/>
<path opacity="0.2" d="M309.53 179.24H312.43V162.57H309.53V179.24Z" fill="black"/>
<path opacity="0.2" d="M302.93 179.32H305.04V162.65H302.93V179.32Z" fill="black"/>
<path opacity="0.2" d="M296.88 179.24H297.93V162.57H296.88V179.24Z" fill="black"/>
<path opacity="0.2" d="M288.69 179.32H289.22V162.65H288.69V179.32Z" fill="black"/>
<path opacity="0.2" d="M278.92 179.32H279.18V162.65H278.92V179.32Z" fill="black"/>
<path opacity="0.2" d="M313.75 164.42H244.5C244.267 164.417 244.045 164.324 243.881 164.159C243.716 163.995 243.623 163.773 243.62 163.54C243.62 163.307 243.713 163.083 243.878 162.918C244.043 162.753 244.267 162.66 244.5 162.66H313.75C313.866 162.659 313.981 162.68 314.088 162.724C314.196 162.768 314.293 162.833 314.375 162.915C314.457 162.997 314.522 163.094 314.566 163.202C314.609 163.309 314.631 163.424 314.63 163.54C314.63 163.773 314.537 163.997 314.372 164.162C314.207 164.327 313.983 164.42 313.75 164.42Z" fill="white"/>
<path d="M312.45 142.96H241.65C240.954 142.96 240.39 143.524 240.39 144.22V160.36C240.39 161.056 240.954 161.62 241.65 161.62H312.45C313.146 161.62 313.71 161.056 313.71 160.36V144.22C313.71 143.524 313.146 142.96 312.45 142.96Z" fill="#356BB3"/>
<path opacity="0.2" d="M246.57 144.04H243.67V160.71H246.57V144.04Z" fill="black"/>
<path opacity="0.2" d="M253.16 143.96H251.05V160.63H253.16V143.96Z" fill="black"/>
<path opacity="0.2" d="M259.23 144.04H258.17V160.71H259.23V144.04Z" fill="black"/>
<path opacity="0.2" d="M267.41 143.96H266.88V160.63H267.41V143.96Z" fill="black"/>
<path opacity="0.2" d="M307.53 160.62H310.43V143.95H307.53V160.62Z" fill="black"/>
<path opacity="0.2" d="M300.93 160.71H303.04V144.04H300.93V160.71Z" fill="black"/>
<path opacity="0.2" d="M294.87 160.62H295.92V143.95H294.87V160.62Z" fill="black"/>
<path opacity="0.2" d="M286.7 160.71H287.23V144.04H286.7V160.71Z" fill="black"/>
<path opacity="0.2" d="M276.92 160.71H277.18V144.04H276.92V160.71Z" fill="black"/>
<path opacity="0.2" d="M311.75 145.8H242.5C242.384 145.801 242.269 145.779 242.162 145.736C242.054 145.692 241.957 145.627 241.875 145.545C241.793 145.463 241.728 145.366 241.684 145.258C241.64 145.151 241.619 145.036 241.62 144.92C241.619 144.804 241.64 144.689 241.684 144.582C241.728 144.474 241.793 144.377 241.875 144.295C241.957 144.213 242.054 144.148 242.162 144.104C242.269 144.06 242.384 144.039 242.5 144.04H311.75C311.866 144.039 311.981 144.06 312.088 144.104C312.196 144.148 312.293 144.213 312.375 144.295C312.457 144.377 312.522 144.474 312.566 144.582C312.609 144.689 312.631 144.804 312.63 144.92C312.631 145.036 312.609 145.151 312.566 145.258C312.522 145.366 312.457 145.463 312.375 145.545C312.293 145.627 312.196 145.692 312.088 145.736C311.981 145.779 311.866 145.801 311.75 145.8Z" fill="white"/>
<path d="M226.4 310.49H155.6C154.904 310.49 154.34 311.054 154.34 311.75V327.89C154.34 328.586 154.904 329.15 155.6 329.15H226.4C227.096 329.15 227.66 328.586 227.66 327.89V311.75C227.66 311.054 227.096 310.49 226.4 310.49Z" fill="#356BB3"/>
<path opacity="0.2" d="M160.51 311.57H157.61V328.24H160.51V311.57Z" fill="black"/>
<path opacity="0.2" d="M167.11 311.49H165V328.16H167.11V311.49Z" fill="black"/>
<path opacity="0.2" d="M173.17 311.57H172.12V328.24H173.17V311.57Z" fill="black"/>
<path opacity="0.2" d="M181.35 311.49H180.82V328.16H181.35V311.49Z" fill="black"/>
<path opacity="0.2" d="M221.48 328.16H224.38V311.49H221.48V328.16Z" fill="black"/>
<path opacity="0.2" d="M214.88 328.24H216.99V311.57H214.88V328.24Z" fill="black"/>
<path opacity="0.2" d="M208.82 328.16H209.87V311.49H208.82V328.16Z" fill="black"/>
<path opacity="0.2" d="M200.64 328.24H201.17V311.57H200.64V328.24Z" fill="black"/>
<path opacity="0.2" d="M190.87 328.24H191.13V311.57H190.87V328.24Z" fill="black"/>
<path opacity="0.2" d="M225.7 313.33H156.45C156.334 313.331 156.219 313.309 156.112 313.266C156.004 313.222 155.907 313.157 155.825 313.075C155.743 312.993 155.678 312.896 155.634 312.788C155.591 312.681 155.569 312.566 155.57 312.45C155.57 312.217 155.663 311.993 155.828 311.828C155.993 311.663 156.217 311.57 156.45 311.57H225.7C225.933 311.573 226.155 311.666 226.319 311.831C226.484 311.995 226.577 312.217 226.58 312.45C226.58 312.683 226.487 312.907 226.322 313.072C226.157 313.237 225.933 313.33 225.7 313.33Z" fill="white"/>
<path d="M223.39 291.88H152.59C151.894 291.88 151.33 292.444 151.33 293.14V309.28C151.33 309.976 151.894 310.54 152.59 310.54H223.39C224.086 310.54 224.65 309.976 224.65 309.28V293.14C224.65 292.444 224.086 291.88 223.39 291.88Z" fill="#356BB3"/>
<path opacity="0.2" d="M157.51 292.96H154.61V309.63H157.51V292.96Z" fill="black"/>
<path opacity="0.2" d="M164.11 292.88H162V309.55H164.11V292.88Z" fill="black"/>
<path opacity="0.2" d="M170.17 292.96H169.12V309.63H170.17V292.96Z" fill="black"/>
<path opacity="0.2" d="M178.35 292.88H177.82V309.55H178.35V292.88Z" fill="black"/>
<path opacity="0.2" d="M218.48 309.54H221.38V292.87H218.48V309.54Z" fill="black"/>
<path opacity="0.2" d="M211.88 309.62H213.99V292.95H211.88V309.62Z" fill="black"/>
<path opacity="0.2" d="M205.82 309.54H206.87V292.87H205.82V309.54Z" fill="black"/>
<path opacity="0.2" d="M197.63 309.62H198.16V292.95H197.63V309.62Z" fill="black"/>
<path opacity="0.2" d="M187.86 309.62H188.12V292.95H187.86V309.62Z" fill="black"/>
<path opacity="0.2" d="M222.69 294.72H153.44C153.207 294.717 152.985 294.624 152.821 294.459C152.656 294.295 152.563 294.073 152.56 293.84C152.56 293.607 152.653 293.383 152.818 293.218C152.983 293.053 153.207 292.96 153.44 292.96H222.69C222.806 292.959 222.921 292.981 223.028 293.024C223.136 293.068 223.233 293.133 223.315 293.215C223.397 293.297 223.462 293.394 223.506 293.502C223.549 293.609 223.571 293.724 223.57 293.84C223.57 294.073 223.477 294.297 223.312 294.462C223.147 294.627 222.923 294.72 222.69 294.72Z" fill="white"/>
<path d="M226.4 273.27H155.6C154.904 273.27 154.34 273.834 154.34 274.53V290.67C154.34 291.366 154.904 291.93 155.6 291.93H226.4C227.096 291.93 227.66 291.366 227.66 290.67V274.53C227.66 273.834 227.096 273.27 226.4 273.27Z" fill="#356BB3"/>
<path opacity="0.2" d="M160.51 274.34H157.61V291.01H160.51V274.34Z" fill="black"/>
<path opacity="0.2" d="M167.11 274.26H165V290.93H167.11V274.26Z" fill="black"/>
<path opacity="0.2" d="M173.17 274.34H172.12V291.01H173.17V274.34Z" fill="black"/>
<path opacity="0.2" d="M181.35 274.26H180.82V290.93H181.35V274.26Z" fill="black"/>
<path opacity="0.2" d="M221.48 290.93H224.38V274.26H221.48V290.93Z" fill="black"/>
<path opacity="0.2" d="M214.88 291.01H216.99V274.34H214.88V291.01Z" fill="black"/>
<path opacity="0.2" d="M208.82 290.93H209.87V274.26H208.82V290.93Z" fill="black"/>
<path opacity="0.2" d="M200.64 291.01H201.17V274.34H200.64V291.01Z" fill="black"/>
<path opacity="0.2" d="M190.87 291.01H191.13V274.34H190.87V291.01Z" fill="black"/>
<path opacity="0.2" d="M225.7 276.1H156.45C156.334 276.101 156.219 276.079 156.112 276.036C156.004 275.992 155.907 275.927 155.825 275.845C155.743 275.763 155.678 275.666 155.634 275.558C155.591 275.451 155.569 275.336 155.57 275.22C155.57 274.987 155.663 274.763 155.828 274.598C155.993 274.433 156.217 274.34 156.45 274.34H225.7C225.933 274.343 226.155 274.436 226.319 274.601C226.484 274.765 226.577 274.987 226.58 275.22C226.58 275.453 226.487 275.677 226.322 275.842C226.157 276.007 225.933 276.1 225.7 276.1Z" fill="white"/>
<path d="M224.39 254.65H153.59C152.894 254.65 152.33 255.214 152.33 255.91V272.05C152.33 272.746 152.894 273.31 153.59 273.31H224.39C225.086 273.31 225.65 272.746 225.65 272.05V255.91C225.65 255.214 225.086 254.65 224.39 254.65Z" fill="#356BB3"/>
<path opacity="0.2" d="M158.51 255.73H155.61V272.4H158.51V255.73Z" fill="black"/>
<path opacity="0.2" d="M165.11 255.65H163V272.32H165.11V255.65Z" fill="black"/>
<path opacity="0.2" d="M171.17 255.73H170.12V272.4H171.17V255.73Z" fill="black"/>
<path opacity="0.2" d="M179.35 255.65H178.82V272.32H179.35V255.65Z" fill="black"/>
<path opacity="0.2" d="M219.48 272.31H222.38V255.64H219.48V272.31Z" fill="black"/>
<path opacity="0.2" d="M212.88 272.39H214.99V255.72H212.88V272.39Z" fill="black"/>
<path opacity="0.2" d="M206.81 272.31H207.87V255.64H206.81V272.31Z" fill="black"/>
<path opacity="0.2" d="M198.63 272.39H199.16V255.72H198.63V272.39Z" fill="black"/>
<path opacity="0.2" d="M188.87 272.39H189.13V255.72H188.87V272.39Z" fill="black"/>
<path opacity="0.2" d="M223.69 257.49H154.45C154.216 257.49 153.991 257.398 153.824 257.233C153.658 257.068 153.563 256.844 153.56 256.61C153.56 256.494 153.583 256.378 153.628 256.271C153.673 256.164 153.738 256.066 153.821 255.984C153.904 255.902 154.002 255.838 154.11 255.794C154.218 255.75 154.334 255.729 154.45 255.73H223.69C223.806 255.729 223.922 255.75 224.03 255.794C224.138 255.838 224.236 255.902 224.319 255.984C224.401 256.066 224.467 256.164 224.512 256.271C224.557 256.378 224.58 256.494 224.58 256.61C224.577 256.844 224.482 257.068 224.316 257.233C224.149 257.398 223.924 257.49 223.69 257.49Z" fill="white"/>
<path d="M224.39 236.04H153.59C152.894 236.04 152.33 236.604 152.33 237.3V253.44C152.33 254.136 152.894 254.7 153.59 254.7H224.39C225.086 254.7 225.65 254.136 225.65 253.44V237.3C225.65 236.604 225.086 236.04 224.39 236.04Z" fill="#356BB3"/>
<path opacity="0.2" d="M158.51 237.11H155.61V253.78H158.51V237.11Z" fill="black"/>
<path opacity="0.2" d="M165.11 237.03H163V253.7H165.11V237.03Z" fill="black"/>
<path opacity="0.2" d="M171.17 237.11H170.12V253.78H171.17V237.11Z" fill="black"/>
<path opacity="0.2" d="M179.35 237.03H178.82V253.7H179.35V237.03Z" fill="black"/>
<path opacity="0.2" d="M219.48 253.7H222.38V237.03H219.48V253.7Z" fill="black"/>
<path opacity="0.2" d="M212.88 253.78H214.99V237.11H212.88V253.78Z" fill="black"/>
<path opacity="0.2" d="M206.81 253.7H207.87V237.03H206.81V253.7Z" fill="black"/>
<path opacity="0.2" d="M198.63 253.78H199.16V237.11H198.63V253.78Z" fill="black"/>
<path opacity="0.2" d="M188.87 253.78H189.13V237.11H188.87V253.78Z" fill="black"/>
<path opacity="0.2" d="M223.69 238.87H154.45C154.334 238.871 154.218 238.85 154.11 238.806C154.002 238.762 153.904 238.698 153.821 238.616C153.738 238.534 153.673 238.437 153.628 238.329C153.583 238.222 153.56 238.106 153.56 237.99C153.563 237.756 153.658 237.532 153.824 237.367C153.991 237.202 154.216 237.11 154.45 237.11H223.69C223.924 237.11 224.149 237.202 224.316 237.367C224.482 237.532 224.577 237.756 224.58 237.99C224.58 238.106 224.557 238.222 224.512 238.329C224.467 238.437 224.401 238.534 224.319 238.616C224.236 238.698 224.138 238.762 224.03 238.806C223.922 238.85 223.806 238.871 223.69 238.87Z" fill="white"/>
<path d="M224.39 217.42H153.59C152.894 217.42 152.33 217.984 152.33 218.68V234.82C152.33 235.516 152.894 236.08 153.59 236.08H224.39C225.086 236.08 225.65 235.516 225.65 234.82V218.68C225.65 217.984 225.086 217.42 224.39 217.42Z" fill="#356BB3"/>
<path opacity="0.2" d="M158.51 218.5H155.61V235.17H158.51V218.5Z" fill="black"/>
<path opacity="0.2" d="M165.11 218.42H163V235.09H165.11V218.42Z" fill="black"/>
<path opacity="0.2" d="M171.17 218.5H170.12V235.17H171.17V218.5Z" fill="black"/>
<path opacity="0.2" d="M179.35 218.42H178.82V235.09H179.35V218.42Z" fill="black"/>
<path opacity="0.2" d="M219.48 235.08H222.38V218.41H219.48V235.08Z" fill="black"/>
<path opacity="0.2" d="M212.88 235.16H214.99V218.49H212.88V235.16Z" fill="black"/>
<path opacity="0.2" d="M206.81 235.08H207.87V218.41H206.81V235.08Z" fill="black"/>
<path opacity="0.2" d="M198.63 235.16H199.16V218.49H198.63V235.16Z" fill="black"/>
<path opacity="0.2" d="M188.87 235.16H189.13V218.49H188.87V235.16Z" fill="black"/>
<path opacity="0.2" d="M223.69 220.26H154.45C154.334 220.261 154.218 220.239 154.11 220.196C154.002 220.152 153.904 220.088 153.821 220.006C153.738 219.924 153.673 219.826 153.628 219.719C153.583 219.612 153.56 219.496 153.56 219.38C153.56 219.264 153.583 219.148 153.628 219.041C153.673 218.933 153.738 218.836 153.821 218.754C153.904 218.672 154.002 218.608 154.11 218.564C154.218 218.52 154.334 218.499 154.45 218.5H223.69C223.806 218.499 223.922 218.52 224.03 218.564C224.138 218.608 224.236 218.672 224.319 218.754C224.401 218.836 224.467 218.933 224.512 219.041C224.557 219.148 224.58 219.264 224.58 219.38C224.58 219.496 224.557 219.612 224.512 219.719C224.467 219.826 224.401 219.924 224.319 220.006C224.236 220.088 224.138 220.152 224.03 220.196C223.922 220.239 223.806 220.261 223.69 220.26Z" fill="white"/>
<path d="M225.26 179.99H154.46C153.764 179.99 153.2 180.554 153.2 181.25V197.39C153.2 198.086 153.764 198.65 154.46 198.65H225.26C225.956 198.65 226.52 198.086 226.52 197.39V181.25C226.52 180.554 225.956 179.99 225.26 179.99Z" fill="#356BB3"/>
<path opacity="0.2" d="M159.38 181.07H156.48V197.74H159.38V181.07Z" fill="black"/>
<path opacity="0.2" d="M165.98 180.99H163.87V197.66H165.98V180.99Z" fill="black"/>
<path opacity="0.2" d="M172.04 181.07H170.99V197.74H172.04V181.07Z" fill="black"/>
<path opacity="0.2" d="M180.22 180.99H179.69V197.66H180.22V180.99Z" fill="black"/>
<path opacity="0.2" d="M220.35 197.65H223.25V180.98H220.35V197.65Z" fill="black"/>
<path opacity="0.2" d="M213.75 197.74H215.86V181.07H213.75V197.74Z" fill="black"/>
<path opacity="0.2" d="M207.69 197.65H208.74V180.98H207.69V197.65Z" fill="black"/>
<path opacity="0.2" d="M199.5 197.74H200.03V181.07H199.5V197.74Z" fill="black"/>
<path opacity="0.2" d="M189.74 197.74H190V181.07H189.74V197.74Z" fill="black"/>
<path opacity="0.2" d="M224.56 182.83H155.32C155.204 182.831 155.088 182.809 154.98 182.766C154.872 182.722 154.774 182.658 154.691 182.576C154.608 182.494 154.543 182.396 154.498 182.289C154.453 182.182 154.43 182.066 154.43 181.95C154.433 181.716 154.527 181.492 154.694 181.327C154.861 181.162 155.086 181.07 155.32 181.07H224.56C224.794 181.07 225.019 181.162 225.186 181.327C225.352 181.492 225.447 181.716 225.45 181.95C225.45 182.066 225.427 182.182 225.382 182.289C225.337 182.396 225.271 182.494 225.189 182.576C225.106 182.658 225.008 182.722 224.9 182.766C224.792 182.809 224.676 182.831 224.56 182.83Z" fill="white"/>
<path d="M226.4 198.81H155.6C154.904 198.81 154.34 199.374 154.34 200.07V216.21C154.34 216.906 154.904 217.47 155.6 217.47H226.4C227.096 217.47 227.66 216.906 227.66 216.21V200.07C227.66 199.374 227.096 198.81 226.4 198.81Z" fill="#356BB3"/>
<path opacity="0.2" d="M160.51 199.88H157.61V216.55H160.51V199.88Z" fill="black"/>
<path opacity="0.2" d="M167.11 199.8H165V216.47H167.11V199.8Z" fill="black"/>
<path opacity="0.2" d="M173.17 199.88H172.12V216.55H173.17V199.88Z" fill="black"/>
<path opacity="0.2" d="M181.35 199.8H180.82V216.47H181.35V199.8Z" fill="black"/>
<path opacity="0.2" d="M221.48 216.47H224.38V199.8H221.48V216.47Z" fill="black"/>
<path opacity="0.2" d="M214.88 216.55H216.99V199.88H214.88V216.55Z" fill="black"/>
<path opacity="0.2" d="M208.82 216.47H209.87V199.8H208.82V216.47Z" fill="black"/>
<path opacity="0.2" d="M200.64 216.55H201.17V199.88H200.64V216.55Z" fill="black"/>
<path opacity="0.2" d="M190.87 216.55H191.13V199.88H190.87V216.55Z" fill="black"/>
<path opacity="0.2" d="M225.7 201.65H156.45C156.334 201.65 156.218 201.627 156.111 201.582C156.003 201.537 155.906 201.472 155.824 201.389C155.742 201.306 155.678 201.208 155.634 201.1C155.59 200.992 155.569 200.876 155.57 200.76C155.57 200.527 155.663 200.303 155.828 200.138C155.993 199.973 156.217 199.88 156.45 199.88H225.7C225.933 199.883 226.155 199.976 226.319 200.141C226.484 200.305 226.577 200.527 226.58 200.76C226.58 200.994 226.488 201.219 226.323 201.386C226.158 201.552 225.934 201.647 225.7 201.65Z" fill="white"/>
<path d="M200.08 168.31L197.84 172.69L195.56 177.14L191.57 175.68L193.57 171.77L196.09 166.85L200.08 168.31Z" fill="#FFC2BC"/>
<path opacity="0.2" d="M200.08 168.31L197.84 172.69L193.57 171.77L196.09 166.85L200.08 168.31Z" fill="black"/>
<path d="M287.22 143.54C287.1 143.541 286.983 143.498 286.893 143.418C286.803 143.339 286.745 143.229 286.73 143.11C286.59 142.11 273.45 44.11 257.59 1.10997C257.558 1.04729 257.539 0.97854 257.536 0.908237C257.532 0.837934 257.543 0.76766 257.569 0.702007C257.594 0.636354 257.633 0.576802 257.683 0.527255C257.733 0.477708 257.793 0.439281 257.859 0.414485C257.925 0.38969 257.995 0.37909 258.066 0.383373C258.136 0.387655 258.204 0.406728 258.267 0.439342C258.329 0.471955 258.384 0.517374 258.428 0.572627C258.471 0.627881 258.503 0.691723 258.52 0.759975C274.43 43.84 287.59 142 287.72 143C287.737 143.132 287.702 143.266 287.621 143.373C287.541 143.479 287.422 143.55 287.29 143.57L287.22 143.54Z" fill="#263238"/>
<path d="M261.9 140.72L266.15 140.55L266.98 130.69L262.72 130.86L261.9 140.72Z" fill="#FFC2BC"/>
<path d="M266.55 138.3L261.91 138.15C261.825 138.15 261.743 138.178 261.674 138.228C261.606 138.278 261.555 138.349 261.53 138.43L260.53 142.17C260.506 142.26 260.502 142.355 260.52 142.447C260.537 142.538 260.576 142.625 260.631 142.7C260.687 142.775 260.759 142.837 260.842 142.88C260.925 142.923 261.016 142.947 261.11 142.95C262.79 142.95 265.22 142.95 267.33 143.01C269.79 143.09 271.33 143.01 274.25 143.06C275.99 143.11 276.55 141.37 275.82 141.19C272.52 140.36 270.36 140.51 267.56 138.66C267.262 138.45 266.913 138.326 266.55 138.3Z" fill="#263238"/>
<path opacity="0.2" d="M266.98 130.69L266.55 135.77L262.3 135.95L262.72 130.86L266.98 130.69Z" fill="black"/>
<path d="M260.17 105C261.25 107.07 261.33 128.77 261.33 134.28H268.68C269.63 128.57 274.33 97.91 267.68 93.53C260.36 88.7 241.8 90.36 241.8 90.36L240.46 87.65L237.78 82.25L222.42 88L219.07 89.24L217.69 89.76H217.57C217.57 89.76 217.57 89.91 217.57 90.17C217.62 90.77 217.76 91.98 218.01 93.49C218.3 95.3012 218.707 97.0917 219.23 98.85C220.65 103.48 223.17 107.85 227.55 106.39C227.74 106.33 227.93 106.25 228.12 106.17C228.48 106.01 228.87 105.86 229.27 105.71C232.781 104.579 236.412 103.864 240.09 103.58C249.37 102.7 259.35 103.4 260.17 105Z" fill="#263238"/>
<path d="M269.01 134.92L260.42 135.15L260.37 132.38L269.81 131.99L269.01 134.92Z" fill="#356BB3"/>
<path d="M196.3 175H191.12C191.036 175 190.954 175.029 190.889 175.082C190.824 175.135 190.778 175.208 190.76 175.29L189.88 179.06C189.859 179.151 189.859 179.246 189.879 179.338C189.9 179.429 189.942 179.515 190 179.588C190.059 179.661 190.134 179.72 190.218 179.76C190.303 179.8 190.396 179.821 190.49 179.82C192.16 179.82 193.38 179.69 195.49 179.69C196.78 179.69 200.67 179.83 202.49 179.83C204.31 179.83 204.49 178.06 203.79 177.9C200.53 177.19 198.07 176.2 197.03 175.26C196.932 175.17 196.816 175.101 196.691 175.056C196.566 175.012 196.433 174.993 196.3 175Z" fill="#263238"/>
<path d="M234 89.72L233.11 92.7899C232.64 94.4299 231.99 96.66 231.23 99.25L229.33 105.72C226.09 116.67 221.97 130.34 219.69 136.83C215.15 149.71 199.96 172.62 199.96 172.62L192.65 169.94C192.65 169.94 203.87 148.36 207.55 135.3C210.12 126.18 214.15 109.79 216.8 98.78L218.07 93.5C218.5 91.7 218.85 90.23 219.07 89.2C219.29 88.17 219.47 87.5099 219.47 87.5099L222.42 87.96L234 89.72Z" fill="#263238"/>
<path d="M200.75 173.1L192.15 169.94L193.12 167.38L202.29 170.16L200.75 173.1Z" fill="#356BB3"/>
<path opacity="0.2" d="M240.49 87.64L234 95.21L233.11 92.79L232.11 90.15L231.2 99.25L219.26 98.86L216.77 98.78L218.04 93.5C217.79 91.99 217.65 90.78 217.6 90.18L217.68 89.73L219.06 89.21C219.32 88.13 219.46 87.52 219.46 87.52L222.41 87.97L237.8 82.25L240.49 87.64Z" fill="black"/>
<path opacity="0.2" d="M240.13 103.59C236.025 103.865 231.983 104.738 228.13 106.18C227.94 106.26 227.75 106.34 227.56 106.4L228.43 102.12C228.43 102.12 235.92 101.77 240.13 103.59Z" fill="black"/>
<path d="M184.28 91.75L181.67 95.21L179.46 91C179.46 91 181.97 88.05 183.46 89.41L184.28 91.75Z" fill="#FFC2BC"/>
<path d="M177.68 96.7899L177.03 92.4799L179.46 90.95L181.67 95.21L177.68 96.7899Z" fill="#FFC2BC"/>
<path d="M184.99 91.43L184.26 91.8L183.18 89.06L184.34 88.5L184.99 91.43Z" fill="white"/>
<path d="M214.1 66.46C213.72 67.1267 213.33 67.7667 212.93 68.38C211.923 70.02 210.87 71.6333 209.77 73.22L208.86 74.53C207.94 75.85 206.97 77.14 205.93 78.43C205.41 79.07 204.88 79.72 204.29 80.36C203.698 81.0302 203.067 81.6646 202.4 82.26C199.842 84.4373 197.028 86.2944 194.02 87.79C191.121 89.2885 188.112 90.5655 185.02 91.61L183.72 88.69C185.02 87.9 186.37 87.09 187.66 86.25C188.95 85.41 190.26 84.58 191.51 83.7C192.76 82.82 193.99 81.93 195.15 81C196.291 80.1068 197.373 79.1415 198.39 78.11C200.31 75.8788 202.039 73.4904 203.56 70.97C205.23 68.38 207.34 63.84 208.99 61.25L214.1 66.46Z" fill="#263238"/>
<path opacity="0.2" d="M212.93 68.38C211.923 70.02 210.87 71.6333 209.77 73.22C209.881 71.1168 210.466 69.0659 211.48 67.22C212.082 67.4283 212.594 67.838 212.93 68.38Z" fill="black"/>
<path d="M270.27 55.69L267.37 58.39L267.78 60.89C268.84 62.29 271.28 60.56 271.85 60.12C271.941 60.0538 272.038 59.9968 272.14 59.95L273.68 59.33C273.952 59.2167 274.178 59.0149 274.322 58.7572C274.465 58.4996 274.517 58.201 274.47 57.91L274.17 56.07C274.143 55.8973 274.08 55.7319 273.987 55.584C273.894 55.4362 273.771 55.3088 273.627 55.2096C273.483 55.1105 273.321 55.0417 273.149 55.0073C272.978 54.973 272.801 54.9739 272.63 55.01L270.9 55.36C270.662 55.4061 270.443 55.5208 270.27 55.69Z" fill="#FFC2BC"/>
<path d="M266.7 58.41L267.5 58.21L267.96 61.11L266.7 61.41V58.41Z" fill="white"/>
<path d="M267.37 61.4299C264.193 62.1024 260.971 62.5369 257.73 62.7299C254.39 62.9892 251.032 62.8347 247.73 62.2699C246.851 62.1019 245.983 61.8815 245.13 61.6099C244.29 61.3499 243.51 61.0699 242.73 60.7799C241.18 60.2099 239.73 59.5999 238.22 58.9299L236.45 58.1299C235.11 57.5099 233.79 56.8699 232.45 56.1999C231.45 55.7199 230.52 55.1999 229.56 54.6799L232.13 48.5699C234.88 49.9499 238.13 51.8199 240.89 53.1899C243.481 54.5824 246.187 55.7468 248.98 56.6699C250.38 57.0404 251.803 57.3177 253.24 57.4999C254.72 57.7099 256.24 57.8399 257.75 57.9599C259.26 58.0799 260.82 58.1499 262.36 58.1699C263.9 58.1899 265.48 58.2399 267 58.2599L267.37 61.4299Z" fill="#263238"/>
<path opacity="0.2" d="M236.42 58.13C235.08 57.51 233.76 56.87 232.42 56.2L231.9 53.36C233.901 54.3954 235.494 56.0762 236.42 58.13Z" fill="black"/>
<path d="M209.88 60.7C211.533 64.7656 212.851 68.9596 213.82 73.24C214.54 76.24 217.09 79.24 217.53 81.99C217.95 85.0232 218.551 88.0285 219.33 90.99C222.38 89.35 231.61 87.32 237.8 83.99C238.06 59.07 231.37 49.35 231.37 49.35C229.671 49.7821 228.002 50.3199 226.37 50.96L225.29 51.41C222.311 52.8157 219.408 54.3744 216.59 56.08C216.04 56.41 215.49 56.75 214.96 57.08C212.24 58.86 209.88 60.7 209.88 60.7Z" fill="#356BB3"/>
<path opacity="0.7" d="M209.88 60.7C211.533 64.7656 212.851 68.9596 213.82 73.24C214.54 76.24 217.09 79.24 217.53 81.99C217.95 85.0232 218.551 88.0285 219.33 90.99C222.38 89.35 231.61 87.32 237.8 83.99C238.06 59.07 231.37 49.35 231.37 49.35C229.671 49.7821 228.002 50.3199 226.37 50.96L225.29 51.41C222.311 52.8157 219.408 54.3744 216.59 56.08C216.04 56.41 215.49 56.75 214.96 57.08C212.24 58.86 209.88 60.7 209.88 60.7Z" fill="white"/>
<path d="M226.27 60.2299L226.65 57.9199L225.06 57.8199L224.09 58.8899L226.27 60.2299Z" fill="#356BB3"/>
<path d="M225.06 57.82C222.12 59.46 219.21 57.55 217.33 56.24L217.13 56.1C217.96 54.95 218.04 53.1 217.77 51.24C217.451 49.1847 216.901 47.1719 216.13 45.24L222.86 49.1C222.86 49.56 222.78 49.97 222.76 50.33C222.67 51.2 222.66 51.79 223.14 52.17C223.886 52.5863 224.737 52.7774 225.59 52.72C226.36 53.61 227.08 56.69 225.06 57.82Z" fill="#FFC2BC"/>
<path d="M215 57.1099C215 57.1099 223.47 65.9499 229.67 70.7599C229.67 70.7599 229.21 55.1299 226.41 50.9799L232.17 48.5699C232.17 48.5699 237.71 60.8099 238.5 81.2499L241 86.3999L234 93.5199L231.75 88.2399L230.24 96.9999L215.8 98.2799L217.57 88.2799L209.04 61.2799L215 57.1099Z" fill="#263238"/>
<path d="M225.51 59.76C225.51 59.76 227.51 66.58 227.37 70.22L229.95 71.56L230.41 69.56C230.41 69.56 228.14 60.77 226.05 59.23L225.51 59.76Z" fill="#356BB3"/>
<path d="M215.3 56.38C215.3 56.38 225.88 67.9899 229.62 70.7599C229.62 70.7599 228.53 55.04 226.1 51.09C226.1 51.09 227.77 49.94 231.33 53.41L229.55 56.71L232.71 58.89C232.71 58.89 231.63 70.6699 229.55 76.2599C229.701 75.0795 229.768 73.8899 229.75 72.7L217.34 65.82L217.89 62.02L213.2 61.82C213.2 61.82 213.72 57.33 215.3 56.38Z" fill="#263238"/>
<path opacity="0.2" d="M215.3 56.38C215.3 56.38 225.88 67.9899 229.62 70.7599C229.62 70.7599 228.53 55.04 226.1 51.09C226.1 51.09 227.77 49.94 231.33 53.41L229.55 56.71L232.71 58.89C232.71 58.89 231.63 70.6699 229.55 76.2599C229.701 75.0795 229.768 73.8899 229.75 72.7L217.34 65.82L217.89 62.02L213.2 61.82C213.2 61.82 213.72 57.33 215.3 56.38Z" fill="white"/>
<path d="M258.38 1.81995C258.38 1.81995 252.38 1.13995 249.03 2.71995C245.68 4.29995 242.31 9.44995 236.87 9.93995C231.43 10.4299 230.34 8.65995 230.34 8.65995C230.34 8.65995 235.13 17.1599 244.34 17.0699C253.55 16.9799 258.34 15.4599 263.77 18.8799C263.79 18.8799 259.61 4.46995 258.38 1.81995Z" fill="#356BB3"/>
<path opacity="0.2" d="M223.14 52.1499C222.58 53.8899 221.19 56.3499 217.9 56.2899C217.71 56.3057 217.52 56.3057 217.33 56.2899L217.13 56.1499C217.96 54.9999 218.04 53.1499 217.77 51.2899C219.249 50.3328 221.046 49.9986 222.77 50.3599C222.67 51.1799 222.66 51.7699 223.14 52.1499Z" fill="black"/>
<path d="M225.06 57.82C225.113 59.0283 224.854 60.2299 224.31 61.31C222.46 61.05 216.93 58.31 216.65 56.02C216.792 55.4703 217.091 54.9736 217.51 54.59C219.618 56.4438 222.263 57.5755 225.06 57.82Z" fill="white"/>
<path d="M225.06 57.82C226.089 58.0872 227.048 58.5751 227.87 59.25C228.39 57.1 226.24 51.93 225.69 51.65C224.793 51.5631 223.889 51.7149 223.07 52.09C223.07 52.09 226.09 54.91 225.06 57.82Z" fill="white"/>
<path d="M210.25 43.08C210.14 44.79 211.25 47.99 213.17 46.39C215.09 44.79 210.44 40.14 210.25 43.08Z" fill="#263238"/>
<path d="M222.22 42.43C223.46 46.43 224.39 48.75 223.16 51.5C221.3 55.64 215.74 55.63 213.31 52.04C211.13 48.82 209.46 42.78 212.75 39.79C213.477 39.1304 214.36 38.6659 215.315 38.4398C216.271 38.2136 217.268 38.2333 218.213 38.497C219.159 38.7606 220.023 39.2596 220.723 39.9474C221.424 40.6352 221.939 41.4893 222.22 42.43Z" fill="#FFC2BC"/>
<path d="M222.86 37.34C222.46 34.72 219.35 35.09 217.53 36.47V41.64C218.232 41.3063 218.902 40.9079 219.53 40.45C219.53 40.45 220.24 44.32 222.61 45.45C225.63 42.52 225.88 38 222.86 37.34Z" fill="#263238"/>
<path d="M225 45.14C225.057 46.1909 224.698 47.2221 224 48.0099C223.05 49.0099 221.83 48.36 221.48 47.07C221.13 45.78 221.27 44 222.48 43.45C222.757 43.3344 223.059 43.2893 223.358 43.3187C223.657 43.3481 223.944 43.451 224.194 43.6184C224.443 43.7857 224.647 44.0123 224.788 44.2778C224.929 44.5433 225.002 44.8395 225 45.14Z" fill="#FFC2BC"/>
<path d="M216.64 45.73C216.76 46.05 216.64 46.37 216.47 46.45C216.3 46.53 215.99 46.33 215.87 46.01C215.75 45.69 215.87 45.37 216.04 45.29C216.21 45.21 216.51 45.41 216.64 45.73Z" fill="#263238"/>
<path d="M213 47.0599C213.13 47.3799 213.05 47.6999 212.84 47.7799C212.63 47.8599 212.36 47.6599 212.24 47.3399C212.12 47.0199 212.19 46.6999 212.4 46.6199C212.61 46.5399 212.87 46.7399 213 47.0599Z" fill="#263238"/>
<path d="M214.21 46.8C214.17 47.8913 213.979 48.9718 213.64 50.01C213.917 50.0794 214.206 50.0885 214.488 50.0368C214.769 49.985 215.036 49.8736 215.27 49.71L214.21 46.8Z" fill="#ED893E"/>
<path d="M217.46 50.31L217.05 50.49C217.025 50.4993 216.997 50.4982 216.973 50.4869C216.948 50.4757 216.929 50.4552 216.92 50.43C216.911 50.4048 216.912 50.377 216.923 50.3526C216.934 50.3282 216.955 50.3093 216.98 50.3C217.382 50.1628 217.747 49.933 218.044 49.629C218.341 49.325 218.562 48.9554 218.69 48.55C218.692 48.5367 218.697 48.5241 218.705 48.5128C218.712 48.5016 218.722 48.4919 218.733 48.4844C218.744 48.477 218.757 48.4718 218.77 48.4694C218.783 48.4669 218.797 48.4671 218.81 48.47C218.823 48.4721 218.836 48.4771 218.846 48.4847C218.857 48.4922 218.867 48.502 218.873 48.5135C218.88 48.525 218.884 48.5378 218.885 48.551C218.886 48.5642 218.885 48.5775 218.88 48.59C218.773 48.9584 218.592 49.3011 218.348 49.5969C218.104 49.8927 217.801 50.1354 217.46 50.31Z" fill="#263238"/>
<path d="M217.32 44.1499C217.288 44.1674 217.252 44.1766 217.215 44.1766C217.178 44.1766 217.142 44.1674 217.11 44.1499C216.9 44.007 216.659 43.9161 216.407 43.8848C216.155 43.8535 215.899 43.8827 215.66 43.9699C215.611 43.9912 215.555 43.992 215.506 43.9723C215.456 43.9526 215.416 43.914 215.395 43.865C215.374 43.8159 215.373 43.7604 215.393 43.7107C215.412 43.661 215.451 43.6212 215.5 43.6C215.8 43.4857 216.122 43.4452 216.441 43.4817C216.759 43.5183 217.064 43.6308 217.33 43.8099C217.374 43.8404 217.404 43.8862 217.415 43.9381C217.426 43.9901 217.417 44.0443 217.39 44.0899C217.371 44.1145 217.347 44.1349 217.32 44.1499Z" fill="#263238"/>
<path d="M211 46.3899C210.961 46.4045 210.919 46.4045 210.88 46.3899C210.854 46.3874 210.828 46.3797 210.805 46.3673C210.781 46.3549 210.761 46.3379 210.744 46.3175C210.727 46.297 210.715 46.2734 210.707 46.2481C210.7 46.2228 210.697 46.1962 210.7 46.1699C210.728 45.8485 210.834 45.5388 211.008 45.2671C211.182 44.9955 211.42 44.77 211.7 44.6099C211.724 44.598 211.749 44.5908 211.776 44.5888C211.802 44.5868 211.829 44.5902 211.854 44.5985C211.879 44.6069 211.902 44.6202 211.922 44.6376C211.942 44.655 211.958 44.6762 211.97 44.6999C211.995 44.7464 212 44.8008 211.986 44.8514C211.971 44.902 211.936 44.9446 211.89 44.9699C211.673 45.0999 211.492 45.2808 211.361 45.4969C211.23 45.713 211.154 45.9578 211.14 46.2099C211.138 46.2506 211.123 46.2897 211.098 46.3219C211.073 46.354 211.039 46.3778 211 46.3899Z" fill="#263238"/>
<path d="M219.44 40.4799C219.44 40.4799 216.91 43.09 214.44 42.96C215.106 42.6571 215.712 42.2371 216.23 41.72C216.23 41.72 211.4 43.81 209.02 42.72C206.64 41.63 206.91 40.4499 206.91 40.4499C206.91 40.4499 207.18 41.14 209.49 41.07C209.49 41.07 207.49 39.76 208.3 37.91C208.416 38.1313 208.585 38.3199 208.793 38.458C209.001 38.5961 209.241 38.6794 209.49 38.6999C210.274 37.4931 211.326 36.4841 212.565 35.752C213.803 35.0198 215.195 34.5845 216.63 34.48C221.82 33.89 222.87 35.94 223.1 37.48C223.33 39.02 219.44 40.4799 219.44 40.4799Z" fill="#263238"/>
<path d="M136.34 310.49H65.54C64.8442 310.49 64.28 311.054 64.28 311.75V327.89C64.28 328.586 64.8442 329.15 65.54 329.15H136.34C137.036 329.15 137.6 328.586 137.6 327.89V311.75C137.6 311.054 137.036 310.49 136.34 310.49Z" fill="#356BB3"/>
<path opacity="0.2" d="M70.4599 311.57H67.5599V328.24H70.4599V311.57Z" fill="black"/>
<path opacity="0.2" d="M77.0499 311.49H74.9399V328.16H77.0499V311.49Z" fill="black"/>
<path opacity="0.2" d="M83.1099 311.57H82.0599V328.24H83.1099V311.57Z" fill="black"/>
<path opacity="0.2" d="M91.29 311.49H90.76V328.16H91.29V311.49Z" fill="black"/>
<path opacity="0.2" d="M131.42 328.16H134.32V311.49H131.42V328.16Z" fill="black"/>
<path opacity="0.2" d="M124.83 328.24H126.94V311.57H124.83V328.24Z" fill="black"/>
<path opacity="0.2" d="M118.76 328.16H119.81V311.49H118.76V328.16Z" fill="black"/>
<path opacity="0.2" d="M110.58 328.24H111.11V311.57H110.58V328.24Z" fill="black"/>
<path opacity="0.2" d="M100.81 328.24H101.07V311.57H100.81V328.24Z" fill="black"/>
<path opacity="0.2" d="M135.64 313.33H66.3899C66.274 313.331 66.159 313.309 66.0516 313.266C65.9442 313.222 65.8467 313.157 65.7647 313.075C65.6827 312.993 65.618 312.896 65.5742 312.788C65.5305 312.681 65.5086 312.566 65.5099 312.45C65.5099 312.217 65.6027 311.993 65.7677 311.828C65.9327 311.663 66.1566 311.57 66.3899 311.57H135.64C135.873 311.57 136.097 311.663 136.262 311.828C136.427 311.993 136.52 312.217 136.52 312.45C136.521 312.566 136.499 312.681 136.456 312.788C136.412 312.896 136.347 312.993 136.265 313.075C136.183 313.157 136.086 313.222 135.978 313.266C135.871 313.309 135.756 313.331 135.64 313.33Z" fill="white"/>
<path d="M137.34 291.88H66.54C65.8442 291.88 65.28 292.444 65.28 293.14V309.28C65.28 309.976 65.8442 310.54 66.54 310.54H137.34C138.036 310.54 138.6 309.976 138.6 309.28V293.14C138.6 292.444 138.036 291.88 137.34 291.88Z" fill="#356BB3"/>
<path opacity="0.2" d="M71.4599 292.96H68.5599V309.63H71.4599V292.96Z" fill="black"/>
<path opacity="0.2" d="M78.0499 292.88H75.9399V309.55H78.0499V292.88Z" fill="black"/>
<path opacity="0.2" d="M84.1099 292.96H83.0599V309.63H84.1099V292.96Z" fill="black"/>
<path opacity="0.2" d="M92.3 292.88H91.77V309.55H92.3V292.88Z" fill="black"/>
<path opacity="0.2" d="M132.42 309.54H135.32V292.87H132.42V309.54Z" fill="black"/>
<path opacity="0.2" d="M125.82 309.62H127.93V292.95H125.82V309.62Z" fill="black"/>
<path opacity="0.2" d="M119.76 309.54H120.81V292.87H119.76V309.54Z" fill="black"/>
<path opacity="0.2" d="M111.58 309.62H112.11V292.95H111.58V309.62Z" fill="black"/>
<path opacity="0.2" d="M101.81 309.62H102.07V292.95H101.81V309.62Z" fill="black"/>
<path opacity="0.2" d="M136.64 294.72H67.3899C67.1566 294.72 66.9327 294.627 66.7677 294.462C66.6027 294.297 66.5099 294.073 66.5099 293.84C66.5086 293.724 66.5305 293.609 66.5742 293.502C66.618 293.394 66.6827 293.297 66.7647 293.215C66.8467 293.133 66.9442 293.068 67.0516 293.024C67.159 292.981 67.274 292.959 67.3899 292.96H136.64C136.756 292.959 136.871 292.981 136.978 293.024C137.086 293.068 137.183 293.133 137.265 293.215C137.347 293.297 137.412 293.394 137.456 293.502C137.499 293.609 137.521 293.724 137.52 293.84C137.52 294.073 137.427 294.297 137.262 294.462C137.097 294.627 136.873 294.72 136.64 294.72Z" fill="white"/>
<path d="M133.34 273.27H62.54C61.8442 273.27 61.28 273.834 61.28 274.53V290.67C61.28 291.366 61.8442 291.93 62.54 291.93H133.34C134.036 291.93 134.6 291.366 134.6 290.67V274.53C134.6 273.834 134.036 273.27 133.34 273.27Z" fill="#356BB3"/>
<path opacity="0.2" d="M67.45 274.34H64.55V291.01H67.45V274.34Z" fill="black"/>
<path opacity="0.2" d="M74.0499 274.26H71.9399V290.93H74.0499V274.26Z" fill="black"/>
<path opacity="0.2" d="M80.1099 274.34H79.0599V291.01H80.1099V274.34Z" fill="black"/>
<path opacity="0.2" d="M88.29 274.26H87.76V290.93H88.29V274.26Z" fill="black"/>
<path opacity="0.2" d="M128.41 290.93H131.31V274.26H128.41V290.93Z" fill="black"/>
<path opacity="0.2" d="M121.83 291.01H123.94V274.34H121.83V291.01Z" fill="black"/>
<path opacity="0.2" d="M115.76 290.93H116.81V274.26H115.76V290.93Z" fill="black"/>
<path opacity="0.2" d="M107.58 291.01H108.11V274.34H107.58V291.01Z" fill="black"/>
<path opacity="0.2" d="M97.81 291.01H98.0699V274.34H97.81V291.01Z" fill="black"/>
<path opacity="0.2" d="M132.64 276.1H63.3899C63.274 276.101 63.159 276.079 63.0516 276.036C62.9442 275.992 62.8467 275.927 62.7647 275.845C62.6827 275.763 62.618 275.666 62.5742 275.558C62.5305 275.451 62.5086 275.336 62.5099 275.22C62.5099 274.987 62.6027 274.763 62.7677 274.598C62.9327 274.433 63.1566 274.34 63.3899 274.34H132.64C132.873 274.343 133.095 274.436 133.259 274.601C133.424 274.765 133.517 274.987 133.52 275.22C133.52 275.453 133.427 275.677 133.262 275.842C133.097 276.007 132.873 276.1 132.64 276.1Z" fill="white"/>
<path d="M93.46 260.93L91.45 265.88L89.93 269.62L86.11 268.26L87.48 264.9L89.64 259.56L93.46 260.93Z" fill="#E4897B"/>
<path d="M175.1 234.43L171.85 236.84L170.66 234.2L167.9 228.1L171.15 225.68L173.76 231.46L175.1 234.43Z" fill="#E4897B"/>
<path opacity="0.2" d="M89.64 259.56L93.46 260.93L91.45 265.88L87.48 264.9L89.64 259.56Z" fill="black"/>
<path opacity="0.2" d="M173.76 231.46L170.66 234.2L167.9 228.1L171.15 225.68L173.76 231.46Z" fill="black"/>
<path d="M122.13 123.88C122.24 124.19 122.49 124.38 122.69 124.31C122.89 124.24 122.97 123.93 122.86 123.62C122.75 123.31 122.5 123.12 122.3 123.19C122.1 123.26 122 123.57 122.13 123.88Z" fill="#263238"/>
<path d="M122.46 124.39C123.159 125.2 123.967 125.91 124.86 126.5C124.705 126.727 124.502 126.916 124.265 127.054C124.028 127.193 123.763 127.277 123.49 127.3L122.46 124.39Z" fill="#DE5753"/>
<path d="M120.4 122.57C120.354 122.583 120.306 122.583 120.26 122.57C120.227 122.535 120.208 122.488 120.208 122.44C120.208 122.392 120.227 122.345 120.26 122.31C120.427 122.057 120.652 121.847 120.917 121.697C121.181 121.548 121.477 121.463 121.78 121.45C121.831 121.453 121.88 121.475 121.915 121.512C121.95 121.549 121.97 121.599 121.97 121.65C121.97 121.676 121.965 121.701 121.955 121.725C121.944 121.749 121.93 121.77 121.911 121.788C121.892 121.806 121.87 121.82 121.846 121.828C121.821 121.837 121.796 121.841 121.77 121.84C121.529 121.85 121.294 121.918 121.086 122.038C120.877 122.158 120.7 122.327 120.57 122.53C120.546 122.548 120.518 122.561 120.489 122.568C120.46 122.574 120.429 122.575 120.4 122.57Z" fill="#263238"/>
<path d="M114.73 128.92C114.78 131.92 114.4 137.38 112.01 138.97C112.01 138.97 112.28 142.07 117.7 143.03C123.7 144.1 121.08 140.58 121.08 140.58C117.97 139.23 118.48 136.83 119.45 134.66L114.73 128.92Z" fill="#E4897B"/>
<path d="M111.63 126.85C113.19 130.55 113.92 132.85 116.52 134.07C120.42 135.97 124.52 132.59 124.05 128.5C123.67 124.81 121.17 119.38 116.93 119.18C115.997 119.132 115.068 119.324 114.23 119.737C113.392 120.149 112.673 120.769 112.142 121.538C111.611 122.306 111.285 123.197 111.196 124.127C111.106 125.057 111.256 125.994 111.63 126.85Z" fill="#E4897B"/>
<path d="M114.27 132.87C116.03 133.58 121.56 129.62 119.67 125.06C119.67 125.06 121.56 122.01 120.88 119.06C120.2 116.11 117.98 115.22 115.88 116.18C114.02 117.02 114.22 118.07 114.22 118.07C114.22 118.07 105.22 120.43 107.68 123.88C104.51 128.44 112.06 132 114.27 132.87Z" fill="#263238"/>
<path d="M118.19 126.1C118.586 127.016 119.271 127.778 120.14 128.27C121.3 128.9 121.97 128.02 121.73 126.85C121.49 125.68 120.66 124.2 119.46 124.05C118.26 123.9 117.73 125 118.19 126.1Z" fill="#E4897B"/>
<path d="M110.57 139C110.15 138.16 109.69 137.2 110.71 136.94C111.73 136.68 118.97 136.26 121.04 136.94C120.36 138.07 121.41 139.51 121.41 139.51L110.57 139Z" fill="#356BB3"/>
<path opacity="0.5" d="M110.57 139C110.15 138.16 109.69 137.2 110.71 136.94C111.73 136.68 118.97 136.26 121.04 136.94C120.36 138.07 121.41 139.51 121.41 139.51L110.57 139Z" fill="#FAFAFA"/>
<path d="M90.19 268H85.77C85.6898 268.001 85.6123 268.029 85.5504 268.08C85.4885 268.131 85.446 268.201 85.43 268.28L84.63 271.88C84.6083 271.967 84.6071 272.058 84.6264 272.145C84.6457 272.233 84.6849 272.314 84.7411 272.384C84.7973 272.454 84.8689 272.51 84.9502 272.547C85.0316 272.585 85.1205 272.603 85.21 272.6C86.8 272.6 89.11 272.48 91.11 272.48C93.46 272.48 95.48 272.61 98.23 272.61C99.9 272.61 100.36 270.93 99.66 270.78C96.49 270.08 93.91 270.01 91.17 268.32C90.8784 268.126 90.5396 268.016 90.19 268Z" fill="#263238"/>
<path d="M118.79 174.75C118.79 174.75 117.53 183.24 116 193C115.33 197.18 114.61 201.59 113.9 205.67C113.11 210.24 112.34 214.38 111.7 217.3C108.91 230 94.1 265 94.1 265L86.85 263.43C86.85 263.43 97.21 236.2 99.52 218.43C101.31 204.8 104.82 174.74 104.82 174.74L118.79 174.75Z" fill="#263238"/>
<path d="M95.8299 262.57L94.4799 265.19L86.3199 263.42L86.9999 261L95.8299 262.57Z" fill="#356BB3"/>
<path opacity="0.3" d="M95.8299 262.57L94.4799 265.19L86.3199 263.42L86.9999 261L95.8299 262.57Z" fill="black"/>
<path opacity="0.2" d="M116 193C115.33 197.18 114.61 201.59 113.9 205.67C111.9 197.6 112.55 192.77 112.55 192.77L116 193Z" fill="black"/>
<path d="M106.94 146.41C104.99 148.25 102.94 150.2 101.08 152.15C99.2005 154.059 97.4182 156.062 95.74 158.15C95.0239 159.185 94.3791 160.267 93.81 161.39C93.19 162.6 92.56 163.83 91.96 165.09L88.29 172.67L85.41 171.67C86.03 168.86 86.82 166.12 87.68 163.37C88.13 162 88.61 160.63 89.14 159.26C89.699 157.787 90.3849 156.365 91.19 155.01C92.815 152.531 94.6412 150.19 96.65 148.01C98.5926 145.829 100.663 143.765 102.85 141.83L106.94 146.41Z" fill="#DC897C"/>
<path d="M85.17 179.07L86.64 176.46L82.16 175.1C81.9074 175.704 81.784 176.354 81.7978 177.008C81.8116 177.663 81.9622 178.307 82.24 178.9L85.17 179.07Z" fill="#E4897B"/>
<path d="M88.28 172.63L85.41 171.7L82.16 175.1L86.64 176.46L88.28 172.63Z" fill="#E4897B"/>
<path d="M175.05 233.88L171.4 236.59C171.336 236.639 171.291 236.708 171.271 236.786C171.251 236.864 171.258 236.946 171.29 237.02L172.79 240.39C172.825 240.473 172.88 240.546 172.948 240.604C173.017 240.662 173.098 240.703 173.185 240.724C173.272 240.746 173.363 240.746 173.451 240.727C173.539 240.707 173.62 240.667 173.69 240.61C174.95 239.61 175.52 239.11 177.12 237.92C178.12 237.19 180.4 235.58 181.77 234.57C183.14 233.56 182.31 232.07 181.66 232.37C178.75 233.68 177.07 233.82 175.73 233.69C175.488 233.669 175.246 233.736 175.05 233.88Z" fill="#263238"/>
<path d="M105.2 139.38C101.31 139.14 95.5699 147.55 95.5699 147.55L101.23 155.28C103.714 153.831 105.781 151.764 107.23 149.28C109.92 144.74 109.17 139.63 105.2 139.38Z" fill="#356BB3"/>
<path opacity="0.6" d="M105.2 139.38C101.31 139.14 95.5699 147.55 95.5699 147.55L101.23 155.28C103.714 153.831 105.781 151.764 107.23 149.28C109.92 144.74 109.17 139.63 105.2 139.38Z" fill="#FAFAFA"/>
<path opacity="0.2" d="M106.3 147.14C103.75 148.51 102.05 151.88 100.98 154.93L101.23 155.28C103.714 153.831 105.781 151.764 107.23 149.28C107.39 149.02 107.54 148.74 107.68 148.47L106.3 147.14Z" fill="black"/>
<path d="M128.22 138.76C128.22 138.76 130.55 144.62 126.47 174.76H104.82C104.67 171.43 106.76 155.21 103.55 139.55C105.944 139.085 108.366 138.778 110.8 138.63C113.57 138.5 122.8 136.63 125.24 136.86C128.45 137.14 128.22 138.76 128.22 138.76Z" fill="#356BB3"/>
<path opacity="0.6" d="M128.73 152.05C128.47 157.38 127.82 164.72 126.47 174.75H104.82C104.67 171.42 106.76 155.2 103.55 139.54C105.944 139.075 108.366 138.768 110.8 138.62C113.57 138.49 122.8 136.62 125.24 136.85C128.45 137.14 128.24 138.76 128.24 138.76C128.24 138.76 128.73 139.99 128.86 144.22C128.91 146.15 128.9 148.7 128.73 152.05Z" fill="#FAFAFA"/>
<path d="M125.59 173L129.87 183C129.87 183 150.6 185.6 156.48 192.73C162.36 199.86 173.48 228.79 173.48 228.79L167.94 233.5C167.94 233.5 152.04 204.26 147.59 200.73C143.14 197.2 117.81 197.21 112.15 195.1C106.49 192.99 104.86 174.72 104.86 174.72L125.59 173Z" fill="#263238"/>
<path d="M166.76 232.95L173.44 227.83L174.3 229.48L167.9 234.53L166.76 232.95Z" fill="#356BB3"/>
<path opacity="0.3" d="M166.76 232.95L173.44 227.83L174.3 229.48L167.9 234.53L166.76 232.95Z" fill="black"/>
<path d="M121 120.5C121 120.5 120.75 114.56 117.61 114.36C114.47 114.16 112 117 112 117C111.696 116.621 111.311 116.315 110.873 116.103C110.435 115.892 109.956 115.782 109.47 115.78C107.69 115.68 104.59 118.71 104.59 118.71C104.59 118.71 108.46 116.33 110.09 117.42C110.09 117.42 105.7 118.64 104.59 121.42C104.114 122.832 103.328 124.12 102.29 125.19H104.59L103.08 127.76C103.08 127.76 106.26 130.83 108.66 130.32L107.89 131.78C107.89 131.78 112.6 133.5 114.52 132.97C116.44 132.44 114.62 122.88 114.62 122.88L121 120.5Z" fill="#263238"/>
<path opacity="0.2" d="M128.73 152.05C124.8 149.38 124.86 143.23 124.86 143.23L128.86 144.23C128.91 146.15 128.9 148.7 128.73 152.05Z" fill="black"/>
<path d="M92.48 182.41L65.77 177.92L58.86 198.48L63.28 206.51L92.44 210.35L98.35 187.95L92.48 182.41Z" fill="#356BB3"/>
<path opacity="0.4" d="M58.86 198.48L60.58 201.61L60.97 202.3L63.28 206.51L92.44 210.35L98.35 187.95L95.84 185.59L95.07 184.86L92.49 182.41L65.77 177.92L58.86 198.48Z" fill="black"/>
<path opacity="0.2" d="M98.35 187.95L71.91 183.84L65.77 177.92L92.49 182.41L98.35 187.95Z" fill="white"/>
<path opacity="0.1" d="M71.91 183.84L63.28 206.51L58.86 198.48L65.77 177.92L71.91 183.84Z" fill="white"/>
<path d="M60.58 201.61L60.97 202.3L68.96 181.07L95.84 185.59L95.07 184.86L68.48 180.6L60.58 201.61Z" fill="#263238"/>
<path d="M86.82 183.63L85.47 182.38L78.74 181.16L79.92 182.52L86.82 183.63Z" fill="#263238"/>
<path d="M89.42 184.13C89.42 184.13 89.73 177.07 89.54 176.6C89.35 176.13 79.88 174.6 79.17 174.45C78.46 174.3 75.34 181.18 75.34 181.18L75.88 182.01L77.67 182.25C77.67 182.25 79.94 176.32 80.17 176.17C82.7647 176.446 85.3421 176.867 87.89 177.43C88.09 177.59 87.31 182.98 87.31 182.98L87.92 183.86L89.42 184.13Z" fill="#263238"/>
<path d="M60.6699 195.35L62.6699 197.92L62.8599 197.41L64.3699 193.41L64.5499 192.93L64.8699 192.07C64.8699 192.07 64.2999 192.71 63.5199 193.44C62.7111 194.265 61.7409 194.916 60.6699 195.35Z" fill="#356BB3"/>
<path opacity="0.2" d="M61.3199 195.54L62.8099 197.41L64.3199 193.41L64.4999 192.93C63.6711 194.049 62.5788 194.945 61.3199 195.54Z" fill="white"/>
<path opacity="0.2" d="M63.47 193.43H64.32L64.82 192.09C64.82 192.09 64.25 192.7 63.47 193.43Z" fill="black"/>
<path d="M59.9399 190.32L59.5699 193.94C61.0645 193.257 62.7284 193.034 64.3499 193.3L64.5399 192.8L65.6999 189.69L65.8299 189.37C63.8175 189.172 61.7881 189.499 59.9399 190.32Z" fill="#356BB3"/>
<path d="M63.74 184.18C64.4387 185.542 65.3577 186.778 66.46 187.84L66.6 187.46L66.96 186.46L67.56 184.81L67.85 184.01L67.93 183.78C67.451 183.047 67.0361 182.274 66.69 181.47L63.74 184.18Z" fill="#356BB3"/>
<path d="M69.86 179.52C70.2247 180.091 70.5075 180.71 70.7 181.36L71.12 181.43L71.7 181.52L72.63 181.69L73.52 181.84L73.83 181.89C73.8142 180.501 73.2955 179.165 72.37 178.13L69.86 179.52Z" fill="#356BB3"/>
<path opacity="0.2" d="M70.4199 179.62C70.7184 180.196 70.9531 180.803 71.1199 181.43L71.6999 181.52C71.6509 181.444 71.6193 181.358 71.6072 181.268C71.5951 181.178 71.6029 181.086 71.6299 181C71.6559 180.921 71.6973 180.848 71.7516 180.785C71.806 180.722 71.8723 180.671 71.9466 180.633C72.021 180.596 72.102 180.574 72.1849 180.568C72.2679 180.563 72.3511 180.573 72.4299 180.6C72.5085 180.625 72.5814 180.665 72.6442 180.719C72.7071 180.772 72.7586 180.837 72.7958 180.911C72.8331 180.985 72.8553 181.065 72.8611 181.147C72.867 181.229 72.8564 181.312 72.8299 181.39C72.7934 181.507 72.724 181.611 72.6299 181.69L73.5199 181.84C73.4672 180.663 73.0593 179.53 72.3499 178.59L70.4199 179.62Z" fill="white"/>
<path opacity="0.2" d="M60.18 190.46L59.95 193.39C61.4263 192.894 62.986 192.693 64.54 192.8L65.7 189.69C63.8243 189.463 61.9218 189.728 60.18 190.46ZM63.39 190.22C63.5101 190.178 63.6381 190.165 63.7643 190.18C63.8905 190.196 64.0114 190.24 64.1177 190.31C64.2239 190.38 64.3128 190.473 64.3773 190.583C64.4419 190.692 64.4804 190.815 64.4899 190.942C64.4994 191.069 64.4796 191.196 64.4322 191.314C64.3847 191.432 64.3108 191.537 64.2161 191.622C64.1214 191.707 64.0085 191.769 63.886 191.803C63.7636 191.838 63.6349 191.843 63.51 191.82C63.3899 191.862 63.2618 191.875 63.1356 191.86C63.0094 191.844 62.8885 191.8 62.7822 191.73C62.676 191.66 62.5871 191.567 62.5226 191.457C62.4581 191.348 62.4195 191.225 62.41 191.098C62.4005 190.971 62.4203 190.844 62.4677 190.726C62.5152 190.608 62.5892 190.503 62.6838 190.418C62.7785 190.333 62.8914 190.271 63.0139 190.237C63.1363 190.202 63.265 190.197 63.39 190.22Z" fill="white"/>
<path opacity="0.2" d="M64.25 184.34C64.9074 185.469 65.6963 186.516 66.6 187.46L66.96 186.46C66.7555 186.377 66.5912 186.219 66.5016 186.017C66.412 185.816 66.4043 185.587 66.48 185.38C66.5428 185.174 66.6803 185 66.8654 184.891C67.0505 184.782 67.2697 184.746 67.48 184.79L67.77 183.99C67.2619 183.428 66.8497 182.786 66.55 182.09L64.25 184.34Z" fill="white"/>
<path d="M153.73 119.86L155.27 117.29L158.67 120.51C158.27 121.027 157.766 121.456 157.191 121.767C156.616 122.079 155.982 122.267 155.33 122.32L153.73 119.86Z" fill="#E4897B"/>
<path d="M157.65 113.85L160.06 117.24L158.67 120.51L155.27 117.29L157.65 113.85Z" fill="#E4897B"/>
<path d="M127.12 137.36C129.887 136.792 132.624 136.085 135.32 135.24C137.917 134.47 140.41 133.381 142.74 132C142.953 131.867 143.157 131.72 143.35 131.56L144.04 130.92C144.52 130.46 145.04 129.92 145.49 129.44C146.44 128.38 147.42 127.29 148.36 126.17C150.29 123.95 152.17 121.64 154.11 119.39L156.64 121.07C155.25 123.78 153.71 126.36 152.08 128.93C151.25 130.2 150.4 131.48 149.46 132.73C148.99 133.35 148.46 133.98 147.96 134.61C147.7 134.92 147.37 135.24 147.08 135.56C146.722 135.914 146.345 136.248 145.95 136.56C143.295 138.465 140.374 139.968 137.28 141.02C134.322 142.09 131.278 142.903 128.18 143.45L127.12 137.36Z" fill="#DC897C"/>
<path d="M125.83 146.1C130.04 149.75 139.29 143.49 139.29 143.49L135.6 134.38C132.206 134.776 128.857 135.496 125.6 136.53C119.75 138.52 122.61 143.32 125.83 146.1Z" fill="#356BB3"/>
<path opacity="0.6" d="M125.83 146.1C130.04 149.75 139.29 143.49 139.29 143.49L135.6 134.38C132.206 134.776 128.857 135.496 125.6 136.53C119.75 138.52 122.61 143.32 125.83 146.1Z" fill="#FAFAFA"/>
</svg>
