<svg width="123" height="123" viewBox="0 0 123 123" fill="none" xmlns="http://www.w3.org/2000/svg">
<g clip-path="url(#clip0_276_1565)">
<path d="M61.4401 6.04868e-05C75.66 -0.0040042 89.4414 4.92291 100.436 13.9412C111.43 22.9595 118.957 35.5112 121.734 49.4573C124.511 63.4034 122.367 77.881 115.665 90.423C108.964 102.965 98.1215 112.795 84.9847 118.239C71.8479 123.682 57.23 124.402 43.622 120.275C30.014 116.149 18.258 107.431 10.3573 95.608C2.45649 83.785 -1.1001 69.5881 0.293534 55.4366C1.68717 41.2851 7.9448 28.0548 18.0001 18.0001C23.6968 12.2843 30.4675 7.75151 37.9227 4.66235C45.3778 1.5732 53.3703 -0.0112838 61.4401 6.04868e-05Z" fill="#FECB00"/>
<path fill-rule="evenodd" clip-rule="evenodd" d="M61.44 8.73998C68.361 8.73867 75.2145 10.1009 81.609 12.7489C88.0034 15.3968 93.8135 19.2786 98.7075 24.1725C103.601 29.0664 107.483 34.8766 110.131 41.271C112.779 47.6655 114.141 54.5189 114.14 61.44C114.14 61.75 114.14 62.05 114.14 62.36C113.96 52.3806 110.847 42.6749 105.19 34.4519C99.5333 26.2289 91.5819 19.8521 82.3266 16.116C73.0713 12.3798 62.9212 11.4495 53.1409 13.4408C43.3606 15.4322 34.3824 20.2572 27.3248 27.3148C20.2672 34.3724 15.4422 43.3506 13.4508 53.1309C11.4595 62.9112 12.3898 73.0612 16.126 82.3165C19.8621 91.5719 26.2389 99.5233 34.4619 105.18C42.6849 110.837 52.3907 113.95 62.37 114.13H61.45C47.4731 114.13 34.0686 108.578 24.1855 98.6945C14.3023 88.8113 8.75 75.4069 8.75 61.43C8.75 47.4531 14.3023 34.0486 24.1855 24.1655C34.0686 14.2823 47.4731 8.72998 61.45 8.72998L61.44 8.73998Z" fill="#D08B00"/>
<path fill-rule="evenodd" clip-rule="evenodd" d="M63.2802 12.4102C73.3413 12.4102 83.1765 15.3936 91.542 20.9833C99.9075 26.573 106.428 34.5178 110.278 43.813C114.128 53.1083 115.136 63.3366 113.173 73.2044C111.21 83.0722 106.365 92.1364 99.2507 99.2507C92.1364 106.365 83.0722 111.21 73.2044 113.173C63.3366 115.136 53.1083 114.128 43.813 110.278C34.5178 106.428 26.573 99.9075 20.9833 91.542C15.3936 83.1765 12.4102 73.3413 12.4102 63.2802C12.4102 49.7886 17.7697 36.8496 27.3096 27.3096C36.8496 17.7697 49.7886 12.4102 63.2802 12.4102Z" fill="#DB9300"/>
<path d="M74.7501 63.9098L73.1001 70.9098H61.6201C63.1001 75.6998 66.3401 78.0898 71.2901 78.0898C76.84 78.0549 82.2187 76.1646 86.5701 72.7198V87.1298C82.3521 89.9477 77.3606 91.3808 72.2901 91.2298C63.3035 91.2298 56.6368 89.1365 52.2901 84.9498C48.2477 81.2334 45.4858 76.3326 44.4001 70.9498H37.6401L39.4301 63.9498H43.6101C43.5467 63.2852 43.52 62.6175 43.5301 61.9498C43.5301 60.9498 43.5301 60.1898 43.6101 59.7298H38.6101L40.4001 52.7298H44.5201C47.7668 39.4698 56.7501 32.8398 71.4701 32.8398C76.5946 32.9077 81.6219 34.2479 86.1001 36.7398L82.7001 50.7398C79.2601 47.5265 75.6768 45.9198 71.9501 45.9198C67.0568 45.9198 63.7501 48.1598 62.0301 52.6398H75.6801L74.0301 59.6398H60.7201C60.655 60.3713 60.6283 61.1056 60.6401 61.8398V63.8398L74.7501 63.9098Z" fill="#B17600"/>
<path d="M72.11 61.52L70.46 68.4H58.98C60.46 73.1 63.7 75.4 68.65 75.4C74.1809 75.3695 79.5476 73.5173 83.92 70.13V84.27C79.6942 87.0284 74.7241 88.4245 69.68 88.27C60.6933 88.27 54.0267 86.22 49.68 82.12C45.653 78.4963 42.8857 73.6834 41.78 68.38H35L36.79 61.5H40.97C40.9053 60.8354 40.8786 60.1676 40.89 59.5C40.8801 58.7725 40.9068 58.0449 40.97 57.32H35.97L37.76 50.43H41.87C45.15 37.4767 54.15 31 68.87 31C73.989 31.0796 79.0112 32.4081 83.5 34.87L80.09 48.57C76.63 45.4167 73.03 43.84 69.29 43.84C64.4 43.84 61.08 46.03 59.37 50.42H73.04L71.38 57.34H58.07C58.02 57.84 58 58.56 58 59.52V61.52H72.11Z" fill="#FECB00"/>
</g>
<defs>
<clipPath id="clip0_276_1565">
<rect width="122.88" height="122.88" fill="white"/>
</clipPath>
</defs>
</svg>
