<svg width="1507" height="854" viewBox="0 0 1507 854" fill="none" xmlns="http://www.w3.org/2000/svg">
<path d="M748.841 130.152L598.293 260.881L614.161 272.46C622.962 278.829 648.031 297.124 670.034 313.104L710.038 342.052L809.648 255.555L909.391 169.058L994.333 242.818L1079.41 316.577L1161.42 309.746C1206.49 305.925 1244.49 302.682 1245.82 302.567C1247.43 302.335 1194.09 255.323 1074.47 151.342C978.865 68.4342 900.457 0.348184 900.057 0.000806779C899.657 -0.230778 831.516 58.3602 748.841 130.152Z" fill="white"/>
<path d="M460.679 258.681C432.41 286.934 267.06 455.876 70.2398 657.702C33.5695 695.219 1.9663 727.525 0.0994439 729.493C-3.76761 733.546 105.177 639.522 321.999 452.054C482.681 313.103 494.816 302.798 496.816 302.798C497.483 302.798 501.083 305.809 504.817 309.398C508.551 313.103 549.621 348.652 596.159 388.369C642.697 428.201 699.903 477.181 723.372 497.329C772.044 539.015 919.792 665.113 954.729 694.755C978.598 715.135 1052.21 775.694 1056.34 778.589C1058.47 779.979 1060.34 778.821 1074.34 767.01C1104.61 741.651 1147.55 706.103 1165.42 691.745C1198.62 665.113 1233.69 637.091 1285.43 595.869C1313.7 573.289 1338.77 553.257 1341.17 551.289L1345.57 547.815L1407.44 601.542C1458.25 645.659 1469.45 654.807 1469.45 652.491C1469.45 650.87 1477.85 574.331 1487.98 482.276C1498.12 390.221 1506.38 314.84 1506.12 314.609C1505.98 314.493 1499.98 314.84 1492.65 315.535C1475.05 317.156 1117.15 346.799 1115.41 346.799C1114.75 346.799 1141.95 371 1175.95 400.527L1237.69 454.139L1196.62 492.813C1159.28 528.014 1132.48 553.373 1080.74 602.121C1070.74 611.616 1060.61 621.806 1058.34 624.701C1056.07 627.596 1054.21 630.027 1053.94 630.259C1052.74 631.764 1038.34 622.385 1006.73 599.574C986.599 584.984 880.055 507.982 770.044 428.433C604.294 308.588 551.222 270.029 495.349 228.575C492.816 226.722 491.882 227.533 460.679 258.681Z" fill="white"/>
<path d="M256.792 557.426L18.3679 764.463L69.7064 809.043L120.912 853.739L316.131 684.218L511.351 514.698L706.704 684.334L902.057 853.97L948.195 813.79L994.466 773.494L974.331 757.284C949.262 737.02 897.123 692.671 732.04 551.173C560.289 404.001 497.216 350.273 495.883 350.273C495.616 350.273 388.005 443.486 256.792 557.426Z" fill="white"/>
</svg>
