<svg width="300" height="260" viewBox="0 0 300 260" fill="none" xmlns="http://www.w3.org/2000/svg">
<path d="M295.88 188.126C287.24 215.491 262.91 240.835 203.975 253.948C182.678 258.689 157.893 261.016 135.797 259.578C103.278 257.461 69.1943 245.369 42.1087 231.659C23.3639 222.172 15.9036 209.37 13.2627 194.898C11.6279 185.951 11.835 176.366 12.3564 166.531C13.1406 151.737 10.2851 136.839 6.05759 122.444C-0.448376 100.28 4.91096 77.0308 20.9633 57.9651C37.0156 38.8993 62.3813 25.6343 91.3126 21.1772C140.054 13.6703 189.502 18.624 189.502 18.624C254.629 24.1963 287.595 77.4543 295.636 120.805C299.313 140.617 303.156 165.087 295.88 188.126Z" fill="#F4F7FA"/>
<path d="M95.9409 154.862C102.986 156.69 105.523 162.208 106.599 166.438C106.098 166.853 105.939 167.196 105.547 167.705C102.015 172.295 99.3208 173.633 94.972 177.704C94.0359 178.581 90.3387 180.465 88.7681 181.155L85.8149 182.402C85.8149 182.402 70.3471 176.59 73.3683 169.018C76.3897 161.447 62.5493 154.392 55.7764 149.909C51.6174 147.157 50.7857 144.801 49.4546 143.587C35.3641 130.743 26.498 130.867 25.031 124.372C23.4115 117.201 33.7527 114.997 32.4913 107.12C31.0668 98.2258 16.9245 95.0643 17.86 86.399C18.0203 84.9134 18.2343 83.3905 19.3756 81.6371C22.1926 77.3091 27.8287 76.5056 27.3366 71.3898C26.3472 61.1071 33.4892 51.2866 46.3484 52.184C59.0398 53.0696 66.1523 69.6789 60.2949 92.4949C58.3752 109.112 61.009 111.462 68.7435 116.106C74.1609 119.359 91.465 125.222 89.5999 134.741C87.7348 144.259 87.8866 152.772 95.9409 154.862Z" fill="#BFC8D6"/>
<mask id="mask0_213_462" style="mask-type:luminance" maskUnits="userSpaceOnUse" x="17" y="52" width="91" height="131">
<path d="M107.495 171.92L86.6085 182.424C86.6085 182.424 70.3472 176.59 73.3685 169.018C76.3899 161.447 62.5496 154.391 55.7766 149.909C37.4 137.748 58.2475 123.168 36.3301 105.932C30.5007 101.347 17.3275 94.2836 17.8602 86.3989C18.467 77.416 27.9697 77.9686 27.3367 71.3897C26.3472 61.1071 33.4894 51.2865 46.3485 52.1838C59.04 53.0695 66.1524 69.6789 60.2952 92.4947C58.3754 109.112 61.0093 111.462 68.7437 116.106C74.1612 119.359 91.4653 125.222 89.6002 134.74C87.735 144.259 87.8869 152.772 95.9411 154.862C108.197 158.042 107.495 171.92 107.495 171.92Z" fill="white"/>
</mask>
<g mask="url(#mask0_213_462)">
<g opacity="0.5">
<path d="M97.5822 175.856L97.201 176.103C95.5251 174.382 93.863 172.628 92.2609 170.89C80.3998 158.02 70.5491 144.639 62.9825 131.116C56.5713 119.659 51.7063 107.94 48.523 96.2859C45.9628 86.9138 44.4714 77.5324 44.0902 68.4022C43.8223 61.9838 44.1014 55.755 44.9204 49.8888C45.0629 48.8664 45.2795 47.8233 45.4891 46.8143C45.7682 45.4701 46.0569 44.0801 46.1721 42.729L46.6448 42.7277C46.528 44.0974 46.2374 45.4967 45.9565 46.8501C45.7479 47.8541 45.5324 48.8921 45.3913 49.904C44.5748 55.7518 44.2965 61.9621 44.5638 68.3623C44.944 77.4699 46.4321 86.8289 48.9863 96.1795C52.1632 107.809 57.0185 119.505 63.4174 130.94C70.971 144.44 80.8062 157.8 92.6491 170.65C94.2488 172.385 95.9084 174.137 97.5822 175.856Z" fill="#FCFDFE"/>
<path d="M53.6027 110.185L53.153 110.331C46.7387 95.257 17.8156 81.3723 17.5242 81.234L17.7868 80.9031C18.0797 81.0422 47.1369 94.9907 53.6027 110.185Z" fill="#FCFDFE"/>
<path d="M76.2788 150.819L75.8496 151.004C69.9558 141.257 80.8572 121.096 80.968 120.893L81.3999 121.025C81.29 121.226 70.477 141.224 76.2788 150.819Z" fill="#FCFDFE"/>
<path d="M80.2412 156.082L79.8541 156.323C74.6123 150.689 63.5004 145.478 48.5654 141.648C47.8145 141.455 47.8145 141.455 47.7615 141.4L48.1451 141.155L47.9533 141.278L48.0785 141.11C48.1262 141.128 48.4098 141.201 48.7385 141.285C63.7588 145.137 74.9465 150.391 80.2412 156.082Z" fill="#FCFDFE"/>
<path d="M94.5825 172.677L94.1336 172.824C90.9397 165.421 98.9154 154.945 98.9963 154.84L99.3944 155.022C99.3147 155.126 91.4618 165.443 94.5825 172.677Z" fill="#FCFDFE"/>
<path d="M97.0882 176.3C90.3759 173.107 82.1589 171.427 71.968 171.162L72.0174 170.782C82.2866 171.049 90.5733 172.746 97.351 175.97L97.0882 176.3Z" fill="#FCFDFE"/>
<path d="M44.8987 73.7302L44.4416 73.8559C41.4733 65.2816 35.8216 56.9709 33.9644 54.24C33.5148 53.579 33.3575 53.3458 33.3211 53.2559L33.7727 53.1152C33.8017 53.1835 34.0587 53.5614 34.3842 54.0398C36.2473 56.7795 41.9169 65.1166 44.8987 73.7302Z" fill="#FCFDFE"/>
<path d="M47.0964 88.3947L46.6228 88.4093C46.9807 79.8945 62.5438 67.4283 63.2061 66.9017L63.5269 67.1622C63.3664 67.29 47.4477 80.039 47.0964 88.3947Z" fill="#FCFDFE"/>
</g>
</g>
<path d="M167.237 200.536C166.877 201.815 158.951 199.603 148.093 202.495C145.38 203.217 130.253 206.312 128.645 215.874C128.334 217.73 128.021 219.586 127.709 221.442C122.429 222.616 117.189 222.917 115.946 217.101C114.016 208.067 96.2301 206.558 89.6273 208.516C81.4551 210.939 62.3024 216.245 59.0642 202.326C56.3681 190.738 57.3711 182.724 40.7664 180.719C24.1617 178.713 14.7302 170.022 17.3675 156.912C20.143 143.116 0.342085 130.198 8.8569 119.349C23.694 100.446 58.2659 121.064 65.926 145.922C73.5862 170.781 85.2817 157.691 99.0319 158.036C100.306 158.127 102.273 158.35 104.534 158.976C118.454 162.831 119.384 175.29 129.962 185.038C144.387 198.332 167.845 198.382 167.237 200.536Z" fill="url(#paint0_linear_213_462)"/>
<mask id="mask1_213_462" style="mask-type:luminance" maskUnits="userSpaceOnUse" x="6" y="111" width="130" height="111">
<path d="M135.889 190.498L131.846 220.704C126.698 222.073 117.334 223.598 115.946 217.101C114.016 208.067 96.2301 206.558 89.6273 208.516C81.4551 210.939 62.3023 216.245 59.064 202.326C56.3681 190.738 57.371 182.724 40.7663 180.718C24.1617 178.713 14.7301 170.022 17.3675 156.912C20.1429 143.116 0.341969 130.198 8.857 119.349C23.694 100.446 58.2656 121.063 65.926 145.922C73.5862 170.78 85.2816 157.691 99.0318 158.035C117.804 158.505 111.079 180.169 117.687 186.501C122.867 191.466 130.903 191.199 135.889 190.498Z" fill="white"/>
</mask>
<g mask="url(#mask1_213_462)">
<g opacity="0.5">
<path d="M128.526 204.286L128.295 204.917C75.5869 191.379 31.3405 155.53 12.8232 111.36L13.5355 111.122C31.9747 155.105 76.0369 190.804 128.526 204.286Z" fill="#FCFDFE"/>
<path d="M100.579 194.752L100.495 195.407C78.8772 193.769 59.9527 208.599 59.7641 208.749L59.2603 208.269C59.4511 208.117 78.6204 193.089 100.579 194.752Z" fill="#FCFDFE"/>
<path d="M118.915 201.565L118.484 202.114C100.361 191.596 102.092 156.733 102.112 156.382L102.868 156.398C102.849 156.745 101.137 191.247 118.915 201.565Z" fill="#FCFDFE"/>
<path d="M56.7441 167.949L56.3676 168.527C41.192 161.297 15.4814 168.498 15.2235 168.571L15.0029 167.948C15.2639 167.873 41.2883 160.585 56.7441 167.949Z" fill="#FCFDFE"/>
<path d="M34.0464 145.139L33.3611 145.433C24.8781 129.959 33.5376 107.642 33.6265 107.419L34.3421 107.618C34.254 107.839 25.6954 129.905 34.0464 145.139Z" fill="#FCFDFE"/>
</g>
</g>
<path d="M213.557 216.79C201.026 218.969 169.16 180.421 181.853 156.151C187.15 146.023 197.529 143.5 199.813 131.169C201.85 120.166 194.487 117.313 194.398 105.357C194.273 88.5455 208.64 68.482 225.196 67.7815C233.502 67.4301 243.703 71.8963 247.841 79.5547C251.154 85.6884 245.944 93.0159 248.458 94.0244C250.523 94.8529 253.497 90.0346 256.978 90.4209C262.112 90.9906 267.793 102.819 265.276 113.664C260.966 132.23 235.37 136.107 236.691 148.926C237.533 157.097 248.22 158.32 248.094 166.865C247.984 174.382 239.66 176.864 230.369 187.331C215.816 203.727 220.276 215.623 213.557 216.79Z" fill="url(#paint1_linear_213_462)"/>
<mask id="mask2_213_462" style="mask-type:luminance" maskUnits="userSpaceOnUse" x="178" y="67" width="88" height="150">
<path d="M213.557 216.79C201.026 218.969 169.16 180.421 181.853 156.151C187.15 146.023 197.529 143.5 199.813 131.169C201.85 120.166 194.487 117.313 194.398 105.357C194.273 88.5455 208.64 68.482 225.196 67.7815C233.502 67.4301 243.703 71.8963 247.841 79.5547C251.154 85.6884 245.944 93.0159 248.458 94.0244C250.523 94.8529 253.497 90.0346 256.978 90.4209C262.112 90.9906 267.793 102.819 265.276 113.664C260.966 132.23 235.37 136.107 236.691 148.926C237.533 157.097 248.22 158.32 248.094 166.865C247.984 174.382 239.66 176.864 230.369 187.331C215.816 203.727 220.276 215.623 213.557 216.79Z" fill="white"/>
</mask>
<g mask="url(#mask2_213_462)">
<g opacity="0.5">
<path d="M218.468 225.529C218.225 225.623 217.927 225.583 217.733 225.414C217.562 225.265 217.517 225.057 217.594 224.876C217.539 224.561 217.095 223.574 216.585 222.442C213.718 216.071 206.103 199.148 205.227 170.794C204.125 135.134 213.937 94.8412 234.392 51.0343C234.519 50.7628 234.889 50.6273 235.219 50.7316C235.548 50.836 235.713 51.141 235.586 51.4127C213.61 98.4781 192.683 166.291 217.785 222.075C218.921 224.599 219.125 225.054 218.637 225.434C218.586 225.474 218.529 225.506 218.468 225.529Z" fill="white"/>
<path d="M209.858 132.26C209.552 132.378 209.184 132.278 209.023 132.03C208.857 131.773 208.975 131.454 209.287 131.317C234.959 120.061 249.554 110.015 257.277 103.571C265.639 96.5925 267.965 92.2191 267.987 92.1758C268.125 91.9087 268.501 91.784 268.827 91.8979C269.151 92.0118 269.303 92.3206 269.165 92.5881C269.071 92.7706 266.767 97.1338 258.279 104.234C250.493 110.748 235.777 120.896 209.888 132.247C209.878 132.252 209.868 132.256 209.858 132.26Z" fill="white"/>
<path d="M215.005 105.881C214.886 105.927 214.748 105.943 214.609 105.92C206.809 104.63 200.309 97.7347 195.289 85.4267C191.59 76.3544 190.109 67.5351 190.094 67.4471C190.047 67.1583 190.292 66.8928 190.642 66.8539C190.992 66.8146 191.315 67.0166 191.362 67.3051C191.419 67.6515 197.287 101.98 214.861 104.886C215.207 104.944 215.432 105.221 215.363 105.507C215.321 105.677 215.183 105.812 215.005 105.881Z" fill="white"/>
<path d="M206.455 177.584C206.286 177.649 206.085 177.653 205.904 177.58C194.596 173.046 187.752 163.484 184.002 156.262C179.956 148.468 178.541 141.638 178.527 141.57C178.469 141.283 178.704 141.012 179.052 140.963C179.401 140.915 179.73 141.109 179.789 141.396C179.803 141.463 181.198 148.188 185.19 155.869C188.854 162.919 195.519 172.244 206.464 176.633C206.782 176.76 206.914 177.076 206.759 177.337C206.693 177.45 206.583 177.535 206.455 177.584Z" fill="white"/>
</g>
</g>
<path d="M195.208 234.211C190.566 211.883 192.016 194.717 194.069 183.547C195.681 174.779 198.98 162.553 206.643 161.211C210.315 160.568 212.303 162.894 216.142 162.078C223.39 160.537 223.595 150.691 228.41 143.655C236.645 131.618 261.985 122.519 279.568 130.238C300.741 139.534 301.852 169.348 289.919 178.206C282.847 183.455 270.634 181.764 269.81 185.697C268.982 189.655 281.191 192.14 281.801 198.539C282.432 205.162 270.141 210.82 269.396 211.154C254.506 217.837 243.303 210.211 227.142 213.046C218.375 214.584 206.838 219.431 195.208 234.211Z" fill="#BFC8D6"/>
<mask id="mask3_213_462" style="mask-type:luminance" maskUnits="userSpaceOnUse" x="192" y="127" width="106" height="108">
<path d="M195.208 234.211C190.566 211.883 192.016 194.717 194.069 183.547C195.681 174.779 198.98 162.553 206.643 161.211C210.315 160.568 212.303 162.894 216.142 162.078C223.39 160.537 223.595 150.691 228.41 143.655C236.645 131.618 261.985 122.519 279.568 130.238C300.741 139.534 301.852 169.348 289.919 178.206C282.847 183.455 270.634 181.764 269.81 185.697C268.982 189.655 281.191 192.14 281.801 198.539C282.432 205.162 270.141 210.82 269.396 211.154C254.506 217.837 243.303 210.211 227.142 213.046C218.375 214.584 206.838 219.431 195.208 234.211Z" fill="white"/>
</mask>
<g mask="url(#mask3_213_462)">
<path d="M191.481 252.069L191.898 252.093C196.391 199.081 238.581 154.01 304.755 131.527L304.595 131.208C273.234 141.864 246.253 158.242 226.57 178.574C205.878 199.948 193.744 225.362 191.481 252.069Z" fill="#FCFDFE"/>
<path d="M174.784 174.553C186.163 185.662 196.802 207.035 198.5 222.196L198.917 222.165C197.212 206.943 186.53 185.485 175.105 174.33L174.784 174.553Z" fill="#FCFDFE"/>
<path d="M192.507 241.671L192.901 241.789C196.2 234.356 203.935 228.582 215.89 224.629C224.656 221.729 235.445 219.858 247.958 219.066L247.925 218.722C235.37 219.517 224.54 221.396 215.734 224.308C203.664 228.3 195.849 234.142 192.507 241.671Z" fill="#FCFDFE"/>
<path d="M229.5 175.777L229.885 175.912C236.979 162.165 233.137 146.778 228.665 136.292L228.27 136.406C232.717 146.835 236.541 162.132 229.5 175.777Z" fill="#FCFDFE"/>
<path d="M259.563 152.196L259.748 152.506C278.089 145.093 299.129 148.51 310.038 151.207L310.159 150.877C299.191 148.165 278.033 144.731 259.563 152.196Z" fill="#FCFDFE"/>
</g>
<mask id="mask4_213_462" style="mask-type:luminance" maskUnits="userSpaceOnUse" x="42" y="35" width="209" height="172">
<path d="M219.912 181.142C260.397 147.794 260.397 93.7278 219.912 60.3805C179.427 27.0333 113.789 27.0333 73.3041 60.3806C32.8193 93.7278 32.8193 147.794 73.3041 181.142C113.789 214.489 179.427 214.489 219.912 181.142Z" fill="white"/>
</mask>
<g mask="url(#mask4_213_462)">
<path d="M251.549 120.834C251.549 139.132 244.572 156.107 232.742 170.079C232.695 170.137 232.529 170.192 232.529 170.249V170.252C213.967 192.654 182.161 207.167 146.483 207.167C143.565 207.167 140.77 207.055 137.913 206.73C137.91 206.73 137.91 206.73 137.91 206.73C137.898 206.73 137.892 206.873 137.881 206.873C136.474 206.777 135.079 206.733 133.69 206.591C133.195 206.544 132.701 206.527 132.21 206.47C131.774 206.422 131.341 206.39 130.908 206.335C130.53 206.289 130.155 206.251 129.783 206.2C129.699 206.188 129.614 206.181 129.53 206.171C128.615 206.047 127.702 205.917 126.792 205.774C126.786 205.774 126.784 205.772 126.778 205.772C78.2698 198.14 41.6177 163.013 41.6177 120.833C41.6177 111.915 43.1906 103.311 46.2367 95.2161C46.7134 93.9473 47.3072 92.693 47.7021 91.4504V91.448C48.8869 89.3771 49.6811 87.3444 50.771 85.3501C51.2099 84.5528 51.6951 83.7603 52.1573 82.9751C54.7121 78.6609 57.7059 74.5477 61.0629 70.6716C61.3681 70.3196 61.6849 69.9701 61.9959 69.6205C63.2399 68.2271 64.5378 66.8673 65.8834 65.5385C67.8978 63.5465 70.0187 61.6288 72.2394 59.7949C78.0206 55.0162 84.4772 50.7904 91.4791 47.2256C93.6444 46.1219 95.8657 45.0805 98.1328 44.1084C103.623 41.7479 109.396 39.7774 115.404 38.2404C125.263 35.7146 135.744 34.3546 146.612 34.3546C171.606 34.3546 194.559 41.5467 212.586 53.5557C225.846 62.3902 236.63 73.827 243.414 86.9254C244.931 89.8511 245.956 92.8582 247.536 95.9371V95.9395C247.536 95.9538 247.355 95.9634 247.361 95.9778C250.227 103.85 251.549 112.193 251.549 120.834Z" fill="url(#paint2_linear_213_462)"/>
<path d="M169.484 149.99C167.231 152.604 160.262 155.961 164.991 162.554C169.679 169.131 164.665 170.364 161.439 169.749C158.198 169.141 148.124 168.801 149.804 172.572C151.478 176.347 154.364 177.762 150.673 179.22C146.984 180.671 145.423 184.461 141.648 189.678C137.898 194.904 128.987 190.384 131.626 195.622C134.259 200.863 136.314 200.356 136.067 204.007C136.009 205.01 136.817 206.039 137.91 207.019C136.503 206.923 135.09 206.806 133.689 206.664C133.195 206.616 132.701 206.564 132.21 206.506C131.774 206.458 131.341 206.408 130.908 206.353C130.53 206.307 130.155 206.26 129.783 206.209C129.699 206.197 129.72 206.185 129.636 206.176C128.735 206.051 128.267 205.917 127.083 205.776V205.774C126.293 205.156 126.788 204.486 126.907 203.763C128.084 197.021 116.791 192.388 114.899 187.664C113.039 182.953 114.876 180.142 114.445 176.237C114.004 172.339 115.551 167.17 112.828 163.886C110.104 160.613 99.1253 159.516 97.0355 152.911C94.931 146.32 99.8253 136.449 101.726 134.768C103.604 133.087 92.6357 125.44 87.4155 125.196C82.172 124.933 84.2697 116.237 75.4046 117.561C66.5221 118.844 50.5645 114.762 53.8606 110.371C56.5812 106.754 61.1476 98.7742 46.2397 95.2164C46.7163 93.9475 47.307 92.6929 47.7019 91.4504V91.448C48.8868 89.3771 49.6809 87.3445 50.7708 85.3501C51.2097 84.5529 51.695 83.7604 52.1571 82.9752C54.715 78.6609 57.7085 74.5477 61.0627 70.6716C61.3679 70.3197 61.6847 69.9701 61.9957 69.6206C63.2426 68.2271 64.5404 66.8649 65.8832 65.5385C67.8976 63.5466 70.0185 61.6289 72.2392 59.795C78.0204 55.0162 84.477 50.7905 91.4789 47.2257C94.432 48.9303 97.8042 49.9813 100.717 48.6861C107.858 45.3941 103.15 44.889 100.226 44.7668C99.4641 44.7357 98.726 44.4867 98.133 44.1084C103.624 41.7478 109.396 39.7774 115.404 38.2404C114.959 41.561 109.48 46.8952 113.512 46.2439C118.203 45.509 120.119 35.0681 123.563 38.5372C127.057 42.0207 119.741 46.5864 126.612 43.9408C133.492 41.3216 134.41 35.4751 142.078 38.3194C149.783 41.1995 149.08 44.6088 151.231 44.2712C153.373 43.9384 160.302 47.7739 156.111 50.9293C151.882 54.0944 148.004 50.0626 141.665 48.8465C135.323 47.6447 135.477 51.9182 132.559 52.895C129.591 53.8382 115.276 48.1402 111.762 53.29C108.21 58.3991 106.699 61.9641 111.972 61.8323C117.238 61.7103 117.578 60.5874 117.166 63.7955C116.744 67.0062 117.703 69.4099 122.476 66.3908C127.234 63.3766 126.167 60.4365 129.888 61.873C133.611 63.3143 134.05 62.0095 138.009 59.6417C141.965 57.2738 147.17 57.0273 148.534 62.3398C149.9 67.6549 147.566 68.8472 140.607 69.1153C133.646 69.393 132.858 67.5853 130.641 72.3785C128.434 77.174 119.226 83.3318 111.143 85.8695C103.075 88.4121 99.9122 92.1685 100.098 97.2369C100.29 102.315 97.2556 107.671 95.2298 103.486C93.1951 99.2887 87.4924 92.2211 81.6735 96.9448C75.8428 101.678 65.696 110.046 76.9096 111.575C88.0998 113.134 82.2605 104.498 87.9168 106.225C93.5642 107.963 84.3388 111.77 88.1145 113.144C91.8959 114.53 93.48 113.881 93.4509 118.126C93.4218 122.368 94.7037 126.489 99.2931 124.688C103.88 122.895 109.76 116.544 116.396 121.464C123.04 126.396 122.581 123.788 126.066 122.352C129.548 120.917 131.765 125.217 133.192 127.176C134.62 129.132 140.218 127.135 144.755 132.962C149.289 138.79 151.068 139.829 156.239 137.732C161.412 135.637 163.517 137.193 164.866 140.135C166.208 143.078 169.394 140.202 170.929 144.09C172.455 147.976 171.722 147.373 169.484 149.99Z" fill="white"/>
<path d="M187.191 79.3886C183.526 72.91 201.686 73.6377 204.895 74.1358C208.124 74.5787 215.699 69.7019 216.661 67.4345C217.649 65.1506 219.271 66.235 225.017 66.1704C230.761 66.1202 225.685 65.0499 219.364 63.3333C213.054 61.6216 218.448 61.4492 212.632 57.6663C210.13 56.0096 210.917 54.6018 212.586 53.5555C225.846 62.39 236.44 73.8268 243.224 86.9252C243.032 86.8774 242.852 86.851 242.683 86.8486C238.661 86.8294 237.774 79.5034 235.702 78.0764C233.658 76.6519 235.76 82.101 236.26 84.3395C236.763 86.5804 235.158 84.6962 233.153 86.7528C231.138 88.8117 227.502 88.85 227.174 85.7616C226.84 82.6803 224.203 79.6541 218.852 78.2463C213.501 76.8385 208.871 77.9949 204.523 79.3764C200.198 80.7341 190.882 85.8169 187.191 79.3886Z" fill="white"/>
<path d="M232.783 170.249C233.147 168.025 233.74 165.727 232.612 164.886C229.871 162.791 229.272 157.084 230.223 154.192C231.17 151.292 238.556 151.458 233.545 146.643C228.519 141.814 223.991 136.082 226.101 132.805C228.211 129.532 227.572 129.292 223.616 129.312C219.654 129.331 217.919 129.474 213.975 126.573C210.028 123.633 204.598 133.511 189.743 125.589C174.89 117.587 183.348 104.101 188.914 104.068C194.515 103.991 201.058 101.662 196.469 96.0353C191.894 90.3874 199.044 89.5901 202.537 90.8734C206.037 92.1423 212.242 88.733 218.567 87.196C224.906 85.6661 224.627 94.1726 228.147 95.8748C231.688 97.5795 238.32 96.2268 241.768 93.5022C244.229 91.5582 244.767 93.8254 247.2 95.9778C250.066 103.85 251.604 112.193 251.604 120.834C251.604 139.206 244.648 156.243 232.783 170.249Z" fill="white"/>
<path d="M206.213 68.6054C206.217 68.6002 210.845 66.8792 209.168 64.1062C207.505 61.3327 204.869 52.8328 202.942 55.5113C201.004 58.2019 203.861 63.4263 203.237 65.6805C202.608 67.9416 202.591 69.125 206.213 68.6054Z" fill="white"/>
<path d="M201.592 66.0107C201.526 65.117 202.209 61.4881 198.742 61.6019C198.749 61.5961 193.728 63.322 196.665 66.2541C199.616 69.1772 201.667 66.9019 201.592 66.0107Z" fill="white"/>
</g>
<mask id="mask5_213_462" style="mask-type:luminance" maskUnits="userSpaceOnUse" x="42" y="35" width="209" height="172">
<path d="M219.912 181.142C260.397 147.794 260.397 93.7278 219.912 60.3805C179.427 27.0333 113.789 27.0333 73.3041 60.3806C32.8193 93.7278 32.8193 147.794 73.3041 181.142C113.789 214.489 179.427 214.489 219.912 181.142Z" fill="white"/>
</mask>
<g mask="url(#mask5_213_462)">
<path opacity="0.3" d="M251.27 120.682C251.27 138.981 244.432 155.955 232.602 169.928C232.556 169.985 232.529 170.04 232.529 170.098V170.1C213.572 192.502 182.022 206.948 146.344 206.948C143.425 206.948 140.491 206.765 137.634 206.439C137.631 206.439 137.631 206.439 137.631 206.439C137.619 206.439 137.613 206.653 137.602 206.653C136.195 206.558 134.8 206.546 133.41 206.405C132.916 206.357 132.422 206.358 131.931 206.301C131.495 206.253 131.062 206.23 130.629 206.174C130.251 206.129 129.876 206.096 129.504 206.046C129.42 206.034 129.335 206.028 129.251 206.018C128.336 205.894 127.423 205.765 126.513 205.621C126.507 205.621 126.504 205.621 126.499 205.621C81.6412 198.563 46.925 167.972 41.9517 130.056C52.4707 154.91 78.4817 173.584 110.46 178.789H110.471C111.256 179.114 112.044 179.048 112.835 179.156C112.907 179.163 112.983 179.184 113.056 179.194C113.375 179.237 113.701 179.281 114.026 179.319C114.398 179.367 114.773 179.406 115.151 179.446C115.576 179.497 116 179.527 116.427 179.567C117.628 179.69 118.831 179.915 120.046 179.996C120.057 179.996 120.063 180.09 120.072 180.09C120.072 180.09 120.072 180.09 120.075 180.09C122.543 180.09 125.002 180.253 127.522 180.253C142.926 180.253 157.445 177.027 170.147 171.461C182.848 165.894 193.734 157.869 201.872 148.196C201.872 148.146 201.971 148.079 202.009 148.029C212.225 135.964 218.204 121.295 218.204 105.494C218.204 98.0338 216.874 90.8225 214.398 84.0256C214.395 84.0136 214.362 83.9991 214.362 83.9872V83.9848C213.572 81.3273 212.299 78.7297 210.991 76.2038C205.132 64.8914 196.007 55.0155 184.555 47.3878C176.173 41.8022 166.559 37.4256 156.098 34.5742C177.287 36.1807 196.654 42.9777 212.306 53.4042C225.566 62.2387 236.292 73.6755 243.076 86.7739C244.593 89.6996 245.561 92.7066 247.141 95.7855V95.7879C247.141 95.8023 247.018 95.8119 247.024 95.8262C249.89 103.698 251.27 112.042 251.27 120.682Z" fill="url(#paint3_linear_213_462)"/>
</g>
<path d="M121.37 136.012C121.33 136.012 121.291 136.009 121.251 136.004C120.828 135.951 120.538 135.625 120.603 135.276C120.604 135.27 120.729 134.598 120.87 133.411C120.912 133.06 121.293 132.803 121.717 132.838C122.143 132.872 122.455 133.184 122.413 133.535C122.267 134.762 122.14 135.443 122.135 135.471C122.075 135.786 121.745 136.012 121.37 136.012Z" fill="url(#paint4_linear_213_462)"/>
<path d="M121.963 130.38C121.951 130.38 121.939 130.38 121.927 130.38C121.499 130.363 121.169 130.065 121.188 129.712C121.256 128.496 121.292 127.13 121.295 125.883C121.296 125.53 121.643 125.128 122.07 125.128C122.071 125.128 122.071 125.128 122.072 125.128C122.5 125.128 122.846 125.532 122.845 125.885C122.842 127.151 122.806 128.478 122.737 129.713C122.717 130.055 122.375 130.38 121.963 130.38ZM121.98 122.896C121.567 122.896 121.223 122.627 121.206 122.284C121.145 121.047 121.049 119.799 120.923 118.576C120.887 118.224 121.203 117.915 121.629 117.885C122.056 117.855 122.431 118.116 122.467 118.467C122.595 119.71 122.692 120.976 122.755 122.232C122.773 122.584 122.44 122.881 122.013 122.896C122.002 122.896 121.991 122.896 121.98 122.896ZM121.208 115.438C120.825 115.438 120.492 115.204 120.441 114.882C120.245 113.647 120.013 112.413 119.752 111.213C119.676 110.866 119.956 110.534 120.378 110.472C120.798 110.41 121.202 110.641 121.277 110.988C121.543 112.208 121.779 113.462 121.977 114.717C122.033 115.066 121.734 115.387 121.31 115.432C121.276 115.436 121.242 115.438 121.208 115.438ZM119.6 108.072C119.248 108.072 118.929 107.873 118.846 107.578C118.505 106.364 118.124 105.157 117.714 103.989C117.595 103.65 117.832 103.296 118.243 103.198C118.654 103.1 119.084 103.295 119.203 103.634C119.62 104.824 120.009 106.054 120.356 107.289C120.453 107.633 120.193 107.976 119.776 108.055C119.717 108.067 119.658 108.072 119.6 108.072ZM117.074 100.886C116.754 100.886 116.455 100.722 116.343 100.459C115.841 99.2869 115.296 98.1249 114.722 97.0055C114.556 96.6807 114.74 96.3062 115.134 96.1691C115.529 96.0315 115.983 96.1839 116.15 96.5087C116.736 97.6519 117.293 98.8385 117.805 100.035C117.947 100.368 117.735 100.732 117.331 100.849C117.246 100.874 117.159 100.886 117.074 100.886ZM113.535 93.9978C113.251 93.9978 112.978 93.8687 112.842 93.6454C112.169 92.5386 111.446 91.4463 110.695 90.3985C110.478 90.0949 110.6 89.7035 110.968 89.5243C111.337 89.3445 111.812 89.4455 112.03 89.7493C112.799 90.8222 113.538 91.9404 114.228 93.0731C114.419 93.3883 114.265 93.7718 113.882 93.9299C113.771 93.976 113.652 93.9978 113.535 93.9978ZM108.916 87.5616C108.67 87.5616 108.429 87.4656 108.278 87.2865C107.427 86.274 106.524 85.2796 105.592 84.3308C105.323 84.0569 105.374 83.6548 105.707 83.4331C106.04 83.2113 106.528 83.2538 106.797 83.5279C107.753 84.5013 108.68 85.5214 109.553 86.56C109.796 86.8498 109.708 87.2475 109.356 87.4481C109.222 87.5247 109.068 87.5616 108.916 87.5616ZM103.206 81.7522C103 81.7522 102.795 81.685 102.643 81.5521C101.621 80.6609 100.545 79.7917 99.4438 78.969C99.1267 78.732 99.1029 78.3283 99.3906 78.0673C99.6781 77.8061 100.168 77.7865 100.485 78.0233C101.616 78.8682 102.721 79.7605 103.77 80.6756C104.063 80.932 104.049 81.3359 103.738 81.5779C103.588 81.6944 103.397 81.7522 103.206 81.7522Z" fill="url(#paint5_linear_213_462)"/>
<path d="M96.4841 76.7282C96.3182 76.7282 96.1509 76.6846 96.0096 76.5942C95.4078 76.2095 94.7887 75.8294 94.1697 75.4645C93.8215 75.2593 93.7415 74.8604 93.9905 74.5738C94.2398 74.2869 94.7239 74.221 95.0718 74.4263C95.7071 74.8009 96.3423 75.1909 96.9598 75.5856C97.2979 75.8017 97.3594 76.2027 97.0969 76.4812C96.9443 76.6433 96.7154 76.7282 96.4841 76.7282Z" fill="url(#paint6_linear_213_462)"/>
<path d="M124.921 137.129C124.9 137.129 124.878 137.128 124.856 137.127C124.43 137.098 124.113 136.789 124.148 136.438C124.154 136.379 124.3 134.959 124.788 132.558C124.859 132.211 125.26 131.978 125.681 132.034C126.103 132.092 126.388 132.422 126.317 132.769C125.841 135.112 125.694 136.53 125.693 136.544C125.659 136.877 125.32 137.129 124.921 137.129ZM126.435 129.529C126.38 129.529 126.325 129.524 126.27 129.514C125.852 129.44 125.586 129.1 125.677 128.756C126.005 127.506 126.373 126.24 126.771 124.993C126.88 124.652 127.304 124.449 127.717 124.538C128.131 124.628 128.378 124.977 128.27 125.318C127.878 126.547 127.515 127.794 127.191 129.026C127.113 129.325 126.792 129.529 126.435 129.529ZM128.803 122.103C128.727 122.103 128.65 122.094 128.573 122.074C128.164 121.969 127.936 121.612 128.063 121.275C128.527 120.041 129.028 118.808 129.553 117.609C129.698 117.277 130.142 117.105 130.544 117.224C130.947 117.344 131.156 117.71 131.011 118.041C130.494 119.222 130.001 120.438 129.543 121.653C129.44 121.927 129.134 122.103 128.803 122.103ZM131.961 114.885C131.863 114.885 131.762 114.869 131.665 114.836C131.27 114.701 131.082 114.328 131.246 114.002C131.848 112.805 132.489 111.616 133.15 110.468C133.333 110.149 133.795 110.013 134.182 110.164C134.568 110.315 134.733 110.696 134.55 111.015C133.9 112.144 133.27 113.313 132.678 114.491C132.554 114.737 132.265 114.885 131.961 114.885ZM135.953 107.96C135.828 107.96 135.702 107.935 135.585 107.883C135.208 107.715 135.068 107.328 135.272 107.018C136.023 105.875 136.813 104.748 137.622 103.668C137.846 103.368 138.324 103.274 138.688 103.46C139.053 103.645 139.166 104.038 138.941 104.338C138.148 105.397 137.372 106.503 136.635 107.625C136.495 107.839 136.228 107.96 135.953 107.96ZM140.84 101.442C140.686 101.442 140.531 101.405 140.395 101.326C140.045 101.123 139.961 100.725 140.207 100.436C141.113 99.3763 142.065 98.3359 143.035 97.3442C143.303 97.0696 143.791 97.0263 144.124 97.2474C144.458 97.4685 144.51 97.8705 144.242 98.1449C143.293 99.1154 142.362 100.134 141.475 101.171C141.324 101.348 141.084 101.442 140.84 101.442ZM146.676 95.4858C146.488 95.4858 146.299 95.4296 146.15 95.3158C145.836 95.0763 145.817 94.6724 146.108 94.4138C147.176 93.4633 148.292 92.5398 149.425 91.6687C149.738 91.4278 150.228 91.4419 150.52 91.6996C150.812 91.9572 150.796 92.3611 150.483 92.6018C149.378 93.4519 148.288 94.3534 147.245 95.2811C147.092 95.4171 146.884 95.4858 146.676 95.4858ZM153.466 90.2701C153.238 90.2701 153.013 90.1883 152.86 90.0309C152.593 89.7559 152.647 89.3541 152.981 89.1336C154.203 88.3269 155.475 87.5521 156.762 86.8305C157.117 86.6323 157.598 86.7079 157.839 86.999C158.08 87.2904 157.988 87.6875 157.634 87.8859C156.381 88.5889 155.141 89.3439 153.95 90.13C153.807 90.2243 153.636 90.2701 153.466 90.2701ZM161.135 85.9718C160.866 85.9718 160.605 85.8562 160.462 85.6499C160.249 85.3437 160.379 84.9538 160.75 84.7791C162.103 84.1429 163.507 83.5422 164.922 82.9933C165.309 82.843 165.771 82.98 165.953 83.2989C166.135 83.6179 165.969 83.9981 165.582 84.1483C164.203 84.6829 162.837 85.2681 161.519 85.8877C161.398 85.9447 161.266 85.9718 161.135 85.9718ZM169.523 82.7168C169.21 82.7168 168.915 82.5599 168.798 82.3048C168.646 81.9754 168.847 81.6067 169.248 81.4816C170.696 81.0286 172.194 80.6128 173.698 80.2457C174.108 80.1456 174.54 80.3384 174.661 80.6763C174.783 81.0143 174.549 81.3696 174.138 81.4697C172.671 81.8279 171.21 82.2335 169.798 82.6751C169.707 82.7034 169.614 82.7168 169.523 82.7168ZM178.41 80.5428C178.054 80.5428 177.733 80.3398 177.654 80.0417C177.561 79.6975 177.826 79.357 178.244 79.2811C179.75 79.0079 181.302 78.7711 182.857 78.5779C183.28 78.5262 183.675 78.7652 183.738 79.1138C183.802 79.4623 183.511 79.7876 183.088 79.8402C181.567 80.0292 180.049 80.2607 178.577 80.5278C178.521 80.5379 178.465 80.5428 178.41 80.5428ZM187.578 79.3968C187.181 79.3968 186.842 79.1463 186.807 78.8141C186.77 78.4628 187.085 78.1533 187.512 78.1226C189.041 78.0123 190.617 77.9371 192.194 77.8991C192.634 77.8908 192.979 78.1662 192.991 78.5184C193.004 78.8708 192.667 79.1648 192.239 79.1751C190.692 79.2125 189.146 79.2862 187.647 79.3942C187.624 79.396 187.601 79.3968 187.578 79.3968Z" fill="url(#paint7_linear_213_462)"/>
<path d="M123.111 139.204C122.983 139.204 122.853 139.177 122.733 139.122C122.36 138.949 122.227 138.56 122.436 138.253C122.472 138.201 123.322 136.958 124.977 134.956C125.218 134.665 125.7 134.589 126.054 134.788C126.408 134.986 126.499 135.383 126.258 135.675C124.645 137.626 123.796 138.866 123.788 138.878C123.646 139.086 123.382 139.204 123.111 139.204ZM128.338 132.838C128.175 132.838 128.011 132.795 127.871 132.708C127.53 132.495 127.463 132.095 127.721 131.814C128.658 130.794 129.64 129.776 130.64 128.787C130.914 128.516 131.403 128.48 131.732 128.705C132.061 128.931 132.105 129.333 131.831 129.604C130.846 130.578 129.879 131.58 128.957 132.584C128.804 132.75 128.572 132.838 128.338 132.838ZM134.299 126.946C134.112 126.946 133.925 126.891 133.776 126.778C133.461 126.54 133.439 126.136 133.728 125.876C134.789 124.924 135.884 123.987 136.983 123.091C137.287 122.843 137.778 122.846 138.079 123.096C138.38 123.347 138.377 123.751 138.073 123.999C136.992 124.88 135.914 125.802 134.871 126.739C134.718 126.877 134.509 126.946 134.299 126.946ZM140.921 121.559C140.707 121.559 140.495 121.486 140.342 121.345C140.057 121.082 140.085 120.678 140.405 120.444C141.581 119.58 142.789 118.741 143.995 117.95C144.329 117.73 144.817 117.776 145.084 118.052C145.35 118.327 145.295 118.729 144.96 118.949C143.777 119.725 142.591 120.549 141.436 121.397C141.288 121.505 141.104 121.559 140.921 121.559ZM148.201 116.789C147.957 116.789 147.717 116.694 147.566 116.518C147.32 116.229 147.404 115.831 147.754 115.628C149.045 114.88 150.367 114.164 151.681 113.501C152.046 113.317 152.523 113.411 152.747 113.712C152.97 114.013 152.856 114.406 152.49 114.59C151.204 115.239 149.911 115.939 148.646 116.672C148.51 116.751 148.355 116.789 148.201 116.789ZM156.132 112.796C155.853 112.796 155.583 112.671 155.444 112.453C155.246 112.14 155.394 111.755 155.773 111.592C157.174 110.99 158.603 110.429 160.021 109.925C160.415 109.786 160.87 109.935 161.04 110.259C161.209 110.582 161.028 110.958 160.635 111.098C159.251 111.589 157.857 112.136 156.49 112.724C156.375 112.773 156.253 112.796 156.132 112.796ZM205.552 111.122C205.456 111.122 205.359 111.107 205.265 111.076C203.828 110.604 202.374 110.17 200.942 109.787C200.535 109.678 200.312 109.317 200.444 108.982C200.577 108.647 201.015 108.464 201.421 108.573C202.885 108.965 204.371 109.408 205.839 109.891C206.237 110.021 206.431 110.392 206.272 110.72C206.151 110.97 205.86 111.122 205.552 111.122ZM164.663 109.77C164.34 109.77 164.039 109.603 163.929 109.338C163.791 109.004 164.007 108.641 164.412 108.527C165.901 108.108 167.419 107.736 168.925 107.421C169.34 107.335 169.761 107.542 169.866 107.884C169.971 108.225 169.72 108.572 169.305 108.659C167.84 108.965 166.363 109.327 164.913 109.735C164.83 109.759 164.746 109.77 164.663 109.77ZM196.714 108.76C196.652 108.76 196.589 108.754 196.526 108.741C195.032 108.434 193.521 108.173 192.034 107.964C191.613 107.904 191.329 107.575 191.401 107.227C191.473 106.88 191.874 106.648 192.295 106.705C193.82 106.92 195.37 107.188 196.901 107.503C197.316 107.588 197.569 107.934 197.466 108.276C197.378 108.567 197.061 108.76 196.714 108.76ZM173.66 107.895C173.288 107.895 172.959 107.674 172.896 107.361C172.827 107.013 173.112 106.685 173.534 106.627C175.077 106.417 176.65 106.259 178.209 106.157C178.635 106.129 179.009 106.392 179.042 106.743C179.076 107.095 178.757 107.402 178.331 107.43C176.816 107.529 175.287 107.682 173.787 107.887C173.745 107.892 173.702 107.895 173.66 107.895ZM187.556 107.478C187.533 107.478 187.51 107.478 187.486 107.476C185.961 107.363 184.421 107.302 182.908 107.294C182.48 107.292 182.135 106.963 182.138 106.61C182.14 106.259 182.487 105.934 182.912 105.934C182.914 105.934 182.916 105.934 182.917 105.934C184.473 105.934 186.057 106.047 187.625 106.163C188.051 106.194 188.365 106.525 188.327 106.876C188.291 107.208 187.953 107.478 187.556 107.478Z" fill="url(#paint8_linear_213_462)"/>
<path d="M122.919 141.438C126.45 141.438 129.312 139.08 129.312 136.172C129.312 133.263 126.45 130.906 122.919 130.906C119.388 130.906 116.525 133.263 116.525 136.172C116.525 139.08 119.388 141.438 122.919 141.438Z" fill="url(#paint9_linear_213_462)"/>
<path d="M94.1163 76.6476C96.5059 76.6476 98.4431 75.0519 98.4431 73.0836C98.4431 71.1153 96.5059 69.5197 94.1163 69.5197C91.7267 69.5197 89.7896 71.1153 89.7896 73.0836C89.7896 75.0519 91.7267 76.6476 94.1163 76.6476Z" fill="url(#paint10_linear_213_462)"/>
<path d="M207.259 114.628C209.649 114.628 211.586 113.032 211.586 111.064C211.586 109.096 209.649 107.5 207.259 107.5C204.869 107.5 202.932 109.096 202.932 111.064C202.932 113.032 204.869 114.628 207.259 114.628Z" fill="url(#paint11_linear_213_462)"/>
<path d="M194.085 82.0733C196.475 82.0733 198.412 80.4777 198.412 78.5094C198.412 76.5411 196.475 74.9454 194.085 74.9454C191.695 74.9454 189.758 76.5411 189.758 78.5094C189.758 80.4777 191.695 82.0733 194.085 82.0733Z" fill="url(#paint12_linear_213_462)"/>
<path d="M70.1231 27.7491C65.5099 24.1994 59.3149 22.3861 53.0166 22.742L49.3607 22.9487C47.1123 23.0758 45.8025 25.0989 46.9274 26.7075L67.1052 55.5661L103.594 53.504L70.1231 27.7491Z" fill="url(#paint13_linear_213_462)"/>
<path d="M143.14 57.8975C137.921 50.6065 128.151 46.368 117.9 46.9473L49.4984 50.813C44.938 51.0708 40.576 49.2387 38.1509 46.0471L29.8718 35.1511C28.8172 33.7632 26.9205 32.9667 24.9374 33.0787L17.6993 33.4878C17.053 33.5242 16.6778 34.1068 17.0032 34.5681L36.3143 61.9307C39.027 65.7745 44.1545 68.0157 49.5395 67.7114L140.139 62.5912C142.947 62.4324 144.569 59.8945 143.14 57.8975Z" fill="url(#paint14_linear_213_462)"/>
<path d="M96.0545 55.8166L69.3504 57.3258C68.072 57.3981 66.9556 58.0642 66.4737 59.0422L52.8692 86.6547C51.6468 89.1355 54.0019 91.8134 57.2446 91.6302L58.7473 91.5453C65.0455 91.1893 70.8818 88.6961 74.8632 84.6607L98.8853 60.3127C100.734 58.4391 98.9787 55.6513 96.0545 55.8166Z" fill="url(#paint15_linear_213_462)"/>
<path d="M124.349 55.9307L140.674 55.008C135.158 49.5113 126.708 46.4495 117.899 46.9473L113.419 47.2005L118.5 53.5458C119.785 55.1512 122.02 56.0623 124.349 55.9307Z" fill="url(#paint16_linear_213_462)"/>
<path d="M97.8447 171.561H99.1527V165.816H97.8447V171.561Z" fill="url(#paint17_linear_213_462)"/>
<path d="M92.9868 171.561H94.2948V165.816H92.9868V171.561Z" fill="url(#paint18_linear_213_462)"/>
<path d="M88.1294 171.561H89.4373V165.816H88.1294V171.561Z" fill="url(#paint19_linear_213_462)"/>
<path d="M83.272 171.561H84.5799V165.816H83.272V171.561Z" fill="url(#paint20_linear_213_462)"/>
<path d="M78.4146 171.561H79.7224V165.816H78.4146V171.561Z" fill="url(#paint21_linear_213_462)"/>
<path d="M73.5566 171.561H74.8645V165.816H73.5566V171.561Z" fill="url(#paint22_linear_213_462)"/>
<path d="M68.6992 171.561H70.0071V165.816H68.6992V171.561Z" fill="url(#paint23_linear_213_462)"/>
<path d="M63.8413 171.561H65.1493V165.816H63.8413V171.561Z" fill="url(#paint24_linear_213_462)"/>
<path d="M58.9839 171.561H60.2918V165.816H58.9839V171.561Z" fill="url(#paint25_linear_213_462)"/>
<path d="M54.1265 171.561H55.4344V165.816H54.1265V171.561Z" fill="url(#paint26_linear_213_462)"/>
<path d="M49.2686 171.561H50.5765V165.816H49.2686V171.561Z" fill="url(#paint27_linear_213_462)"/>
<path d="M44.4111 171.561H45.719V165.816H44.4111V171.561Z" fill="url(#paint28_linear_213_462)"/>
<path d="M34.6958 171.561H36.0038V165.816H34.6958V171.561Z" fill="url(#paint29_linear_213_462)"/>
<path d="M39.5537 171.561H40.8616V165.816H39.5537V171.561Z" fill="url(#paint30_linear_213_462)"/>
<path d="M29.8384 171.561H31.1464V165.816H29.8384V171.561Z" fill="url(#paint31_linear_213_462)"/>
<path d="M24.9805 171.561H26.2884V165.816H24.9805V171.561Z" fill="url(#paint32_linear_213_462)"/>
<path d="M17.1484 219.793L99.0326 207.932L94.5193 170.402H30.2586L17.1484 219.793Z" fill="url(#paint33_linear_213_462)"/>
<path opacity="0.3" d="M46.144 194.494C58.7831 186.803 75.7046 189.554 81.3908 180.332C83.2322 177.346 83.3878 173.924 82.5313 170.402H94.5192L99.0325 207.932L31.5049 217.713C33.9783 205.233 39.7541 198.383 46.144 194.494Z" fill="url(#paint34_linear_213_462)"/>
<path d="M24.9805 174.296H99.1524V168.825H24.9805V174.296Z" fill="url(#paint35_linear_213_462)"/>
<path d="M24.9806 166.17H99.1526V164.931H24.9806V166.17Z" fill="url(#paint36_linear_213_462)"/>
<path d="M52.2272 213.597H119.215V186.756H52.2272V213.597Z" fill="#D8DEE8"/>
<path opacity="0.3" d="M55.003 211.571H116.439V188.363H55.003V211.571Z" fill="#D8DEE8"/>
<path opacity="0.6" d="M109.674 211.571H112.511V188.363H109.674V211.571Z" fill="#D8DEE8"/>
<path d="M109.562 211.571H111.454V188.363H109.562V211.571Z" fill="#D8DEE8"/>
<path opacity="0.6" d="M102.441 211.571H105.278V188.363H102.441V211.571Z" fill="#D8DEE8"/>
<path d="M102.33 211.571H104.221V188.363H102.33V211.571Z" fill="#D8DEE8"/>
<path opacity="0.6" d="M95.2074 211.571H98.0449V188.363H95.2074V211.571Z" fill="#D8DEE8"/>
<path d="M95.0961 211.571H96.9878V188.363H95.0961V211.571Z" fill="#D8DEE8"/>
<path opacity="0.6" d="M87.9752 211.571H90.8127V188.363H87.9752V211.571Z" fill="#D8DEE8"/>
<path d="M87.8634 211.571H89.7551V188.363H87.8634V211.571Z" fill="#D8DEE8"/>
<path opacity="0.6" d="M80.7423 211.571H83.5798V188.363H80.7423V211.571Z" fill="#D8DEE8"/>
<path d="M80.6305 211.571H82.5222V188.363H80.6305V211.571Z" fill="#D8DEE8"/>
<path opacity="0.6" d="M73.5088 211.571H76.3464V188.363H73.5088V211.571Z" fill="#D8DEE8"/>
<path d="M73.3981 211.571H75.2897V188.363H73.3981V211.571Z" fill="#D8DEE8"/>
<path opacity="0.6" d="M66.2765 211.571H69.114V188.363H66.2765V211.571Z" fill="#D8DEE8"/>
<path d="M66.1652 211.571H68.0569V188.363H66.1652V211.571Z" fill="#D8DEE8"/>
<path opacity="0.6" d="M59.0428 211.571H61.8804V188.363H59.0428V211.571Z" fill="#D8DEE8"/>
<path d="M58.9316 211.571H60.8232V188.363H58.9316V211.571Z" fill="#D8DEE8"/>
<path d="M119.215 213.597H152.732V186.756H119.215V213.597Z" fill="#D8DEE8"/>
<path d="M151.707 212.753V187.6H120.24V212.753H151.707Z" fill="#D8DEE8"/>
<path d="M120.685 212.245H135.746V188.108H120.685V212.245Z" fill="#D8DEE8"/>
<path d="M136.201 212.245H151.262V188.108H136.201V212.245Z" fill="#D8DEE8"/>
<path opacity="0.3" d="M136.201 197.096H151.262V194.986H136.201V197.096Z" fill="#D8DEE8"/>
<path opacity="0.3" d="M136.201 205.367H151.262V203.257H136.201V205.367Z" fill="#D8DEE8"/>
<path opacity="0.3" d="M120.685 197.096H135.746V194.986H120.685V197.096Z" fill="#D8DEE8"/>
<path opacity="0.3" d="M120.685 205.367H135.746V203.257H120.685V205.367Z" fill="#D8DEE8"/>
<path d="M143.749 212.624H144.541V187.475H143.749V212.624Z" fill="#D8DEE8"/>
<path d="M144.54 212.624V187.474H144.145L144.54 212.624Z" fill="#97A6B7"/>
<path d="M143.449 188.234H144.84V186.912H143.449V188.234Z" fill="#D8DEE8"/>
<path d="M143.449 213.285H144.84V211.963H143.449V213.285Z" fill="#D8DEE8"/>
<path d="M132.854 212.624H133.646V187.475H132.854V212.624Z" fill="#D8DEE8"/>
<path d="M133.646 212.624V187.474H133.25L133.646 212.624Z" fill="#97A6B7"/>
<path d="M132.554 188.234H133.946V186.912H132.554V188.234Z" fill="#D8DEE8"/>
<path d="M132.554 213.285H133.946V211.963H132.554V213.285Z" fill="#D8DEE8"/>
<path d="M127.406 212.624H128.198V187.475H127.406V212.624Z" fill="#D8DEE8"/>
<path d="M128.198 212.624V187.474H127.802L128.198 212.624Z" fill="#97A6B7"/>
<path d="M127.107 188.234H128.499V186.912H127.107V188.234Z" fill="#D8DEE8"/>
<path d="M127.107 213.285H128.499V211.963H127.107V213.285Z" fill="#D8DEE8"/>
<path d="M138.301 212.624H139.093V187.475H138.301V212.624Z" fill="#D8DEE8"/>
<path d="M139.093 212.624V187.474H138.697L139.093 212.624Z" fill="#97A6B7"/>
<path d="M138.001 188.234H139.393V186.912H138.001V188.234Z" fill="#D8DEE8"/>
<path d="M138.001 213.285H139.393V211.963H138.001V213.285Z" fill="#D8DEE8"/>
<path d="M63.3372 186.912H130.325V160.072H63.3372V186.912Z" fill="#D8DEE8"/>
<path opacity="0.3" d="M66.113 184.886H127.549V161.678H66.113V184.886Z" fill="#D8DEE8"/>
<path opacity="0.6" d="M120.783 184.887H123.621V161.678H120.783V184.887Z" fill="#D8DEE8"/>
<path d="M120.672 184.887H122.564V161.678H120.672V184.887Z" fill="#D8DEE8"/>
<path opacity="0.6" d="M113.55 184.886H116.388V161.678H113.55V184.886Z" fill="#D8DEE8"/>
<path d="M113.439 184.886H115.331V161.678H113.439V184.886Z" fill="#D8DEE8"/>
<path opacity="0.6" d="M106.317 184.886H109.155V161.678H106.317V184.886Z" fill="#D8DEE8"/>
<path d="M106.206 184.886H108.098V161.678H106.206V184.886Z" fill="#D8DEE8"/>
<path opacity="0.6" d="M99.0845 184.886H101.922V161.678H99.0845V184.886Z" fill="#D8DEE8"/>
<path d="M98.9733 184.886H100.865V161.678H98.9733V184.886Z" fill="#D8DEE8"/>
<path opacity="0.6" d="M91.8516 184.886H94.6892V161.678H91.8516V184.886Z" fill="#D8DEE8"/>
<path d="M91.7404 184.886H93.632V161.678H91.7404V184.886Z" fill="#D8DEE8"/>
<path opacity="0.6" d="M84.6186 184.887H87.4562V161.678H84.6186V184.887Z" fill="#D8DEE8"/>
<path d="M84.5074 184.887H86.399V161.678H84.5074V184.887Z" fill="#D8DEE8"/>
<path opacity="0.6" d="M77.3858 184.887H80.2233V161.678H77.3858V184.887Z" fill="#D8DEE8"/>
<path d="M77.2745 184.887H79.1662V161.678H77.2745V184.887Z" fill="#D8DEE8"/>
<path opacity="0.6" d="M70.1528 184.886H72.9904V161.678H70.1528V184.886Z" fill="#D8DEE8"/>
<path d="M70.0416 184.886H71.9332V161.678H70.0416V184.886Z" fill="#D8DEE8"/>
<path d="M130.325 186.912H163.841V160.072H130.325V186.912Z" fill="white"/>
<path opacity="0.3" d="M162.817 186.068V160.916H131.35V186.068H162.817Z" fill="#D8DEE8"/>
<path d="M131.795 185.56H146.856V161.424H131.795V185.56Z" fill="white"/>
<path d="M147.311 185.56H162.372V161.424H147.311V185.56Z" fill="white"/>
<path opacity="0.3" d="M147.311 170.411H162.372V168.302H147.311V170.411Z" fill="#D8DEE8"/>
<path opacity="0.3" d="M147.311 178.682H162.372V176.572H147.311V178.682Z" fill="#D8DEE8"/>
<path opacity="0.3" d="M131.795 170.411H146.856V168.302H131.795V170.411Z" fill="#D8DEE8"/>
<path opacity="0.3" d="M131.795 178.682H146.856V176.572H131.795V178.682Z" fill="#D8DEE8"/>
<path d="M154.858 185.939H155.65V160.79H154.858V185.939Z" fill="#D8DEE8"/>
<path d="M155.65 185.939V160.79H155.254L155.65 185.939Z" fill="#97A6B7"/>
<path d="M154.558 161.55H155.95V160.227H154.558V161.55Z" fill="#D8DEE8"/>
<path d="M154.558 186.6H155.95V185.278H154.558V186.6Z" fill="#D8DEE8"/>
<path d="M143.964 185.939H144.756V160.79H143.964V185.939Z" fill="#D8DEE8"/>
<path d="M144.755 185.939V160.79H144.36L144.755 185.939Z" fill="#97A6B7"/>
<path d="M143.664 161.55H145.055V160.227H143.664V161.55Z" fill="#D8DEE8"/>
<path d="M143.664 186.6H145.055V185.278H143.664V186.6Z" fill="#D8DEE8"/>
<path d="M138.516 185.939H139.308V160.79H138.516V185.939Z" fill="#D8DEE8"/>
<path d="M139.308 185.939V160.79H138.912L139.308 185.939Z" fill="#97A6B7"/>
<path d="M138.216 161.55H139.608V160.227H138.216V161.55Z" fill="#D8DEE8"/>
<path d="M138.216 186.6H139.608V185.278H138.216V186.6Z" fill="#D8DEE8"/>
<path d="M149.411 185.939H150.203V160.79H149.411V185.939Z" fill="#D8DEE8"/>
<path d="M150.203 185.939V160.79H149.807L150.203 185.939Z" fill="#97A6B7"/>
<path d="M149.111 161.55H150.503V160.228H149.111V161.55Z" fill="#D8DEE8"/>
<path d="M149.111 186.6H150.503V185.278H149.111V186.6Z" fill="#D8DEE8"/>
<path d="M198.865 180.641L204.524 192.699C205.209 194.158 204.849 195.811 203.587 196.98C196.631 203.427 174.38 224.88 172.75 236.965H23.811C23.811 236.965 22.3066 232.539 18.8679 230.06C15.4292 227.582 12.8501 221.314 15.8591 217.314L66.1501 207.843L73.3343 196.369C74.3414 194.76 76.3137 193.716 78.5086 193.63L84.8089 193.383C87.1052 193.293 89.1819 192.232 90.3003 190.578L97.5876 179.798C98.4797 178.478 100.17 177.66 102.003 177.66H193.586C195.924 177.66 198.022 178.844 198.865 180.641Z" fill="url(#paint37_linear_213_462)"/>
<path d="M191.663 188.636C196.772 189.197 201.52 191.783 204.864 194.099C204.897 195.141 204.455 196.175 203.587 196.98C196.63 203.427 174.38 224.88 172.75 236.964H156.36C156.401 229.72 156.775 218.42 158.565 212.357C162.219 199.983 191.663 188.636 191.663 188.636Z" fill="url(#paint38_linear_213_462)"/>
<path d="M15.8589 217.314L66.1499 207.843L83.433 206.532C87.9883 206.187 92.0966 204.132 94.5703 200.962L99.2884 194.917C102.353 190.99 107.601 188.589 113.268 188.523C134.081 188.281 184.039 187.798 191.663 188.636C191.663 188.636 162.219 199.983 158.565 212.358C156.775 218.42 156.401 229.72 156.36 236.965H23.8109C23.8109 236.965 22.3065 232.539 18.8679 230.061C15.429 227.582 12.85 221.314 15.8589 217.314Z" fill="url(#paint39_linear_213_462)"/>
<path d="M129.981 216.783L126.113 210.41H119.235L123.749 216.783H129.981Z" fill="url(#paint40_linear_213_462)"/>
<path d="M167.873 216.783L171.742 210.41H178.619L174.106 216.783H167.873Z" fill="url(#paint41_linear_213_462)"/>
<path opacity="0.3" d="M82.5165 226.473C92.5523 216.617 93.2126 205.279 108.057 199.375C123.212 193.347 133.466 200.812 150.174 196.211C154.999 194.882 160.477 192.515 166.077 188.164C178.412 188.172 188.555 188.294 191.663 188.636C191.663 188.636 162.219 199.983 158.565 212.358C156.775 218.42 156.401 229.72 156.36 236.965H65.4341C73.24 233.991 78.6495 230.27 82.5165 226.473Z" fill="url(#paint42_linear_213_462)"/>
<path d="M51.24 219.592L29.8832 217.442V191.497L51.24 188.165V219.592Z" fill="url(#paint43_linear_213_462)"/>
<path d="M77.2903 218.225L51.2399 219.592V188.165L77.2903 191.127V218.225Z" fill="url(#paint44_linear_213_462)"/>
<path d="M82.4138 253.905L47.4033 255.933V213.696L82.4138 215.724V253.905Z" fill="url(#paint45_linear_213_462)"/>
<path d="M47.4387 213.695V255.934L18.5889 253.042V216.392L27.1301 215.594L38.9065 214.493L47.4387 213.695Z" fill="url(#paint46_linear_213_462)"/>
<path d="M38.9316 214.493V221.468L27.0957 221.958V215.594L38.9316 214.493Z" fill="white"/>
<path d="M75.1789 196.916L68.1514 196.541V191.895L75.1789 192.435V196.916Z" fill="white"/>
<path d="M75.1789 193.302L68.1514 192.794V191.895L75.1789 192.435V193.302Z" fill="url(#paint47_linear_213_462)"/>
<path d="M68.5212 195.82L68.1514 195.801V193.106L68.5212 193.131V195.82Z" fill="url(#paint48_linear_213_462)"/>
<path d="M69.2608 195.845L68.521 195.829V193.143L69.2608 193.157V195.845Z" fill="url(#paint49_linear_213_462)"/>
<path d="M70.0007 195.903L69.6309 195.884V193.206L70.0007 193.231V195.903Z" fill="url(#paint50_linear_213_462)"/>
<path d="M70.3703 195.922L70.0005 195.912V193.243L70.3703 193.255V195.922Z" fill="url(#paint51_linear_213_462)"/>
<path d="M71.4803 195.97L70.3706 195.951V193.292L71.4803 193.316V195.97Z" fill="url(#paint52_linear_213_462)"/>
<path d="M71.8498 196.579L71.48 196.569V193.328L71.8498 193.34V196.579Z" fill="url(#paint53_linear_213_462)"/>
<path d="M72.5896 196.049L72.2197 196.029V193.389L72.5896 193.413V196.049Z" fill="url(#paint54_linear_213_462)"/>
<path d="M74.0691 196.119L73.6992 196.099V193.474L74.0691 193.498V196.119Z" fill="url(#paint55_linear_213_462)"/>
<path d="M75.1788 196.183L74.439 196.172V193.567L75.1788 193.579V196.183Z" fill="url(#paint56_linear_213_462)"/>
<path d="M78.8773 223.229H71.48V218.199L78.8773 218.574V223.229Z" fill="white"/>
<path d="M78.8773 219.473L71.48 219.171V218.199L78.8773 218.574V219.473Z" fill="url(#paint57_linear_213_462)"/>
<path d="M73.6994 222.427L73.3296 222.424V219.56L73.6994 219.574V222.427Z" fill="url(#paint58_linear_213_462)"/>
<path d="M74.0691 222.431L73.6992 222.429V219.581L74.0691 219.588V222.431Z" fill="url(#paint59_linear_213_462)"/>
<path d="M74.4392 222.434L74.0693 222.432V219.595L74.4392 219.602V222.434Z" fill="url(#paint60_linear_213_462)"/>
<path d="M75.1788 222.924H74.439V219.629L75.1788 219.636V222.924Z" fill="url(#paint61_linear_213_462)"/>
<path d="M75.5486 222.444L75.1787 222.442V219.643L75.5486 219.649V222.444Z" fill="url(#paint62_linear_213_462)"/>
<path d="M76.2883 222.45L75.9185 222.447V219.663L76.2883 219.676V222.45Z" fill="url(#paint63_linear_213_462)"/>
<path d="M77.398 222.46L76.6582 222.457V219.709L77.398 219.722V222.46Z" fill="url(#paint64_linear_213_462)"/>
<path d="M77.7678 222.924H77.3979V219.729L77.7678 219.735V222.924Z" fill="url(#paint65_linear_213_462)"/>
<path d="M78.1379 222.465L77.7681 222.464V219.741L78.1379 219.748V222.465Z" fill="url(#paint66_linear_213_462)"/>
<path d="M278.6 235.003V240.669C278.6 241.196 278.115 241.637 277.479 241.691L207.059 247.187L197.58 252.354L184.492 238.013L278.6 235.003Z" fill="url(#paint67_linear_213_462)"/>
<path d="M224.623 242.79V247.86C224.623 248.285 224.248 248.648 223.738 248.715L206.833 250.952L207.324 242.778L223.505 241.926C224.11 241.894 224.623 242.29 224.623 242.79Z" fill="url(#paint68_linear_213_462)"/>
<path d="M271.466 237.617C271.523 237.617 271.58 237.621 271.636 237.626L272.53 237.617L272.525 237.941C273.391 238.499 273.992 239.719 273.992 241.135C273.992 242.607 273.343 243.867 272.421 244.391L272.417 244.652H271.466C270.071 244.652 268.939 243.078 268.939 241.135C268.939 239.192 270.07 237.617 271.466 237.617Z" fill="url(#paint69_linear_213_462)"/>
<path d="M272.53 244.653C273.925 244.653 275.056 243.078 275.056 241.135C275.056 239.192 273.925 237.617 272.53 237.617C271.135 237.617 270.004 239.192 270.004 241.135C270.004 243.078 271.135 244.653 272.53 244.653Z" fill="url(#paint70_linear_213_462)"/>
<path d="M271.466 241.135C271.466 242.226 272.101 243.111 272.885 243.111C273.669 243.111 274.305 242.226 274.305 241.135C274.305 240.043 273.669 239.158 272.885 239.158C272.101 239.158 271.466 240.043 271.466 241.135Z" fill="#D8DEE8"/>
<path d="M271.466 241.135C271.466 242.148 272.005 242.97 272.67 242.97C273.336 242.97 273.875 242.148 273.875 241.135C273.875 240.121 273.336 239.3 272.67 239.3C272.005 239.3 271.466 240.121 271.466 241.135Z" fill="url(#paint71_linear_213_462)"/>
<path d="M265.496 238.013C265.558 238.013 265.62 238.017 265.682 238.023L266.662 238.013L266.656 238.368C267.605 238.979 268.263 240.315 268.263 241.867C268.263 243.48 267.552 244.86 266.542 245.435L266.538 245.721H265.496C263.967 245.721 262.728 243.995 262.728 241.867C262.728 239.738 263.967 238.013 265.496 238.013Z" fill="url(#paint72_linear_213_462)"/>
<path d="M266.662 245.721C268.19 245.721 269.43 243.996 269.43 241.867C269.43 239.738 268.19 238.013 266.662 238.013C265.133 238.013 263.894 239.738 263.894 241.867C263.894 243.996 265.133 245.721 266.662 245.721Z" fill="url(#paint73_linear_213_462)"/>
<path d="M267.051 244.032C267.91 244.032 268.606 243.063 268.606 241.867C268.606 240.671 267.91 239.702 267.051 239.702C266.192 239.702 265.496 240.671 265.496 241.867C265.496 243.063 266.192 244.032 267.051 244.032Z" fill="#D8DEE8"/>
<path d="M266.815 243.877C267.544 243.877 268.135 242.977 268.135 241.867C268.135 240.757 267.544 239.857 266.815 239.857C266.087 239.857 265.496 240.757 265.496 241.867C265.496 242.977 266.087 243.877 266.815 243.877Z" fill="url(#paint74_linear_213_462)"/>
<path d="M259.122 238.013C259.191 238.013 259.259 238.017 259.326 238.023L260.396 238.013L260.389 238.401C261.425 239.068 262.145 240.527 262.145 242.221C262.145 243.982 261.368 245.489 260.265 246.117L260.26 246.429H259.122C257.453 246.429 256.1 244.545 256.1 242.221C256.1 239.897 257.453 238.013 259.122 238.013Z" fill="url(#paint75_linear_213_462)"/>
<path d="M260.396 246.429C262.065 246.429 263.418 244.545 263.418 242.221C263.418 239.897 262.065 238.013 260.396 238.013C258.727 238.013 257.374 239.897 257.374 242.221C257.374 244.545 258.727 246.429 260.396 246.429Z" fill="url(#paint76_linear_213_462)"/>
<path d="M259.123 242.221C259.123 243.527 259.883 244.585 260.821 244.585C261.758 244.585 262.518 243.527 262.518 242.221C262.518 240.915 261.758 239.857 260.821 239.857C259.883 239.857 259.123 240.915 259.123 242.221Z" fill="#D8DEE8"/>
<path d="M259.123 242.221C259.123 243.433 259.768 244.416 260.564 244.416C261.36 244.416 262.005 243.433 262.005 242.221C262.005 241.009 261.359 240.026 260.564 240.026C259.768 240.026 259.123 241.009 259.123 242.221Z" fill="url(#paint77_linear_213_462)"/>
<path d="M229.739 240.208C229.826 240.208 229.913 240.213 229.999 240.221L231.364 240.208L231.356 240.703C232.679 241.554 233.597 243.417 233.597 245.58C233.597 247.828 232.605 249.752 231.198 250.553L231.191 250.952H229.739C227.608 250.952 225.88 248.547 225.88 245.58C225.88 242.613 227.608 240.208 229.739 240.208Z" fill="url(#paint78_linear_213_462)"/>
<path d="M231.364 250.952C233.495 250.952 235.222 248.547 235.222 245.58C235.222 242.613 233.495 240.208 231.364 240.208C229.233 240.208 227.506 242.613 227.506 245.58C227.506 248.547 229.233 250.952 231.364 250.952Z" fill="url(#paint79_linear_213_462)"/>
<path d="M231.906 248.598C233.104 248.598 234.074 247.247 234.074 245.58C234.074 243.913 233.104 242.562 231.906 242.562C230.709 242.562 229.739 243.913 229.739 245.58C229.739 247.247 230.709 248.598 231.906 248.598Z" fill="#D8DEE8"/>
<path d="M229.739 245.58C229.739 247.127 230.562 248.382 231.578 248.382C232.594 248.382 233.418 247.127 233.418 245.58C233.418 244.032 232.594 242.778 231.578 242.778C230.562 242.778 229.739 244.032 229.739 245.58Z" fill="url(#paint80_linear_213_462)"/>
<path d="M204.063 241.057C204.175 241.057 204.286 241.064 204.396 241.074L206.14 241.057L206.13 241.689C207.82 242.778 208.992 245.157 208.992 247.92C208.992 250.792 207.725 253.25 205.927 254.274L205.919 254.783H204.063C201.341 254.783 199.134 251.711 199.134 247.92C199.134 244.13 201.341 241.057 204.063 241.057Z" fill="url(#paint81_linear_213_462)"/>
<path d="M206.14 254.783C208.862 254.783 211.069 251.711 211.069 247.92C211.069 244.13 208.862 241.057 206.14 241.057C203.418 241.057 201.211 244.13 201.211 247.92C201.211 251.711 203.418 254.783 206.14 254.783Z" fill="url(#paint82_linear_213_462)"/>
<path d="M206.833 251.776C208.362 251.776 209.602 250.05 209.602 247.92C209.602 245.791 208.362 244.064 206.833 244.064C205.303 244.064 204.063 245.791 204.063 247.92C204.063 250.05 205.303 251.776 206.833 251.776Z" fill="#D8DEE8"/>
<path d="M206.414 251.5C207.712 251.5 208.764 249.897 208.764 247.92C208.764 245.943 207.712 244.341 206.414 244.341C205.116 244.341 204.063 245.943 204.063 247.92C204.063 249.897 205.116 251.5 206.414 251.5Z" fill="url(#paint83_linear_213_462)"/>
<path d="M282.789 204.847C283.711 204.973 284.387 205.63 284.387 206.4V235.118C284.387 235.953 283.594 236.644 282.582 236.69L217.051 239.702V195.844L282.789 204.847Z" fill="url(#paint84_linear_213_462)"/>
<path d="M180.097 196.868L217.051 195.844V239.702H178.11V198.561C178.11 197.648 178.989 196.899 180.097 196.868Z" fill="url(#paint85_linear_213_462)"/>
<path opacity="0.3" d="M230.896 228.677C239.312 225.485 247.211 230.358 254.91 225.648C261.653 221.523 259.479 215.411 264.862 208.184C266.094 206.53 267.745 204.793 270.001 203.096L282.788 204.847C283.71 204.973 284.386 205.63 284.386 206.4V235.118C284.386 235.953 283.594 236.644 282.581 236.69L220.431 239.546C223.283 233.119 227.159 230.095 230.896 228.677Z" fill="url(#paint86_linear_213_462)"/>
<path d="M158.423 225.826L161.154 220.168L161.235 215.491L158.476 215.036C158.209 214.992 158.04 214.774 158.106 214.556C158.523 213.176 160.05 208.62 162.425 207.115C164.1 206.054 195.85 205.737 195.85 205.737L211.132 206.555C212.332 206.62 213.265 207.44 213.265 208.431V236.323C213.265 237.055 212.586 237.665 211.701 237.729L201.211 238.478L199.135 240.208C199.135 240.208 169.403 242.169 157.538 240.386C156.923 240.294 156.476 239.856 156.476 239.342V227.073C156.476 225.291 158.423 225.826 158.423 225.826Z" fill="#F4F7FA"/>
<path opacity="0.8" d="M190.657 227.519C190.657 227.519 190.982 215.401 190.657 210.412C190.5 207.991 191.972 206.579 193.529 205.765C194.981 205.746 195.85 205.737 195.85 205.737L211.131 206.555C212.332 206.62 213.265 207.44 213.265 208.431V236.323C213.265 237.055 212.586 237.665 211.701 237.729L201.211 238.478L199.134 240.207C199.134 240.207 194.239 240.53 187.629 240.795V230.459L190.657 227.519Z" fill="url(#paint87_linear_213_462)"/>
<path d="M156.814 242.56L157.99 242.221V240.258C157.99 239.729 158.511 239.3 159.153 239.3H195.972C196.86 239.3 197.58 239.893 197.58 240.625V252.354C197.58 252.999 196.929 253.516 196.146 253.491L156.722 252.242C155.98 252.218 155.394 251.716 155.394 251.105V244.209C155.394 243.467 155.964 242.805 156.814 242.56Z" fill="#97A6B7"/>
<path d="M161.301 232.482H183.132C183.867 232.482 184.448 232.996 184.396 233.6L183.194 247.718C183.133 248.427 182.402 248.97 181.54 248.946L162.784 248.422C161.965 248.399 161.298 247.871 161.239 247.198L160.036 233.602C159.983 232.997 160.564 232.482 161.301 232.482Z" fill="url(#paint88_linear_213_462)"/>
<g opacity="0.3">
<path d="M156.814 242.56L157.99 242.221V240.258C157.99 239.84 158.316 239.485 158.769 239.355L161.01 248.032C161.277 249.066 162.361 249.818 163.643 249.859L180.85 250.41C182.083 250.449 183.203 249.82 183.607 248.859L187.629 239.3H195.972C196.86 239.3 197.58 239.893 197.58 240.625V252.354C197.58 253 196.929 253.516 196.147 253.491L156.722 252.242C155.98 252.218 155.394 251.716 155.394 251.105V244.209C155.394 243.467 155.964 242.805 156.814 242.56Z" fill="#97A6B7"/>
</g>
<path d="M185.79 249.616L189.884 249.784C192.426 249.889 194.61 248.314 194.82 246.225L194.985 244.585H186.788C186.237 244.585 185.79 244.953 185.79 245.408V249.616Z" fill="url(#paint89_linear_213_462)"/>
<path d="M159.379 245.279L160.033 248.946C160.033 248.946 155.717 248.822 155.825 244.341L158.503 244.583C158.953 244.624 159.314 244.91 159.379 245.279Z" fill="url(#paint90_linear_213_462)"/>
<path d="M189.721 227.657C189.703 227.657 189.685 227.657 189.667 227.657L158.568 227.201L158.234 225.824L158.243 225.793L161.087 215.338H190.797L192.416 215.106C192.879 215.041 193.351 215.146 193.711 215.395C194.071 215.645 194.277 216.01 194.277 216.397V224.475C194.277 225.132 193.892 225.757 193.249 226.145L191.564 227.161C191.032 227.482 190.38 227.657 189.721 227.657ZM158.872 226.901L189.673 227.352C190.272 227.362 190.864 227.206 191.345 226.915L193.03 225.899C193.579 225.568 193.907 225.035 193.907 224.475V216.397C193.907 216.1 193.749 215.82 193.473 215.628C193.197 215.437 192.835 215.356 192.479 215.406L190.828 215.641L161.384 215.643L158.612 225.828L158.872 226.901Z" fill="#808080"/>
<path d="M161.235 215.49H190.797L192.448 215.256C193.307 215.134 194.092 215.679 194.092 216.397V224.475C194.092 225.086 193.738 225.661 193.139 226.022L191.455 227.038C190.938 227.35 190.311 227.514 189.67 227.504L158.721 227.051L158.423 225.826L161.235 215.49Z" fill="url(#paint91_linear_213_462)"/>
<path d="M179.611 212.684H182.126C182.507 212.684 182.815 212.938 182.815 213.252V214.121C182.815 214.434 182.507 214.689 182.126 214.689H179.611C179.23 214.689 178.921 214.434 178.921 214.121V213.252C178.921 212.938 179.23 212.684 179.611 212.684Z" fill="#97A6B7"/>
<path d="M164.845 212.684H167.36C167.741 212.684 168.05 212.938 168.05 213.252V214.121C168.05 214.434 167.741 214.689 167.36 214.689H164.845C164.464 214.689 164.156 214.434 164.156 214.121V213.252C164.156 212.938 164.464 212.684 164.845 212.684Z" fill="#97A6B7"/>
<path opacity="0.3" d="M170.484 221.237C178.112 218.834 185.288 221.829 188.575 218.564C189.464 217.682 189.823 216.583 189.906 215.491H190.797L192.448 215.256C193.307 215.134 194.092 215.679 194.092 216.397V224.475C194.092 225.086 193.738 225.661 193.139 226.022L191.455 227.038C190.938 227.35 190.311 227.514 189.67 227.505L161.634 227.094C164.803 223.575 168.022 222.013 170.484 221.237Z" fill="white"/>
<path d="M223.267 224.374V210.264L226.403 210.48V224.347L223.267 224.374Z" fill="white"/>
<path d="M236.161 224.262L232.974 213.81L232.891 213.806C233.008 215.943 233.066 217.367 233.066 218.079V224.289L230.475 224.311V210.76L234.392 211.03L237.475 221.189L237.528 221.19L240.676 211.462L244.154 211.701V224.192L241.789 224.213V218.213C241.789 217.93 241.793 217.604 241.801 217.234C241.809 216.865 241.847 215.884 241.913 214.293L241.838 214.289L238.648 224.24L236.161 224.262Z" fill="white"/>
<path d="M254.914 216.076C254.914 217.331 254.568 218.28 253.871 218.928C253.167 219.583 252.155 219.9 250.822 219.875L249.83 219.856V224.142L247.467 224.163V211.928L251 212.171C252.301 212.261 253.275 212.635 253.935 213.292C254.589 213.943 254.914 214.87 254.914 216.076ZM249.83 217.762L250.592 217.787C251.298 217.809 251.822 217.673 252.167 217.379C252.511 217.086 252.683 216.648 252.683 216.066C252.683 215.478 252.539 215.036 252.251 214.74C251.962 214.443 251.506 214.277 250.882 214.243L249.83 214.185V217.762Z" fill="white"/>
<path d="M265.703 218.578C265.703 220.369 265.339 221.743 264.605 222.708C263.863 223.682 262.786 224.18 261.358 224.194C259.902 224.208 258.763 223.715 257.959 222.704C257.145 221.682 256.734 220.209 256.734 218.292C256.734 216.375 257.146 214.933 257.962 213.974C258.769 213.025 259.911 212.607 261.371 212.709C262.803 212.809 263.879 213.369 264.614 214.383C265.342 215.386 265.703 216.782 265.703 218.578ZM258.93 218.374C258.93 219.642 259.136 220.599 259.546 221.244C259.954 221.886 260.56 222.207 261.358 222.21C262.933 222.216 263.708 220.986 263.708 218.518C263.708 216.046 262.937 214.766 261.371 214.678C260.573 214.633 259.965 214.918 259.553 215.537C259.138 216.16 258.93 217.107 258.93 218.374Z" fill="white"/>
<path d="M269.612 219.933V223.97L267.815 223.985V213.328L270.272 213.497C271.388 213.573 272.202 213.885 272.725 214.428C273.243 214.967 273.501 215.75 273.501 216.779C273.501 217.381 273.373 217.91 273.117 218.37C272.859 218.832 272.493 219.191 272.017 219.447C273.22 221.779 273.992 223.263 274.348 223.928L272.49 223.944L270.549 219.953L269.612 219.933ZM269.612 218.12L270.181 218.14C270.735 218.159 271.141 218.057 271.401 217.834C271.66 217.612 271.79 217.254 271.79 216.758C271.79 216.267 271.657 215.911 271.393 215.689C271.126 215.467 270.712 215.339 270.147 215.308L269.612 215.279L269.612 218.12Z" fill="white"/>
<path d="M278.472 223.892L276.904 223.906V215.709L274.838 215.595V213.811L280.426 214.195V215.903L278.472 215.795L278.472 223.892Z" fill="white"/>
<defs>
<linearGradient id="paint0_linear_213_462" x1="51.5766" y1="177.877" x2="245.63" y2="32.2663" gradientUnits="userSpaceOnUse">
<stop stop-color="#FFC444"/>
<stop offset="0.3138" stop-color="#FBA94A"/>
<stop offset="0.9964" stop-color="#F36F56"/>
</linearGradient>
<linearGradient id="paint1_linear_213_462" x1="250.583" y1="60.4681" x2="196.827" y2="257.734" gradientUnits="userSpaceOnUse">
<stop offset="0.0036" stop-color="#E38DDD"/>
<stop offset="1" stop-color="#9571F6"/>
</linearGradient>
<linearGradient id="paint2_linear_213_462" x1="174.374" y1="175.536" x2="121.688" y2="22.0271" gradientUnits="userSpaceOnUse">
<stop stop-color="#FF9085"/>
<stop offset="1" stop-color="#FB6FBB"/>
</linearGradient>
<linearGradient id="paint3_linear_213_462" x1="41.9518" y1="120.761" x2="251.27" y2="120.761" gradientUnits="userSpaceOnUse">
<stop stop-color="#FB6FBB"/>
<stop offset="1" stop-color="#FF9085"/>
</linearGradient>
<linearGradient id="paint4_linear_213_462" x1="93.8449" y1="134.423" x2="122.846" y2="134.423" gradientUnits="userSpaceOnUse">
<stop stop-color="#311944"/>
<stop offset="1" stop-color="#6B3976"/>
</linearGradient>
<linearGradient id="paint5_linear_213_462" x1="95.8004" y1="104.119" x2="122.845" y2="104.119" gradientUnits="userSpaceOnUse">
<stop stop-color="#311944"/>
<stop offset="1" stop-color="#6B3976"/>
</linearGradient>
<linearGradient id="paint6_linear_213_462" x1="93.8457" y1="75.5176" x2="122.846" y2="75.5176" gradientUnits="userSpaceOnUse">
<stop stop-color="#311944"/>
<stop offset="1" stop-color="#6B3976"/>
</linearGradient>
<linearGradient id="paint7_linear_213_462" x1="124.145" y1="107.514" x2="192.992" y2="107.514" gradientUnits="userSpaceOnUse">
<stop stop-color="#311944"/>
<stop offset="1" stop-color="#6B3976"/>
</linearGradient>
<linearGradient id="paint8_linear_213_462" x1="122.337" y1="122.569" x2="206.327" y2="122.569" gradientUnits="userSpaceOnUse">
<stop stop-color="#311944"/>
<stop offset="1" stop-color="#6B3976"/>
</linearGradient>
<linearGradient id="paint9_linear_213_462" x1="116.525" y1="136.172" x2="129.312" y2="136.172" gradientUnits="userSpaceOnUse">
<stop stop-color="#311944"/>
<stop offset="1" stop-color="#6B3976"/>
</linearGradient>
<linearGradient id="paint10_linear_213_462" x1="103.002" y1="43.6377" x2="79.9617" y2="156.174" gradientUnits="userSpaceOnUse">
<stop stop-color="#311944"/>
<stop offset="1" stop-color="#6B3976"/>
</linearGradient>
<linearGradient id="paint11_linear_213_462" x1="220.355" y1="67.6641" x2="197.315" y2="180.2" gradientUnits="userSpaceOnUse">
<stop stop-color="#311944"/>
<stop offset="1" stop-color="#6B3976"/>
</linearGradient>
<linearGradient id="paint12_linear_213_462" x1="198.696" y1="63.2296" x2="175.656" y2="175.765" gradientUnits="userSpaceOnUse">
<stop stop-color="#311944"/>
<stop offset="1" stop-color="#6B3976"/>
</linearGradient>
<linearGradient id="paint13_linear_213_462" x1="69.1591" y1="18.4845" x2="74.9487" y2="49.0723" gradientUnits="userSpaceOnUse">
<stop stop-color="#AA80F9"/>
<stop offset="0.9964" stop-color="#6165D7"/>
</linearGradient>
<linearGradient id="paint14_linear_213_462" x1="77.2155" y1="29.1705" x2="83.5386" y2="82.7178" gradientUnits="userSpaceOnUse">
<stop stop-color="#AA80F9"/>
<stop offset="0.9964" stop-color="#6165D7"/>
</linearGradient>
<linearGradient id="paint15_linear_213_462" x1="117.314" y1="106.649" x2="87.7008" y2="71.5228" gradientUnits="userSpaceOnUse">
<stop stop-color="#AA80F9"/>
<stop offset="0.9964" stop-color="#6165D7"/>
</linearGradient>
<linearGradient id="paint16_linear_213_462" x1="129.324" y1="46.1452" x2="124.473" y2="61.7148" gradientUnits="userSpaceOnUse">
<stop stop-color="#311944"/>
<stop offset="1" stop-color="#6B3976"/>
</linearGradient>
<linearGradient id="paint17_linear_213_462" x1="93.7" y1="174.733" x2="84.4422" y2="191.923" gradientUnits="userSpaceOnUse">
<stop stop-color="#AA80F9"/>
<stop offset="0.9964" stop-color="#6165D7"/>
</linearGradient>
<linearGradient id="paint18_linear_213_462" x1="90.2969" y1="172.901" x2="81.039" y2="190.09" gradientUnits="userSpaceOnUse">
<stop stop-color="#AA80F9"/>
<stop offset="0.9964" stop-color="#6165D7"/>
</linearGradient>
<linearGradient id="paint19_linear_213_462" x1="86.8942" y1="171.068" x2="77.6364" y2="188.258" gradientUnits="userSpaceOnUse">
<stop stop-color="#AA80F9"/>
<stop offset="0.9964" stop-color="#6165D7"/>
</linearGradient>
<linearGradient id="paint20_linear_213_462" x1="83.4915" y1="169.235" x2="74.2337" y2="186.425" gradientUnits="userSpaceOnUse">
<stop stop-color="#AA80F9"/>
<stop offset="0.9964" stop-color="#6165D7"/>
</linearGradient>
<linearGradient id="paint21_linear_213_462" x1="80.0888" y1="167.403" x2="70.831" y2="184.592" gradientUnits="userSpaceOnUse">
<stop stop-color="#AA80F9"/>
<stop offset="0.9964" stop-color="#6165D7"/>
</linearGradient>
<linearGradient id="paint22_linear_213_462" x1="76.6857" y1="165.57" x2="67.428" y2="182.76" gradientUnits="userSpaceOnUse">
<stop stop-color="#AA80F9"/>
<stop offset="0.9964" stop-color="#6165D7"/>
</linearGradient>
<linearGradient id="paint23_linear_213_462" x1="73.283" y1="163.737" x2="64.0252" y2="180.927" gradientUnits="userSpaceOnUse">
<stop stop-color="#AA80F9"/>
<stop offset="0.9964" stop-color="#6165D7"/>
</linearGradient>
<linearGradient id="paint24_linear_213_462" x1="69.8799" y1="161.905" x2="60.6222" y2="179.094" gradientUnits="userSpaceOnUse">
<stop stop-color="#AA80F9"/>
<stop offset="0.9964" stop-color="#6165D7"/>
</linearGradient>
<linearGradient id="paint25_linear_213_462" x1="66.4772" y1="160.072" x2="57.2195" y2="177.262" gradientUnits="userSpaceOnUse">
<stop stop-color="#AA80F9"/>
<stop offset="0.9964" stop-color="#6165D7"/>
</linearGradient>
<linearGradient id="paint26_linear_213_462" x1="63.0745" y1="158.239" x2="53.8167" y2="175.429" gradientUnits="userSpaceOnUse">
<stop stop-color="#AA80F9"/>
<stop offset="0.9964" stop-color="#6165D7"/>
</linearGradient>
<linearGradient id="paint27_linear_213_462" x1="59.6713" y1="156.407" x2="50.4135" y2="173.596" gradientUnits="userSpaceOnUse">
<stop stop-color="#AA80F9"/>
<stop offset="0.9964" stop-color="#6165D7"/>
</linearGradient>
<linearGradient id="paint28_linear_213_462" x1="56.2687" y1="154.574" x2="47.0109" y2="171.763" gradientUnits="userSpaceOnUse">
<stop stop-color="#AA80F9"/>
<stop offset="0.9964" stop-color="#6165D7"/>
</linearGradient>
<linearGradient id="paint29_linear_213_462" x1="49.463" y1="150.909" x2="40.2052" y2="168.098" gradientUnits="userSpaceOnUse">
<stop stop-color="#AA80F9"/>
<stop offset="0.9964" stop-color="#6165D7"/>
</linearGradient>
<linearGradient id="paint30_linear_213_462" x1="52.8662" y1="152.741" x2="43.6084" y2="169.931" gradientUnits="userSpaceOnUse">
<stop stop-color="#AA80F9"/>
<stop offset="0.9964" stop-color="#6165D7"/>
</linearGradient>
<linearGradient id="paint31_linear_213_462" x1="46.0603" y1="149.076" x2="36.8025" y2="166.265" gradientUnits="userSpaceOnUse">
<stop stop-color="#AA80F9"/>
<stop offset="0.9964" stop-color="#6165D7"/>
</linearGradient>
<linearGradient id="paint32_linear_213_462" x1="42.6571" y1="147.243" x2="33.3993" y2="164.433" gradientUnits="userSpaceOnUse">
<stop stop-color="#AA80F9"/>
<stop offset="0.9964" stop-color="#6165D7"/>
</linearGradient>
<linearGradient id="paint33_linear_213_462" x1="99.0326" y1="195.097" x2="17.1484" y2="195.097" gradientUnits="userSpaceOnUse">
<stop stop-color="#311944"/>
<stop offset="1" stop-color="#6B3976"/>
</linearGradient>
<linearGradient id="paint34_linear_213_462" x1="99.0326" y1="194.057" x2="17.1486" y2="194.057" gradientUnits="userSpaceOnUse">
<stop stop-color="#311944"/>
<stop offset="1" stop-color="#6B3976"/>
</linearGradient>
<linearGradient id="paint35_linear_213_462" x1="69.7757" y1="161.849" x2="60.518" y2="179.038" gradientUnits="userSpaceOnUse">
<stop stop-color="#AA80F9"/>
<stop offset="0.9964" stop-color="#6165D7"/>
</linearGradient>
<linearGradient id="paint36_linear_213_462" x1="69.0576" y1="156.743" x2="60.6626" y2="172.331" gradientUnits="userSpaceOnUse">
<stop stop-color="#AA80F9"/>
<stop offset="0.9964" stop-color="#6165D7"/>
</linearGradient>
<linearGradient id="paint37_linear_213_462" x1="204.866" y1="207.312" x2="14.5309" y2="207.312" gradientUnits="userSpaceOnUse">
<stop stop-color="#AA80F9"/>
<stop offset="0.9964" stop-color="#6165D7"/>
</linearGradient>
<linearGradient id="paint38_linear_213_462" x1="157.301" y1="207.304" x2="217.471" y2="235.343" gradientUnits="userSpaceOnUse">
<stop stop-color="#AA80F9"/>
<stop offset="0.9964" stop-color="#6165D7"/>
</linearGradient>
<linearGradient id="paint39_linear_213_462" x1="83.0547" y1="192.093" x2="111.104" y2="226.776" gradientUnits="userSpaceOnUse">
<stop stop-color="#AA80F9"/>
<stop offset="0.9964" stop-color="#6165D7"/>
</linearGradient>
<linearGradient id="paint40_linear_213_462" x1="129.981" y1="213.597" x2="119.235" y2="213.597" gradientUnits="userSpaceOnUse">
<stop stop-color="#311944"/>
<stop offset="1" stop-color="#6B3976"/>
</linearGradient>
<linearGradient id="paint41_linear_213_462" x1="178.619" y1="213.597" x2="167.873" y2="213.597" gradientUnits="userSpaceOnUse">
<stop stop-color="#311944"/>
<stop offset="1" stop-color="#6B3976"/>
</linearGradient>
<linearGradient id="paint42_linear_213_462" x1="93.6514" y1="183.523" x2="121.7" y2="218.206" gradientUnits="userSpaceOnUse">
<stop stop-color="#AA80F9"/>
<stop offset="0.9964" stop-color="#6165D7"/>
</linearGradient>
<linearGradient id="paint43_linear_213_462" x1="51.5063" y1="190.319" x2="34.1552" y2="225.895" gradientUnits="userSpaceOnUse">
<stop stop-color="#FFC444"/>
<stop offset="0.3138" stop-color="#FBA94A"/>
<stop offset="0.9964" stop-color="#F36F56"/>
</linearGradient>
<linearGradient id="paint44_linear_213_462" x1="72.9517" y1="191.111" x2="54.9548" y2="228.011" gradientUnits="userSpaceOnUse">
<stop stop-color="#FFC444"/>
<stop offset="0.3138" stop-color="#FBA94A"/>
<stop offset="0.9964" stop-color="#F36F56"/>
</linearGradient>
<linearGradient id="paint45_linear_213_462" x1="77.5184" y1="216.258" x2="52.4777" y2="267.601" gradientUnits="userSpaceOnUse">
<stop stop-color="#FFC444"/>
<stop offset="0.3138" stop-color="#FBA94A"/>
<stop offset="0.9964" stop-color="#F36F56"/>
</linearGradient>
<linearGradient id="paint46_linear_213_462" x1="47.266" y1="216.336" x2="23.9156" y2="264.213" gradientUnits="userSpaceOnUse">
<stop stop-color="#FFC444"/>
<stop offset="0.3138" stop-color="#FBA94A"/>
<stop offset="0.9964" stop-color="#F36F56"/>
</linearGradient>
<linearGradient id="paint47_linear_213_462" x1="68.1514" y1="192.598" x2="75.1789" y2="192.598" gradientUnits="userSpaceOnUse">
<stop stop-color="#40447E"/>
<stop offset="0.9964" stop-color="#3C3B6B"/>
</linearGradient>
<linearGradient id="paint48_linear_213_462" x1="68.1514" y1="194.463" x2="68.5213" y2="194.463" gradientUnits="userSpaceOnUse">
<stop stop-color="#40447E"/>
<stop offset="0.9964" stop-color="#3C3B6B"/>
</linearGradient>
<linearGradient id="paint49_linear_213_462" x1="68.521" y1="194.494" x2="69.2608" y2="194.494" gradientUnits="userSpaceOnUse">
<stop stop-color="#40447E"/>
<stop offset="0.9964" stop-color="#3C3B6B"/>
</linearGradient>
<linearGradient id="paint50_linear_213_462" x1="69.6308" y1="194.555" x2="70.0007" y2="194.555" gradientUnits="userSpaceOnUse">
<stop stop-color="#40447E"/>
<stop offset="0.9964" stop-color="#3C3B6B"/>
</linearGradient>
<linearGradient id="paint51_linear_213_462" x1="70.0005" y1="194.583" x2="70.3704" y2="194.583" gradientUnits="userSpaceOnUse">
<stop stop-color="#40447E"/>
<stop offset="0.9964" stop-color="#3C3B6B"/>
</linearGradient>
<linearGradient id="paint52_linear_213_462" x1="70.3706" y1="194.631" x2="71.4802" y2="194.631" gradientUnits="userSpaceOnUse">
<stop stop-color="#40447E"/>
<stop offset="0.9964" stop-color="#3C3B6B"/>
</linearGradient>
<linearGradient id="paint53_linear_213_462" x1="71.48" y1="194.953" x2="71.8498" y2="194.953" gradientUnits="userSpaceOnUse">
<stop stop-color="#40447E"/>
<stop offset="0.9964" stop-color="#3C3B6B"/>
</linearGradient>
<linearGradient id="paint54_linear_213_462" x1="72.2197" y1="194.719" x2="72.5896" y2="194.719" gradientUnits="userSpaceOnUse">
<stop stop-color="#40447E"/>
<stop offset="0.9964" stop-color="#3C3B6B"/>
</linearGradient>
<linearGradient id="paint55_linear_213_462" x1="73.6992" y1="194.796" x2="74.0691" y2="194.796" gradientUnits="userSpaceOnUse">
<stop stop-color="#40447E"/>
<stop offset="0.9964" stop-color="#3C3B6B"/>
</linearGradient>
<linearGradient id="paint56_linear_213_462" x1="74.439" y1="194.875" x2="75.1787" y2="194.875" gradientUnits="userSpaceOnUse">
<stop stop-color="#40447E"/>
<stop offset="0.9964" stop-color="#3C3B6B"/>
</linearGradient>
<linearGradient id="paint57_linear_213_462" x1="71.48" y1="218.836" x2="78.8774" y2="218.836" gradientUnits="userSpaceOnUse">
<stop stop-color="#40447E"/>
<stop offset="0.9964" stop-color="#3C3B6B"/>
</linearGradient>
<linearGradient id="paint58_linear_213_462" x1="73.3296" y1="220.993" x2="73.6994" y2="220.993" gradientUnits="userSpaceOnUse">
<stop stop-color="#40447E"/>
<stop offset="0.9964" stop-color="#3C3B6B"/>
</linearGradient>
<linearGradient id="paint59_linear_213_462" x1="73.6992" y1="221.006" x2="74.0691" y2="221.006" gradientUnits="userSpaceOnUse">
<stop stop-color="#40447E"/>
<stop offset="0.9964" stop-color="#3C3B6B"/>
</linearGradient>
<linearGradient id="paint60_linear_213_462" x1="74.0693" y1="221.014" x2="74.4392" y2="221.014" gradientUnits="userSpaceOnUse">
<stop stop-color="#40447E"/>
<stop offset="0.9964" stop-color="#3C3B6B"/>
</linearGradient>
<linearGradient id="paint61_linear_213_462" x1="74.439" y1="221.277" x2="75.1787" y2="221.277" gradientUnits="userSpaceOnUse">
<stop stop-color="#40447E"/>
<stop offset="0.9964" stop-color="#3C3B6B"/>
</linearGradient>
<linearGradient id="paint62_linear_213_462" x1="75.1787" y1="221.043" x2="75.5485" y2="221.043" gradientUnits="userSpaceOnUse">
<stop stop-color="#40447E"/>
<stop offset="0.9964" stop-color="#3C3B6B"/>
</linearGradient>
<linearGradient id="paint63_linear_213_462" x1="75.9185" y1="221.056" x2="76.2883" y2="221.056" gradientUnits="userSpaceOnUse">
<stop stop-color="#40447E"/>
<stop offset="0.9964" stop-color="#3C3B6B"/>
</linearGradient>
<linearGradient id="paint64_linear_213_462" x1="76.6582" y1="221.085" x2="77.398" y2="221.085" gradientUnits="userSpaceOnUse">
<stop stop-color="#40447E"/>
<stop offset="0.9964" stop-color="#3C3B6B"/>
</linearGradient>
<linearGradient id="paint65_linear_213_462" x1="77.3979" y1="221.326" x2="77.7678" y2="221.326" gradientUnits="userSpaceOnUse">
<stop stop-color="#40447E"/>
<stop offset="0.9964" stop-color="#3C3B6B"/>
</linearGradient>
<linearGradient id="paint66_linear_213_462" x1="77.7681" y1="221.103" x2="78.1379" y2="221.103" gradientUnits="userSpaceOnUse">
<stop stop-color="#40447E"/>
<stop offset="0.9964" stop-color="#3C3B6B"/>
</linearGradient>
<linearGradient id="paint67_linear_213_462" x1="278.6" y1="243.679" x2="184.492" y2="243.679" gradientUnits="userSpaceOnUse">
<stop stop-color="#444B8C"/>
<stop offset="0.9964" stop-color="#26264F"/>
</linearGradient>
<linearGradient id="paint68_linear_213_462" x1="224.623" y1="246.438" x2="206.832" y2="246.438" gradientUnits="userSpaceOnUse">
<stop stop-color="#444B8C"/>
<stop offset="0.9964" stop-color="#26264F"/>
</linearGradient>
<linearGradient id="paint69_linear_213_462" x1="273.992" y1="241.135" x2="268.939" y2="241.135" gradientUnits="userSpaceOnUse">
<stop stop-color="#311944"/>
<stop offset="1" stop-color="#6B3976"/>
</linearGradient>
<linearGradient id="paint70_linear_213_462" x1="275.056" y1="241.135" x2="270.004" y2="241.135" gradientUnits="userSpaceOnUse">
<stop stop-color="#311944"/>
<stop offset="1" stop-color="#6B3976"/>
</linearGradient>
<linearGradient id="paint71_linear_213_462" x1="270.135" y1="241.416" x2="274.047" y2="240.777" gradientUnits="userSpaceOnUse">
<stop offset="0.0054" stop-color="#D8DEE8"/>
<stop offset="1" stop-color="#F4F7FA"/>
</linearGradient>
<linearGradient id="paint72_linear_213_462" x1="268.264" y1="241.867" x2="262.728" y2="241.867" gradientUnits="userSpaceOnUse">
<stop stop-color="#311944"/>
<stop offset="1" stop-color="#6B3976"/>
</linearGradient>
<linearGradient id="paint73_linear_213_462" x1="269.43" y1="241.867" x2="263.894" y2="241.867" gradientUnits="userSpaceOnUse">
<stop stop-color="#311944"/>
<stop offset="1" stop-color="#6B3976"/>
</linearGradient>
<linearGradient id="paint74_linear_213_462" x1="264.037" y1="242.175" x2="268.324" y2="241.474" gradientUnits="userSpaceOnUse">
<stop offset="0.0054" stop-color="#D8DEE8"/>
<stop offset="1" stop-color="#F4F7FA"/>
</linearGradient>
<linearGradient id="paint75_linear_213_462" x1="262.145" y1="242.221" x2="256.1" y2="242.221" gradientUnits="userSpaceOnUse">
<stop stop-color="#311944"/>
<stop offset="1" stop-color="#6B3976"/>
</linearGradient>
<linearGradient id="paint76_linear_213_462" x1="263.418" y1="242.221" x2="257.374" y2="242.221" gradientUnits="userSpaceOnUse">
<stop stop-color="#311944"/>
<stop offset="1" stop-color="#6B3976"/>
</linearGradient>
<linearGradient id="paint77_linear_213_462" x1="257.53" y1="242.557" x2="262.211" y2="241.793" gradientUnits="userSpaceOnUse">
<stop offset="0.0054" stop-color="#D8DEE8"/>
<stop offset="1" stop-color="#F4F7FA"/>
</linearGradient>
<linearGradient id="paint78_linear_213_462" x1="233.597" y1="245.58" x2="225.88" y2="245.58" gradientUnits="userSpaceOnUse">
<stop stop-color="#311944"/>
<stop offset="1" stop-color="#6B3976"/>
</linearGradient>
<linearGradient id="paint79_linear_213_462" x1="235.222" y1="245.58" x2="227.506" y2="245.58" gradientUnits="userSpaceOnUse">
<stop stop-color="#311944"/>
<stop offset="1" stop-color="#6B3976"/>
</linearGradient>
<linearGradient id="paint80_linear_213_462" x1="227.706" y1="246.009" x2="233.681" y2="245.033" gradientUnits="userSpaceOnUse">
<stop offset="0.0054" stop-color="#D8DEE8"/>
<stop offset="1" stop-color="#F4F7FA"/>
</linearGradient>
<linearGradient id="paint81_linear_213_462" x1="208.992" y1="247.92" x2="199.134" y2="247.92" gradientUnits="userSpaceOnUse">
<stop stop-color="#311944"/>
<stop offset="1" stop-color="#6B3976"/>
</linearGradient>
<linearGradient id="paint82_linear_213_462" x1="211.069" y1="247.92" x2="201.211" y2="247.92" gradientUnits="userSpaceOnUse">
<stop stop-color="#311944"/>
<stop offset="1" stop-color="#6B3976"/>
</linearGradient>
<linearGradient id="paint83_linear_213_462" x1="201.466" y1="248.469" x2="209.1" y2="247.221" gradientUnits="userSpaceOnUse">
<stop offset="0.0054" stop-color="#D8DEE8"/>
<stop offset="1" stop-color="#F4F7FA"/>
</linearGradient>
<linearGradient id="paint84_linear_213_462" x1="228.719" y1="210.848" x2="315.972" y2="279.681" gradientUnits="userSpaceOnUse">
<stop stop-color="#FFC444"/>
<stop offset="0.3138" stop-color="#FBA94A"/>
<stop offset="0.9964" stop-color="#F36F56"/>
</linearGradient>
<linearGradient id="paint85_linear_213_462" x1="162.171" y1="199.226" x2="228.621" y2="250.526" gradientUnits="userSpaceOnUse">
<stop stop-color="#FFC444"/>
<stop offset="0.3138" stop-color="#FBA94A"/>
<stop offset="0.9964" stop-color="#F36F56"/>
</linearGradient>
<linearGradient id="paint86_linear_213_462" x1="284.387" y1="221.321" x2="220.431" y2="221.321" gradientUnits="userSpaceOnUse">
<stop stop-color="#FFC444"/>
<stop offset="0.9964" stop-color="#F36F56"/>
</linearGradient>
<linearGradient id="paint87_linear_213_462" x1="213.265" y1="223.266" x2="187.629" y2="223.266" gradientUnits="userSpaceOnUse">
<stop offset="0.0054" stop-color="#D8DEE8"/>
<stop offset="1" stop-color="#F4F7FA"/>
</linearGradient>
<linearGradient id="paint88_linear_213_462" x1="184.4" y1="240.714" x2="160.033" y2="240.714" gradientUnits="userSpaceOnUse">
<stop stop-color="#311944"/>
<stop offset="1" stop-color="#6B3976"/>
</linearGradient>
<linearGradient id="paint89_linear_213_462" x1="188.063" y1="240.431" x2="196.413" y2="275.746" gradientUnits="userSpaceOnUse">
<stop stop-color="#FF9085"/>
<stop offset="1" stop-color="#FB6FBB"/>
</linearGradient>
<linearGradient id="paint90_linear_213_462" x1="158.336" y1="247.459" x2="166.686" y2="282.775" gradientUnits="userSpaceOnUse">
<stop stop-color="#FF9085"/>
<stop offset="1" stop-color="#FB6FBB"/>
</linearGradient>
<linearGradient id="paint91_linear_213_462" x1="194.092" y1="221.372" x2="158.423" y2="221.372" gradientUnits="userSpaceOnUse">
<stop stop-color="#311944"/>
<stop offset="1" stop-color="#6B3976"/>
</linearGradient>
</defs>
</svg>
