<svg width="546" height="280" viewBox="0 0 546 280" fill="none" xmlns="http://www.w3.org/2000/svg">
<path d="M544.675 56.58L542.005 5L497.665 29.09L498.665 33.09L515.435 41.65L436.525 196.3L186.085 264.4L12.9549 146.24C11.4207 145.192 9.53306 144.797 7.7074 145.141C5.88173 145.485 4.26754 146.541 3.21993 148.075C2.17233 149.609 1.77712 151.497 2.12125 153.323C2.46538 155.148 3.52066 156.762 5.05494 157.81L180.815 277.78C181.993 278.585 183.388 279.01 184.815 279C185.434 279.001 186.049 278.917 186.645 278.75L443.195 209C444.137 208.744 445.015 208.295 445.772 207.68C446.53 207.065 447.151 206.299 447.595 205.43L527.915 48.05L544.675 56.58Z" fill="#263238" stroke="#263238" stroke-linecap="round" stroke-linejoin="round"/>
<path d="M543.675 52.58L541.005 1L497.665 29.09L514.435 37.65L435.525 192.3L185.085 260.4L11.9549 142.24C10.4207 141.192 8.53306 140.797 6.7074 141.141C4.88173 141.485 3.26754 142.541 2.21993 144.075C1.17233 145.609 0.777123 147.497 1.12125 149.323C1.46538 151.148 2.52066 152.762 4.05494 153.81L179.815 273.78C180.993 274.585 182.388 275.01 183.815 275C184.434 275.001 185.049 274.917 185.645 274.75L442.195 205C443.137 204.744 444.015 204.295 444.772 203.68C445.53 203.065 446.151 202.299 446.595 201.43L526.915 44.05L543.675 52.58Z" fill="#4A8ACF" stroke="#263238" stroke-linecap="round" stroke-linejoin="round"/>
<path d="M536.465 9.93018L507.655 28.5802L521.165 35.4702L438.975 196.58L184.165 265.83L9.16496 146.37C8.94767 146.222 8.70336 146.119 8.44601 146.065C8.18865 146.012 7.92329 146.01 7.6651 146.059C7.40691 146.108 7.16096 146.208 6.9413 146.352C6.72164 146.496 6.53259 146.683 6.38496 146.9C6.0853 147.338 5.97174 147.877 6.06926 148.398C6.16678 148.919 6.46738 149.38 6.90496 149.68L182.705 269.68C183.038 269.908 183.432 270.03 183.835 270.03C184.01 270.027 184.185 270.003 184.355 269.96L440.905 200.2C441.173 200.13 441.423 200.005 441.64 199.832C441.857 199.66 442.036 199.445 442.165 199.2L524.755 37.3702L538.265 44.2602L536.465 9.93018Z" fill="white"/>
</svg>
