<svg width="1507" height="854" viewBox="0 0 1507 854" fill="none" xmlns="http://www.w3.org/2000/svg">
<path d="M749.223 130.152L598.675 260.881L614.543 272.46C623.344 278.829 648.413 297.124 670.415 313.104L710.419 342.052L810.029 255.555L909.773 169.058L994.715 242.818L1079.79 316.577L1161.8 309.746C1206.87 305.925 1244.87 302.682 1246.21 302.567C1247.81 302.335 1194.47 255.323 1074.86 151.342C979.247 68.4341 900.839 0.348175 900.439 0.000793457C900.039 -0.230774 831.898 58.3602 749.223 130.152Z" fill="#356BB3"/>
<path d="M461.061 258.681C432.792 286.934 267.442 455.876 70.6218 657.702C33.9514 695.219 2.34826 727.525 0.481402 729.493C-3.38565 733.546 105.559 639.522 322.38 452.054C483.063 313.103 495.198 302.798 497.198 302.798C497.865 302.798 501.465 305.809 505.199 309.398C508.933 313.103 550.003 348.652 596.541 388.369C643.079 428.201 700.285 477.181 723.754 497.329C772.426 539.015 920.174 665.113 955.111 694.755C978.98 715.135 1052.59 775.694 1056.72 778.589C1058.85 779.979 1060.72 778.821 1074.72 767.01C1104.99 741.651 1147.93 706.103 1165.8 691.745C1199 665.113 1234.07 637.091 1285.81 595.869C1314.08 573.289 1339.15 553.257 1341.55 551.289L1345.95 547.815L1407.82 601.542C1458.63 645.659 1469.83 654.807 1469.83 652.491C1469.83 650.87 1478.23 574.331 1488.36 482.276C1498.5 390.221 1506.77 314.84 1506.5 314.609C1506.37 314.493 1500.37 314.84 1493.03 315.535C1475.43 317.156 1117.53 346.799 1115.79 346.799C1115.13 346.799 1142.33 371 1176.33 400.527L1238.07 454.139L1197 492.813C1159.66 528.014 1132.86 553.373 1081.12 602.121C1071.12 611.616 1060.99 621.806 1058.72 624.701C1056.45 627.596 1054.59 630.027 1054.32 630.259C1053.12 631.764 1038.72 622.385 1007.12 599.574C986.981 584.984 880.437 507.982 770.426 428.433C604.676 308.588 551.604 270.029 495.731 228.575C493.198 226.722 492.264 227.533 461.061 258.681Z" fill="#293148"/>
<path d="M257.174 557.426L18.7499 764.463L70.0884 809.043L121.294 853.739L316.513 684.218L511.733 514.698L707.086 684.334L902.439 853.97L948.577 813.79L994.848 773.494L974.713 757.284C949.644 737.02 897.505 692.671 732.422 551.173C560.671 404.001 497.598 350.273 496.265 350.273C495.998 350.273 388.387 443.486 257.174 557.426Z" fill="#356BB3"/>
</svg>
