<svg width="750" height="500" viewBox="0 0 750 500" fill="none" xmlns="http://www.w3.org/2000/svg">
<g id="Team goals-bro">
<g id="freepik--background-simple--inject-73">
<path id="Vector" d="M676 431.43C712.22 402.43 733.07 358.31 733.71 311.9C734.12 282.64 732.02 245.9 722.19 214.44C689.77 110.71 598.19 54.4399 531.19 42.4399C464.19 30.4399 395.19 52.4399 343.19 87.4399C291.19 122.44 296.19 116.44 207.19 103.44C118.19 90.4399 45.1901 128.44 21.1901 198.44C-2.80993 268.44 70.1901 308.11 78.1901 344.78C86.1901 381.45 72.1901 446.44 211.19 462.44C350.19 478.44 392.19 400.44 461.19 422.44C516.71 440.15 599.43 492.82 676 431.43Z" fill="#4A8ACF"/>
<path id="Vector_2" opacity="0.7" d="M676 431.43C712.22 402.43 733.07 358.31 733.71 311.9C734.12 282.64 732.02 245.9 722.19 214.44C689.77 110.71 598.19 54.4399 531.19 42.4399C464.19 30.4399 395.19 52.4399 343.19 87.4399C291.19 122.44 296.19 116.44 207.19 103.44C118.19 90.4399 45.1901 128.44 21.1901 198.44C-2.80993 268.44 70.1901 308.11 78.1901 344.78C86.1901 381.45 72.1901 446.44 211.19 462.44C350.19 478.44 392.19 400.44 461.19 422.44C516.71 440.15 599.43 492.82 676 431.43Z" fill="#BCFFF7"/>
</g>
<g id="freepik--Clouds--inject-73">
<path id="Vector_3" d="M408.65 153.11C407.23 151.64 404.78 150.29 400.53 150.19C390.98 149.96 393.53 156.71 390.98 158.34C388.43 159.97 387.72 157.41 385.16 159.04C382.6 160.67 383.76 163.94 381.66 164.4C379.56 164.86 376.77 162.3 374.21 163.94C371.65 165.58 371.64 166.94 370.48 166.94C369.32 166.94 366.98 166.01 365.59 166.94C364.2 167.87 362.59 169.04 362.59 169.04H387.59" stroke="#263238" stroke-linecap="round" stroke-linejoin="round"/>
<path id="Vector_4" d="M411.28 157.28L410.55 156.95C410.439 156.079 410.146 155.24 409.69 154.49" stroke="#263238" stroke-linecap="round" stroke-linejoin="round"/>
<path id="Vector_5" d="M390.78 169.06H421.5C421.5 169.06 422.2 166.96 419.64 165.57C417.08 164.18 415.91 165.33 414.98 164.17C414.05 163.01 416.83 160.62 412.49 157.94" stroke="#263238" stroke-linecap="round" stroke-linejoin="round"/>
</g>
<g id="freepik--Arrows--inject-73">
<path id="Vector_6" d="M658.36 266.99L694.03 194.95L704.74 200.25L702.19 160.44L668.99 182.55L679.7 187.85L644.02 259.89" stroke="#263238" stroke-linecap="round" stroke-linejoin="round"/>
<path id="Vector_7" d="M640.96 157.59L663.44 112.19L670.19 115.53L668.59 90.4399L647.66 104.37L654.41 107.71L631.93 153.12" stroke="#263238" stroke-linecap="round" stroke-linejoin="round"/>
</g>
<g id="freepik--Target--inject-73">
<g id="oc">
<path id="Vector_8" d="M409.827 82C414.651 70.9267 424.647 59.7005 435.861 55.2126C447.074 50.7246 459.605 50.8365 470.737 55.524C481.868 60.2114 490.704 69.0968 495.33 80.2545C499.955 91.4121 499.997 103.943 495.447 115.132C490.897 126.32 482.121 135.265 471.021 140.027C459.921 144.789 447.391 144.985 436.148 140.572C424.904 136.16 415.852 127.494 410.954 116.454C406.056 105.413 405.706 92.8869 409.98 81.59" stroke="#263238" stroke-miterlimit="10"/>
<path id="Vector_9" d="M409.46 81C414.338 69.794 424.286 59.2721 435.631 54.7285C446.977 50.1848 459.656 50.2958 470.92 55.0372C482.185 59.7787 491.127 68.7685 495.808 80.0581C500.489 91.3477 500.532 104.027 495.928 115.348C491.323 126.67 482.443 135.72 471.211 140.538C459.979 145.356 447.301 145.553 435.925 141.086C424.548 136.62 415.391 127.85 410.437 116.677C405.483 105.504 405.132 92.8297 409.46 81.4001" stroke="#263238" stroke-width="0.5" stroke-miterlimit="10"/>
</g>
<g id="sc">
<path id="Vector_10" d="M421.59 85.97C424.741 77.5769 432.905 69.335 441.267 66.1045C449.63 62.874 458.927 63.0595 467.155 66.6209C475.382 70.1823 481.88 76.8344 485.248 85.1428C488.615 93.4511 488.583 102.75 485.158 111.035C481.732 119.32 475.188 125.926 466.936 129.431C458.685 132.935 449.386 133.056 441.046 129.767C432.706 126.479 425.992 120.044 422.353 111.851C418.713 103.658 418.439 94.3631 421.59 85.97Z" stroke="#263238" stroke-miterlimit="10"/>
<path id="Vector_11" d="M421.93 83.6901C425.441 75.9632 431.684 69.8073 439.46 66.4067C447.236 63.006 455.995 62.6008 464.052 65.269C472.108 67.9371 478.894 73.4901 483.103 80.8599C487.312 88.2296 488.647 96.8954 486.852 105.19C485.056 113.485 480.257 120.823 473.377 125.793C466.498 130.763 458.023 133.013 449.584 132.11C441.145 131.208 433.338 127.217 427.664 120.906C421.991 114.594 418.851 106.407 418.85 97.9201C418.842 93.7685 420.606 87.2412 422.082 83.3607" stroke="#263238" stroke-width="0.5" stroke-miterlimit="10"/>
</g>
<g id="fc">
<path id="Vector_12" d="M436.5 91.5801C438.676 87.4917 443.127 82.3603 447.535 80.9381C451.942 79.5159 456.73 79.8644 460.885 81.91C465.04 83.9556 468.236 87.5377 469.797 91.8981C471.358 96.2585 471.161 101.055 469.247 105.273C467.334 109.49 463.854 112.798 459.546 114.496C455.237 116.193 450.436 116.148 446.16 114.368C441.884 112.589 438.468 109.216 436.636 104.963C434.803 100.71 434.697 95.91 436.34 91.5801V91.4901" stroke="#263238" stroke-miterlimit="10"/>
<path id="Vector_13" d="M435.721 91.6456L435.83 91.1847C437.942 87.1598 442.385 82.153 446.635 80.5414C450.885 78.9297 455.578 78.9301 459.828 80.5424C464.078 82.1548 467.59 85.2675 469.701 89.2927C471.813 93.3179 472.377 97.9769 471.288 102.39C470.199 106.803 467.532 110.664 463.79 113.245C460.048 115.825 455.491 116.946 450.979 116.396C446.467 115.846 442.312 113.663 439.3 110.259C436.288 106.855 434.627 102.465 434.63 97.92C434.626 95.6752 435.033 93.4485 435.83 91.35" stroke="#263238" stroke-width="0.5" stroke-miterlimit="10"/>
</g>
</g>
<g id="freepik--Gears--inject-73">
<path id="Vector_14" d="M698.13 301.6L704.22 302.99L705.63 296.81L699.78 295.47C699.78 295.3 699.78 295.12 699.78 294.95C699.784 293.071 699.41 291.211 698.68 289.48L703.42 285.7L699.42 280.7L695 284.36C693.41 282.98 691.525 281.981 689.49 281.44V275.53H683.1V281.2C681.011 281.612 679.043 282.498 677.35 283.79L672.76 280.13L668.76 285.13L673.24 288.7C672.296 290.562 671.786 292.613 671.75 294.7L666 296L667.41 302.18L673.17 300.87C674.043 302.724 675.309 304.365 676.88 305.68L674.2 311.24L679.91 313.99L682.55 308.51C683.623 308.779 684.724 308.917 685.83 308.92C686.723 308.915 687.613 308.828 688.49 308.66L691.22 314.33L696.94 311.58L694.28 306.07C695.862 304.866 697.174 303.343 698.13 301.6ZM679.57 295C679.57 293.77 679.935 292.567 680.618 291.544C681.302 290.521 682.273 289.724 683.41 289.254C684.546 288.783 685.797 288.66 687.003 288.9C688.21 289.14 689.318 289.732 690.188 290.602C691.058 291.472 691.651 292.58 691.891 293.787C692.131 294.993 692.007 296.244 691.537 297.38C691.066 298.517 690.269 299.488 689.246 300.172C688.223 300.855 687.02 301.22 685.79 301.22C684.14 301.22 682.558 300.565 681.392 299.398C680.225 298.232 679.57 296.65 679.57 295Z" stroke="#263238" stroke-linecap="round" stroke-linejoin="round"/>
</g>
<g id="freepik--character-3--inject-73">
<path id="Vector_15" d="M569.75 419.55C569.75 419.55 563.54 423.55 562.3 424.55C561.06 425.55 555.35 426.79 556.1 428.55C556.85 430.31 564.04 431.28 566.03 431.28C568.02 431.28 575.7 427.28 577.69 426.82C579.68 426.36 579.69 424.09 578.93 422.35C578.11 420.824 577.102 419.406 575.93 418.13L570.72 419.62L569.75 419.55Z" fill="white" stroke="#263238" stroke-linecap="round" stroke-linejoin="round"/>
<path id="Vector_16" d="M640.23 418.87C640.23 418.87 635.51 424.58 634.77 425.82C634.03 427.06 629.77 429.04 629.77 431.03C629.77 433.02 636.97 432.03 639.2 431.77C640.542 431.561 641.819 431.052 642.936 430.279C644.053 429.507 644.981 428.492 645.65 427.31C646.9 424.82 647.89 419.61 646.4 417.63C644.91 415.65 640.23 418.87 640.23 418.87Z" fill="white" stroke="#263238" stroke-linecap="round" stroke-linejoin="round"/>
<path id="Vector_17" d="M580.67 308.93L580.47 310.43L578.93 322.33C578.93 322.33 565.13 341.82 560.08 351.97C557.5 357.15 553.9 363.3 554.4 365.03L569.75 419.55C570.913 420.121 572.177 420.461 573.47 420.55C574.661 420.509 575.836 420.259 576.94 419.81L576.24 369.35L597.54 345.92L600.27 349.39C600.27 349.39 607.34 374.47 610.32 378.44C613.3 382.41 639 419.61 639 419.61C640.324 420.228 641.76 420.569 643.22 420.61C645.46 420.61 646.45 417.61 646.45 417.61C646.45 417.61 627.96 371.96 627.45 370.47C626.94 368.98 627.32 332.47 627.32 332.47L624.32 314.85L620.85 303.68C620.85 303.68 614.4 305.42 603.48 304.92C592.56 304.42 582.14 303.68 582.14 303.68L580.67 308.93Z" fill="#263238" stroke="#263238" stroke-linecap="round" stroke-linejoin="round"/>
<path id="Vector_18" d="M551.38 189.32C551.38 189.32 547.91 194.53 547.38 197.76C547.173 199.909 547.796 202.055 549.12 203.76L547.12 207.98C547.12 207.98 553.82 221.63 557.79 227.83C561.76 234.03 568.21 244.46 572.18 246.45C576.15 248.44 583.84 256.62 583.84 256.62L588.31 246.94C588.31 246.94 575.21 230.51 567 219.1C562.037 212.173 557.479 204.964 553.35 197.51C553.342 195.35 553.509 193.193 553.85 191.06C554.175 189.174 554.339 187.264 554.34 185.35L551.38 189.32Z" fill="#263238" stroke="#263238" stroke-linecap="round" stroke-linejoin="round"/>
<path id="Vector_19" d="M591.59 243.17C591.59 243.17 581.41 255.33 579.43 263.27C577.45 271.21 579.92 295.78 579.92 299.27C579.92 302.76 577.92 306.47 580.67 308.95C583.42 311.43 591.59 310.19 594.56 309.95C597.53 309.71 611.69 309.95 615.91 308.7C620.13 307.45 622.11 305.7 622.11 302.75C622.11 299.8 616.9 276.2 616.11 272.23C615.32 268.26 618.11 254.61 614.38 248.15C610.65 241.69 598.78 240.69 591.59 243.17Z" fill="white" stroke="#263238" stroke-linecap="round" stroke-linejoin="round"/>
<path id="Vector_20" d="M589.85 244.91C589.85 244.91 577.44 257.56 575.7 264.26C573.96 270.96 567.76 283.87 565.78 289.58C564.055 294.084 562.051 298.476 559.78 302.73L562.01 311.66L567.72 305.46C567.72 305.46 573.43 285.85 576.41 277.66C579.39 269.47 579.88 261.78 580.41 259.55C580.94 257.32 589.85 244.91 589.85 244.91Z" fill="#263238" stroke="#263238" stroke-linecap="round" stroke-linejoin="round"/>
<path id="Vector_21" d="M591.59 244.16C591.59 244.16 584.14 264.51 584.39 266C584.64 267.49 588.11 322.58 588.11 322.58C588.11 322.58 591.59 331.02 607.22 329.78C622.85 328.54 635 326.3 635 326.3C635 326.3 630.29 307.69 626.07 299.25C621.85 290.81 619.62 285.85 619.62 281.88C619.62 277.91 617.88 251.36 616.89 247.14C616.458 244.973 615.703 242.883 614.65 240.94L613.17 239.7L591.59 244.16Z" fill="#4A8ACF" stroke="#263238" stroke-linecap="round" stroke-linejoin="round"/>
<path id="Vector_22" d="M585.63 286.35L597.79 316.13C597.79 316.13 592.79 318.13 591.09 319.85C590.137 320.81 589.135 321.721 588.09 322.58L585.63 286.35Z" fill="#4A8ACF" stroke="#263238" stroke-linecap="round" stroke-linejoin="round"/>
<path id="Vector_23" d="M601.76 204.21C601.76 204.21 594.07 210.41 594.07 212.15C594.07 213.89 592.07 216.37 592.07 216.37C592.07 216.37 588.07 216.87 587.85 218.37C587.63 219.87 589.09 222.84 589.09 222.84C589.09 222.84 586.61 231.28 587.61 233.26C588.61 235.24 595.79 235.5 595.79 235.5L596.04 240.96L613.17 238.23L612.92 234.01C612.92 234.01 622.1 224.08 626.57 219.86C631.04 215.64 625.33 208.2 619.87 202.49C614.41 196.78 601.5 196.78 600.51 199.76C600.203 200.537 600.16 201.392 600.385 202.196C600.611 202.999 601.094 203.707 601.76 204.21Z" fill="white" stroke="#263238" stroke-linecap="round" stroke-linejoin="round"/>
<path id="Vector_24" d="M595.31 213.14C595.858 212.867 596.469 212.747 597.079 212.791C597.69 212.835 598.277 213.042 598.78 213.39" stroke="#263238" stroke-linecap="round" stroke-linejoin="round"/>
<path id="Vector_25" d="M595.57 216.72C595.38 217.52 595.5 218.24 595.83 218.31C596.16 218.38 596.59 217.81 596.78 217.01C596.97 216.21 596.85 215.5 596.52 215.42C596.19 215.34 595.76 215.92 595.57 216.72Z" fill="#263238"/>
<path id="Vector_26" d="M619.88 202.47C614.42 196.76 601.51 196.76 600.52 199.74C600.208 200.518 600.16 201.377 600.384 202.185C600.608 202.993 601.092 203.704 601.76 204.21C601.76 204.21 610.2 205.21 608.96 207.44C607.72 209.67 603.5 209.67 604.49 211.16C605.48 212.65 608.96 215.87 607.72 216.62C606.48 217.37 605.72 218.85 606.48 219.35C607.24 219.85 608.48 218.6 611.48 219.1C614.48 219.6 613.71 226.54 610.98 227.54C608.25 228.54 606.98 227.29 611.98 231.76C612.567 232.274 613.246 232.675 613.98 232.94C616.46 230.27 623.07 223.23 626.65 219.84C631 215.62 625.34 208.18 619.88 202.47Z" fill="#263238" stroke="#263238" stroke-linecap="round" stroke-linejoin="round"/>
<path id="Vector_27" d="M608.96 228.28L604.49 227.29L601.51 229.52" stroke="#263238" stroke-linecap="round" stroke-linejoin="round"/>
<path id="Vector_28" d="M614.17 235.23L591.34 241.43L589.85 246.15L616.9 241.19L614.17 235.23Z" fill="#4A8ACF" stroke="#263238" stroke-linecap="round" stroke-linejoin="round"/>
<path id="Vector_29" d="M556.6 196.76L555.85 191.55C555.85 191.55 558.08 184.36 558.08 182.62C558.08 180.88 556.35 176.91 556.35 175.92C556.35 174.93 554.86 173.44 554.35 175.42C553.84 177.4 552.86 184.85 552.86 184.85C552.86 184.85 549.64 190.31 549.86 193.04C550.08 195.77 552.58 201.48 552.58 201.48L557.05 198.75L556.6 196.76Z" fill="white" stroke="#263238" stroke-linecap="round" stroke-linejoin="round"/>
<path id="Vector_30" d="M559.82 200.74L556.6 196.76L550.64 201.48L554.11 207.44L559.82 200.74Z" fill="white" stroke="#263238" stroke-linecap="round" stroke-linejoin="round"/>
<g id="Vector_31">
<path d="M613.92 251.86C612.274 247.698 609.191 244.264 605.23 242.18C601.011 240.11 596.609 238.437 592.08 237.18L558.33 198.72L551.63 205.42C551.63 205.42 565.78 234.95 568.51 239.91C571.24 244.87 602.75 278.91 602.75 278.91" fill="#4A8ACF"/>
<path d="M613.92 251.86C612.274 247.698 609.191 244.264 605.23 242.18C601.011 240.11 596.609 238.437 592.08 237.18L558.33 198.72L551.63 205.42C551.63 205.42 565.78 234.95 568.51 239.91C571.24 244.87 602.75 278.91 602.75 278.91" stroke="#263238" stroke-linecap="round" stroke-linejoin="round"/>
</g>
</g>
<g id="freepik--character-2--inject-73">
<path id="Vector_32" d="M319.69 414.44C319.69 414.44 314.94 421.19 313.94 424.94C312.94 428.69 313.19 433.69 315.69 433.19C318.19 432.69 323.94 426.44 324.44 424.69C324.94 422.94 326.69 414.94 326.69 414.94L320.69 414.44H319.69Z" fill="white" stroke="#263238" stroke-linecap="round" stroke-linejoin="round"/>
<path id="Vector_33" d="M405.44 418.69C405.44 418.69 405.44 425.69 406.94 426.69C408.44 427.69 418.69 431.94 421.69 432.19C424.69 432.44 425.69 431.94 423.94 428.44C422.19 424.94 412.19 418.19 412.19 418.19L405.44 418.69Z" fill="white" stroke="#263238" stroke-linecap="round" stroke-linejoin="round"/>
<path id="Vector_34" d="M343.94 300.44L338.19 324.69L335.19 370.19C335.19 370.19 324.19 389.19 323.19 396.19C322.19 403.19 318.94 417.44 318.94 417.44C318.94 417.44 323.44 419.44 324.19 419.44C324.94 419.44 333.94 406.44 338.94 401.44C343.94 396.44 355.19 374.94 355.69 373.94C356.19 372.94 364.19 341.19 364.69 340.19C365.19 339.19 368.19 337.94 368.19 337.94C368.19 337.94 383.25 359.59 385.07 361.41C387.98 364.32 392.69 371.69 392.69 371.69C392.69 371.69 402.94 412.44 403.69 414.44C404.233 416.314 404.568 418.242 404.69 420.19L413.94 422.19C413.94 422.19 414.69 394.94 414.19 388.44C413.69 381.94 411.69 367.94 411.69 367.94C411.69 367.94 396.44 326.19 395.69 325.19C394.94 324.19 390.44 314.19 390.44 314.19L388.94 304.69C380.146 307.154 370.892 307.497 361.94 305.69C346.94 302.69 343.94 300.44 343.94 300.44Z" fill="#263238" stroke="#263238" stroke-linecap="round" stroke-linejoin="round"/>
<path id="Vector_35" d="M358.07 232.65C352.639 236.24 347.003 239.509 341.19 242.44C333.52 246.11 331.69 249.78 331.69 251.61C331.69 253.44 325.02 283.78 325.52 285.44C326.02 287.1 330.52 289.61 333.36 290.28C336.2 290.95 340.19 290.11 341.02 289.44C341.85 288.77 344.52 277.44 344.52 277.44C344.52 277.44 343.02 297.94 342.36 300.61C341.7 303.28 347.86 310.11 353.86 311.28C359.86 312.45 376.02 312.44 380.19 311.11C384.36 309.78 387.19 309.44 388.52 306.94C389.85 304.44 390.69 286.61 390.86 285.44C391.03 284.27 392.36 273.61 392.36 273.61L396.69 288.28L398.36 291.28C398.36 291.28 399.19 289.44 404.36 286.44C409.53 283.44 411.19 283.11 411.19 283.11C411.19 283.11 408.19 273.28 406.36 267.61C404.53 261.94 402.69 251.61 400.36 247.44C398.03 243.27 393.86 241.44 388.19 237.94C382.52 234.44 374.19 232.44 373.19 231.94C372.19 231.44 363.28 230.7 358.07 232.65Z" fill="white" stroke="#263238" stroke-linecap="round" stroke-linejoin="round"/>
<path id="Vector_36" d="M344.52 277.44L348.04 265.25" stroke="#263238" stroke-linecap="round" stroke-linejoin="round"/>
<path id="Vector_37" d="M394.8 262.23L395.4 259.47" stroke="#263238" stroke-linecap="round" stroke-linejoin="round"/>
<path id="Vector_38" d="M392.36 273.61L394.27 264.73" stroke="#263238" stroke-linecap="round" stroke-linejoin="round"/>
<path id="Vector_39" d="M362.44 251.94L365.94 256.94L367.94 261.44L362.94 302.94L369.94 309.44L375.44 302.19L370.44 261.94L373.44 256.19L377.43 249.66L370.19 245.44L362.44 251.94Z" fill="#4A8ACF" stroke="#263238" stroke-linecap="round" stroke-linejoin="round"/>
<path id="Vector_40" d="M360 230.86C360 230.86 356.53 231.77 355.77 233.86C355.01 235.95 356.07 248.67 357.13 251.39C357.993 253.433 358.995 255.414 360.13 257.32C360.13 257.32 369.41 251.39 371.07 251.09C372.73 250.79 382.26 255.78 382.26 255.78C382.26 255.78 382.56 249.88 379.26 241.57C375.96 233.26 368.26 228.57 364.9 228.26C363.92 228.178 362.937 228.38 362.068 228.841C361.2 229.302 360.482 230.003 360 230.86Z" fill="white" stroke="#263238" stroke-linecap="round" stroke-linejoin="round"/>
<path id="Vector_41" d="M358.62 229.81C358.62 229.81 359.08 235.1 359.53 238.72C359.98 242.34 365.58 254.3 367.53 255.96C369.48 257.62 373.53 252.18 374.94 249.76C375.534 248.659 376.202 247.6 376.94 246.59C376.94 246.59 367.27 241.9 364.25 236.46C361.23 231.02 361.52 228.46 360.16 228.29C358.8 228.12 358.62 229.81 358.62 229.81Z" fill="white" stroke="#263238" stroke-linecap="round" stroke-linejoin="round"/>
<path id="Vector_42" d="M363.5 242.81L370.93 254.81C370.93 254.81 374.35 251.65 374.93 249.81C375.51 247.97 363.5 242.81 363.5 242.81Z" fill="#263238" stroke="#263238" stroke-linecap="round" stroke-linejoin="round"/>
<path id="Vector_43" d="M355.71 221.32C355.065 223.053 354.822 224.91 355 226.75C355.23 230.06 357.12 232.42 358.07 232.65C358.927 232.812 359.798 232.892 360.67 232.89C360.67 232.89 360.9 238.79 363.5 242.81C366.1 246.83 374.84 252.49 377.43 249.66C380.02 246.83 383.34 235.49 384.52 230.06C385.262 226.549 385.813 223.001 386.17 219.43L368.7 215.43L360.43 213.55L355.71 221.32Z" fill="white" stroke="#263238" stroke-linecap="round" stroke-linejoin="round"/>
<path id="Vector_44" d="M365.86 219C365.86 219 366.81 222.07 364.92 224C363.03 225.93 362.32 225.89 362.32 225.89C362.32 225.89 362.79 228.96 362.08 228.96C361.768 228.965 361.458 228.908 361.168 228.79C360.879 228.673 360.616 228.499 360.396 228.277C360.175 228.056 360.002 227.793 359.886 227.503C359.77 227.213 359.713 226.902 359.72 226.59C359.659 225.324 359.251 224.099 358.54 223.05L355.71 221.4C355.024 217.962 355.102 214.415 355.94 211.01C357.36 205.58 367.51 203.45 376.02 203.69C384.53 203.93 386.64 214.79 386.64 214.79C388.44 215.605 390.178 216.551 391.84 217.62C392.55 218.33 393.26 219.98 389.24 222.11C385.22 224.24 378.14 224.94 373.89 223.29C371.075 222.136 368.384 220.699 365.86 219Z" fill="#263238" stroke="#263238" stroke-linecap="round" stroke-linejoin="round"/>
<path id="Vector_45" d="M371.59 231.56C371.31 232.44 370.74 233.04 370.3 232.91C369.86 232.78 369.73 231.91 370 231.07C370.27 230.23 370.85 229.59 371.28 229.73C371.71 229.87 371.86 230.69 371.59 231.56Z" fill="#263238"/>
<path id="Vector_46" d="M381.41 232.32C381.14 233.2 380.56 233.8 380.13 233.66C379.7 233.52 379.55 232.66 379.82 231.83C380.09 231 380.67 230.35 381.11 230.48C381.55 230.61 381.68 231.44 381.41 232.32Z" fill="#263238"/>
<path id="Vector_47" d="M368 228.6C368 228.6 369.52 226.33 373 227.24" stroke="#263238" stroke-linecap="round" stroke-linejoin="round"/>
<path id="Vector_48" d="M378.73 228.29C379.039 227.996 379.406 227.769 379.808 227.624C380.21 227.479 380.637 227.42 381.063 227.449C381.489 227.478 381.904 227.595 382.283 227.793C382.661 227.992 382.994 228.266 383.26 228.6" stroke="#263238" stroke-linecap="round" stroke-linejoin="round"/>
<path id="Vector_49" d="M374 239.18C372.561 239.226 371.137 239.478 369.77 239.93C367.5 240.69 364.18 239.78 365.69 241.75C367.2 243.72 370.07 244.32 373.09 244.32C376.11 244.32 378.84 244.17 379.75 242.81C380.66 241.45 382.01 240.09 380.96 239.93C379.91 239.77 375.82 239.48 375.36 239.48C374.897 239.43 374.441 239.33 374 239.18Z" fill="#263238" stroke="#263238" stroke-linecap="round" stroke-linejoin="round"/>
<g id="Vector_50">
<path d="M378 230.41C378 230.41 377.7 238.72 377.4 240.24C377.352 240.643 377.182 241.022 376.913 241.326C376.644 241.63 376.289 241.845 375.896 241.943C375.502 242.04 375.087 242.016 374.708 241.872C374.328 241.729 374.001 241.474 373.77 241.14C372.81 239.877 371.998 238.508 371.35 237.06" fill="white"/>
<path d="M378 230.41C378 230.41 377.7 238.72 377.4 240.24C377.352 240.643 377.182 241.022 376.913 241.326C376.644 241.63 376.289 241.845 375.896 241.943C375.502 242.04 375.087 242.016 374.708 241.872C374.328 241.729 374.001 241.474 373.77 241.14C372.81 239.877 371.998 238.508 371.35 237.06" stroke="#263238" stroke-linecap="round" stroke-linejoin="round"/>
</g>
<path id="Vector_51" d="M410.19 279.44C410.19 279.44 402.99 280.62 399.99 282.62C396.99 284.62 395.94 286.36 396.69 288.28C397.332 290.166 398.17 291.979 399.19 293.69C400.44 295.69 402.69 294.19 402.69 294.19C402.48 293.966 402.32 293.701 402.218 293.412C402.116 293.123 402.076 292.816 402.1 292.51C402.123 292.204 402.21 291.907 402.355 291.637C402.499 291.366 402.699 291.129 402.94 290.94C404.69 289.19 411.19 286.69 411.19 286.69H413.44C414.44 286.69 413.44 283.94 412.69 282.69C411.94 281.44 411.94 278.94 410.19 279.44Z" fill="white" stroke="#263238" stroke-linecap="round" stroke-linejoin="round"/>
<path id="Vector_52" d="M325.44 291.44C325.44 291.44 325.44 298.69 325.94 305.94C326.44 313.19 332.44 333.44 332.44 333.44L338.44 331.94C338.44 331.94 338.19 312.94 338.19 306.94C338.19 300.94 337.94 293.69 337.94 293.69L325.44 291.44Z" fill="white" stroke="#263238" stroke-linecap="round" stroke-linejoin="round"/>
<path id="Vector_53" d="M324.35 286.39C324.387 286.077 324.506 285.779 324.694 285.526C324.882 285.272 325.133 285.073 325.422 284.947C325.711 284.82 326.028 284.772 326.342 284.806C326.655 284.839 326.955 284.955 327.21 285.14C328.856 286.233 330.731 286.934 332.69 287.19C335.083 287.615 337.525 287.693 339.94 287.42C340.182 287.388 340.428 287.417 340.656 287.504C340.884 287.592 341.087 287.735 341.245 287.921C341.403 288.108 341.512 288.33 341.562 288.569C341.612 288.808 341.601 289.056 341.53 289.29C340.9 291.36 339.95 294.18 339.19 294.94C337.94 296.19 331.94 296.19 328.94 295.19C325.94 294.19 325.19 293.44 324.44 290.94C324.143 289.44 324.112 287.9 324.35 286.39Z" fill="white" stroke="#263238" stroke-linecap="round" stroke-linejoin="round"/>
<path id="Vector_54" d="M440.94 310.94C441.509 309.123 442.544 307.485 443.94 306.19C446.19 304.19 447.19 303.69 444.94 303.44C442.69 303.19 439.94 306.69 439.94 306.69L440.94 310.94Z" fill="white" stroke="#263238" stroke-linecap="round" stroke-linejoin="round"/>
<path id="Vector_55" d="M402.69 294.19C404.217 295.726 405.992 296.994 407.94 297.94C411.69 299.94 430.44 310.19 430.44 310.19L437.19 306.19C437.19 306.19 426.69 301.44 421.94 296.44C417.19 291.44 413.44 286.69 413.44 286.69C413.44 286.69 400.94 287.44 402.69 294.19Z" fill="white" stroke="#263238" stroke-linecap="round" stroke-linejoin="round"/>
<path id="Vector_56" d="M427.19 307.44C427.19 307.44 428.19 312.69 429.94 312.94C431.69 313.19 440.19 312.44 440.94 310.94C441.69 309.44 442.19 304.19 440.94 303.94C439.69 303.69 427.19 307.44 427.19 307.44Z" fill="white" stroke="#263238" stroke-linecap="round" stroke-linejoin="round"/>
<path id="Vector_57" d="M333.2 339.52C332.023 338.02 330.475 336.852 328.71 336.13C325.9 335.06 324.79 334.94 326.81 333.91C328.83 332.88 332.63 335.19 332.63 335.19L333.2 339.52Z" fill="white" stroke="#263238" stroke-linecap="round" stroke-linejoin="round"/>
<path id="Vector_58" d="M344.82 331.39C344.82 331.39 345.74 336.65 344.19 337.5C342.64 338.35 334.43 340.65 333.19 339.5C331.95 338.35 329.63 333.62 330.72 332.95C331.81 332.28 344.82 331.39 344.82 331.39Z" fill="white" stroke="#263238" stroke-linecap="round" stroke-linejoin="round"/>
</g>
<g id="freepik--Plants--inject-73">
<path id="Vector_59" d="M91.9999 370.9C91.9999 370.9 92.8699 367.75 92.8899 367.55C93.2299 365.16 92.4699 360.36 90.0399 359.18C89.6303 358.997 89.1867 358.902 88.7379 358.901C88.2891 358.9 87.8452 358.994 87.4349 359.176C87.0247 359.358 86.6573 359.624 86.3567 359.957C86.0561 360.291 85.8289 360.683 85.6899 361.11C85.0399 362.9 85.8699 365.11 86.8399 366.6C87.9999 368.38 91.9999 370.9 91.9999 370.9Z" fill="#263238"/>
<path id="Vector_60" d="M44.14 369.86C46.08 370.71 50.81 370.6 50.82 370.6C50.83 370.6 49.82 367.5 49.71 367.31C48.71 365.14 45.38 361.55 42.71 361.91C42.2678 361.982 41.8458 362.147 41.4715 362.393C41.0971 362.639 40.7788 362.961 40.5373 363.339C40.2958 363.716 40.1365 364.14 40.0698 364.583C40.003 365.026 40.0304 365.478 40.15 365.91C40.59 367.76 42.49 369.14 44.14 369.86Z" fill="#263238"/>
<path id="Vector_61" d="M45.78 383.58C47.78 383.87 52.01 382.65 52.35 382.58C53.0415 384.999 53.8968 387.368 54.91 389.67C55.49 391.02 56.12 392.35 56.76 393.67C56.38 393.1 56.03 392.6 55.97 392.53C54.4 390.71 50.28 388.12 47.8 389.17C47.3922 389.357 47.0283 389.627 46.7319 389.964C46.4354 390.301 46.213 390.696 46.0791 391.124C45.9452 391.552 45.9028 392.003 45.9546 392.449C46.0065 392.894 46.1514 393.324 46.38 393.71C47.3 395.38 49.5 396.2 51.28 396.46C53.06 396.72 56.71 395.75 57.66 395.46C57.92 395.97 58.16 396.46 58.42 396.99C59.64 399.43 60.88 401.86 62.01 404.27C62.41 405.12 62.77 405.98 63.14 406.83C62.8 406.33 62.5 405.91 62.45 405.83C60.88 404.01 56.76 401.41 54.28 402.47C53.8736 402.657 53.511 402.927 53.2155 403.263C52.92 403.599 52.6981 403.993 52.5643 404.42C52.4305 404.847 52.3877 405.297 52.4386 405.741C52.4896 406.186 52.6331 406.614 52.86 407C53.78 408.66 55.98 409.49 57.76 409.75C59.54 410.01 62.83 409.13 63.97 408.82C64.32 409.7 64.67 410.59 64.97 411.46C65.16 412.06 65.38 412.63 65.54 413.24C65.7 413.85 65.88 414.44 66.04 415.03C66.32 416.19 66.61 417.37 66.85 418.51C67.03 419.29 67.18 420.04 67.33 420.8C66.94 419.95 66.15 418.3 66.07 418.17C64.78 416.17 61.07 412.94 58.49 413.6C58.0591 413.723 57.6589 413.935 57.3155 414.223C56.9721 414.511 56.6932 414.868 56.4969 415.271C56.3007 415.674 56.1915 416.113 56.1766 416.561C56.1616 417.009 56.2411 417.455 56.41 417.87C57.06 419.66 59.11 420.81 60.83 421.34C62.72 421.92 66.92 421.39 67.44 421.34C67.69 422.59 67.92 423.81 68.13 424.97C68.55 427.38 68.88 429.56 69.13 431.42H70.89C70.59 429.49 70.2 427.21 69.7 424.67C69.45 423.4 69.15 422.04 68.84 420.67C70.1034 420.164 71.3356 419.583 72.53 418.93C73.91 420.43 77.45 422.18 77.91 422.4C77.43 423.58 76.91 424.73 76.48 425.81C75.56 427.92 74.68 429.81 73.9 431.43H75.8C76.47 429.95 77.2 428.27 77.95 426.43C78.44 425.23 78.95 423.93 79.45 422.6C79.96 422.71 84.11 423.55 86.05 423.11C87.8 422.72 89.93 421.73 90.72 419.99C90.918 419.592 91.0304 419.156 91.0501 418.712C91.0698 418.267 90.9962 417.824 90.8343 417.409C90.6723 416.995 90.4254 416.619 90.1095 416.306C89.7936 415.992 89.4157 415.749 89 415.59C86.45 414.73 82.54 417.59 81.11 419.59C81.03 419.71 80.25 421.05 79.77 421.9C79.98 421.36 80.18 420.83 80.38 420.27C80.79 419.15 81.17 418.03 81.57 416.83L82.11 415.04C82.3 414.45 82.42 413.8 82.59 413.17C82.94 411.71 83.22 410.17 83.47 408.7C84.47 409.05 87.92 410.27 89.73 410.14C91.54 410.01 93.73 409.35 94.81 407.76C95.068 407.393 95.2459 406.976 95.3319 406.536C95.4179 406.096 95.4102 405.643 95.3092 405.206C95.2083 404.769 95.0163 404.358 94.7459 404.001C94.4755 403.643 94.1328 403.346 93.74 403.13C91.34 401.89 87.04 404.13 85.34 405.87C85.23 405.98 84.14 407.33 83.56 408.09C83.7 407.18 83.85 406.27 83.96 405.34C84.29 402.67 84.55 399.95 84.81 397.24C84.89 396.41 84.98 395.58 85.07 394.76C85.41 394.89 89.52 396.41 91.54 396.27C93.34 396.15 95.59 395.49 96.63 393.89C96.8876 393.523 97.0649 393.105 97.1502 392.665C97.2355 392.224 97.2269 391.771 97.125 391.334C97.023 390.897 96.8301 390.486 96.5587 390.129C96.2873 389.771 95.9436 389.475 95.55 389.26C93.16 388.02 88.86 390.26 87.15 392C87.02 392.13 85.46 394.09 85.08 394.6C85.28 392.78 85.49 390.97 85.76 389.19C86.113 386.764 86.6173 384.363 87.27 382C87.43 382.06 91.71 383.68 93.78 383.53C95.57 383.41 97.78 382.75 98.86 381.15C99.118 380.783 99.2959 380.366 99.3819 379.926C99.4679 379.486 99.4602 379.033 99.3592 378.596C99.2582 378.159 99.0663 377.748 98.7959 377.391C98.5255 377.033 98.1828 376.736 97.79 376.52C95.39 375.28 91.1 377.52 89.39 379.26C89.28 379.38 88.08 380.86 87.53 381.58L87.4 381.51C88.1368 379.176 89.084 376.913 90.23 374.75C90.84 373.55 91.49 372.43 92.15 371.36C92.92 371.75 96.44 373.46 98.32 373.53C100.2 373.6 102.42 373.2 103.63 371.72C103.927 371.384 104.149 370.988 104.282 370.56C104.416 370.132 104.458 369.68 104.405 369.235C104.352 368.789 104.206 368.36 103.976 367.975C103.746 367.59 103.437 367.258 103.07 367C100.83 365.51 96.3 367.31 94.42 368.81C94.32 368.89 93.42 369.81 92.69 370.53C92.99 370.05 93.3 369.53 93.6 369.1C94.73 367.4 95.87 365.92 96.89 364.61C97.47 363.87 98.01 363.21 98.53 362.61C99.53 362.61 103.3 362.48 104.96 361.7C106.62 360.92 108.46 359.5 108.85 357.64C108.958 357.205 108.973 356.752 108.894 356.311C108.815 355.869 108.645 355.45 108.393 355.079C108.141 354.708 107.813 354.394 107.432 354.159C107.051 353.923 106.624 353.77 106.18 353.71C103.5 353.42 100.31 357.1 99.33 359.3C99.24 359.49 98.26 362.62 98.33 362.62H98.39C97.88 363.2 97.34 363.82 96.77 364.52C95.77 365.81 94.55 367.27 93.38 368.96C92.0925 370.752 90.9169 372.623 89.86 374.56C88.6638 376.725 87.66 378.99 86.86 381.33C86.86 381.33 86.86 381.33 86.86 381.41C86.86 380.62 86.86 378.41 86.86 378.24C86.56 375.85 84.55 371.42 81.86 370.93C81.4173 370.859 80.9646 370.883 80.5316 370.999C80.0986 371.115 79.6951 371.322 79.3476 371.605C79.0001 371.888 78.7164 372.242 78.5152 372.643C78.314 373.043 78.1997 373.482 78.18 373.93C78.02 375.83 79.4 377.73 80.74 378.93C82.25 380.28 86.45 381.59 86.74 381.69C85.9994 384.086 85.4181 386.528 85 389C84.75 390.44 84.53 391.91 84.34 393.37C84.34 392.69 84.34 392.08 84.34 391.99C84.03 389.61 82.03 385.17 79.34 384.68C78.8975 384.611 78.4454 384.635 78.0131 384.752C77.5808 384.869 77.1779 385.076 76.8308 385.359C76.4836 385.642 76.2 385.995 75.9983 386.395C75.7965 386.795 75.6813 387.233 75.66 387.68C75.51 389.58 76.88 391.48 78.22 392.68C79.56 393.88 83.15 395.08 84.09 395.39L83.88 397.08C83.56 399.79 83.25 402.49 82.88 405.13C82.74 406.06 82.57 406.97 82.41 407.89C82.41 407.28 82.41 406.77 82.41 406.69C82.1 404.3 80.1 399.87 77.41 399.38C76.9673 399.309 76.5146 399.333 76.0816 399.449C75.6486 399.565 75.2451 399.772 74.8976 400.055C74.5501 400.339 74.2664 400.692 74.0652 401.093C73.864 401.493 73.7497 401.932 73.73 402.38C73.57 404.28 74.95 406.18 76.29 407.38C77.63 408.58 80.87 409.66 81.99 410.03C81.79 410.96 81.6 411.89 81.37 412.78C81.19 413.39 81.07 413.98 80.86 414.58L80.29 416.36C79.88 417.47 79.47 418.62 79.05 419.7C78.76 420.45 78.47 421.16 78.18 421.88C78.33 420.95 78.58 419.13 78.58 418.98C78.5472 416.871 77.9758 414.806 76.92 412.98C76.9399 412.744 76.9399 412.506 76.92 412.27C76.8646 411.825 76.7162 411.397 76.4844 411.014C76.2527 410.631 75.9427 410.3 75.5748 410.045C75.2069 409.789 74.7892 409.614 74.349 409.53C73.9088 409.447 73.456 409.457 73.02 409.56C70.41 410.26 68.76 414.84 68.63 417.24C68.63 417.38 68.72 418.93 68.8 419.91C68.66 419.34 68.54 418.79 68.4 418.21C68.13 417.05 67.82 415.91 67.5 414.68L66.96 412.9C66.79 412.3 66.53 411.68 66.33 411.07C65.81 409.66 65.22 408.26 64.59 406.86C65.59 406.62 69.17 405.71 70.59 404.6C72.01 403.49 73.53 401.72 73.51 399.81C73.5223 399.357 73.4378 398.906 73.2623 398.488C73.0868 398.071 72.8242 397.695 72.4921 397.386C72.1599 397.078 71.7659 396.844 71.3362 396.7C70.9065 396.555 70.451 396.504 70 396.55C67.31 396.84 65 401.12 64.5 403.48C64.5 403.62 64.31 405.36 64.24 406.31C63.86 405.47 63.48 404.63 63.06 403.8C61.86 401.38 60.58 398.97 59.3 396.57C58.91 395.83 58.53 395.09 58.15 394.35C58.51 394.27 62.77 393.28 64.38 392.05C65.81 390.95 67.32 389.16 67.31 387.26C67.3219 386.809 67.2379 386.36 67.0636 385.944C66.8893 385.527 66.6285 385.153 66.2987 384.845C65.9688 384.536 65.5773 384.302 65.15 384.156C64.7227 384.011 64.2694 383.957 63.82 384C61.14 384.29 58.82 388.56 58.32 390.92C58.32 391.1 58.06 393.59 58.04 394.23C57.19 392.6 56.36 390.97 55.61 389.34C54.5954 387.125 53.7236 384.847 53 382.52C53.17 382.52 57.63 381.52 59.27 380.21C60.7 379.11 62.21 377.32 62.2 375.42C62.2128 374.972 62.1308 374.526 61.9595 374.111C61.7882 373.696 61.5313 373.323 61.2058 373.014C60.8802 372.705 60.4932 372.469 60.07 372.32C59.6469 372.171 59.1971 372.113 58.75 372.15C56.07 372.44 53.75 376.71 53.26 379.07C53.26 379.23 53.05 381.13 52.99 382.07H52.84C52.1653 379.713 51.7035 377.3 51.46 374.86C51.31 373.52 51.24 372.23 51.21 370.98C52.06 370.87 55.93 370.36 57.54 369.39C59.15 368.42 60.78 366.84 60.98 364.94C61.0405 364.496 61.007 364.045 60.8816 363.615C60.7562 363.185 60.5418 362.787 60.2522 362.445C59.9626 362.104 59.6044 361.827 59.2009 361.633C58.7974 361.44 58.3575 361.333 57.91 361.32C55.21 361.32 52.43 365.32 51.68 367.59C51.68 367.72 51.37 369.03 51.19 369.99C51.19 369.42 51.19 368.84 51.19 368.29C51.19 366.29 51.33 364.39 51.45 362.73C51.53 361.79 51.63 360.94 51.72 360.15C52.5 359.62 55.62 357.41 56.58 355.84C57.54 354.27 58.28 352.08 57.58 350.31C57.4308 349.888 57.194 349.502 56.8852 349.177C56.5764 348.853 56.2025 348.597 55.788 348.427C55.3736 348.257 54.9279 348.177 54.4802 348.191C54.0324 348.205 53.5928 348.314 53.19 348.51C50.79 349.75 50.19 354.57 50.56 356.95C50.56 357.15 51.5 360.3 51.56 360.28C51.45 361.04 51.35 361.86 51.25 362.76C51.09 364.41 50.92 366.28 50.87 368.33C50.7867 370.535 50.8402 372.742 51.03 374.94C51.2136 377.409 51.6219 379.855 52.25 382.25V382.33C51.82 381.66 50.57 379.84 50.46 379.71C48.89 377.89 44.77 375.29 42.29 376.35C41.8826 376.536 41.5188 376.805 41.2224 377.141C40.926 377.477 40.7036 377.871 40.5696 378.298C40.4357 378.726 40.3932 379.176 40.445 379.621C40.4967 380.066 40.6415 380.495 40.87 380.88C41.8 382.49 44 383.32 45.78 383.58Z" fill="#263238"/>
<path id="Vector_62" opacity="0.3" d="M44.14 369.86C46.08 370.71 50.81 370.6 50.82 370.6C50.83 370.6 49.82 367.5 49.71 367.31C48.71 365.14 45.38 361.55 42.71 361.91C42.2678 361.982 41.8458 362.147 41.4715 362.393C41.0971 362.639 40.7788 362.961 40.5373 363.339C40.2958 363.716 40.1365 364.14 40.0698 364.583C40.003 365.026 40.0304 365.478 40.15 365.91C40.59 367.76 42.49 369.14 44.14 369.86Z" fill="#263238"/>
<path id="Vector_63" opacity="0.3" d="M91.9999 370.9C91.9999 370.9 92.8699 367.75 92.8899 367.55C93.2299 365.16 92.4699 360.36 90.0399 359.18C89.6303 358.997 89.1867 358.902 88.7379 358.901C88.2891 358.9 87.8452 358.994 87.4349 359.176C87.0247 359.358 86.6573 359.624 86.3567 359.957C86.0561 360.291 85.8289 360.683 85.6899 361.11C85.0399 362.9 85.8699 365.11 86.8399 366.6C87.9999 368.38 91.9999 370.9 91.9999 370.9Z" fill="#263238"/>
<path id="Vector_64" opacity="0.3" d="M45.78 383.58C47.78 383.87 52.01 382.65 52.35 382.58C53.0415 384.999 53.8968 387.368 54.91 389.67C55.49 391.02 56.12 392.35 56.76 393.67C56.38 393.1 56.03 392.6 55.97 392.53C54.4 390.71 50.28 388.12 47.8 389.17C47.3922 389.357 47.0283 389.627 46.7319 389.964C46.4354 390.301 46.213 390.696 46.0791 391.124C45.9452 391.552 45.9028 392.003 45.9546 392.449C46.0065 392.894 46.1514 393.324 46.38 393.71C47.3 395.38 49.5 396.2 51.28 396.46C53.06 396.72 56.71 395.75 57.66 395.46C57.92 395.97 58.16 396.46 58.42 396.99C59.64 399.43 60.88 401.86 62.01 404.27C62.41 405.12 62.77 405.98 63.14 406.83C62.8 406.33 62.5 405.91 62.45 405.83C60.88 404.01 56.76 401.41 54.28 402.47C53.8736 402.657 53.511 402.927 53.2155 403.263C52.92 403.599 52.6981 403.993 52.5643 404.42C52.4305 404.847 52.3877 405.297 52.4386 405.741C52.4896 406.186 52.6331 406.614 52.86 407C53.78 408.66 55.98 409.49 57.76 409.75C59.54 410.01 62.83 409.13 63.97 408.82C64.32 409.7 64.67 410.59 64.97 411.46C65.16 412.06 65.38 412.63 65.54 413.24C65.7 413.85 65.88 414.44 66.04 415.03C66.32 416.19 66.61 417.37 66.85 418.51C67.03 419.29 67.18 420.04 67.33 420.8C66.94 419.95 66.15 418.3 66.07 418.17C64.78 416.17 61.07 412.94 58.49 413.6C58.0591 413.723 57.6589 413.935 57.3155 414.223C56.9721 414.511 56.6932 414.868 56.4969 415.271C56.3007 415.674 56.1915 416.113 56.1766 416.561C56.1616 417.009 56.2411 417.455 56.41 417.87C57.06 419.66 59.11 420.81 60.83 421.34C62.72 421.92 66.92 421.39 67.44 421.34C67.69 422.59 67.92 423.81 68.13 424.97C68.55 427.38 68.88 429.56 69.13 431.42H70.89C70.59 429.49 70.2 427.21 69.7 424.67C69.45 423.4 69.15 422.04 68.84 420.67C70.1034 420.164 71.3356 419.583 72.53 418.93C73.91 420.43 77.45 422.18 77.91 422.4C77.43 423.58 76.91 424.73 76.48 425.81C75.56 427.92 74.68 429.81 73.9 431.43H75.8C76.47 429.95 77.2 428.27 77.95 426.43C78.44 425.23 78.95 423.93 79.45 422.6C79.96 422.71 84.11 423.55 86.05 423.11C87.8 422.72 89.93 421.73 90.72 419.99C90.918 419.592 91.0304 419.156 91.0501 418.712C91.0698 418.267 90.9962 417.824 90.8343 417.409C90.6723 416.995 90.4254 416.619 90.1095 416.306C89.7936 415.992 89.4157 415.749 89 415.59C86.45 414.73 82.54 417.59 81.11 419.59C81.03 419.71 80.25 421.05 79.77 421.9C79.98 421.36 80.18 420.83 80.38 420.27C80.79 419.15 81.17 418.03 81.57 416.83L82.11 415.04C82.3 414.45 82.42 413.8 82.59 413.17C82.94 411.71 83.22 410.17 83.47 408.7C84.47 409.05 87.92 410.27 89.73 410.14C91.54 410.01 93.73 409.35 94.81 407.76C95.068 407.393 95.2459 406.976 95.3319 406.536C95.4179 406.096 95.4102 405.643 95.3092 405.206C95.2083 404.769 95.0163 404.358 94.7459 404.001C94.4755 403.643 94.1328 403.346 93.74 403.13C91.34 401.89 87.04 404.13 85.34 405.87C85.23 405.98 84.14 407.33 83.56 408.09C83.7 407.18 83.85 406.27 83.96 405.34C84.29 402.67 84.55 399.95 84.81 397.24C84.89 396.41 84.98 395.58 85.07 394.76C85.41 394.89 89.52 396.41 91.54 396.27C93.34 396.15 95.59 395.49 96.63 393.89C96.8876 393.523 97.0649 393.105 97.1502 392.665C97.2355 392.224 97.2269 391.771 97.125 391.334C97.023 390.897 96.8301 390.486 96.5587 390.129C96.2873 389.771 95.9436 389.475 95.55 389.26C93.16 388.02 88.86 390.26 87.15 392C87.02 392.13 85.46 394.09 85.08 394.6C85.28 392.78 85.49 390.97 85.76 389.19C86.113 386.764 86.6173 384.363 87.27 382C87.43 382.06 91.71 383.68 93.78 383.53C95.57 383.41 97.78 382.75 98.86 381.15C99.118 380.783 99.2959 380.366 99.3819 379.926C99.4679 379.486 99.4602 379.033 99.3592 378.596C99.2582 378.159 99.0663 377.748 98.7959 377.391C98.5255 377.033 98.1828 376.736 97.79 376.52C95.39 375.28 91.1 377.52 89.39 379.26C89.28 379.38 88.08 380.86 87.53 381.58L87.4 381.51C88.1368 379.176 89.084 376.913 90.23 374.75C90.84 373.55 91.49 372.43 92.15 371.36C92.92 371.75 96.44 373.46 98.32 373.53C100.2 373.6 102.42 373.2 103.63 371.72C103.927 371.384 104.149 370.988 104.282 370.56C104.416 370.132 104.458 369.68 104.405 369.235C104.352 368.789 104.206 368.36 103.976 367.975C103.746 367.59 103.437 367.258 103.07 367C100.83 365.51 96.3 367.31 94.42 368.81C94.32 368.89 93.42 369.81 92.69 370.53C92.99 370.05 93.3 369.53 93.6 369.1C94.73 367.4 95.87 365.92 96.89 364.61C97.47 363.87 98.01 363.21 98.53 362.61C99.53 362.61 103.3 362.48 104.96 361.7C106.62 360.92 108.46 359.5 108.85 357.64C108.958 357.205 108.973 356.752 108.894 356.311C108.815 355.869 108.645 355.45 108.393 355.079C108.141 354.708 107.813 354.394 107.432 354.159C107.051 353.923 106.624 353.77 106.18 353.71C103.5 353.42 100.31 357.1 99.33 359.3C99.24 359.49 98.26 362.62 98.33 362.62H98.39C97.88 363.2 97.34 363.82 96.77 364.52C95.77 365.81 94.55 367.27 93.38 368.96C92.0925 370.752 90.9169 372.623 89.86 374.56C88.6638 376.725 87.66 378.99 86.86 381.33C86.86 381.33 86.86 381.33 86.86 381.41C86.86 380.62 86.86 378.41 86.86 378.24C86.56 375.85 84.55 371.42 81.86 370.93C81.4173 370.859 80.9646 370.883 80.5316 370.999C80.0986 371.115 79.6951 371.322 79.3476 371.605C79.0001 371.888 78.7164 372.242 78.5152 372.643C78.314 373.043 78.1997 373.482 78.18 373.93C78.02 375.83 79.4 377.73 80.74 378.93C82.25 380.28 86.45 381.59 86.74 381.69C85.9994 384.086 85.4181 386.528 85 389C84.75 390.44 84.53 391.91 84.34 393.37C84.34 392.69 84.34 392.08 84.34 391.99C84.03 389.61 82.03 385.17 79.34 384.68C78.8975 384.611 78.4454 384.635 78.0131 384.752C77.5808 384.869 77.1779 385.076 76.8308 385.359C76.4836 385.642 76.2 385.995 75.9983 386.395C75.7965 386.795 75.6813 387.233 75.66 387.68C75.51 389.58 76.88 391.48 78.22 392.68C79.56 393.88 83.15 395.08 84.09 395.39L83.88 397.08C83.56 399.79 83.25 402.49 82.88 405.13C82.74 406.06 82.57 406.97 82.41 407.89C82.41 407.28 82.41 406.77 82.41 406.69C82.1 404.3 80.1 399.87 77.41 399.38C76.9673 399.309 76.5146 399.333 76.0816 399.449C75.6486 399.565 75.2451 399.772 74.8976 400.055C74.5501 400.339 74.2664 400.692 74.0652 401.093C73.864 401.493 73.7497 401.932 73.73 402.38C73.57 404.28 74.95 406.18 76.29 407.38C77.63 408.58 80.87 409.66 81.99 410.03C81.79 410.96 81.6 411.89 81.37 412.78C81.19 413.39 81.07 413.98 80.86 414.58L80.29 416.36C79.88 417.47 79.47 418.62 79.05 419.7C78.76 420.45 78.47 421.16 78.18 421.88C78.33 420.95 78.58 419.13 78.58 418.98C78.5472 416.871 77.9758 414.806 76.92 412.98C76.9399 412.744 76.9399 412.506 76.92 412.27C76.8646 411.825 76.7162 411.397 76.4844 411.014C76.2527 410.631 75.9427 410.3 75.5748 410.045C75.2069 409.789 74.7892 409.614 74.349 409.53C73.9088 409.447 73.456 409.457 73.02 409.56C70.41 410.26 68.76 414.84 68.63 417.24C68.63 417.38 68.72 418.93 68.8 419.91C68.66 419.34 68.54 418.79 68.4 418.21C68.13 417.05 67.82 415.91 67.5 414.68L66.96 412.9C66.79 412.3 66.53 411.68 66.33 411.07C65.81 409.66 65.22 408.26 64.59 406.86C65.59 406.62 69.17 405.71 70.59 404.6C72.01 403.49 73.53 401.72 73.51 399.81C73.5223 399.357 73.4378 398.906 73.2623 398.488C73.0868 398.071 72.8242 397.695 72.4921 397.386C72.1599 397.078 71.7659 396.844 71.3362 396.7C70.9065 396.555 70.451 396.504 70 396.55C67.31 396.84 65 401.12 64.5 403.48C64.5 403.62 64.31 405.36 64.24 406.31C63.86 405.47 63.48 404.63 63.06 403.8C61.86 401.38 60.58 398.97 59.3 396.57C58.91 395.83 58.53 395.09 58.15 394.35C58.51 394.27 62.77 393.28 64.38 392.05C65.81 390.95 67.32 389.16 67.31 387.26C67.3219 386.809 67.2379 386.36 67.0636 385.944C66.8893 385.527 66.6285 385.153 66.2987 384.845C65.9688 384.536 65.5773 384.302 65.15 384.156C64.7227 384.011 64.2694 383.957 63.82 384C61.14 384.29 58.82 388.56 58.32 390.92C58.32 391.1 58.06 393.59 58.04 394.23C57.19 392.6 56.36 390.97 55.61 389.34C54.5954 387.125 53.7236 384.847 53 382.52C53.17 382.52 57.63 381.52 59.27 380.21C60.7 379.11 62.21 377.32 62.2 375.42C62.2128 374.972 62.1308 374.526 61.9595 374.111C61.7882 373.696 61.5313 373.323 61.2058 373.014C60.8802 372.705 60.4932 372.469 60.07 372.32C59.6469 372.171 59.1971 372.113 58.75 372.15C56.07 372.44 53.75 376.71 53.26 379.07C53.26 379.23 53.05 381.13 52.99 382.07H52.84C52.1653 379.713 51.7035 377.3 51.46 374.86C51.31 373.52 51.24 372.23 51.21 370.98C52.06 370.87 55.93 370.36 57.54 369.39C59.15 368.42 60.78 366.84 60.98 364.94C61.0405 364.496 61.007 364.045 60.8816 363.615C60.7562 363.185 60.5418 362.787 60.2522 362.445C59.9626 362.104 59.6044 361.827 59.2009 361.633C58.7974 361.44 58.3575 361.333 57.91 361.32C55.21 361.32 52.43 365.32 51.68 367.59C51.68 367.72 51.37 369.03 51.19 369.99C51.19 369.42 51.19 368.84 51.19 368.29C51.19 366.29 51.33 364.39 51.45 362.73C51.53 361.79 51.63 360.94 51.72 360.15C52.5 359.62 55.62 357.41 56.58 355.84C57.54 354.27 58.28 352.08 57.58 350.31C57.4308 349.888 57.194 349.502 56.8852 349.177C56.5764 348.853 56.2025 348.597 55.788 348.427C55.3736 348.257 54.9279 348.177 54.4802 348.191C54.0324 348.205 53.5928 348.314 53.19 348.51C50.79 349.75 50.19 354.57 50.56 356.95C50.56 357.15 51.5 360.3 51.56 360.28C51.45 361.04 51.35 361.86 51.25 362.76C51.09 364.41 50.92 366.28 50.87 368.33C50.7867 370.535 50.8402 372.742 51.03 374.94C51.2136 377.409 51.6219 379.855 52.25 382.25V382.33C51.82 381.66 50.57 379.84 50.46 379.71C48.89 377.89 44.77 375.29 42.29 376.35C41.8826 376.536 41.5188 376.805 41.2224 377.141C40.926 377.477 40.7036 377.871 40.5696 378.298C40.4357 378.726 40.3932 379.176 40.445 379.621C40.4967 380.066 40.6415 380.495 40.87 380.88C41.8 382.49 44 383.32 45.78 383.58Z" fill="#263238"/>
<path id="Vector_65" d="M699.32 370.9C699.32 370.9 700.18 367.75 700.21 367.55C700.54 365.16 699.78 360.36 697.35 359.18C696.94 358.997 696.497 358.902 696.048 358.901C695.599 358.9 695.155 358.994 694.745 359.176C694.335 359.358 693.967 359.624 693.667 359.957C693.366 360.291 693.139 360.683 693 361.11C692.35 362.9 693.18 365.11 694.16 366.6C695.3 368.38 699.31 370.9 699.32 370.9Z" fill="#263238"/>
<path id="Vector_66" d="M651.41 369.86C653.35 370.71 658.08 370.6 658.09 370.6C658.1 370.6 657.09 367.5 656.98 367.31C655.98 365.14 652.66 361.55 649.98 361.91C649.538 361.982 649.116 362.147 648.742 362.393C648.367 362.639 648.049 362.961 647.807 363.339C647.566 363.716 647.407 364.14 647.34 364.583C647.273 365.026 647.3 365.478 647.42 365.91C647.86 367.76 649.76 369.14 651.41 369.86Z" fill="#263238"/>
<path id="Vector_67" d="M653.05 383.58C655.05 383.87 659.28 382.65 659.62 382.58C660.316 384.997 661.171 387.366 662.18 389.67C662.76 391.02 663.39 392.35 664.04 393.67L663.25 392.53C661.67 390.71 657.55 388.12 655.07 389.17C654.663 389.358 654.301 389.629 654.005 389.966C653.709 390.303 653.488 390.698 653.354 391.125C653.22 391.553 653.177 392.004 653.228 392.449C653.279 392.894 653.423 393.324 653.65 393.71C654.57 395.38 656.77 396.2 658.55 396.46C660.33 396.72 663.98 395.75 664.94 395.46L665.69 396.99C666.91 399.43 668.15 401.86 669.28 404.27C669.68 405.12 670.05 405.98 670.41 406.83C670.07 406.33 669.78 405.91 669.73 405.83C668.15 404.01 664.03 401.41 661.55 402.47C661.142 402.657 660.778 402.927 660.482 403.264C660.185 403.601 659.963 403.996 659.829 404.424C659.695 404.852 659.653 405.303 659.705 405.749C659.757 406.194 659.901 406.624 660.13 407.01C661.05 408.67 663.25 409.5 665.03 409.76C666.81 410.02 670.11 409.14 671.24 408.83C671.59 409.71 671.94 410.6 672.24 411.47C672.43 412.07 672.66 412.64 672.81 413.25C672.96 413.86 673.15 414.45 673.31 415.04C673.59 416.2 673.88 417.38 674.12 418.52C674.3 419.3 674.45 420.05 674.6 420.81C674.22 419.96 673.42 418.31 673.34 418.18C672.06 416.18 668.34 412.95 665.76 413.61C665.329 413.733 664.929 413.945 664.585 414.233C664.242 414.521 663.963 414.878 663.767 415.281C663.571 415.684 663.462 416.123 663.447 416.571C663.432 417.019 663.511 417.465 663.68 417.88C664.33 419.67 666.38 420.82 668.1 421.35C669.99 421.93 674.19 421.4 674.71 421.35C674.96 422.6 675.2 423.82 675.4 424.98C675.82 427.39 676.15 429.57 676.4 431.43H678.16C677.86 429.5 677.47 427.22 676.97 424.68C676.72 423.41 676.43 422.05 676.11 420.68C677.373 420.174 678.606 419.593 679.8 418.94C681.18 420.44 684.72 422.19 685.18 422.41C684.7 423.59 684.18 424.74 683.75 425.82C682.83 427.93 681.96 429.82 681.17 431.44H683.08C683.74 429.96 684.47 428.28 685.22 426.44C685.72 425.24 686.22 423.94 686.72 422.61C687.23 422.72 691.38 423.56 693.32 423.12C695.08 422.73 697.2 421.74 697.99 420C698.189 419.598 698.3 419.159 698.317 418.71C698.335 418.262 698.257 417.816 698.09 417.4C697.923 416.983 697.67 416.607 697.348 416.295C697.026 415.984 696.641 415.743 696.22 415.59C693.67 414.73 689.76 417.59 688.33 419.59C688.25 419.71 687.47 421.05 686.99 421.9C687.2 421.36 687.4 420.83 687.6 420.27C688.01 419.15 688.39 418.03 688.79 416.83L689.33 415.04C689.52 414.45 689.65 413.8 689.81 413.17C690.16 411.71 690.44 410.17 690.69 408.7C691.69 409.05 695.15 410.27 696.95 410.14C698.75 410.01 700.95 409.35 702.03 407.76C702.288 407.393 702.466 406.976 702.552 406.536C702.638 406.096 702.63 405.643 702.529 405.206C702.428 404.769 702.236 404.358 701.966 404.001C701.696 403.643 701.353 403.346 700.96 403.13C698.56 401.89 694.26 404.13 692.56 405.87C692.45 405.98 691.36 407.33 690.78 408.09C690.92 407.18 691.07 406.27 691.18 405.34C691.52 402.67 691.77 399.95 692.03 397.24C692.11 396.41 692.2 395.58 692.29 394.76C692.64 394.89 696.74 396.41 698.76 396.27C700.56 396.15 702.76 395.49 703.85 393.89C704.106 393.523 704.283 393.106 704.368 392.666C704.453 392.226 704.445 391.773 704.344 391.337C704.244 390.901 704.052 390.49 703.783 390.132C703.513 389.775 703.172 389.477 702.78 389.26C700.38 388.02 696.08 390.26 694.37 392C694.24 392.13 692.68 394.09 692.31 394.6C692.5 392.78 692.71 390.97 692.99 389.19C693.354 386.783 693.872 384.401 694.54 382.06C694.7 382.12 698.98 383.74 701.05 383.59C702.85 383.47 705.1 382.81 706.14 381.21C706.396 380.842 706.572 380.425 706.657 379.984C706.741 379.544 706.732 379.091 706.63 378.655C706.528 378.218 706.336 377.808 706.065 377.451C705.795 377.093 705.452 376.797 705.06 376.58C702.67 375.34 698.37 377.58 696.66 379.32C696.55 379.44 695.35 380.92 694.8 381.64L694.67 381.57C695.407 379.236 696.354 376.973 697.5 374.81C698.11 373.61 698.76 372.49 699.42 371.42C700.19 371.81 703.71 373.52 705.59 373.59C707.47 373.66 709.7 373.26 710.9 371.78C711.197 371.444 711.42 371.049 711.554 370.622C711.689 370.194 711.731 369.742 711.679 369.297C711.627 368.852 711.482 368.422 711.253 368.037C711.024 367.651 710.716 367.318 710.35 367.06C708.1 365.57 703.58 367.37 701.69 368.87C701.59 368.95 700.64 369.87 699.96 370.59C700.26 370.11 700.57 369.59 700.87 369.16C702 367.46 703.14 365.98 704.16 364.67C704.74 363.93 705.29 363.27 705.8 362.67C706.8 362.67 710.57 362.54 712.24 361.76C713.91 360.98 715.73 359.56 716.12 357.7C716.228 357.265 716.243 356.812 716.164 356.371C716.086 355.929 715.915 355.51 715.663 355.139C715.411 354.768 715.083 354.454 714.702 354.219C714.321 353.983 713.894 353.83 713.45 353.77C710.77 353.48 707.58 357.16 706.6 359.36C706.52 359.55 705.53 362.68 705.6 362.68H705.66C705.15 363.26 704.66 363.88 704.04 364.58C703.04 365.87 701.82 367.33 700.65 369.02C699.366 370.815 698.191 372.685 697.13 374.62C695.934 376.784 694.93 379.05 694.13 381.39C694.13 381.39 694.13 381.39 694.13 381.47C694.13 380.68 694.13 378.47 694.13 378.3C693.82 375.91 691.81 371.48 689.13 370.99C688.687 370.919 688.235 370.943 687.802 371.059C687.369 371.175 686.965 371.382 686.618 371.665C686.27 371.948 685.986 372.302 685.785 372.703C685.584 373.103 685.47 373.542 685.45 373.99C685.29 375.89 686.67 377.79 688.01 378.99C689.52 380.34 693.73 381.65 694.01 381.75C693.254 384.15 692.662 386.599 692.24 389.08C691.98 390.52 691.76 391.99 691.57 393.45C691.57 392.77 691.57 392.16 691.57 392.07C691.26 389.69 689.26 385.25 686.57 384.76C686.127 384.691 685.674 384.715 685.242 384.832C684.809 384.949 684.405 385.156 684.057 385.439C683.709 385.722 683.425 386.074 683.222 386.474C683.019 386.874 682.903 387.312 682.88 387.76C682.73 389.66 684.1 391.56 685.45 392.76C686.8 393.96 690.37 395.16 691.31 395.47L691.1 397.16C690.78 399.87 690.47 402.57 690.1 405.21C689.96 406.14 689.8 407.05 689.63 407.97C689.63 407.36 689.63 406.85 689.63 406.77C689.32 404.38 687.32 399.95 684.63 399.46C684.187 399.389 683.735 399.413 683.302 399.529C682.869 399.645 682.465 399.852 682.118 400.135C681.77 400.418 681.486 400.772 681.285 401.173C681.084 401.573 680.97 402.012 680.95 402.46C680.8 404.36 682.17 406.26 683.51 407.46C684.85 408.66 688.09 409.74 689.21 410.11C689.01 411.04 688.82 411.97 688.59 412.86C688.41 413.47 688.29 414.06 688.08 414.66L687.51 416.44C687.1 417.55 686.69 418.7 686.27 419.78C685.98 420.53 685.69 421.24 685.41 421.96C685.55 421.03 685.8 419.21 685.8 419.06C685.767 416.951 685.196 414.886 684.14 413.06C684.16 412.824 684.16 412.586 684.14 412.35C684.083 411.905 683.934 411.477 683.701 411.093C683.468 410.71 683.157 410.38 682.789 410.124C682.42 409.869 682.002 409.693 681.561 409.61C681.12 409.527 680.667 409.537 680.23 409.64C677.62 410.34 675.97 414.92 675.85 417.32C675.85 417.46 675.93 419.01 676.01 419.99C675.88 419.42 675.75 418.87 675.61 418.29C675.34 417.13 675.03 415.99 674.71 414.76L674.17 412.98C674 412.38 673.75 411.76 673.54 411.15C673.02 409.74 672.43 408.34 671.8 406.94C672.8 406.7 676.38 405.79 677.8 404.68C679.22 403.57 680.74 401.8 680.73 399.89C680.741 399.442 680.658 398.997 680.486 398.583C680.314 398.169 680.058 397.796 679.732 397.488C679.407 397.179 679.021 396.943 678.598 396.793C678.176 396.644 677.727 396.585 677.28 396.62C674.6 396.91 672.28 401.19 671.78 403.55C671.78 403.69 671.59 405.43 671.52 406.38C671.14 405.54 670.76 404.7 670.35 403.87C669.15 401.45 667.86 399.04 666.58 396.64C666.19 395.9 665.81 395.16 665.43 394.42C665.79 394.34 670.06 393.35 671.66 392.12C673.09 391.02 674.6 389.23 674.59 387.33C674.603 386.882 674.521 386.436 674.35 386.021C674.178 385.606 673.921 385.233 673.596 384.924C673.27 384.615 672.883 384.379 672.46 384.23C672.037 384.081 671.587 384.023 671.14 384.06C668.46 384.35 666.14 388.62 665.64 390.98C665.64 391.16 665.38 393.65 665.36 394.29C664.51 392.66 663.69 391.03 662.94 389.4C661.911 387.19 661.03 384.915 660.3 382.59C660.47 382.59 664.93 381.59 666.57 380.28C668 379.18 669.57 377.39 669.5 375.49C669.513 375.042 669.431 374.596 669.259 374.181C669.088 373.766 668.831 373.393 668.506 373.084C668.18 372.775 667.793 372.539 667.37 372.39C666.947 372.241 666.497 372.183 666.05 372.22C663.37 372.51 661.05 376.78 660.56 379.14C660.56 379.3 660.35 381.2 660.29 382.14H660.14C659.465 379.783 659.004 377.37 658.76 374.93C658.61 373.59 658.55 372.3 658.51 371.05C659.36 370.94 663.24 370.43 664.84 369.46C666.44 368.49 668.08 366.91 668.28 365.01C668.341 364.566 668.307 364.115 668.182 363.685C668.056 363.255 667.842 362.857 667.552 362.515C667.263 362.174 666.904 361.897 666.501 361.703C666.097 361.509 665.658 361.403 665.21 361.39C662.51 361.39 659.73 365.39 658.99 367.66C658.99 367.79 658.68 369.1 658.49 370.06C658.49 369.49 658.49 368.91 658.49 368.36C658.49 366.36 658.62 364.46 658.75 362.8C658.83 361.86 658.92 361.01 659.01 360.22C659.79 359.69 662.91 357.48 663.87 355.91C664.83 354.34 665.58 352.15 664.87 350.38C664.72 349.957 664.482 349.571 664.172 349.246C663.862 348.922 663.488 348.666 663.072 348.497C662.657 348.327 662.211 348.246 661.762 348.261C661.314 348.275 660.873 348.384 660.47 348.58C658.07 349.82 657.47 354.64 657.84 357.02C657.84 357.22 658.78 360.37 658.84 360.35C658.73 361.11 658.63 361.93 658.53 362.83C658.37 364.48 658.2 366.35 658.15 368.4C658.077 370.605 658.13 372.812 658.31 375.01C658.503 377.477 658.912 379.923 659.53 382.32V382.4C659.11 381.73 657.86 379.91 657.74 379.78C656.17 377.96 652.05 375.36 649.57 376.42C649.163 376.606 648.799 376.875 648.502 377.211C648.206 377.547 647.984 377.941 647.85 378.368C647.716 378.796 647.673 379.246 647.725 379.691C647.777 380.136 647.922 380.565 648.15 380.95C649.07 382.49 651.27 383.32 653.05 383.58Z" fill="#263238"/>
<path id="Vector_68" opacity="0.3" d="M651.41 369.86C653.35 370.71 658.08 370.6 658.09 370.6C658.1 370.6 657.09 367.5 656.98 367.31C655.98 365.14 652.66 361.55 649.98 361.91C649.538 361.982 649.116 362.147 648.742 362.393C648.367 362.639 648.049 362.961 647.807 363.339C647.566 363.716 647.407 364.14 647.34 364.583C647.273 365.026 647.3 365.478 647.42 365.91C647.86 367.76 649.76 369.14 651.41 369.86Z" fill="#263238"/>
<path id="Vector_69" opacity="0.3" d="M699.32 370.9C699.32 370.9 700.18 367.75 700.21 367.55C700.54 365.16 699.78 360.36 697.35 359.18C696.94 358.997 696.497 358.902 696.048 358.901C695.599 358.9 695.155 358.994 694.745 359.176C694.335 359.358 693.967 359.624 693.667 359.957C693.366 360.291 693.139 360.683 693 361.11C692.35 362.9 693.18 365.11 694.16 366.6C695.3 368.38 699.31 370.9 699.32 370.9Z" fill="#263238"/>
<path id="Vector_70" opacity="0.3" d="M653.05 383.58C655.05 383.87 659.28 382.65 659.62 382.58C660.316 384.997 661.171 387.366 662.18 389.67C662.76 391.02 663.39 392.35 664.04 393.67L663.25 392.53C661.67 390.71 657.55 388.12 655.07 389.17C654.663 389.358 654.301 389.629 654.005 389.966C653.709 390.303 653.488 390.698 653.354 391.125C653.22 391.553 653.177 392.004 653.228 392.449C653.279 392.894 653.423 393.324 653.65 393.71C654.57 395.38 656.77 396.2 658.55 396.46C660.33 396.72 663.98 395.75 664.94 395.46L665.69 396.99C666.91 399.43 668.15 401.86 669.28 404.27C669.68 405.12 670.05 405.98 670.41 406.83C670.07 406.33 669.78 405.91 669.73 405.83C668.15 404.01 664.03 401.41 661.55 402.47C661.142 402.657 660.778 402.927 660.482 403.264C660.185 403.601 659.963 403.996 659.829 404.424C659.695 404.852 659.653 405.303 659.705 405.749C659.757 406.194 659.901 406.624 660.13 407.01C661.05 408.67 663.25 409.5 665.03 409.76C666.81 410.02 670.11 409.14 671.24 408.83C671.59 409.71 671.94 410.6 672.24 411.47C672.43 412.07 672.66 412.64 672.81 413.25C672.96 413.86 673.15 414.45 673.31 415.04C673.59 416.2 673.88 417.38 674.12 418.52C674.3 419.3 674.45 420.05 674.6 420.81C674.22 419.96 673.42 418.31 673.34 418.18C672.06 416.18 668.34 412.95 665.76 413.61C665.329 413.733 664.929 413.945 664.585 414.233C664.242 414.521 663.963 414.878 663.767 415.281C663.571 415.684 663.462 416.123 663.447 416.571C663.432 417.019 663.511 417.465 663.68 417.88C664.33 419.67 666.38 420.82 668.1 421.35C669.99 421.93 674.19 421.4 674.71 421.35C674.96 422.6 675.2 423.82 675.4 424.98C675.82 427.39 676.15 429.57 676.4 431.43H678.16C677.86 429.5 677.47 427.22 676.97 424.68C676.72 423.41 676.43 422.05 676.11 420.68C677.373 420.174 678.606 419.593 679.8 418.94C681.18 420.44 684.72 422.19 685.18 422.41C684.7 423.59 684.18 424.74 683.75 425.82C682.83 427.93 681.96 429.82 681.17 431.44H683.08C683.74 429.96 684.47 428.28 685.22 426.44C685.72 425.24 686.22 423.94 686.72 422.61C687.23 422.72 691.38 423.56 693.32 423.12C695.08 422.73 697.2 421.74 697.99 420C698.189 419.598 698.3 419.159 698.317 418.71C698.335 418.262 698.257 417.816 698.09 417.4C697.923 416.983 697.67 416.607 697.348 416.295C697.026 415.984 696.641 415.743 696.22 415.59C693.67 414.73 689.76 417.59 688.33 419.59C688.25 419.71 687.47 421.05 686.99 421.9C687.2 421.36 687.4 420.83 687.6 420.27C688.01 419.15 688.39 418.03 688.79 416.83L689.33 415.04C689.52 414.45 689.65 413.8 689.81 413.17C690.16 411.71 690.44 410.17 690.69 408.7C691.69 409.05 695.15 410.27 696.95 410.14C698.75 410.01 700.95 409.35 702.03 407.76C702.288 407.393 702.466 406.976 702.552 406.536C702.638 406.096 702.63 405.643 702.529 405.206C702.428 404.769 702.236 404.358 701.966 404.001C701.696 403.643 701.353 403.346 700.96 403.13C698.56 401.89 694.26 404.13 692.56 405.87C692.45 405.98 691.36 407.33 690.78 408.09C690.92 407.18 691.07 406.27 691.18 405.34C691.52 402.67 691.77 399.95 692.03 397.24C692.11 396.41 692.2 395.58 692.29 394.76C692.64 394.89 696.74 396.41 698.76 396.27C700.56 396.15 702.76 395.49 703.85 393.89C704.106 393.523 704.283 393.106 704.368 392.666C704.453 392.226 704.445 391.773 704.344 391.337C704.244 390.901 704.052 390.49 703.783 390.132C703.513 389.775 703.172 389.477 702.78 389.26C700.38 388.02 696.08 390.26 694.37 392C694.24 392.13 692.68 394.09 692.31 394.6C692.5 392.78 692.71 390.97 692.99 389.19C693.354 386.783 693.872 384.401 694.54 382.06C694.7 382.12 698.98 383.74 701.05 383.59C702.85 383.47 705.1 382.81 706.14 381.21C706.396 380.842 706.572 380.425 706.657 379.984C706.741 379.544 706.732 379.091 706.63 378.655C706.528 378.218 706.336 377.808 706.065 377.451C705.795 377.093 705.452 376.797 705.06 376.58C702.67 375.34 698.37 377.58 696.66 379.32C696.55 379.44 695.35 380.92 694.8 381.64L694.67 381.57C695.407 379.236 696.354 376.973 697.5 374.81C698.11 373.61 698.76 372.49 699.42 371.42C700.19 371.81 703.71 373.52 705.59 373.59C707.47 373.66 709.7 373.26 710.9 371.78C711.197 371.444 711.42 371.049 711.554 370.622C711.689 370.194 711.731 369.742 711.679 369.297C711.627 368.852 711.482 368.422 711.253 368.037C711.024 367.651 710.716 367.318 710.35 367.06C708.1 365.57 703.58 367.37 701.69 368.87C701.59 368.95 700.64 369.87 699.96 370.59C700.26 370.11 700.57 369.59 700.87 369.16C702 367.46 703.14 365.98 704.16 364.67C704.74 363.93 705.29 363.27 705.8 362.67C706.8 362.67 710.57 362.54 712.24 361.76C713.91 360.98 715.73 359.56 716.12 357.7C716.228 357.265 716.243 356.812 716.164 356.371C716.086 355.929 715.915 355.51 715.663 355.139C715.411 354.768 715.083 354.454 714.702 354.219C714.321 353.983 713.894 353.83 713.45 353.77C710.77 353.48 707.58 357.16 706.6 359.36C706.52 359.55 705.53 362.68 705.6 362.68H705.66C705.15 363.26 704.66 363.88 704.04 364.58C703.04 365.87 701.82 367.33 700.65 369.02C699.366 370.815 698.191 372.685 697.13 374.62C695.934 376.784 694.93 379.05 694.13 381.39C694.13 381.39 694.13 381.39 694.13 381.47C694.13 380.68 694.13 378.47 694.13 378.3C693.82 375.91 691.81 371.48 689.13 370.99C688.687 370.919 688.235 370.943 687.802 371.059C687.369 371.175 686.965 371.382 686.618 371.665C686.27 371.948 685.986 372.302 685.785 372.703C685.584 373.103 685.47 373.542 685.45 373.99C685.29 375.89 686.67 377.79 688.01 378.99C689.52 380.34 693.73 381.65 694.01 381.75C693.254 384.15 692.662 386.599 692.24 389.08C691.98 390.52 691.76 391.99 691.57 393.45C691.57 392.77 691.57 392.16 691.57 392.07C691.26 389.69 689.26 385.25 686.57 384.76C686.127 384.691 685.674 384.715 685.242 384.832C684.809 384.949 684.405 385.156 684.057 385.439C683.709 385.722 683.425 386.074 683.222 386.474C683.019 386.874 682.903 387.312 682.88 387.76C682.73 389.66 684.1 391.56 685.45 392.76C686.8 393.96 690.37 395.16 691.31 395.47L691.1 397.16C690.78 399.87 690.47 402.57 690.1 405.21C689.96 406.14 689.8 407.05 689.63 407.97C689.63 407.36 689.63 406.85 689.63 406.77C689.32 404.38 687.32 399.95 684.63 399.46C684.187 399.389 683.735 399.413 683.302 399.529C682.869 399.645 682.465 399.852 682.118 400.135C681.77 400.418 681.486 400.772 681.285 401.173C681.084 401.573 680.97 402.012 680.95 402.46C680.8 404.36 682.17 406.26 683.51 407.46C684.85 408.66 688.09 409.74 689.21 410.11C689.01 411.04 688.82 411.97 688.59 412.86C688.41 413.47 688.29 414.06 688.08 414.66L687.51 416.44C687.1 417.55 686.69 418.7 686.27 419.78C685.98 420.53 685.69 421.24 685.41 421.96C685.55 421.03 685.8 419.21 685.8 419.06C685.767 416.951 685.196 414.886 684.14 413.06C684.16 412.824 684.16 412.586 684.14 412.35C684.083 411.905 683.934 411.477 683.701 411.093C683.468 410.71 683.157 410.38 682.789 410.124C682.42 409.869 682.002 409.693 681.561 409.61C681.12 409.527 680.667 409.537 680.23 409.64C677.62 410.34 675.97 414.92 675.85 417.32C675.85 417.46 675.93 419.01 676.01 419.99C675.88 419.42 675.75 418.87 675.61 418.29C675.34 417.13 675.03 415.99 674.71 414.76L674.17 412.98C674 412.38 673.75 411.76 673.54 411.15C673.02 409.74 672.43 408.34 671.8 406.94C672.8 406.7 676.38 405.79 677.8 404.68C679.22 403.57 680.74 401.8 680.73 399.89C680.741 399.442 680.658 398.997 680.486 398.583C680.314 398.169 680.058 397.796 679.732 397.488C679.407 397.179 679.021 396.943 678.598 396.793C678.176 396.644 677.727 396.585 677.28 396.62C674.6 396.91 672.28 401.19 671.78 403.55C671.78 403.69 671.59 405.43 671.52 406.38C671.14 405.54 670.76 404.7 670.35 403.87C669.15 401.45 667.86 399.04 666.58 396.64C666.19 395.9 665.81 395.16 665.43 394.42C665.79 394.34 670.06 393.35 671.66 392.12C673.09 391.02 674.6 389.23 674.59 387.33C674.603 386.882 674.521 386.436 674.35 386.021C674.178 385.606 673.921 385.233 673.596 384.924C673.27 384.615 672.883 384.379 672.46 384.23C672.037 384.081 671.587 384.023 671.14 384.06C668.46 384.35 666.14 388.62 665.64 390.98C665.64 391.16 665.38 393.65 665.36 394.29C664.51 392.66 663.69 391.03 662.94 389.4C661.911 387.19 661.03 384.915 660.3 382.59C660.47 382.59 664.93 381.59 666.57 380.28C668 379.18 669.57 377.39 669.5 375.49C669.513 375.042 669.431 374.596 669.259 374.181C669.088 373.766 668.831 373.393 668.506 373.084C668.18 372.775 667.793 372.539 667.37 372.39C666.947 372.241 666.497 372.183 666.05 372.22C663.37 372.51 661.05 376.78 660.56 379.14C660.56 379.3 660.35 381.2 660.29 382.14H660.14C659.465 379.783 659.004 377.37 658.76 374.93C658.61 373.59 658.55 372.3 658.51 371.05C659.36 370.94 663.24 370.43 664.84 369.46C666.44 368.49 668.08 366.91 668.28 365.01C668.341 364.566 668.307 364.115 668.182 363.685C668.056 363.255 667.842 362.857 667.552 362.515C667.263 362.174 666.904 361.897 666.501 361.703C666.097 361.509 665.658 361.403 665.21 361.39C662.51 361.39 659.73 365.39 658.99 367.66C658.99 367.79 658.68 369.1 658.49 370.06C658.49 369.49 658.49 368.91 658.49 368.36C658.49 366.36 658.62 364.46 658.75 362.8C658.83 361.86 658.92 361.01 659.01 360.22C659.79 359.69 662.91 357.48 663.87 355.91C664.83 354.34 665.58 352.15 664.87 350.38C664.72 349.957 664.482 349.571 664.172 349.246C663.862 348.922 663.488 348.666 663.072 348.497C662.657 348.327 662.211 348.246 661.762 348.261C661.314 348.275 660.873 348.384 660.47 348.58C658.07 349.82 657.47 354.64 657.84 357.02C657.84 357.22 658.78 360.37 658.84 360.35C658.73 361.11 658.63 361.93 658.53 362.83C658.37 364.48 658.2 366.35 658.15 368.4C658.077 370.605 658.13 372.812 658.31 375.01C658.503 377.477 658.912 379.923 659.53 382.32V382.4C659.11 381.73 657.86 379.91 657.74 379.78C656.17 377.96 652.05 375.36 649.57 376.42C649.163 376.606 648.799 376.875 648.502 377.211C648.206 377.547 647.984 377.941 647.85 378.368C647.716 378.796 647.673 379.246 647.725 379.691C647.777 380.136 647.922 380.565 648.15 380.95C649.07 382.49 651.27 383.32 653.05 383.58Z" fill="#263238"/>
</g>
<g id="freepik--character-1--inject-73">
<path id="Vector_71" d="M177.94 341.44C177.94 341.44 179.19 341.19 189.44 338.19C196.006 336.088 201.995 332.494 206.94 327.69L203.69 307.19L182.94 310.19L177.94 341.44Z" fill="#4A8ACF" stroke="#263238" stroke-linecap="round" stroke-linejoin="round"/>
<path id="Vector_72" d="M126.94 410.94C126.94 410.94 123.44 417.94 122.94 424.44C122.44 430.94 126.19 433.19 127.44 431.44C128.69 429.69 130.69 423.44 130.94 420.69L131.69 412.44L126.94 410.94Z" fill="white" stroke="#263238" stroke-linecap="round" stroke-linejoin="round"/>
<path id="Vector_73" d="M219 415.44C219 415.44 218 424.44 217.73 428.69C217.46 432.94 222.73 436.94 223.47 437.2C224.21 437.46 224.97 437.2 226.22 434.2C227.47 431.2 227.48 423.95 226.74 421.7C226 419.45 224.5 415.95 224.5 415.95L219 415.44Z" fill="white" stroke="#263238" stroke-linecap="round" stroke-linejoin="round"/>
<path id="Vector_74" d="M183.94 283.69C183.94 283.69 173.85 295.69 170.35 305.69C166.85 315.69 164.06 328.07 161.69 334.69C159.709 340.344 158.04 346.103 156.69 351.94C156.69 351.94 150.19 358.44 148.44 364.19C146.69 369.94 126.19 412.44 126.19 412.44C126.19 412.44 127.44 414.19 128.44 414.44C129.44 414.69 131.69 413.44 131.69 413.44C131.69 413.44 167.94 365.94 170.19 362.44C172.44 358.94 179.54 350.84 180.29 349.59C181.04 348.34 186.69 330.94 188.69 328.44C190.171 326.447 191.47 324.326 192.57 322.1L194.07 323.1L195.82 323.35C195.82 323.35 203.69 339.19 205.69 345.69C207.69 352.19 213.44 387.69 214.94 394.19C216.44 400.69 218.44 417.69 218.44 417.69C219.343 417.987 220.261 418.238 221.19 418.44C222.44 418.69 225.69 417.69 225.69 417.69C225.69 417.69 231.44 391.69 231.69 382.69C231.94 373.69 230.19 353.69 230.19 350.69C230.19 347.69 225.69 306.44 223.44 300.94C221.19 295.44 213.69 285.69 213.69 285.69L183.94 283.69Z" fill="#263238" stroke="#263238" stroke-linecap="round" stroke-linejoin="round"/>
<path id="Vector_75" d="M198.69 236.44L183.69 241.19C183.69 241.19 183.69 270.19 183.94 273.94C184.19 277.69 182.19 283.94 183.44 285.44C184.69 286.94 190.69 292.94 201.69 293.19C212.69 293.44 215.69 289.94 215.69 289.94L217.94 280.19C217.94 280.19 225.19 260.69 225.19 257.69C225.19 254.69 217.94 245.94 213.69 242.44C209.44 238.94 198.69 236.44 198.69 236.44Z" fill="white" stroke="#263238" stroke-linecap="round" stroke-linejoin="round"/>
<path id="Vector_76" d="M159.94 270.69C156.746 272.84 153.405 274.761 149.94 276.44L129.94 286.44L132.19 291.19C137.068 290.319 141.993 289.735 146.94 289.44C153.44 289.19 164.44 284.94 165.19 283.69C165.94 282.44 168.44 275.69 168.44 275.69L159.94 270.69Z" fill="white" stroke="#263238" stroke-linecap="round" stroke-linejoin="round"/>
<path id="Vector_77" d="M196.69 236.69C196.69 236.69 185.94 266.19 185.44 270.44C184.94 274.69 180.69 285.44 180.44 286.94C180.19 288.44 173.19 303.69 173.19 303.69C173.19 303.69 180.69 280.19 181.44 275.44C181.85 272.403 181.507 269.312 180.44 266.44C180.44 266.44 175.37 277.2 174.62 277.95C173.87 278.7 168.78 287.29 168.78 287.29L159.94 270.69C159.94 270.69 169.69 253.69 171.69 250.94C173.69 248.19 177.94 240.69 180.94 239.19C183.94 237.69 196.69 236.69 196.69 236.69Z" fill="#4A8ACF" stroke="#263238" stroke-linecap="round" stroke-linejoin="round"/>
<path id="Vector_78" d="M211.44 240.44C211.44 240.44 203.69 272.94 203.69 278.19C203.69 283.44 202.94 299.69 202.19 308.69C201.44 317.69 199.94 346.44 199.94 346.44C204.737 347.175 209.604 347.343 214.44 346.94C221.44 346.19 233.44 341.44 233.44 341.44C233.44 341.44 227.19 309.94 224.69 302.44C222.587 295.955 220.835 289.363 219.44 282.69C219.44 281.94 226.19 259.94 226.19 256.94C226.19 253.94 214.19 241.19 211.44 240.44Z" fill="#4A8ACF" stroke="#263238" stroke-linecap="round" stroke-linejoin="round"/>
<path id="Vector_79" d="M123.28 288.32C123.429 286.425 123.085 284.523 122.28 282.8C120.92 280.12 120.18 279.29 122.36 279.88C124.54 280.47 125.82 284.74 125.82 284.74L123.28 288.32Z" fill="white" stroke="#263238" stroke-linecap="round" stroke-linejoin="round"/>
<path id="Vector_80" d="M137.35 290.12C137.35 290.12 134.49 294.64 132.77 294.23C131.05 293.82 123.42 290 123.28 288.32C123.14 286.64 124.59 281.59 125.85 281.81C127.11 282.03 137.35 290.12 137.35 290.12Z" fill="white" stroke="#263238" stroke-linecap="round" stroke-linejoin="round"/>
<path id="Vector_81" d="M222 209.77C222.652 211.71 223.143 213.7 223.47 215.72C223.377 216.951 223.149 218.168 222.79 219.35C222.79 219.35 226.88 222.99 227.11 223.9C227.34 224.81 224.84 226.17 224.84 226.17C224.84 226.17 225.06 235.71 225.06 236.39C225.06 237.07 213.93 237.53 213.93 237.53L202.3 251.16L196.85 237.76L199.35 230.26C199.35 230.26 191.85 225.94 194.58 219.35C197.31 212.76 203.44 209.13 209.58 208.22C213.577 207.697 217.633 207.849 221.58 208.67L222 209.77Z" fill="white" stroke="#263238" stroke-linecap="round" stroke-linejoin="round"/>
<path id="Vector_82" d="M213.89 237.53L208.19 236.44L207.86 244.11L213.89 237.53Z" fill="#263238" stroke="#263238" stroke-linecap="round" stroke-linejoin="round"/>
<path id="Vector_83" d="M220.42 220.23C220.42 221.03 220.13 221.67 219.76 221.67C219.39 221.67 219.1 221.03 219.1 220.23C219.1 219.43 219.4 218.8 219.76 218.8C220.12 218.8 220.42 219.44 220.42 220.23Z" fill="#263238"/>
<path id="Vector_84" d="M218.22 217.92C218.22 217.92 218.88 216.6 221.3 217.26" stroke="#263238" stroke-linecap="round" stroke-linejoin="round"/>
<path id="Vector_85" d="M223.73 228.5C223.73 228.5 220.86 228.94 219.73 227.39" stroke="#263238" stroke-linecap="round" stroke-linejoin="round"/>
<path id="Vector_86" d="M222.52 212.54C222.52 212.54 215.03 210.72 213.66 213.45C212.29 216.18 213.44 217.54 212.3 220.04C211.16 222.54 206.85 225.72 206.85 225.72C206.85 225.72 202.76 221.17 201.39 223.44C200.02 225.71 200.48 229.12 201.85 230.26C203.22 231.4 207.07 230.71 207.07 230.71L201.17 233.44C201.17 233.44 201.39 236.85 195.94 238.21C190.49 239.57 183.94 235.94 184.81 231.4C185.68 226.86 193.21 224.13 193.21 224.13C193.21 224.13 185.21 214.36 191.85 207.13C198.49 199.9 211.39 203.27 211.39 203.27C211.39 203.27 213.21 201.27 218.39 200.77C223.57 200.27 225.89 205.54 225.89 208.5C225.89 211.46 222.52 212.54 222.52 212.54Z" fill="#263238" stroke="#263238" stroke-linecap="round" stroke-linejoin="round"/>
<path id="Vector_87" d="M216.82 294.73L215.45 300C213.896 302.99 212.096 305.847 210.07 308.54C206.77 312.91 194.92 325.1 194.92 325.1L191.57 329.23L191.18 332.85L193.9 333.9C193.9 333.9 195.26 334.43 196.37 335C197.48 335.57 200.37 336.09 201.26 335.42C202.15 334.75 204.26 329.32 204.26 329.32L205.06 325.13C205.06 325.13 219.14 314.08 222.36 310.73C225.58 307.38 228.36 304.37 229.3 302.43C230.24 300.49 229.47 294.54 229.47 294.54L216.82 294.73Z" fill="white" stroke="#263238" stroke-linecap="round" stroke-linejoin="round"/>
<g id="Vector_88">
<path d="M216.47 269.17L214 295.73C216.352 296.576 218.757 297.264 221.2 297.79C225.15 298.63 233.4 296.45 233.4 296.45C233.4 296.45 232.13 274.34 230.48 266.25C228.83 258.16 224.23 252.11 221.27 251.1" fill="#4A8ACF"/>
<path d="M216.47 269.17L214 295.73C216.352 296.576 218.757 297.264 221.2 297.79C225.15 298.63 233.4 296.45 233.4 296.45C233.4 296.45 232.13 274.34 230.48 266.25C228.83 258.16 224.23 252.11 221.27 251.1" stroke="#263238" stroke-linecap="round" stroke-linejoin="round"/>
</g>
</g>
<g id="freepik--Floor--inject-73">
<path id="Vector_89" d="M533.19 431.44H714.19" stroke="#263238" stroke-linecap="round" stroke-linejoin="round"/>
<path id="Vector_90" d="M511.19 431.44H524.19" stroke="#263238" stroke-linecap="round" stroke-linejoin="round"/>
<path id="Vector_91" d="M184.19 431.44H500.19" stroke="#263238" stroke-linecap="round" stroke-linejoin="round"/>
<path id="Vector_92" d="M33.1899 431.44H175.19" stroke="#263238" stroke-linecap="round" stroke-linejoin="round"/>
</g>
<g id="inline_id">
<path id="Vector_93" d="M599.675 135.58L597.005 84L552.665 108.09L553.665 112.09L570.435 120.65L491.525 275.3L241.085 343.4L67.9549 225.24C66.4207 224.192 64.5331 223.797 62.7074 224.141C60.8817 224.485 59.2675 225.541 58.2199 227.075C57.1723 228.609 56.7771 230.497 57.1213 232.323C57.4654 234.148 58.5207 235.762 60.0549 236.81L235.815 356.78C236.993 357.585 238.388 358.01 239.815 358C240.434 358.001 241.049 357.917 241.645 357.75L498.195 288C499.137 287.744 500.015 287.295 500.772 286.68C501.53 286.065 502.151 285.299 502.595 284.43L582.915 127.05L599.675 135.58Z" fill="#263238" stroke="#263238" stroke-linecap="round" stroke-linejoin="round"/>
<path id="Vector_94" d="M598.675 131.58L596.005 80L552.665 108.09L569.435 116.65L490.525 271.3L240.085 339.4L66.9549 221.24C65.4207 220.192 63.5331 219.797 61.7074 220.141C59.8817 220.485 58.2675 221.541 57.2199 223.075C56.1723 224.609 55.7771 226.497 56.1213 228.323C56.4654 230.148 57.5207 231.762 59.0549 232.81L234.815 352.78C235.993 353.585 237.388 354.01 238.815 354C239.434 354.001 240.049 353.917 240.645 353.75L497.195 284C498.137 283.744 499.015 283.295 499.772 282.68C500.53 282.065 501.151 281.299 501.595 280.43L581.915 123.05L598.675 131.58Z" fill="#4A8ACF" stroke="#263238" stroke-linecap="round" stroke-linejoin="round"/>
<path id="Vector_95" d="M591.465 88.9302L562.655 107.58L576.165 114.47L493.975 275.58L239.165 344.83L64.165 225.37C63.9477 225.222 63.7034 225.119 63.446 225.065C63.1887 225.012 62.9233 225.01 62.6651 225.059C62.4069 225.108 62.161 225.208 61.9413 225.352C61.7216 225.496 61.5326 225.683 61.385 225.9C61.0853 226.338 60.9717 226.877 61.0693 227.398C61.1668 227.919 61.4674 228.38 61.905 228.68L237.705 348.68C238.038 348.908 238.432 349.03 238.835 349.03C239.01 349.027 239.185 349.003 239.355 348.96L495.905 279.2C496.173 279.13 496.423 279.005 496.64 278.832C496.857 278.66 497.036 278.445 497.165 278.2L579.755 116.37L593.265 123.26L591.465 88.9302Z" fill="white"/>
</g>
<path id="outline_id" d="M599.675 133.58L597.005 82L552.665 106.09L553.665 110.09L570.435 118.65L491.525 273.3L241.085 341.4L67.9549 223.24C66.4207 222.192 64.5331 221.797 62.7074 222.141C60.8817 222.485 59.2675 223.541 58.2199 225.075C57.1723 226.609 56.7771 228.497 57.1213 230.323C57.4654 232.148 58.5207 233.762 60.0549 234.81L235.815 354.78C236.993 355.585 238.388 356.01 239.815 356C240.434 356.001 241.049 355.917 241.645 355.75L498.195 286C499.137 285.744 500.015 285.295 500.772 284.68C501.53 284.065 502.151 283.299 502.595 282.43L582.915 125.05L599.675 133.58Z" stroke="#356BB3" stroke-width="6" stroke-linecap="round" stroke-linejoin="round"/>
<path id="bottomB" d="M139.45 209.46L148.45 211.46L150.53 202.34L141.9 200.34C141.9 200.09 141.9 199.83 141.9 199.57C141.905 196.8 141.347 194.058 140.26 191.51L147.26 185.93L141.43 178.62L134.77 184C132.422 181.963 129.642 180.486 126.64 179.68V171H117.29V179.38C114.204 179.98 111.299 181.283 108.8 183.19L102.03 177.79L96.2 185.1L102.81 190.37C101.409 193.141 100.657 196.195 100.61 199.3L92 201.3L94.08 210.42L102.57 208.48C103.858 211.218 105.728 213.641 108.05 215.58L104.05 223.79L112.48 227.85L116.37 219.77C119.243 220.478 122.236 220.55 125.14 219.98L129.14 228.35L137.57 224.29L133.65 216.15C136.043 214.364 138.021 212.082 139.45 209.46ZM112.07 199.65C112.07 197.834 112.608 196.06 113.617 194.55C114.626 193.04 116.06 191.864 117.737 191.169C119.414 190.474 121.26 190.292 123.041 190.646C124.822 191.001 126.457 191.875 127.741 193.159C129.025 194.443 129.899 196.078 130.254 197.859C130.608 199.64 130.426 201.486 129.731 203.163C129.036 204.84 127.86 206.274 126.35 207.283C124.84 208.292 123.066 208.83 121.25 208.83C120.044 208.83 118.851 208.593 117.737 208.131C116.623 207.67 115.611 206.994 114.759 206.141C113.906 205.289 113.23 204.277 112.769 203.163C112.307 202.049 112.07 200.856 112.07 199.65Z" stroke="#263238" stroke-linecap="round" stroke-linejoin="round"/>
<path id="topB" d="M158.97 163.53L166.35 165.21L168.05 157.73L160.97 156.12C160.97 155.91 160.97 155.7 160.97 155.49C160.984 153.224 160.538 150.979 159.66 148.89L165.41 144.31L160.63 138.31L155.13 142.69C153.202 141.022 150.922 139.812 148.46 139.15V132H140.79V138.89C138.247 139.38 135.851 140.452 133.79 142.02L128.23 137.59L123.45 143.59L128.87 147.91C127.724 150.183 127.109 152.685 127.07 155.23L120 156.85L121.71 164.33L128.71 162.74C129.764 164.984 131.297 166.971 133.2 168.56L129.95 175.29L136.87 178.62L140.06 171.99C141.369 172.313 142.712 172.478 144.06 172.48C145.141 172.478 146.219 172.375 147.28 172.17L150.58 179.03L157.5 175.7L154.28 169.03C156.224 167.558 157.824 165.682 158.97 163.53ZM136.52 155.53C136.518 154.04 136.958 152.583 137.784 151.344C138.61 150.104 139.786 149.138 141.161 148.566C142.537 147.995 144.052 147.844 145.513 148.133C146.974 148.423 148.317 149.139 149.371 150.192C150.425 151.245 151.143 152.586 151.435 154.047C151.726 155.508 151.577 157.023 151.008 158.399C150.438 159.776 149.473 160.952 148.234 161.78C146.996 162.608 145.54 163.05 144.05 163.05C143.059 163.05 142.077 162.854 141.161 162.474C140.246 162.094 139.414 161.536 138.715 160.834C138.015 160.132 137.461 159.298 137.085 158.381C136.708 157.464 136.516 156.481 136.52 155.49V155.53Z" stroke="#263238" stroke-linecap="round" stroke-linejoin="round"/>
<g id="middleC">
<path id="Vector_96" d="M284.15 94.0676H345.07C345.07 94.0676 347.15 87.8376 339.53 83.6876C331.91 79.5376 328.46 82.9976 325.69 79.5376C322.92 76.0776 333.31 67.0776 312.55 58.0876C312.55 58.0876 311.16 38.7076 282.79 38.0176C270.55 37.7176 265.01 41.2876 262.05 45.8276" stroke="#263238" stroke-linecap="round" stroke-linejoin="round"/>
<path id="Vector_97" d="M258.36 55.3876C257.49 58.3376 256.55 60.8876 254.42 62.2376C246.81 67.0776 244.74 59.4676 237.12 64.3176C229.5 69.1676 233.02 78.8476 226.75 80.2276C220.48 81.6076 212.21 74.0076 204.6 78.8476C196.99 83.6876 196.99 87.8476 193.53 87.8476C190.07 87.8476 183.15 85.0876 179 87.8476C174.85 90.6076 170 94.0776 170 94.0776H247.81" stroke="#263238" stroke-linecap="round" stroke-linejoin="round"/>
</g>
<g id="rigthC">
<g id="Group 1000001774">
<path id="Vector_98" d="M609.07 22.2706C606.53 19.6306 602.07 17.2006 594.45 17.0106C577.23 16.5906 581.81 28.8206 577.23 31.7106C572.65 34.6006 571.35 30.0306 566.73 32.9706C562.11 35.9106 564.21 41.7906 560.44 42.6306C556.67 43.4706 551.62 38.8206 547 41.8206C542.38 44.8206 542.38 47.2806 540.28 47.2806C538.18 47.2806 533.98 45.6006 531.46 47.2806C528.94 48.9606 526 51.0606 526 51.0606H571.09" stroke="#263238" stroke-linecap="round" stroke-linejoin="round"/>
</g>
<path id="Vector_99" d="M576.86 51.0306H632.24C632.24 51.0306 633.5 47.2506 628.88 44.7306C624.26 42.2106 622.17 44.3106 620.49 42.2106C618.99 40.3406 623.82 35.8106 616 30.9806" stroke="#263238" stroke-linecap="round" stroke-linejoin="round"/>
</g>
<g id="leftC">
<path id="Vector_100" d="M113.06 83.9257C111.65 82.4657 109.2 81.1157 104.95 81.0057C95.4 80.7757 97.95 87.5357 95.4 89.1657C92.85 90.7957 92.14 88.2357 89.57 89.8657C87 91.4957 88.17 94.7557 86.08 95.2257C83.99 95.6957 81.19 93.1257 78.62 94.7557C76.05 96.3857 76.06 97.7557 74.89 97.7557C73.72 97.7557 71.4 96.8257 70 97.7557C68.6 98.6857 67 99.8557 67 99.8557H92" stroke="#263238" stroke-linecap="round" stroke-linejoin="round"/>
<path id="Vector_101" d="M95.1899 99.8657H125.92C125.92 99.8657 126.62 97.7657 124.06 96.3657C121.5 94.9657 120.33 96.1357 119.4 94.9657C118.47 93.7957 121.25 91.4157 116.91 88.7357" stroke="#263238" stroke-linecap="round" stroke-linejoin="round"/>
</g>
<g id="arrow">
<path id="Vector_102" d="M438.159 91.6378H438.009L437.879 91.5878L437.359 91.3878L423.049 85.9878L422.529 85.7878L411.429 81.5978L410.909 81.4078L393.029 74.6578L393.909 68.0578C393.926 67.9369 393.903 67.8139 393.843 67.7074C393.784 67.6009 393.691 67.5167 393.579 67.4678L379.429 61.0478C379.328 61.0037 379.217 60.9897 379.108 61.0075C379 61.0254 378.899 61.0742 378.817 61.1482C378.736 61.2222 378.678 61.3182 378.65 61.4246C378.622 61.531 378.625 61.6432 378.659 61.7478L381.529 70.2478L379.419 69.4478C379.279 69.3855 379.127 69.3525 378.974 69.3508C378.82 69.3491 378.668 69.3787 378.526 69.4379C378.384 69.4971 378.256 69.5846 378.149 69.695C378.042 69.8054 377.959 69.9364 377.904 70.0801C377.85 70.2238 377.825 70.377 377.832 70.5305C377.839 70.684 377.877 70.8345 377.944 70.9728C378.011 71.1111 378.105 71.2343 378.221 71.3349C378.337 71.4355 378.473 71.5113 378.619 71.5578L380.819 72.3878L374.219 77.4578C374.131 77.5253 374.065 77.6174 374.03 77.7224C373.994 77.8274 373.99 77.9407 374.019 78.0478C374.046 78.1542 374.104 78.2502 374.186 78.3232C374.268 78.3963 374.37 78.4432 374.479 78.4578L390.329 80.8978H390.409C390.524 80.8978 390.635 80.8635 390.73 80.7993C390.824 80.7351 390.897 80.644 390.939 80.5378L392.429 76.7578L410.049 83.4078L410.569 83.5978L421.659 87.7778L422.179 87.9778L436.429 93.3578L436.949 93.5478L437.369 93.7078" stroke="#263238" stroke-miterlimit="10"/>
<path id="Vector_103" d="M437.859 91.5777H438.009H438.159L448.349 95.4277L449.469 92.0677C449.543 91.8443 449.685 91.6498 449.875 91.5116C450.065 91.3734 450.294 91.2986 450.529 91.2977C450.768 91.3021 450.999 91.3819 451.189 91.5256C451.38 91.6693 451.52 91.8696 451.589 92.0977L453.589 98.7177C453.665 98.9725 453.65 99.2459 453.546 99.4906C453.442 99.7353 453.256 99.9359 453.019 100.058L447.919 102.598C447.764 102.676 447.593 102.717 447.419 102.718C447.148 102.719 446.886 102.624 446.679 102.448C446.513 102.3 446.393 102.106 446.335 101.892C446.276 101.677 446.281 101.45 446.349 101.238L447.589 97.6277L437.369 93.7477C437.225 93.6947 437.095 93.6091 436.989 93.4977" stroke="#263238" stroke-miterlimit="10"/>
</g>
</g>
</svg>
