<svg width="1507" height="552" viewBox="0 0 1507 552" fill="none" xmlns="http://www.w3.org/2000/svg">
<path d="M461.061 30.681C432.792 58.9344 267.442 227.876 70.6218 429.702C33.9514 467.219 2.34826 499.525 0.481402 501.493C-3.38565 505.546 105.559 411.522 322.38 224.054C483.063 85.1035 495.198 74.7979 497.198 74.7979C497.865 74.7979 501.465 77.8085 505.199 81.3981C508.933 85.1035 550.003 120.652 596.541 160.369C643.079 200.201 700.285 249.181 723.754 269.329C772.426 311.015 920.174 437.113 955.111 466.755C978.98 487.135 1052.59 547.694 1056.72 550.589C1058.85 551.979 1060.72 550.821 1074.72 539.01C1104.99 513.651 1147.93 478.103 1165.8 463.745C1199 437.113 1234.07 409.091 1285.81 367.869C1314.08 345.289 1339.15 325.257 1341.55 323.289L1345.95 319.815L1407.82 373.542C1458.63 417.659 1469.83 426.807 1469.83 424.491C1469.83 422.87 1478.23 346.331 1488.36 254.276C1498.5 162.221 1506.77 86.8403 1506.5 86.6087C1506.37 86.493 1500.37 86.8403 1493.03 87.5351C1475.43 89.1562 1117.53 118.799 1115.79 118.799C1115.13 118.799 1142.33 143 1176.33 172.527L1238.07 226.139L1197 264.813C1159.66 300.014 1132.86 325.373 1081.12 374.121C1071.12 383.616 1060.99 393.806 1058.72 396.701C1056.45 399.596 1054.59 402.027 1054.32 402.259C1053.12 403.764 1038.72 394.385 1007.12 371.574C986.981 356.984 880.437 279.982 770.426 200.433C604.676 80.5876 551.604 42.0287 495.731 0.574951C493.198 -1.27771 492.264 -0.467163 461.061 30.681Z" fill="#293148"/>
</svg>
