<svg width="553" height="284" viewBox="0 0 553 284" fill="none" xmlns="http://www.w3.org/2000/svg">
<path d="M547.675 56.58L545.005 5L500.665 29.09L501.665 33.09L518.435 41.65L439.525 196.3L189.085 264.4L15.9549 146.24C14.4207 145.192 12.5331 144.797 10.7074 145.141C8.88173 145.485 7.26754 146.541 6.21993 148.075C5.17233 149.609 4.77712 151.497 5.12125 153.323C5.46538 155.148 6.52066 156.762 8.05494 157.81L183.815 277.78C184.993 278.585 186.388 279.01 187.815 279C188.434 279.001 189.049 278.917 189.645 278.75L446.195 209C447.137 208.744 448.015 208.295 448.772 207.68C449.53 207.065 450.151 206.299 450.595 205.43L530.915 48.05L547.675 56.58Z" stroke="#356BB3" stroke-width="10" stroke-linecap="round" stroke-linejoin="round"/>
</svg>
