<svg width="50" height="49" viewBox="0 0 50 49" fill="none" xmlns="http://www.w3.org/2000/svg">
<path d="M39.97 32.53L47.35 34.21L49.05 26.73L41.97 25.12C41.97 24.91 41.97 24.7 41.97 24.49C41.9837 22.2241 41.5381 19.9789 40.66 17.89L46.41 13.31L41.63 7.31L36.13 11.69C34.2019 10.0223 31.9218 8.81215 29.46 8.14999V1H21.79V7.89C19.2468 8.38046 16.8512 9.45163 14.79 11.02L9.23 6.59L4.45 12.59L9.87 16.91C8.72425 19.1825 8.10883 21.6853 8.07001 24.23L1 25.85L2.71001 33.33L9.71001 31.74C10.7643 33.9842 12.2968 35.9707 14.2 37.56L10.95 44.29L17.87 47.62L21.06 40.99C22.3689 41.3131 23.7118 41.4777 25.06 41.48C26.1407 41.4783 27.2188 41.3746 28.28 41.17L31.58 48.03L38.5 44.7L35.28 38.03C37.2237 36.5584 38.824 34.6817 39.97 32.53ZM17.52 24.53C17.518 23.0403 17.958 21.5835 18.7842 20.3438C19.6104 19.1042 20.7857 18.1375 22.1615 17.5661C23.5372 16.9946 25.0516 16.8441 26.5129 17.1335C27.9742 17.4229 29.3169 18.1393 30.371 19.192C31.4251 20.2446 32.1432 21.5863 32.4346 23.0473C32.7259 24.5082 32.5774 26.0228 32.0078 27.3993C31.4381 28.7758 30.473 29.9524 29.2345 30.7803C27.996 31.6081 26.5397 32.05 25.05 32.05C24.0586 32.05 23.077 31.8542 22.1615 31.474C21.2459 31.0937 20.4145 30.5363 19.7149 29.8339C19.0152 29.1315 18.4612 28.2979 18.0845 27.3808C17.7079 26.4638 17.5161 25.4814 17.52 24.49V24.53Z" stroke="#263238" stroke-linecap="round" stroke-linejoin="round"/>
</svg>
