<svg width="950" height="620" viewBox="0 0 950 620" fill="none" xmlns="http://www.w3.org/2000/svg">
<g clip-path="url(#clip0_307_1559)">
<rect width="950" height="620" fill="#356BB3"/>
<path d="M781.68 324.4L779.37 333.08L766.84 337.31L763.09 332.91L761.27 333.41L764.669 346.53L769.76 347.1L776.549 349.67V352.24L779.659 351.67L784.19 345.4V340.27L786.74 335.14L789.57 335.71L786.169 328.58L785.65 323.99L781.68 324.4Z" fill="#D1E5F0"/>
<path d="M852.761 348.29L852.391 372.73L855.911 372.54L860.541 367.13L864.431 367.32L866.931 369.56L867.761 376.46L875.721 380.66L877.761 379.91V377.39L871.371 372.07L868.221 364.79L870.721 363.58L868.871 359.57L865.171 359.48L864.241 355.19L854.431 348.57L852.761 348.29Z" fill="#D1E5F0"/>
<path d="M137.49 225.43L142.32 240.64L140.07 241.9L140.32 244.92L144.57 248.19V254.24L149.82 259.28L147.57 244.42L144.57 234.59L145.32 227.79L147.82 228.04L148.82 230.31L147.82 236.1L160.82 261.54V270.61L171.32 282.95L182.82 288.24L187.57 285.47L194.32 291.01L198.32 286.98L196.57 282.44L202.32 280.68L204.07 281.69L205.82 279.93H208.57L213.57 271.11L211.07 268.84L201.32 271.11L199.07 277.66L193.32 278.67L186.57 275.9L183.57 266.33L185.84 254.26L181.2 251.37L178.99 239.78L177.14 238.99L173.76 242.42L169.88 240.35L168.36 232.62L152.99 231.01L145.05 225.04L137.49 225.43Z" fill="#D1E5F0"/>
<path d="M517.77 143.66L512.17 143.46L508.62 145.63L508.57 147.24L510.87 149.41L518.02 150.62L517.77 143.66Z" fill="#D1E5F0"/>
<path d="M473.88 227.49L469.8 226.12L452.82 229.31L449.12 232.12L451.38 243.79L444.63 244.06L440.57 250.59L430.9 252.91L430.93 257.66L462.78 282.01L468.21 282.47L486.32 268.32L484.51 266.04L481.11 265.58L479.07 262.16V248.01L477.71 246.64L477.94 242.99L474.32 239.34L473.87 235.46L475.45 234.32L474.77 230.21L473.88 227.49Z" fill="#D1E5F0"/>
<path d="M448.29 232.28H436.74L434.48 237.3L429.27 239.81L424.97 251.45L416.59 256.47L404.82 275.86L416.37 275.63L416.82 269.93H419.76V262.17H429.95L430.18 252.13L439.92 249.85L444 243.23L450.34 243L448.29 232.28Z" fill="#D1E5F0"/>
<path d="M404.9 276.66L407.08 279.51L406.63 291.83L409.8 289.55L412.06 289.09L415.23 290.23L418.85 295.25L422.25 292.97L438.78 292.74L434.7 265.13L439.08 265.11L430.92 258.86L430.93 262.92L420.6 262.93L420.55 270.68L417.58 270.67L417.2 276.39L404.9 276.66Z" fill="#D1E5F0"/>
<path d="M410.12 290.32L406.18 293.18L405.28 294.78L405 296.38L406.45 297.42L411.29 297.35L414.4 296.51L414.75 298.04L414.47 300.06L417.44 301.52L418.06 302.22L422 302.36L422.14 300.62L418.54 296.3L414.53 290.87L412.04 289.83L410.12 290.32Z" fill="#D1E5F0"/>
<path d="M406.89 298.34L406.76 299.45L413.68 299.35L414.03 298.32L413.88 297.28L411.89 298.09L406.89 298.34Z" fill="#D1E5F0"/>
<path d="M406.789 300.22L408.029 303.23L408.719 301.37L417.129 302.25L413.489 300.38L406.789 300.22Z" fill="#D1E5F0"/>
<path d="M408.6 304.53L410 307.3L413.93 303.92L413.97 302.88L409.34 302.21L408.6 304.53Z" fill="#D1E5F0"/>
<path d="M410.42 307.94L413.46 312.62L417.42 309.18L421.48 309L424.86 313.49L427.73 315.38L428.81 313.28L429.77 312.74L429.7 308.12L427.79 302.64L421.93 303.29L414.68 302.71L414.64 304.57L410.42 307.94Z" fill="#D1E5F0"/>
<path d="M413.93 313.13L419.58 318.59L423.61 313.7L421.09 309.75L417.62 310.1L413.93 313.13Z" fill="#D1E5F0"/>
<path d="M420.17 319.19L431.15 326.53L430.89 320.97L427.57 317.06L424.33 314.19L420.17 319.19Z" fill="#D1E5F0"/>
<path d="M432.071 326.75L436.351 323.72L441.671 322.79L447.101 323.96L444.331 319.77L443.521 317.21L444.331 309.64L439.481 309.87L437.281 307.77L432.661 307.89L430.461 308.24L430.691 313.36L429.531 313.83L428.141 316.39L431.721 320.58L432.071 326.75Z" fill="#D1E5F0"/>
<path d="M419.461 295.84L422.541 293.73L439.661 293.63L435.701 266.09L440.221 265.96L462.091 282.65L465.031 283.07L463.921 292.35L450.171 293.6L439.561 301.52L437.631 306.94L430.261 307.25L428.381 301.84L422.731 302.24L422.951 300.47L419.461 295.84Z" fill="#D1E5F0"/>
<path d="M450.591 294.28L454.231 293.99L460.201 302.43L454.661 306.61L450.651 305.58L445.261 305.65L444.391 308.81L439.871 309.03L438.631 307.34L440.231 302.2L450.591 294.28Z" fill="#D1E5F0"/>
<path d="M460.889 302L463.439 301.94L465.739 298.49L469.599 297.8L473.709 300.31L482.479 300.56L489.259 297.8L491.809 295.61L491.999 292.73L496.729 287.96L497.979 277.43L494.869 270.91L486.909 268.97L468.489 283.33L465.879 283.08L464.759 293.05L455.359 293.99L460.889 302Z" fill="#D1E5F0"/>
<path d="M444.34 317.05L445.46 319.68L448.38 324.26L450 324.2L454.42 321.69L454.11 307.4L450.69 306.4L445.9 306.53L444.34 317.05Z" fill="#D1E5F0"/>
<path d="M455.22 321.25L457.9 319.68L457.84 309.33L456.1 306.51L454.98 307.45L455.22 321.25Z" fill="#D1E5F0"/>
<path d="M458.71 319.49H460.83L460.95 313.47L463.63 309.58L463.51 302.81L461.08 302.75L456.91 306.01L458.65 309.33L458.71 319.49Z" fill="#D1E5F0"/>
<path d="M461.57 319.37L465.49 319.56L470.22 324.83L472.52 325.46L474.32 324.58L477.06 324.2L477.99 320.38L481.72 317.93L485.76 317.74L493.16 304.13L493.04 301.06L489.62 298.43L482.78 301.44L473.63 301.31L469.27 298.55L466.16 299.24L464.54 302.06L464.42 310.02L461.81 313.72L461.57 319.37Z" fill="#D1E5F0"/>
<path d="M474.911 227.33L480.441 225.1L482.261 226.28L482.331 227.72L481.481 228.83L481.611 230.8L482.461 231.26V234.8L481.481 236.44L481.611 237.49L485.321 238.8L482.331 243.45L481.161 243.38L480.961 247.12L479.661 247.32L478.551 246.34L478.811 242.54L475.171 239L474.711 235.92L476.471 234.54L474.911 227.33Z" fill="#D1E5F0"/>
<path d="M480.05 248.03L481.61 247.77L482.07 244.17H482.85L486.04 238.93L493.91 241.22L496.06 244.56L503.8 248.1L507.83 246.4L507.44 244.7L505.68 243L505.88 241.82L508.74 239.4H514.4L516.55 242.28L521.1 242.94L521.69 279.83L518.31 279.7L497.89 269.08L495.68 270.33L487.29 268.23L485.01 265.22L481.69 264.76L480 261.75L480.05 248.03Z" fill="#D1E5F0"/>
<path d="M521.93 243.06L524.6 243.13L529.8 244.57L532.27 244.64L535.33 242.08H536.76L539.36 243.52H542.65L543.24 243.48L545.32 249.46L545.91 251.39L546.46 254.28L545.48 255L543.79 254.15L541.84 247.79L540.08 247.66L539.95 249.82L541.12 253.56L550.49 265.16L550.69 270.14L547.96 273.29L522.32 273L521.93 243.06Z" fill="#D1E5F0"/>
<path d="M492.789 296L492.919 293.05L497.659 288.44L498.929 277.12L495.769 271.08L497.979 269.95L519.379 281.1L519.249 292.04L515.479 295.25V300.89L517.949 305.67H513.589L506.369 312.81L506.179 314.97L500.849 314.9L500.779 315.88L497.739 315.48L495.659 311.55L494.099 310.78L494.299 309.58L496.259 308.08V301.06L493.549 300.64L490.279 298.21L492.789 296Z" fill="#D1E5F0"/>
<path d="M549.084 310.34L546.141 305.396L545.832 301.801L545.125 301.936L544.934 303.043L541.076 308.678L537.998 307.209L534.928 309.781L528.576 309.416L525.766 307.17L521.732 309.234L521.58 310.609L520.35 311.35L532.67 324.029L539.381 324.41L540.359 325.9L549.961 326.07L550.039 323.92L550.859 322.43L554.061 322.02L550.07 316.23H547.131L546.381 312.119L548.74 311.08L549.084 310.34Z" fill="#D1E5F0"/>
<path d="M552 270.609L548.311 274.33L522.51 274.1L522.789 280.67L520.33 280.6L520.15 292.43L516.42 295.641L516.27 300.58L518.961 305.891L521.91 307.631L521.865 308.045L525.885 305.986L528.951 308.436L534.59 308.76L537.848 306.031L540.734 307.406L543.984 302.658L544.258 301.082L546.734 300.611L547.119 305.082L549.596 309.242L555.6 296.33V288.48L559.961 283.34L552 270.609Z" fill="#D1E5F0"/>
<path d="M477.82 324.28L481.04 327.24L480.81 331.82L498.47 331.41L499.91 329.79L494.85 324.34L494.1 322.37L497.32 316.34L495.13 312.34L493.29 311.35V309.32L495.42 307.93L495.54 301.61L493.85 301.42L493.82 304.74L486.4 318.59L481.86 318.82L478.75 320.96L477.82 324.28Z" fill="#D1E5F0"/>
<path d="M556.711 294.7L556.461 288.81L560.421 284.19L561.491 285.01L563.441 291.53L572.801 298.5L571.101 300.59L564.251 294.7H556.711Z" fill="#D1E5F0"/>
<path d="M571.48 301.54L570.91 304.9L574.87 304.84L574.93 299.9L573.48 299.01L571.48 301.54Z" fill="#D1E5F0"/>
<path d="M549.49 311.76L556.77 295.56L564 295.6L570.41 301.17L569.96 305.76H574.93L575.44 308.52L583.48 313.33L588.44 313.58L579.01 323.71L566.06 327.7H562.85L557.13 322.82L554.87 321.87L550.49 315.42L547.6 315.46L547.26 312.5L549.49 311.76Z" fill="#D1E5F0"/>
<path d="M575.74 305.04L579.82 307.82L581.03 307.76L591.16 304.28L592.31 307.99L591.5 311.12L589.31 312.86L583.84 312.51L576.01 307.7L575.74 305.04Z" fill="#D1E5F0"/>
<path d="M599.619 299.65L601.749 302.03L604.629 300.29L605.669 299.94L604.349 298.66L601.819 299.41L599.619 299.65Z" fill="#D1E5F0"/>
<path d="M591.97 304.05L596.34 302.37L597.89 303.3L597.72 307.18L593.69 318.66L571.88 342.02L569.35 340.28L569.18 330.42L572.46 326.65L579.42 324.5L589.63 313.72L592.3 311.34L593.05 307.86L591.97 304.05Z" fill="#D1E5F0"/>
<path d="M495.66 324.05L500.32 329.09L502.16 326.71L505.09 326.83L505.72 324.51L508.6 322.71L514.58 326.83L518.03 323.41L531.42 324L519 311.18L520.67 310.14L520.9 307.88L518.08 306.55H513.94L507.27 313.16L507.04 315.88L501.75 315.71L501.58 316.87L498.13 316.52L495.02 322.43L495.66 324.05Z" fill="#D1E5F0"/>
<path d="M470.74 337.15L471.89 336.57L472.75 337.27L471.89 338.6L470.85 338.19L470.74 337.15Z" fill="#D1E5F0"/>
<path d="M473.051 333.5L474.781 333.21L475.361 334.31L474.501 335.24L473.641 335.12L473.051 333.5Z" fill="#D1E5F0"/>
<path d="M476.841 327.41L476.381 329.38L477.761 330.13L479.081 329.14L478.621 327.11L476.841 327.41Z" fill="#D1E5F0"/>
<path d="M486.39 332.63L486.27 335.12L480.63 335L477.18 341.67L485.29 350.54L487.3 348.86L487.24 347.12L485.86 346.48V345.26L488.97 343.29L491.73 345.38L494.78 345.44L494.72 334.95L489.89 334.72L489.83 332.52L486.39 332.63Z" fill="#D1E5F0"/>
<path d="M480.99 332.69L480.93 334.08L485.47 334.31L485.41 332.74L480.99 332.69Z" fill="#D1E5F0"/>
<path d="M490.999 332.52L490.939 333.97L495.719 334.09L495.889 346.5L491.519 346.38L488.989 344.41L487.029 345.51L486.939 346.06L487.949 346.55L488.239 349.1L485.539 351.42L486.119 352.64L489.109 350.32H490.549L491.009 351.71L492.909 352.52L499.009 347.36L498.889 343.59L500.159 340.52L504.069 337.62L505.119 327.81L502.339 327.82L499.119 332.23L490.999 332.52Z" fill="#D1E5F0"/>
<path d="M486.551 353.23L488.291 355.49L490.541 353.36L489.881 351.15L489.321 351.11L486.551 353.23Z" fill="#D1E5F0"/>
<path d="M489.381 355.71L499.691 355.53L501.781 358.5L501.701 360.69L502.471 361.39H507.591L509.061 358.5H511.151L512.001 359.36L514.871 359.28L515.721 369.36L520.681 369.52V370.3L534.011 376.31L534.631 377.48H537.421L537.111 373.26L532.071 370.84L532.381 367.64L534.551 362.56L539.511 362.4L535.251 348.26L535.331 342.25L542.071 331.71L542.151 330.23L541.141 329.68L541.181 326.82L539.951 326.71L538.711 325.13L518.361 324.21L514.631 327.84L508.521 323.82L506.371 325.14L504.811 338.27L500.951 341.25L499.791 343.89L500.001 347.8L493.041 353.49L491.191 352.65L491.441 353.74L489.381 355.71Z" fill="#D1E5F0"/>
<path d="M537.82 339.9L540.63 342.49L540.51 345.26L536.15 345.35V342.29L537.82 339.9Z" fill="#D1E5F0"/>
<path d="M536.209 346.21L540.479 346.12L539.369 349.86L538.289 350.8H536.969L536.029 348.27L536.209 346.21Z" fill="#D1E5F0"/>
<path d="M538.301 339.09L541.331 341.93L543.231 340.72L548.371 339.88L549.251 339.97L549.581 338.02L552.481 331.92L550.041 326.84L542.131 326.89L542.081 328.98L543.141 330L542.981 332.09L538.301 339.09Z" fill="#D1E5F0"/>
<path d="M550.831 326.52L553.491 331.71L550.301 338.4L549.881 340.43L565.811 350.28L570.751 342.52L568.251 340.49L568.201 330.27L571.331 326.85L566.341 328.51L562.571 328.56L556.671 323.58L554.811 322.78L551.361 323.1L550.751 324.12L550.831 326.52Z" fill="#D1E5F0"/>
<path d="M550.57 371.42L568.04 369.28L564.11 361.68L563.901 354.4L565.17 350.92L548.55 340.48L543.341 341.34L541.531 342.68L541.37 345.73L540.201 349.96L538.98 351.41L537.23 351.57L540.581 363.18L546.05 365.75L549.82 365.86L550.57 371.42Z" fill="#D1E5F0"/>
<path d="M514.551 384.7L517.721 389.1L522.631 389.4L524.371 390.36L529.511 390.42L533.941 384.21L546.321 378.67L547.401 373.79L545.961 366.8L539.501 363.12L535.191 363.42L533.041 368.18L533.101 370.35L538.181 372.82L538.481 378.19L534.111 378.43L533.031 376.62L520.891 371.44L520.531 375.42L514.791 375.6L514.551 384.7Z" fill="#D1E5F0"/>
<path d="M488.621 356.71L492.031 369.44L491.951 373.46L486.961 378.82L486.211 387.53L505.411 387.7L511.651 389.96L516.801 389.29L513.801 385.53L513.811 374.79L519.711 374.54V370.35L514.921 370.15L513.961 360.23L511.941 360.26L510.851 359.28L509.661 359.34L508.081 362.4H502.001L500.591 360.98L501.011 358.97L499.351 356.54L488.621 356.71Z" fill="#D1E5F0"/>
<path d="M547.159 379.4L550.269 382.65L550.209 386.81L550.809 388.56L554.939 384.1L554.459 378.43L552.249 376.74L550.279 366.79L546.869 366.67L548.419 373.84L547.159 379.4Z" fill="#D1E5F0"/>
<path d="M541.17 413.28L543.86 415.51L550.2 411.65L551.22 405.92V396.46L561.39 388.14L563.13 388.2L569.29 382.29L568.33 370.11L552 372.17L552.48 375.85L555.29 378.02L555.95 384.65L550.45 390.02L549.13 387.01L549.37 383.03L546.2 379.59L538.42 383.21L545.66 386.89L545.9 397.62L541.11 404.73L541.17 413.28Z" fill="#D1E5F0"/>
<path d="M524.66 392.3L533.63 402.43L540.51 404.18L545.12 396.95L544.76 387.37L537.281 383.51L534.47 384.78L530.281 391.17L524.48 391.11L524.66 392.3Z" fill="#D1E5F0"/>
<path d="M496.55 421.96L499.9 422.2L501.87 424.19L506.54 424.25L507.68 410.99V402.31L510.67 401.71L511.81 392.61L519.41 392.37L522.1 390.14L517.55 389.96L511.39 390.8L504.75 388.39H486.09L486.57 393.69L492.79 402.85L491.71 407.55L491.77 410.02L496.55 421.96Z" fill="#D1E5F0"/>
<path d="M508.51 411.23L510.66 411.89L510.36 418.04L512.57 418.34L517.65 413.76L523.75 414.42L525.37 410.32L533.09 403.27L523.82 392.6L523.7 390.85L522.68 390.55L519.87 393.14L512.57 393.32L511.55 402.42L508.68 403.08L508.51 411.23Z" fill="#D1E5F0"/>
<path d="M540.869 414L538.359 414.42L537.279 417.37L539.199 419.12H541.529L543.499 416.29L540.869 414Z" fill="#D1E5F0"/>
<path d="M527.409 425.39L530.46 423.04L531.9 423.1L533.64 425.27L533.46 427.44L530.53 428.52V429.36L527.299 429.18L526.52 426.83L527.409 425.39Z" fill="#D1E5F0"/>
<path d="M534.159 403.63L526.259 410.93L524.379 415.44L518.119 414.66L512.909 419.29L509.449 418.95L509.729 412.55L508.499 412.12L507.639 425.21L501.499 425.15L499.649 422.97L496.939 422.94L499.409 430.03L503.819 434.2L500.669 437.87L502.709 442.47L507.429 444.27L511.189 441.07L521.959 441.13L522.729 440.17L527.509 439.33L543.679 423.23L543.619 418.16L541.889 420.4H539.299L536.149 417.76L537.749 413.78L540.499 413.22L540.249 405.04L534.159 403.63ZM530.369 422.13L531.879 422.07L534.329 424.73L534.259 427.81L531.389 429.26L531.209 430.28L526.829 430.33L525.459 427.03L526.709 424.61L530.369 422.13Z" fill="#D1E5F0"/>
<path d="M321.13 50.0701L319.77 52.2401L322.22 54.6901L321.13 57.1401L324.67 61.7601L329.02 60.4001L334.73 59.8601L341.26 66.9301L345.61 78.6201L342.08 85.9601L346.97 85.1401L349.69 86.7701L349.96 90.3101L343.98 90.5801L347.24 93.8401L351.32 94.6601L342.35 106.62L341.26 113.96L343.16 119.94L341.8 123.48L344.25 131.09L348.87 136.26L350.23 135.99L353.22 135.17L353.49 139.52L355.39 142.24L358.92 141.97L361.64 131.91L369.8 121.85L382.04 116.96L389.65 107.44L393.18 109.07H400.52L406.5 103.09L413.84 100.1L414.66 95.4801L410.04 91.4001L405.96 90.0401L403.78 84.3301L408.95 81.3401L417.11 85.6901L419.83 82.7001L415.48 80.2501L424.73 67.7401L423.1 62.3001L418.75 62.0301L420.38 57.1401L425.82 54.6901L436.97 44.9001L433.71 41.3701L421.2 42.4601L414.67 48.9901L418.48 40.5601L414.13 39.4701L411.68 43.8201L408.15 40.8301L398.36 41.9201L401.08 37.5701L417.12 37.0301L413.04 31.5901L395.64 28.3301L388.57 29.4201L388.84 32.9601L381.5 30.5101L381.77 28.0601L376.6 29.1501L375.51 31.8701L380.95 33.7701L375.24 37.8501L371.16 33.2301L365.45 31.6001L364.63 35.9501H358.92L356.74 31.3301L347.77 29.9701L342.88 32.4201L342.61 35.6801L336.36 34.8601L332.55 36.4901L332.82 40.3001V42.2001L325.75 43.5601L322.49 41.3901L320.31 44.9201L323.57 48.4601L330.37 47.6401L330.91 49.8201L325.74 52.2701L321.13 50.0701Z" fill="#D1E5F0"/>
<path d="M342.891 92.49L344.521 94.94L343.701 97.93H342.071L339.891 95.48L340.431 93.58L342.891 92.49Z" fill="#D1E5F0"/>
<path d="M410.87 85.6899L415.49 87.0499L415.22 90.8599L410.33 88.4099L409.24 87.0499L410.87 85.6899Z" fill="#D1E5F0"/>
<path d="M388.52 622.99L392.35 617.88L407.24 610.22L409.79 604.69L416.17 603.41L422.13 595.75L428.09 595.32L429.37 589.36L434.48 585.53L438.74 586.81L451.08 582.98L454.06 585.96L459.59 586.39L464.7 583.84L495.34 583.41L506.4 586.39L520.44 583.41L525.12 583.84L526.4 579.58H531.08L537.46 586.39L549.38 578.73L562.57 574.9L567.25 577.88L567.68 571.92L574.49 571.07L581.72 574.47V577.87L600.02 585.53L605.13 585.1L607.26 587.65L601.3 594.46V599.14L606.83 602.12L608.11 599.14L633.22 589.35L651.52 587.65L655.35 589.78L669.82 591.91L673.22 593.19L677.9 590.64L684.71 590.21L691.09 594.89L691.52 600L705.99 597.02L708.12 597.87L708.97 602.55L722.16 606.81L726.42 603.83L726.85 607.66L731.53 608.09L737.91 613.2L743.87 610.65L748.98 611.08H752.81L755.36 610.65L755.79 617.46L764.3 622.57L388.52 622.99Z" fill="#D1E5F0"/>
<path d="M260.01 622.99L273.63 619.16L274.48 615.33L288.95 611.93L297.46 614.06L316.18 606.4L315.75 598.32L310.22 589.81L311.5 587.68L309.37 582.15V576.19H312.77L310.64 571.93L325.96 558.74L325.53 564.7L322.55 565.55L319.57 570.66L322.55 571.94L319.57 576.2L316.17 575.35L314.47 579.18L314.9 584.29L320.01 583.86L323.41 588.54L324.69 594.5L331.5 603.01L331.93 613.65L329.38 614.93L331.51 620.46L330.23 622.59L260.01 622.99Z" fill="#D1E5F0"/>
<path d="M250.221 615.33L255.331 614.48L257.461 616.18L256.611 618.31L256.181 620.86L253.201 622.14L251.071 619.59H242.561V617.89L246.391 617.04L250.221 615.33Z" fill="#D1E5F0"/>
<path d="M304.69 587.67L300.43 588.52L302.98 593.2L305.96 594.48L304.68 597.03V598.73L296.59 600.86L297.44 603.41L300.84 604.69L304.67 601.71L308.07 602.56L305.94 605.96L307.22 606.81L311.05 605.11L314.03 599.58L304.69 587.67Z" fill="#D1E5F0"/>
<path d="M295.75 606.82L292.35 609.8L295.33 610.65L299.16 611.5L302.99 608.95L299.16 608.1L295.75 606.82Z" fill="#D1E5F0"/>
<path d="M319.569 556.47L317.079 556.97L316.529 559.52L321.289 558.82L319.569 556.47Z" fill="#D1E5F0"/>
<path d="M323.59 552.54L320.6 553.11L321.17 555.42L324.81 555.29L323.59 552.54Z" fill="#D1E5F0"/>
<path d="M328.34 557.17L328.36 560.73L330.41 560.82L332.07 558.18L328.34 557.17Z" fill="#D1E5F0"/>
<path d="M329.329 547.24L327.169 548.09L326.619 550.13L328.489 550.81L331.629 548.65L329.329 547.24Z" fill="#D1E5F0"/>
<path d="M761.17 427.98L760.82 453.36L756.92 456.22L756.57 458.72L761.89 462.29L775.02 459.79H781.76L784.24 456.21L799.14 453.35L809.78 456.57L809.07 460.86L810.49 465.15L818.65 463.72L819 465.86L813.68 469.79L815.45 471.22L819.35 469.79L818.29 481.59L825.74 487.31L830 485.88L832.13 488.02L844.55 486.23L856.26 467.28L860.52 466.21L869.03 450.48L871.16 436.9L865.84 430.11L867.97 428.68L863.71 415.45L859.1 412.23L859.81 394.36L855.55 391.14L854.49 381.13H852.36L845.26 404.72L841.36 405.08L832.49 396.14L837.46 382.91L828.24 381.12L817.95 383.98L815.11 392.2L810.5 393.27L810.15 387.55L791.35 398.99L791.7 403.28L788.86 407.21H781.76L766.5 413.64L761.17 427.98Z" fill="#D1E5F0"/>
<path d="M825.741 496.26L823.971 503.41L824.321 508.41L829.641 508.05L835.671 498.76L825.741 496.26Z" fill="#D1E5F0"/>
<path d="M913.02 481.96L914.08 493.76L912.66 499.12L907.34 503.05L907.69 507.7V512.7L909.11 514.49L923.66 501.98V499.12H920.11L915.14 482.32L913.02 481.96Z" fill="#D1E5F0"/>
<path d="M902.381 507.7L905.221 513.06L897.411 520.57L896.701 524.5L891.381 525.21L882.511 533.43L874.351 529.5L873.641 526.64L888.541 520.21L902.381 507.7Z" fill="#D1E5F0"/>
<path d="M906.639 420.47L906.289 422.26L910.899 428.69L913.379 429.76L913.729 427.26L906.639 420.47Z" fill="#D1E5F0"/>
<path d="M722.479 317.57L722.199 319.85L728.989 331.26H730.969L745.119 354.93L750.779 355.5L753.609 347.23L749.079 344.38L748.229 339.82L722.479 317.57Z" fill="#D1E5F0"/>
<path d="M764.141 332.92L767.161 336.41L778.741 332.4L781.031 323.56L786.191 323.19L790.911 319.77L784.791 315.31L783.391 312.86L780.371 318.43L781.481 321.63L779.641 324.3L776.171 323.41L767.761 329.58L767.981 333.15L764.141 332.92Z" fill="#D1E5F0"/>
<path d="M779.771 319.25L776.891 322.74L779.251 323.48L780.581 321.62L779.771 319.25Z" fill="#D1E5F0"/>
<path d="M789.529 349.11L791.789 351.88L790.319 356.04V356.83H793.659L794.839 346.43L795.919 346.73L797.879 356.23L799.749 356.73L801.519 352.67L799.749 346.53L798.279 343.86L802.899 340.49L801.819 339L797.399 341.87H796.219L794.059 338.7L794.749 337.31L798.389 335.53L803.889 337.21L805.559 337.11L809.689 333.25L808.019 331.57L804.189 334.54H801.729L797.999 332.76L795.349 332.86L792.399 337.61L790.529 345.83L789.529 349.11Z" fill="#D1E5F0"/>
<path d="M814.19 330.5L812.32 335.05L815.27 338.91H816.25L817.53 336.34L818.22 335.45L816.94 334.06L815.07 333.37L814.19 330.5Z" fill="#D1E5F0"/>
<path d="M819.989 345.45L815.959 346.34L814.779 347.63L815.759 349.31L818.409 348.32L820.079 347.33L822.539 349.31L823.619 348.42L821.659 346.04L819.989 345.45Z" fill="#D1E5F0"/>
<path d="M753.17 358.32L750.42 360.2L751.01 361.78L759.76 363.76L764.18 364.55L766.05 366.53L771.06 366.93L773.42 368.91L775.58 368.41L777.55 366.63L773.91 364.95L770.77 362.28L762.61 360.3L753.17 358.32Z" fill="#D1E5F0"/>
<path d="M781.769 366.93L779.609 368.12L780.889 369.51L784.029 368.32L781.769 366.93Z" fill="#D1E5F0"/>
<path d="M785.5 366.04L785.89 367.92L788.15 368.51L789.03 367.42L788.05 365.93L785.5 366.04Z" fill="#D1E5F0"/>
<path d="M790.91 370.99L788.16 371.39L790.62 373.47H792.58L790.91 370.99Z" fill="#D1E5F0"/>
<path d="M791.69 367.72L791.1 368.91L795.52 369.6L798.96 367.62L797 367.03L793.86 367.92L792.68 366.93L791.69 367.72Z" fill="#D1E5F0"/>
<path d="M806.139 368.42L801.029 372.68L801.519 373.77L803.679 373.37L806.229 370.99L811.239 370.3L810.259 368.62L806.139 368.42Z" fill="#D1E5F0"/>
<path d="M880.48 349L879.6 350.25L884.41 354.51L885.07 357.01L886.38 356.86L886.53 354.29L885.07 352.97L880.48 349Z" fill="#D1E5F0"/>
<path d="M882.89 355.03L881.94 355.25L881.36 357.82L879.54 359L874.07 359.96L874.29 362.02L880.05 361.73L883.7 359.45L883.48 355.48L882.89 355.03Z" fill="#D1E5F0"/>
<path d="M889.381 359.51L890.621 362.96L892.811 365.09L893.471 364.5L893.251 362.22L890.771 359.21L889.381 359.51Z" fill="#D1E5F0"/>
<path d="M895.43 364.65L895.58 366.93L896.97 368.25L898.28 367.44L897.11 365.01L895.43 364.65Z" fill="#D1E5F0"/>
<path d="M897.18 370.31L896.01 371.56L897.25 373.84L898.71 374.28L898.64 372.74L897.18 370.31Z" fill="#D1E5F0"/>
<path d="M900.029 368.99L901.049 371.49L903.019 373.84L904.109 372.08L902.649 369.58L900.029 368.99Z" fill="#D1E5F0"/>
<path d="M905.141 372.74L905.721 375.83L907.111 377.74L908.281 375.32L905.141 372.74Z" fill="#D1E5F0"/>
<path d="M906.74 379.65L906.23 380.53L907.91 382.74L909.081 382.81L908.35 379.94L906.74 379.65Z" fill="#D1E5F0"/>
<path d="M903.02 384.05L901.27 384.86L902.799 386.99L904.109 386.25L903.02 384.05Z" fill="#D1E5F0"/>
<path d="M920.871 397.22L919.631 398.88L920.151 400.75L920.771 401.17L921.901 399.71L920.871 397.22Z" fill="#D1E5F0"/>
<path d="M921.49 402.31L921.59 403.66L922.93 404.08L923.86 403.56L922.93 402.1L921.49 402.31Z" fill="#D1E5F0"/>
<path d="M923.45 414.37L922.83 415.31L923.76 416.35L925.31 415.83L923.45 414.37Z" fill="#D1E5F0"/>
<path d="M948.619 412.29L947.379 413.95L947.279 415.82L948.719 417.28L948.619 412.29Z" fill="#D1E5F0"/>
<path d="M789.37 297.53L788.51 299.17L788.03 301.19L783.25 307.26L783.54 308.51L785.55 308.22L791.76 301.28L789.37 297.53Z" fill="#D1E5F0"/>
<path d="M797.11 295.22L797.01 300.23L798.83 302.06L799.5 305.62L801.32 306.01L802.18 303.79L800.75 302.73L800.37 296.47L797.11 295.22Z" fill="#D1E5F0"/>
<path d="M802.28 297.15L802.18 301.58L803.23 303.31L805.05 301.19L804.57 297.34L802.28 297.15Z" fill="#D1E5F0"/>
<path d="M803.42 293.29L805.24 295.7L806.1 298.01H807.73L807.44 294.06L805.62 292.81L803.42 293.29Z" fill="#D1E5F0"/>
<path d="M806.96 302.35L807.34 305.24L803.99 307.94L801.22 308.23L798.26 311.41L798.36 312.86L801.13 311.99L803.04 310.74L804.67 314.88L807.54 316.9L808.69 316.51L809.74 315.26L807.45 312.95L808.79 311.89L810.32 313.14L811.37 311.41L810.32 309.29L810.13 304.57L806.96 302.35Z" fill="#D1E5F0"/>
<path d="M791.38 272.97L788.8 274.8L788.51 280.58L792.53 288.38L793.87 289.44L795.59 288.28L798.55 288.76L799.12 291.36L801.32 291.55L802.37 290.11L801.03 288.28L799.4 286.74L795.96 286.36L794.14 283.37L796.24 280.19L796.43 277.4L795 273.84L791.38 272.97Z" fill="#D1E5F0"/>
<path d="M792.721 290.21L793.481 292.91L794.821 293.78L795.781 292.53L794.251 290.41L792.721 290.21Z" fill="#D1E5F0"/>
<path d="M759.831 270.17L757.441 270.84L755.721 272.96L757.151 275.75L759.251 275.94L761.641 273.82L762.211 271.03L759.831 270.17Z" fill="#D1E5F0"/>
<path d="M787.461 248.31L783.92 251.01L783.73 256.21L786.79 259.77L787.55 259.1L787.461 248.31Z" fill="#D1E5F0"/>
<path d="M803.23 216.42L801.6 218.06L802.27 220.37L803.7 220.47L804.66 225.48L805.81 226.73L807.82 224.9L808.68 221.62L806.19 218.06L803.23 216.42Z" fill="#D1E5F0"/>
<path d="M812.03 213.15L809.26 215.75L809.16 218.74L809.83 219.61L813.56 216.43L813.27 213.25L812.03 213.15Z" fill="#D1E5F0"/>
<path d="M808.2 206.98L803.32 212.57L804.18 213.92L806.57 214.21L811.06 210.74L814.22 210.16L817.09 213.53L819.29 212.76L820.15 209.48L824.26 209.38L828.28 204.56L826.18 196.56L825.22 192.32L827.32 190.59L822.54 183.37L821.3 183.47L818.72 186.36V188.77L819.87 190.12L820.25 196.48L817.29 200.14L815.57 199.08L814.23 202.07L813.94 204.86L814.99 206.5L814.32 207.75L812.12 205.92H810.59L809.25 206.69L808.2 206.98Z" fill="#D1E5F0"/>
<path d="M816.43 163.44L814.9 164.79L815.67 167.68L817.01 169.03L816.91 173.46L815.19 174.13L813.85 177.12L817.77 182.51L820.35 181.64L820.83 180.29L818.06 177.79L819.78 175.57L821.6 175.86L823.03 177.4L823.13 174.22L827.05 171.04L829.25 170.46L827.43 167.38L826.57 166.03L825.14 166.99L823.9 168.53L821.22 167.95L818.45 166.12L816.43 163.44Z" fill="#D1E5F0"/>
<path d="M830.86 160.45L828.18 164.21L828.37 166.04L829.71 165.46L832.86 161.51L830.86 160.45Z" fill="#D1E5F0"/>
<path d="M834.399 154.96L833.439 157.56L833.539 159.29L835.169 158.23L836.699 155.15V154L834.399 154.96Z" fill="#D1E5F0"/>
<path d="M840.041 132.03L838.801 133.57L838.901 135.98L840.051 135.88L841.961 132.51L840.041 132.03Z" fill="#D1E5F0"/>
<path d="M837.75 137.91V142.15L839.09 142.63L840.05 141.09V137.82L837.75 137.91Z" fill="#D1E5F0"/>
<path d="M798.641 122.59L798.551 128.76L806.291 140.71L809.061 151.11L813.941 160.36L815.851 161.03L817.481 159.68L818.241 157.46L811.261 149.85L811.451 145.9L812.981 145.23L813.361 142.92L799.691 123.56L798.641 122.59Z" fill="#D1E5F0"/>
<path d="M852.57 103.42L850.66 103.61L851.81 105.25L854.2 106.89L854.87 106.12L852.57 103.42Z" fill="#D1E5F0"/>
<path d="M856.289 104.58L856.579 106.22L859.539 107.09L859.829 105.93L856.289 104.58Z" fill="#D1E5F0"/>
<path d="M872.539 110.87L873.789 113.11L875.869 112.97L876.289 111.43L872.539 110.87Z" fill="#D1E5F0"/>
<path d="M893.51 114.37L895.18 117.45L896.43 116.05V113.95L893.51 114.37Z" fill="#D1E5F0"/>
<path d="M907.809 104.57L905.449 107.65L905.999 109.05L908.919 107.23L909.199 105.41L907.809 104.57Z" fill="#D1E5F0"/>
<path d="M919.609 94.92L917.529 97.44L919.749 98.28L919.609 94.92Z" fill="#D1E5F0"/>
<path d="M922.531 90.72L921.141 92.96L921.281 95.2L923.221 94.36L922.531 90.72Z" fill="#D1E5F0"/>
<path d="M881.289 38.39L878.929 39.93L878.369 41.89L879.479 43.15L881.979 42.31L884.479 43.15L885.869 43.57L885.729 38.95L881.289 38.39Z" fill="#D1E5F0"/>
<path d="M69.1699 53.35L72.6299 59.82L74.8499 59.32V57.08L69.1699 53.35Z" fill="#D1E5F0"/>
<path d="M883.401 17.54L879.181 25.11L887.261 30.22L896.311 22.63L901.811 31.8L896.071 32.98L893.801 38.86L906.511 56.08L914.161 57.35L925.191 59.52L926.551 55.52L930.401 57L931.131 73.75L924.001 85.62L927.441 86.37L936.421 67.45L939.151 53.29L933.611 50.7L932.721 31.7L936.991 32.53L936.951 43.96L941.611 48.03L944.331 38.1L942.151 32.2L948.731 35.35L949.421 0.359985L873.661 0.499985L869.301 3.84999L869.891 10.62L883.321 12.46L893.631 10.11L889.931 17.03L883.401 17.54Z" fill="#D1E5F0"/>
<path d="M1.16992 54.9499L15.1799 56.5199L17.5199 61.3599L28.6799 54.8199L47.3599 52.2099L48.6599 42.5399L57.9999 39.1399L64.0999 33.3899V41.2299L70.3299 49.7299L83.2999 41.4999L77.0699 34.4399L69.2899 13.3999L59.9399 2.66995L53.3199 2.14995L53.0599 7.89995L47.6099 10.6499L45.9199 7.24995L49.1599 0.319946L1.29992 0.449946L1.16992 54.9499Z" fill="#D1E5F0"/>
<path d="M78.4896 3.31995L74.5996 6.84995L75.7696 9.45995L77.8496 8.01995L79.0196 9.32995L82.8996 7.89995L82.7696 5.67995L78.4896 3.31995Z" fill="#D1E5F0"/>
<path d="M49.6602 110.26L49.4902 113.27L51.6502 112.77V111.43L49.6602 110.26Z" fill="#D1E5F0"/>
<path d="M46.3395 111.6L42.0195 113.78L42.6895 116.12L44.3495 114.78L47.6695 113.27L46.3395 111.6Z" fill="#D1E5F0"/>
<path d="M28.3904 114.44L25.4004 113.77L24.9004 115.11L25.2304 117.62L28.3904 114.44Z" fill="#D1E5F0"/>
<path d="M22.0702 114.28L19.2402 113.11L18.2402 114.95L20.0702 116.79L22.0702 114.28Z" fill="#D1E5F0"/>
<path d="M12.2694 111.6L10.9394 109.76L9.60938 110.26V112.77L11.1094 113.77L12.2694 111.6Z" fill="#D1E5F0"/>
<path d="M1.4707 99.71L3.1307 100.88L2.6307 102.22H1.4707V99.71Z" fill="#D1E5F0"/>
<path d="M622.759 499.62L622.609 503.91L628.549 505.29L629.919 501.76L627.789 502.37L625.049 502.98L624.289 499.76L622.759 499.62Z" fill="#D1E5F0"/>
<path d="M613.01 398.99L611.49 400.98L611.79 403.13L614.99 400.52L613.01 398.99Z" fill="#D1E5F0"/>
<path d="M607.379 402.37L605.099 402.52L604.949 404.51L606.469 404.82L608.749 403.75L607.379 402.37Z" fill="#D1E5F0"/>
<path d="M592.301 372.92L590.171 377.98L586.521 384.42L580.131 384.88L577.391 388.1L577.851 397.92L573.891 402.52L574.351 410.34L577.701 414.17L581.661 413.71L585.621 410.79L584.711 406.19L593.841 390.39L592.011 388.4L593.841 384.57L595.821 385.18L596.431 383.65L594.601 375.83L593.531 372.61L592.301 372.92Z" fill="#D1E5F0"/>
<path d="M577.689 371.23L578.149 372.76L580.129 373.07L580.889 371.08L577.689 371.23Z" fill="#D1E5F0"/>
<path d="M580.58 374.3L581.34 375.99H582.56L583.17 373.84L580.58 374.3Z" fill="#D1E5F0"/>
<path d="M602.35 358.34L601.74 359.57L603.41 360.95L604.63 359.57L602.35 358.34Z" fill="#D1E5F0"/>
<path d="M610.881 349.14L609.051 350.37L610.421 352.52H612.251L610.881 349.14Z" fill="#D1E5F0"/>
<path d="M611.64 354.51L610.42 355.89L611.33 357.27L613 357.58L613.15 354.66L611.64 354.51Z" fill="#D1E5F0"/>
<path d="M656.4 320.76L656.7 323.37L658.37 323.98L658.67 321.68L656.4 320.76Z" fill="#D1E5F0"/>
<path d="M658.531 326.28L658.381 329.5L659.601 330.11L660.671 327.96L658.531 326.28Z" fill="#D1E5F0"/>
<path d="M658.84 332.57L657.77 333.64L658.99 334.71L660.51 333.64L658.84 332.57Z" fill="#D1E5F0"/>
<path d="M372.639 217.02L371.279 218.39L373.719 219.76L373.989 217.85L372.639 217.02Z" fill="#D1E5F0"/>
<path d="M379.97 216.2L378.34 217.29L379.7 218.38L381.87 217.83L379.97 216.2Z" fill="#D1E5F0"/>
<path d="M381.05 220.03L380.24 222.22L381.32 223.59L382.68 222.5L381.05 220.03Z" fill="#D1E5F0"/>
<path d="M387.56 224.4L387.02 225.77L387.83 226.59L390 225.22L387.56 224.4Z" fill="#D1E5F0"/>
<path d="M408.18 236.42L407.1 237.79L408.18 239.16L409.81 238.34L408.18 236.42Z" fill="#D1E5F0"/>
<path d="M415.619 253.73L413.869 254.74L414.679 255.56L415.619 253.73Z" fill="#D1E5F0"/>
<path d="M409.539 253.92L407.369 254.47L408.449 256.11H410.079L409.539 253.92Z" fill="#D1E5F0"/>
<path d="M404.38 252.28L403.02 253.65L404.92 255.29L406 252.83L404.38 252.28Z" fill="#D1E5F0"/>
<path d="M387.56 290.54L385.66 291.63L387.02 292.72L388.65 291.9L387.56 290.54Z" fill="#D1E5F0"/>
<path d="M392.23 292.74L390.99 293.84L391.87 295.47L393.99 294.52L392.23 292.74Z" fill="#D1E5F0"/>
<path d="M389.52 295.83L387.93 296.78L389.64 299.07L390.99 298.36L389.52 295.83Z" fill="#D1E5F0"/>
<path d="M9.99938 248.7L9.85938 251.03L11.8994 252.4L13.1194 251.31L9.99938 248.7Z" fill="#D1E5F0"/>
<path d="M15.2906 252.13L13.3906 253.5L15.0206 255.55L16.9206 253.91L15.2906 252.13Z" fill="#D1E5F0"/>
<path d="M19.1007 255.41L17.4707 257.6L18.0107 258.97L20.3207 257.88L19.1007 255.41Z" fill="#D1E5F0"/>
<path d="M21.8094 259.65L20.8594 265.12L21.8094 267.17L24.9294 266.21L26.5594 263.47L23.1594 260.32L21.8094 259.65Z" fill="#D1E5F0"/>
<path d="M27.2509 402.68L25.3509 402.54L25.2109 404.32L26.7009 405.28L28.4709 404.19L27.2509 402.68Z" fill="#D1E5F0"/>
<path d="M33.7708 404.6L31.0508 406.38L33.0908 408.84L34.8608 408.43L35.8108 407.2L33.7708 404.6Z" fill="#D1E5F0"/>
<path d="M276.6 283.37L275.1 283.99L275.63 285.32L277.39 284.17L277.04 283.81L276.6 283.37Z" fill="#D1E5F0"/>
<path d="M279.069 284.88L278.189 286.75L279.249 288.17L280.569 287.02L279.069 284.88Z" fill="#D1E5F0"/>
<path d="M282.07 290.03L281.01 291.01L281.8 292.61L283.3 292.17L282.07 290.03Z" fill="#D1E5F0"/>
<path d="M281.98 294.03L281.27 295.54L282.42 296.78L283.92 295.98L281.98 294.03Z" fill="#D1E5F0"/>
<path d="M282.07 297.85L280.84 298.74L281.81 300.52L283.4 299.63L282.07 297.85Z" fill="#D1E5F0"/>
<path d="M280.57 301.31L279.42 302.46L279.86 303.17H281.27L281.71 302.01L280.57 301.31Z" fill="#D1E5F0"/>
<path d="M282.239 304.78L281.179 305.76L280.029 305.94V307.36L282.149 309.31L283.029 307.89L283.559 306.29L283.379 304.96L282.239 304.78Z" fill="#D1E5F0"/>
<path d="M271.049 281.06L268.409 280.17L266.289 281.5L267.349 282.74L270.959 283.27L271.049 281.06Z" fill="#D1E5F0"/>
<path d="M250.87 275.38L249.2 277.09L251.11 277.87L251.39 280.26L247.16 280.63L247.59 282.93L248.82 283.02L249.53 281.96L254.47 282.12L255.36 283.83L256.5 282.49L259.83 281.59L262.76 282.21L263.1 280.44L257.82 276.99L254.4 275.71L250.87 275.38Z" fill="#D1E5F0"/>
<path d="M263.11 280.44L257.82 276.98L255.32 276.13L254.48 282.13L255.36 283.82L256.51 282.49L259.86 281.6L262.77 282.22L263.11 280.44Z" fill="#D1E5F0"/>
<path d="M250.86 275.38L254.3 275.74L253.89 279.96L253.55 282.18L249.54 281.96L248.83 283.03L247.6 282.94L247.16 280.63L251.39 280.28L251.13 277.88L249.19 277.08L250.86 275.38Z" fill="#D1E5F0"/>
<path d="M307.949 508.18L305.319 507.89L302.699 509.65L304.599 511.71L307.949 508.18Z" fill="#D1E5F0"/>
<path d="M310.571 506.86L309.701 509.65L307.221 511.85L307.371 512.58L311.601 510.96L313.351 508.76L310.571 506.86Z" fill="#D1E5F0"/>
<path d="M406.36 117.31L404.4 116.2L401.76 117.87L399.49 119.97L399.55 121.14L402.49 121.51L402.31 123.61L401.27 124.66L401.52 125.34L404.46 125.53V128.93L408.69 129.67L411.2 131.09L414.02 131.21L418.86 128.8L422.6 123.86L422.66 120.52L420.39 118.6L418.49 116.99L417.63 117.61L416.34 119.28L414.87 119.09L413.4 117.48L411.5 117.66L408.74 119.95L407.08 121.74L406.16 120.94L406.1 118.96L407.02 118.34L406.36 117.31Z" fill="#D1E5F0"/>
<path d="M488.26 53.96L486.61 52.3L482.95 54.0801H476.23L475.17 58L478.94 61.3301L480.59 61.09L482.95 57.05L484.95 58.48L483.53 61.3301L482.82 65.49L484.47 68.1L488.01 62.16L492.61 56.57L490.84 55.03L488.26 53.96Z" fill="#D1E5F0"/>
<path d="M490.261 46.83L487.311 49.56L489.081 52.29H492.261L493.561 54.07L497.451 56.09L501.931 53.48L505.001 50.87L503.941 48.73L500.871 46.95L498.631 48.97L497.101 47.07L495.921 47.19L494.391 50.52L492.151 48.26L491.911 46.72L490.261 46.83Z" fill="#D1E5F0"/>
<path d="M496.979 59.0699L494.619 61.2099L492.619 62.7499L493.559 64.41L495.449 64.9999L498.519 63.5699L499.939 61.7899L498.639 59.6499L496.979 59.0699Z" fill="#D1E5F0"/>
<path d="M547.819 38.79L549.539 39.48L548.329 41.56V44.51L545.749 46.07H542.999L541.449 44.16L541.619 42.08L542.829 40.52H545.239L547.819 38.79Z" fill="#D1E5F0"/>
<path d="M554.359 36.88V38.96L556.079 40.35L558.489 40.18L560.559 38.27V36.88H558.669L557.119 37.4L555.909 36.01L554.359 36.88Z" fill="#D1E5F0"/>
<path d="M564.18 37.0599L565.39 39.6599L567.8 39.8299L569.52 39.1399L568.66 36.7099L566.42 36.1899L564.18 37.0599Z" fill="#D1E5F0"/>
<path d="M573.991 33.59L572.101 33.24L570.381 34.98L571.241 36.54L571.761 38.97L574.001 37.24L574.521 35.33L573.991 33.59Z" fill="#D1E5F0"/>
<path d="M584.491 51.98L583.971 54.41L580.011 57.88L571.571 59.79L564.681 71.24L563.471 74.54L570.361 76.28L571.391 72.12L573.461 65.7L578.801 62.92L583.281 59.45L586.551 58.06H588.271V53.38L584.491 51.98Z" fill="#D1E5F0"/>
<path d="M562.28 77.3101L566.93 77.8301L568.48 83.2101L572.44 87.3701L571.06 90.1501H568.65L566.41 87.5501L561.42 87.3801L559.35 84.6001V82.6901L562.45 81.8201L562.28 77.3101Z" fill="#D1E5F0"/>
<path d="M634.949 18.15L632.709 16.76H630.129L629.609 18.32L626.859 19.88L624.789 20.57L624.449 22.65L629.269 23L634.949 18.15Z" fill="#D1E5F0"/>
<path d="M640.28 18.67L639.07 21.27L636.66 21.1L632.87 23.88L631.84 27.35H634.25L635.63 25.09L638.9 27.52L642 26.13L644.24 24.22L643.38 21.27L642.17 19.19L640.28 18.67Z" fill="#D1E5F0"/>
<path d="M645.279 20.58L646.489 25.44L648.379 29.95L650.449 26.31L654.409 25.44V22.84L651.829 20.93L645.279 20.58Z" fill="#D1E5F0"/>
<path d="M739.76 12.8L742.45 15.06L744.359 14.27L744.919 11.1L741 8.39001L738.419 10.09L732.14 10.66V13.49L725.52 13.6V18.23L733.26 23.99L735.28 22.52L734.83 18.45L739.77 17.21L738.76 15.29L736.969 13.48L739.76 12.8Z" fill="#D1E5F0"/>
<path d="M746.939 10.09L748.729 13.48L755.689 12.69L757.599 10.2L757.149 8.05001L755.239 7.26001L753.449 8.62001L748.289 9.75001L746.939 10.09Z" fill="#D1E5F0"/>
<path d="M746.49 23.31L743.01 22.41L741 24.56L740.1 27.5L744.81 27.05L748.4 25.24L746.49 23.31Z" fill="#D1E5F0"/>
<path d="M836.681 3.75999L833.761 2.85999L830.401 4.09999L828.721 6.58999L830.851 9.41999L836.461 6.92999L837.581 5.68999L836.681 3.75999Z" fill="#D1E5F0"/>
<path d="M680.54 308.05L680.79 310.77L681.04 312.75L679.57 313L680.31 317.45L682.52 318.69L685.95 316.71L684.97 312.02L685.22 310.29L682.03 307.33L680.54 308.05Z" fill="#D1E5F0"/>
<path d="M220.85 266.92V268.19L226.17 268.29L228.68 266.83L229.07 267.9L234.29 269.17L238.93 273.36L237.87 274.82L238.06 276.48L241.93 277.45L245.8 275.7L247.54 273.95L245.03 272.68L232.08 265.08L227.54 264.59L220.85 266.92Z" fill="#D1E5F0"/>
<path d="M239.61 259.13L238.35 258.74L238.25 261.17L239.8 262.73L240.86 261.17L239.61 259.13Z" fill="#D1E5F0"/>
<path d="M242.121 262.93L240.381 263.9L242.021 266.24L242.891 265.07L242.121 262.93Z" fill="#D1E5F0"/>
<path d="M247.731 264.68L245.891 264.58L246.081 265.75L247.431 267.7L248.591 266.43L247.731 264.68Z" fill="#D1E5F0"/>
<path d="M246.859 262.35L243.859 261.08L243.279 258.06L244.439 257.57L245.599 259.91L246.759 260.79L246.859 262.35Z" fill="#D1E5F0"/>
<path d="M243.96 256.21L242.41 255.82L242.12 253.87L240.48 253.29L241.54 252.22L243.47 252.9L244.92 253.78L243.96 256.21Z" fill="#D1E5F0"/>
<path d="M238.929 279.59L235.449 280.47V281.44L237.479 282.61H239.609L240.959 281.05L238.929 279.59Z" fill="#D1E5F0"/>
<path d="M831.93 339.34L827.76 339.81L825.08 341.77L826.19 344.01L830.73 344.85V345.69L827.86 348.02L829.25 352.87L830.64 352.96L831.84 348.2H834.06L834.99 352.86L845.82 361.82L846.1 368.82L849.8 372.83L851.47 372.74L851.84 348.02L845.55 343.64L839.62 347.65L837.49 348.96L833.97 346.72L833.88 339.63L831.93 339.34Z" fill="#D1E5F0"/>
<path d="M93.1098 44.89L84.7198 46.88L86.4498 56.33L95.5798 58.82L96.0698 60.81L82.4998 65.04L74.8498 77.72L77.5598 91.15L81.9998 94.13L85.4598 90.9L86.4498 92.89L82.2498 97.86L65.9598 105.32L55.5898 107.81L55.3398 111.54L79.2798 104.58L89.1498 101.84L98.2798 90.65L108.4 83.94L103.22 92.64L108.9 93.39L118.53 89.16L120.26 96.12L126.92 97.61L133.83 104.32L134.32 109.29L133.33 110.53L134.56 115.25H136.29L136.54 107.29H138.51L139 126.93L143.94 122.7L140.48 102.31H135.3L129.62 95.1L157.51 47.85L129.87 26.22L99.0198 32.19L97.7898 41.64L104.45 45.62L101.98 52.09L93.1098 44.89Z" fill="#D1E5F0"/>
<path d="M194.969 338.18L194.349 340.93L193.199 342.09L193.989 343.51L196.019 342.71L196.989 341.02L196.369 339.24L194.969 338.18Z" fill="#D1E5F0"/>
<path d="M203.731 35.8901L203.951 39.9101L195.971 48.1801L197.971 54.8801L203.731 53.3201L207.061 48.4001L215.481 45.2701L222.351 44.8201L217.031 39.0101L214.371 41.0201L212.371 40.3501L211.261 37.8901L208.821 35.4301L203.731 35.8901Z" fill="#D1E5F0"/>
<path d="M214.151 24.05L212.381 27.18L221.031 30.31L224.131 25.62L225.461 28.75H227.681L231.891 24.06L226.791 22.72L224.791 21.16L222.131 23.84L214.151 24.05Z" fill="#D1E5F0"/>
<path d="M229.229 30.3101L222.359 33.2101V35.4401L231.229 38.7901L229.229 41.0201L230.559 43.9201L236.099 41.4601H240.759L242.979 45.0301L246.749 41.2301L245.859 37.6501L242.759 38.7701L242.319 34.3001L243.869 31.6201H242.319L239.879 33.1801L238.769 34.0701L239.439 37.2001L237.669 38.5401L235.009 38.3201L234.339 34.3001L229.229 30.3101Z" fill="#D1E5F0"/>
<path d="M238.32 23.38L237.65 25.61L241.86 27.62L244.96 25.83L244.74 24.49L238.32 23.38Z" fill="#D1E5F0"/>
<path d="M241.639 19.58L238.539 20.7L238.759 22.26L245.629 21.81L245.409 20.25L241.639 19.58Z" fill="#D1E5F0"/>
<path d="M256.499 23.38L256.059 24.94L254.949 26.5V28.73L259.159 28.06L263.589 31.86H265.139V28.06L260.709 23.14L256.499 23.38Z" fill="#D1E5F0"/>
<path d="M267.811 27.85L269.581 29.86L268.031 32.54L269.141 35.44L274.021 32.76V30.75L271.141 27.4L267.811 27.85Z" fill="#D1E5F0"/>
<path d="M274.24 22.71L274.46 26.28H280.45L282 27.62L281.78 29.18L276.46 29.85L280.23 34.99L285.33 35.88L292.42 32.75L282.22 17.33L279.12 19.34L279.34 22.02L275.79 20.68L274.24 22.71Z" fill="#D1E5F0"/>
<path d="M222.581 47.96L214.161 50.19L209.281 54.44L209.721 59.13L218.591 61.81L216.591 66.28L210.161 62.26L208.391 65.61L212.601 68.51L212.381 73.2L218.811 74.99L226.571 74.54L227.901 72.08L233.661 78.56L237.651 77.22L238.321 72.75L241.201 74.76L241.641 70.29L238.091 68.06L238.311 53.99L235.211 51.53L231.891 56L222.581 47.96Z" fill="#D1E5F0"/>
<path d="M249.629 57.79L246.749 56.45L245.199 58.46L248.299 63.38L248.519 68.07L255.169 64.05V58.24L257.609 55.78L255.169 53.99H251.179L249.629 57.79Z" fill="#D1E5F0"/>
<path d="M263.82 55.78L259.16 59.58L260.27 64.27H263.15L264.48 61.81L266.48 63.82L268.48 63.6L273.8 59.13L263.82 55.78Z" fill="#D1E5F0"/>
<path d="M263.37 48.4L262.26 50.63L267.14 52.42L268.47 50.41L263.37 48.4Z" fill="#D1E5F0"/>
<path d="M260.49 39.91L255.61 40.58L252.73 43.26L258.05 43.48L256.5 47.5L257.61 49.29L259.16 49.07L262.93 43.04L260.49 39.91Z" fill="#D1E5F0"/>
<path d="M268.92 38.35L266.26 39.24L266.7 42.81L271.13 45.71L271.35 47.94L270.02 49.28L270.69 53.75L287.76 59.33L292.42 60.89L297.08 56.87L291.54 52.4L286.44 53.74L279.35 53.07L276.69 50.39L276.02 43.02L271.59 40.79L268.92 38.35Z" fill="#D1E5F0"/>
<path d="M282.881 61.59L278.001 61.14L272.241 63.37L269.141 67.61L270.031 79.23L279.561 79.68L288.651 84.15L295.081 91.52L299.961 91.3L298.631 98.22L294.201 105.59L289.321 107.82L285.771 107.15L284.001 105.59L281.341 109.16L282.451 112.73L286.221 112.95L290.881 110.72L294.871 121L304.851 127.48L311.721 118.77L305.961 109.39L309.291 105.59L313.951 113.41L322.371 106.04L320.821 102.69L315.061 104.48L311.071 93.53L314.841 87.28L307.301 79.24L303.091 82.14L299.101 73.43L290.681 74.55L288.461 64.05L281.591 68.74L280.921 74.55H277.151L277.591 69.41L282.881 61.59Z" fill="#D1E5F0"/>
<path d="M292.86 65.61L291.09 67.4L292.64 69.86L299.96 70.75L295.3 65.83L292.86 65.61Z" fill="#D1E5F0"/>
<path d="M285.771 40.36V42.37L280.891 43.49L282.221 45.72L287.761 47.95L293.971 48.62L298.401 51.75L302.831 49.29L299.731 46.16H303.721L306.161 43.48L312.151 42.59V41.25L308.821 39.02L309.261 36.56L318.571 38.12L332.321 32.76L327.221 31.2L328.551 29.41H339.191L340.961 27.62L319.451 20.02L314.351 18.23L308.811 22.25L302.601 17.11L299.271 16.89L298.601 21.14L294.391 17.34L289.511 18.9L290.401 21.36L297.721 22.92L297.281 26.49L301.271 28.95L311.031 26.49L311.251 29.84L303.271 33.64L298.391 29.84L293.961 30.29L298.391 36.55L296.171 37.67L292.841 34.77L290.401 36.33L292.621 40.57H296.391L295.501 44.59L292.401 44.14L288.411 39.89L285.771 40.36Z" fill="#D1E5F0"/>
<path d="M266.01 101.85L261.78 107.17L261.52 113.03L265.22 110.9H269.71L272.88 113.83L275.79 111.43L266.01 101.85Z" fill="#D1E5F0"/>
<path d="M317.519 171.05L306.949 181.17L308.009 183.57L320.949 188.36L322.799 185.17L321.739 179.85L317.509 180.38L315.129 177.72L319.089 173.73L317.519 171.05Z" fill="#D1E5F0"/>
<path d="M158.219 48.66L160.209 51.67L161.209 55.69L166.189 56.94L169.679 53.18L172.669 54.69L181.139 55.44L187.119 52.93L188.119 61.21H191.609V57.7L195.099 57.95L203.819 68.24L209.549 71.75L206.559 76.52L207.809 77.77L218.999 80.03L219.249 85.05L222.239 85.55L222.989 78.02L227.719 76.77L231.209 82.04L238.679 85.55L242.419 86.3L244.909 83.29L245.159 78.52L249.639 75.76L251.129 79.78L247.139 86.81L247.639 90.32L249.879 86.81L254.359 82.79L254.609 77.52L252.119 73.5L252.869 70.24L258.849 67.23L261.589 69.24L262.089 86.81L266.319 83.05L268.809 84.56L265.319 90.58L269.799 91.58L276.279 81.54L281.759 87.31L279.519 97.6L274.039 100.61L268.809 98.1L259.349 100.11L260.349 103.37L257.859 107.39L250.139 109.15L241.419 115.93L233.699 126.22L232.699 129.48L237.929 131.49L239.919 136.51L247.139 143.79L258.599 148.81L256.109 160.35L255.859 163.61L258.849 165.62L262.839 160.35L263.339 150.31L269.569 150.06L272.559 144.29L273.059 135.51L281.029 119.95L290.989 123.46L296.219 130.74L293.979 138.02L297.969 140.28L307.679 133.75L310.419 151.57L319.389 162.36L319.639 167.88L309.679 170.39L304.949 175.41L294.989 173.15L290.009 172.9L281.289 179.68L286.519 178.43L292.999 177.18L294.249 178.69L292.509 184.21L292.759 189.23L295.749 191.24L298.739 190.49L300.239 188.23H302.229L298.989 194.25L292.759 194.5L290.019 198.52H286.529L285.529 195.51L290.509 190.49L284.529 192.5L284.259 183.97L282.539 182.97L277.309 185.23L276.809 189.5H264.849L254.639 196.53L240.939 201.05L239.449 199.04L246.349 188.74L242.429 184.97L239.939 180.19L234.869 176.32L229.429 175.87L219.679 169.04L148.969 157.42L147.799 152.63L141.319 146.61V141.59L142.319 137.07L141.819 134.56L139.329 132.05L138.829 128.03L145.309 123.51L141.319 101.93L135.839 101.68L130.859 95.15L158.219 48.66Z" fill="#D1E5F0"/>
<path d="M148.76 158.34L147.76 162.36L144.27 160.1H142.53L141.53 164.37L129.32 191.73L132.56 215.57L136.55 217.58L137.3 224.11H145.52L153.49 230.13L169.18 231.64L170.92 239.67L173.41 241.43L176.9 237.92L179.64 239.17L182.13 250.71L186.36 253.47L189.85 246.94L200.56 239.16L207.53 242.42L213.51 242.92L213.76 239.16L226.21 239.41L228.7 242.17L229.2 248.44L227.71 251.95L229.45 257.97H233.19L236.93 252.2L235.44 249.44L233.95 243.42L236.19 236.64L246.4 227.86L254.12 225.6L253.12 218.32L263.83 206.77L274.54 205.01L272.8 199L283.26 192.98V184.95L282.26 184.45L278.52 185.7L278.02 190.62L265.59 190.77L255.85 197.24L240.56 202.24L238.12 199.25L245.06 188.75L241.63 185.48L239.3 181.04L234.47 177.16L229.22 176.72L219.3 169.95L148.76 158.34Z" fill="#D1E5F0"/>
<path d="M133.831 128.41L132.131 131.67L132.721 133.98L133.831 134.67L133.571 135.61L132.381 135.95L132.721 139.38L134.001 140.67L135.021 139.56L133.741 136.22L134.501 133.56L136.371 131.07L135.011 128.76L133.831 128.41Z" fill="#D1E5F0"/>
<path d="M139.45 147.95L137.92 148.55L140.73 151.81L141.41 155.67L144.22 158.67L146.6 158.24V154.3L143.71 152.5L139.45 147.95Z" fill="#D1E5F0"/>
<path d="M194.881 291.52L200.811 295.86L206.791 288.43L205.771 286.89L203.731 286.82V282.47L202.201 281.54L197.571 282.92L199.341 287L194.881 291.52Z" fill="#D1E5F0"/>
<path d="M207.55 288.78L216.79 288.43L219.53 291.69L217.82 291.3L214.53 291.44L210.23 295.48L208.39 299.57L207.18 298.93L207.17 294.45L204.51 292.67L207.55 288.78Z" fill="#D1E5F0"/>
<path d="M201.65 296.27L206.35 298.61L206.28 294.9L203.87 293.43L201.65 296.27Z" fill="#D1E5F0"/>
<path d="M217.741 292.11L219.931 292.55L220.001 297.04L217.451 304.32L210.581 303.64L209.051 300.13L211.091 295.87L214.961 292.27L217.741 292.11Z" fill="#D1E5F0"/>
<path d="M217.38 304.98L218.77 307.7L219.9 309.2L218.38 313.71L215.48 311.67L210.74 307.33V304.46L217.38 304.98Z" fill="#D1E5F0"/>
<path d="M220.591 309.61L219.131 314.17L223.951 315.42L226.941 316.01L227.451 312.48L230.661 310.86L233.511 312.33L234.631 314.12L235.991 313.96L237.061 310.71L233.501 309.24L230.801 307.77L228.101 309.61L224.891 311.23L221.611 309.91L220.591 309.61Z" fill="#D1E5F0"/>
<path d="M253.73 299.78L251.67 299.57L238.05 310.8L236.61 314.75L234.75 314.96L235.58 323.69L230.83 335.34L235.99 339.71L242.6 340.13L247.14 346.79L253.74 347L253.53 351.99H256L258.68 342.84L256.2 339.72L256.82 333.9L261.98 333.48L261.36 319.96L249.8 316.22L247.12 308.94L253.73 299.78Z" fill="#D1E5F0"/>
<path d="M250.459 305.92L250.899 308.51L254.149 309.54L254.889 304.77L258.319 301.22L261.749 305.24L269.639 307.39L276.319 305.99L280.869 311.6L284.299 313.75L280.539 319.48L281.799 323.82L279.649 326.48L277.419 328.35L272.589 325.92L271.479 327.04V330.5L275.009 332.18L272.409 334.99L269.809 337.8L266.379 337.52L262.929 333.73L262.199 319.47L250.419 315.45L248.279 309.18L250.459 305.92Z" fill="#D1E5F0"/>
<path d="M285.05 314.13L292.27 320.67L289.4 323.99L289.17 325.96L292.94 329.85L292.85 333.59L286.29 336.09L282.36 330.78L283.2 324.4L281.52 319.65L285.05 314.13Z" fill="#D1E5F0"/>
<path d="M293.13 321.14L295.17 323.01L298.33 321.05L301.21 321.14L300.84 322.26L299.63 324.78L299.44 331.05L293.69 333.39L293.97 329.37L290.26 325.91L290.45 324.13L293.13 321.14Z" fill="#D1E5F0"/>
<path d="M302.131 321.8L307.981 325.45L304.921 331.53L303.811 332.93L300.561 331.06L300.651 324.51L302.131 321.8Z" fill="#D1E5F0"/>
<path d="M230.2 335.85L225.47 338.79L225.13 343.15L224.18 344.58L227.16 347.44L225.87 348.85L226.17 352.45L231.5 353.72L239.57 344.17L239.55 340.84L235.68 340.59L230.2 335.85Z" fill="#D1E5F0"/>
<path d="M225.03 349.52L223.09 351.48L223.22 354.61L240.16 385.49L257.75 396.83L260.47 392.27L261.12 382.24L259.7 375.99L254.91 367.91L252.06 368.82L250.77 370.25L245.08 363.73L246.5 356.04L253.1 351.74L252.58 347.7L245.86 347.44L242.37 341.58L240.43 340.93L240.56 344.45L231.9 354.74L225.43 353.18L225.03 349.52Z" fill="#D1E5F0"/>
<path d="M258.711 372.79L266.941 369.2L269.661 369.46L271.471 377.02L284.011 381.19L286.081 387.58L291.251 388.23L293.451 393.7L291.901 398.65L283.491 399.3L280.391 407.25L273.791 407.12L271.721 406.73L267.911 410.43L266.031 410.25L259.561 395.26L261.351 392.58L261.981 381.98L260.381 375.67L258.711 372.79Z" fill="#D1E5F0"/>
<path d="M291.759 399.51L293.959 401.91L293.699 406.99L300.039 406.6L304.829 412.73L304.439 418.2L301.339 422.89L294.999 423.15L294.739 420.54L296.549 416.24L290.339 412.33H285.169L281.289 408.16L284.109 400.1L291.759 399.51Z" fill="#D1E5F0"/>
<path d="M300.361 431.93L298.311 434.12L299.161 445.9L305.601 447.77L313.791 439.56L300.361 431.93Z" fill="#D1E5F0"/>
<path d="M305.47 418.2L307.41 420.02L300.04 430.97L297.45 433.84L298.35 446.35L304.04 453.26L299.26 461.6L295.64 463.16H291.5L292.66 469.67L286.19 471.89L287.74 477.36L283.86 489.74L288.65 493.65L286.06 500.03L281.66 506.94L283.99 511.76L278.3 512.67L273.64 506.94L272.86 489.09L265.62 458.77L267.81 448.17L263.15 434.62L266.25 417.03L269.1 413.64L268.4 411.07L272.06 407.73L280.22 408.29L284.78 413.16L290.05 413.25L295.45 416.55L293.86 420.27L294.24 424.03L301.89 423.67L305.47 418.2Z" fill="#D1E5F0"/>
<path d="M285.04 514.1L280.77 523.48L288.14 524.26L288.27 518.01L285.04 514.1Z" fill="#D1E5F0"/>
<path d="M288.92 518.79L289.18 524.52L293.58 524.13L297.33 521.65L290.99 520.35L288.92 518.79Z" fill="#D1E5F0"/>
<path d="M283.591 512.63L280.381 516.18L279.991 520.35L273.781 516.83L267.181 507.32L265.241 503.93L267.961 500.41L267.701 495.98L264.601 494.68L262.141 492.86L262.661 490.38L265.891 489.47L266.541 475.14L261.501 472.27L258.211 397.68L259.061 396.2L265.501 411.05L267.561 411.09L268.231 413.46L265.491 416.78L262.341 434.65L266.821 448.41L264.751 458.83L272.051 489.47L272.821 507.39L278.051 513.44L283.591 512.63Z" fill="#D1E5F0"/>
<path d="M262.28 475.14L260.99 477.09L261.64 480.48L262.93 480.61L263.58 476.31L262.28 475.14Z" fill="#D1E5F0"/>
<path d="M314.239 438.85L320.489 426.83L320.719 416.73L332.379 409.21H338.909L344.039 400.52L344.969 383.84L342.869 379.38L355.229 368.1L355.699 355.65L338.909 347.43L318.629 341.09L309.069 340.15L311.639 334.75L310.939 326.53L308.849 325.84L305.759 331.98L304.139 334.01L299.979 332.17L285.989 337.1L281.329 331.23L282.079 325.1L277.679 329.58L272.819 326.96L272.329 327.65L272.339 329.78L276.529 332.03L270.239 338.66L266.269 338.62L262.249 334.53L257.699 334.67L257.139 339.53L259.749 342.7L256.669 352.57L253.069 352.85L247.339 356.47L245.939 363.58L250.909 368.9L251.819 367.87L255.309 366.93L258.289 371.95L266.819 368.29L270.129 368.48L272.409 376.55L284.579 380.41L286.679 386.85L291.859 387.47L294.329 393.62L292.659 399.09L294.839 401.95L294.519 406.21L300.359 405.66L305.709 412.42L305.289 417.17L308.459 419.85L300.859 431.36L314.239 438.85Z" fill="#D1E5F0"/>
<path d="M204.56 282.4L204.51 286.05H205.35L208.21 280.71H206.27L204.56 282.4Z" fill="#D1E5F0"/>
<path d="M817.97 72.93L819.73 79.01L823.25 80.02L826.771 74.45L824.76 70.65L825.51 67.36H830.79L829.531 69.89L830.031 79.01L822.49 97.75L823.24 101.8L822.99 108.64L837.06 129.15L839.82 129.91L840.07 113.2L842.831 110.67L839.81 104.09L842.32 101.3L836.79 93.96L833.771 94.21L832.771 82.06L840.56 80.03L841.06 76.48L845.081 75.47L847.341 77.5L850.1 66.36L854.87 58.26L858.641 56.23L861.91 56.48V52.68L856.63 51.67L849.341 45.59L852.86 41.54L849.841 34.7L852.35 32.17L855.37 36.22L862.91 39.01L871.201 39.77L872.211 36.23L867.94 31.93L872.711 25.35L861.901 21.55L859.141 27.12L855.62 22.56L835.771 15.72L816.92 19.01L814.16 20.53V22.05L818.18 24.08L817.68 28.89L810.391 25.85L794.31 32.18L791.55 26.36H780.49L775.461 31.68L757.62 27.63L741.29 30.92L739.281 35.98L741.79 36.74L741.54 40.54L725.711 42.31L726.72 47.37L712.141 44.84L715.66 38.26L700.831 37.5L702.091 44.34L697.32 46.62L693.3 42.82L676.97 45.61L670.69 51.43L670.44 54.97L666.42 55.22L665.92 51.17L678.74 40.03V32.43L670.451 30.15L659.641 33.69L655.12 29.13H653.11L650.6 34.19L652.61 36.47L638.281 44.32L625.97 53.69L618.43 64.07V68.37L626.47 71.66L622.451 74.7L613.91 71.66L610.391 74.7L605.11 68.62L604.1 70.9L609.88 89.13L611.391 89.64L615.41 87.61L617.42 89.13V92.42L613.651 90.9L611.391 92.67L612.901 95.96L611.641 104.57L603.85 105.33L603.35 102.54L607.87 99.75L608.88 92.15L603.85 85.57L602.091 74.18L594.05 72.91L593.3 76.96L594.81 78.99L591.54 81.78L592.8 89.38L597.57 91.41L598.581 96.98L593.8 93.94L581.49 91.66L579.98 95.71L570.18 99.25L568.67 96.72L555.85 103.81L555.6 108.62L550.57 109.38L552.081 105.84V102.3L547.05 100.53L543.781 101.8L546.54 107.12L548.55 110.66V113.45L544.781 112.69L544.031 111.93L540.26 115.98L542.271 119.52L533.73 119.27L536.49 122.82L535.74 124.34H531.22L527.951 122.06L527.201 115.73L521.92 113.7V111.17L532.98 113.45L539.01 113.96L541.521 110.16L539.26 106.11L523.18 99.78L517.63 101.16L515.73 102.79L516.32 106.54L518.68 106.95L518.13 112.85L525.41 129.95L520.151 138.29L519.79 140.17L522.461 142.05L520.05 143.64L518.451 143.67L518.75 151.02L520.961 154.15L520.99 157.19L523.82 157.45L528.151 159.1L532.73 165.4L532.781 167.06L531.29 169.61L534.711 169.42L538.04 170.38L542.54 176.75L553.62 177.76L553.141 185.34L549.32 188.61L550.11 189.89L546.341 193.94L545.341 197.74L547.6 201.03L554.891 203.56L557.91 201.79L577.26 209.13L578.01 207.1L573.99 203.3V198.49L571.48 197.73L571.98 193.68L576 188.87L568.79 183.47L569.29 175.96L577 170.89L586.05 171.4L587.56 174.19L596.86 174.7L603.651 170.9L600.13 167.1L600.88 160.01L618.47 151.4L632 157.5L636.521 153.45L649.841 166.11L659.891 165.1L663.41 168.64L672.961 169.65L679.24 161.04L687.281 164.59L691.55 165.35L695.82 161.55L692.05 159.02L695.32 153.96L704.62 157L706.63 161.05L710.651 161.3L713.16 159.53L719.951 159.28L720.701 161.05L728.49 161.56L733.771 155.99L744.581 157.26L747.85 155.99L748.85 149.91L745.581 142.57L748.85 139.78H759.151L768.951 151.43L781.51 158.52H785.281L785.781 155.48L790.3 152.69L790.8 169.15L786.781 169.4V173.45L789.04 176.24L788.62 179.86L790.29 180.55L791.3 178.02L792.81 178.53L793.81 179.54L798.331 178.53L802.85 165.36L803.35 148.9L797.57 135.73L790.281 126.87L786.76 127.38V130.17L778.22 126.88L781.49 119.79L784.25 101.05L795.81 97.51L801.341 93.97H807.37L805.86 96L807.37 98.53L812.651 92.96L815.67 93.21L815.17 89.92L810.391 88.91L813.66 77.01L817.97 72.93Z" fill="#D1E5F0"/>
<path d="M670.4 170.07L666.94 178.77L662.17 178.52L657.14 189.53L661.41 194.97L652.61 207.12L648.09 206.36L645.07 210.16L645.82 212.44L649.34 212.69L651.1 216.74L654.62 217.5L665.43 231.43V238.52L670.71 241.81L676.49 240.8L683.78 245.1L692.58 247.63L696.85 247.12L701.63 246.61L711.68 240.03L714.95 240.54L716.2 243.51L718.97 244.34L722.74 249.91L720.23 255.48L721.74 259.28L726.01 260.8L726.76 265.36L731.79 265.87L732.54 263.59L739.83 259.79L744.35 260.04L749.63 265.86L753.15 264.34L755.41 264.59L756.42 267.38L758.18 267.63L760.69 264.09L770.74 260.29L779.79 249.4L782.81 239.02L782.56 232.18L778.79 231.42L781.05 228.89L780.55 224.84L771 215.22V210.41L773.76 206.87L776.52 205.6L776.77 202.81H769.73L768.47 206.61L765.2 205.85L761.18 201.55L763.69 194.97L767.21 191.17L770.48 191.42L769.98 197.24L771.74 198.76L776.01 194.46L777.52 194.21L777.02 190.92L781.04 186.11L784.06 186.36L785.82 180.79L787.88 179.7L788.09 176.23L786.09 174.13L785.92 168.65L789.77 168.4L789.52 154.27L786.82 155.89L785.81 159.51L781.3 159.5L768.23 152.15L758.79 140.77L749.21 140.67L746.77 142.79L749.87 149.89L748.79 156.55L744.93 158.15L742.76 157.98L742.6 164.57L744.86 165.08L748.88 163.31L754.16 165.84V168.37L750.39 168.62L747.37 175.2L744.61 175.45L734.81 188.36L724.51 192.92L717.47 193.43L712.7 190.14L705.91 193.69L698.62 191.41L696.86 186.6L684.55 185.84L678.02 175.21H675.26L673.04 170.28L670.4 170.07Z" fill="#D1E5F0"/>
<path d="M673.801 170.17L679.621 162.45L686.611 165.68L691.361 166.95L697.181 161.61L693.231 158.7L695.831 155.03L703.591 157.77L706.281 162.18L711.141 162.31L713.681 160.42L718.911 160.21L720.051 162.15L728.741 162.59L734.241 156.98L741.851 157.78L741.411 165.42L744.741 166.18L748.831 164.32L753.161 166.46L753.061 167.54L749.921 167.63L746.651 174.49L744.111 174.74L734.231 187.65L724.141 192.1L717.831 192.59L712.591 189.21L705.891 192.79L699.291 190.74L697.421 185.95L684.921 185.07L678.521 174.22L675.411 174.02L673.801 170.17Z" fill="#D1E5F0"/>
<path d="M778.28 194.27L780.12 195.04L780.68 201.48L784.33 201.69L787.77 197.66L786.58 196.6L786.72 192.28L789.88 188.46L788.27 185.56L789.32 184.36L789.9 181.36L788.07 180.53L786.51 181.32L784.58 187.18L781.46 186.91L777.85 191.17L778.28 194.27Z" fill="#D1E5F0"/>
<path d="M788.339 198.2L794.519 203.24L795.569 208.12L795.359 210.74L792.339 214.14L789.739 214.28L786.789 207.91L785.669 204.87L786.859 203.95L786.579 202.68L785.109 202.02L788.339 198.2Z" fill="#D1E5F0"/>
<path d="M576.689 188.62L580.789 186.87L585.369 186.71L585.689 193.71H583.009L580.959 197.05L583.639 201.5L587.589 203.73L587.949 206.28L589.399 205.8L590.739 204.21L592.949 204.69L594.059 206.92H596.899V204.06L595.159 198.97L594.369 194.84L599.419 192.61L606.209 193.72L610.469 198.01L620.099 197.06L625.469 204.69L631.779 205.01L633.519 202.15L635.729 201.67L636.049 198.49L639.359 198.33L641.099 200.4L642.839 196.27L657.829 198.34L660.349 195L656.089 189.75L661.769 177.35L666.349 177.67L669.509 170.04L663.199 169.4L659.569 165.9L649.569 167.06L636.689 154.61L632.149 158.64L618.379 152.39L601.489 160.66L601.019 166.54L604.969 171.15L597.269 175.5L587.279 175.28L585.189 172.21L577.359 171.78L569.939 176.55L569.779 183.07L576.689 188.62Z" fill="#D1E5F0"/>
<path d="M593.85 207.59L593.23 210.22H589.08V213.78L593.54 216.72L592.16 220.75V222.61L594.01 222.92L596.47 219.67L602.01 218.43L613.85 222.92L614 226.17L620.61 226.79L627.99 219.04L627.07 216.56L622.15 215.48L608.31 206.49L607.69 203.24H602.46L600.15 207.58H597.84L593.85 207.59Z" fill="#D1E5F0"/>
<path d="M628.92 219.06L632 219.22V213.95L629.08 212.25L634 206.05H636L638 208.38L643.23 206.37L636 203.89L635.72 202.39L634 202.81L632.31 205.75L625.02 205.51L619.67 197.94L610.27 198.87L605.79 194.43L599.59 193.38L595.09 195.21L597.7 203.89L597.73 206.81L599.63 206.85L601.96 202.41L608.16 202.49L609.08 205.9L622.37 214.72L627.51 215.9L628.92 219.06Z" fill="#D1E5F0"/>
<path d="M630.189 211.84L634.299 206.74H635.849L636.389 207.88L634.489 209.26V210.4L635.739 211.3L641.749 211.66L643.709 210.82L644.599 211L645.199 212.92L648.769 213.28L650.559 217.06L650.019 218.2L649.309 218.26L648.599 216.82L647.049 216.7L644.369 217.06L644.189 219.58L641.509 219.4L641.629 216.22L639.669 214.3L636.689 216.76L636.749 218.38L634.129 219.28H632.579L632.699 213.7L630.189 211.84Z" fill="#D1E5F0"/>
<path d="M636.809 199.21L636.499 201.74L636.749 203.3L645.449 206.22L637.809 209.3L636.939 208.58L635.289 209.64L635.369 210.22L636.249 210.62L641.609 210.76L644.329 209.94L647.819 205.54L652.189 206.3L657.459 199L643.359 197.08L641.409 201.81L638.949 199.17L636.809 199.21Z" fill="#D1E5F0"/>
<path d="M614.119 227.05L615.709 239.51L619.669 240.38L620.039 242.62L617.199 244.99L622.489 249.26L632.769 245.56L633.589 241.18L640.059 237.14L642.539 227.78L644.389 225.79L642.469 222.45L648.729 218.58L647.929 217.46L645.039 217.64L644.779 220.3L640.899 220.26L640.829 216.71L639.579 215.22L637.479 217.13L637.539 218.88L634.369 220.08L628.519 219.71L620.919 227.67L614.119 227.05Z" fill="#D1E5F0"/>
<path d="M623.13 249.84L625.729 253.7L625.479 255.69L622.02 257.06L621.77 260.3H625.729L627.09 259.18H634.63L641.43 265.16L642.299 262.29H647.37L647.49 258.68L642.299 253.7L643.409 250.96L648.729 250.59L655.9 235.64L651.94 232.53L650.46 227.3L660.099 226.43L654.409 218.33L651.38 217.51L650.14 219.01L649.21 219.08L643.52 222.69L645.38 225.81L643.28 228.05L640.68 237.64L634.25 241.75L633.38 246.24L623.13 249.84Z" fill="#D1E5F0"/>
<path d="M670.98 313.01L675.56 310.77L678.28 300.93L678.16 288.85L693.74 272.03V268.04L696.95 266.79L696.83 262.18L693.37 255.45L695.35 251.84L699.68 255.83L705.24 256.08V258.32L703.51 260.19L703.88 261.19L706.85 261.31L707.47 264.67H708.34L710.57 260.68L711.68 250.22L715.39 247.6L715.51 243.99L714.03 241.12L711.68 241L702.48 247.08L703.06 250.99L696.6 250.97L694.32 248.18L693.08 248.34L693.5 252.22L679.53 251.22L670.87 247.36L670.41 242.61L664.64 239.03L664.57 231.66L660.61 227.13L651.51 228L652.5 231.96L656.96 235.57L649.25 251.35L644.09 251.74L643.24 253.64L648.32 258.34L648.07 263.09L642.88 263.01L642.32 265.37L646.63 265.18L646.75 267.05L643.66 268.67L645.64 272.41L649.47 273.66L651.82 271.92L652.93 268.81L654.29 268.19L655.9 269.81L655.41 273.8L654.3 275.67L654.55 278.91L670.98 313.01Z" fill="#D1E5F0"/>
<path d="M671.189 242.56L671.649 246.83L679.729 250.49L692.679 251.45L692.189 248.32L683.539 245.94L676.199 241.57L671.189 242.56Z" fill="#D1E5F0"/>
<path d="M695.4 248.08L696.95 250.2L702.19 250.24L701.66 247.34L695.4 248.08Z" fill="#D1E5F0"/>
<path d="M695.57 253.11L694.26 255.48L697.66 261.94L697.76 266.98L698.38 268.33L702.37 268.4L704.63 266.23L706.27 267.22L706.6 270.29L707.91 269.47L707.99 265.55L706.89 265.42L706.2 262.09L703.42 261.99L702.73 260.14L704.43 257.87L704.46 256.75H699.52L695.57 253.11Z" fill="#D1E5F0"/>
<path d="M729.441 303.65L726.671 299.21L728.681 296.39L726.781 292.9L724.991 292.56L724.651 286.7L721.971 281.51L721.191 282.75L719.401 285.79L717.161 286.13L716.041 284.66L715.481 280.71L713.801 277.55L706.961 271.1L708.641 269.99L708.951 265.32L711.451 261.12L712.531 250.67L716.151 248.2L716.271 244.39L718.441 245.11L721.861 250.06L719.321 255.5L721.031 259.77L725.261 261.43L726.031 266.08L731.711 266.96L730.141 269.67L722.981 272.49L722.201 277.11L727.461 283.87L727.681 287.48L726.451 288.72L726.561 289.85L730.481 295.6L730.591 301.57L729.441 303.65Z" fill="#D1E5F0"/>
<path d="M730.031 270.47L733.271 274.64V279.71L734.391 280.27L739.541 277.79L740.551 278.13L746.701 285.23L746.481 290.08L744.471 289.74L742.681 288.61L741.341 288.72L738.991 292.66L739.441 294.8L741.341 295.81L741.231 298.18L739.891 298.86L735.301 295.7V292.88L733.401 292.77L732.621 294.01L732.221 306.63L735.191 312.05L740.451 317.12L740.231 318.59L737.431 318.48L734.861 314.65H732.171L728.811 311.94L727.801 309.12L729.251 306.75L729.751 304.61L731.331 301.81L731.261 295.37L727.401 289.79L727.241 289.11L728.491 287.85L728.201 283.42L723.061 276.91L723.661 273.16L730.031 270.47Z" fill="#D1E5F0"/>
<path d="M732.711 315.45L734.721 319.96L735.171 325.82L737.861 329.99L744.351 333.93L746.811 334.16L746.361 330.1L744.231 324.92L741.111 318.29L740.851 319.45L737.091 319.28L734.391 315.4L732.711 315.45Z" fill="#D1E5F0"/>
<path d="M740.479 299.47L744.569 303.84L752.179 298.2L752.849 289.3L748.919 292.01L746.879 290.87L744.109 290.5L742.559 289.41L741.809 289.45L739.779 292.78L740.109 294.32L742.169 295.47L741.919 298.6L740.479 299.47Z" fill="#D1E5F0"/>
<path d="M735.469 262.93L733.049 264.16L731.039 270.02L734.399 274.3L733.839 279.03L734.399 279.26L739.989 276.55L747.489 284.93L747.309 290.21L748.939 291.09L752.969 287.82L752.639 285.23L741.009 274.18L741.119 272.49L742.569 271.48L741.559 268.66L736.749 267.87L735.469 262.93Z" fill="#D1E5F0"/>
<path d="M745.059 304.45L746.249 306.32L746.469 308.46L749.599 308.8L753.399 303.73L756.979 302.72L758.879 297.54L757.989 289.2L754.299 284.13L750.409 281.02L745.459 272.52L749.009 266.58L743.929 260.75L739.859 260.57L736.199 262.54L737.289 267.25L742.169 268.11L743.479 271.74L741.759 272.86L741.869 273.76L753.319 284.96L753.769 288.25L753.079 298.65L745.059 304.45Z" fill="#D1E5F0"/>
<path d="M555.461 204.16L558.731 208.43L562.811 210.31L565.321 210.3L569.631 209.13L570.711 207.44L557.961 202.67L555.461 204.16Z" fill="#D1E5F0"/>
<path d="M569.72 209.89L574.52 216.15L573.11 217.8L569.71 217.21L565.49 213.43L565.72 210.95L569.72 209.89Z" fill="#D1E5F0"/>
<path d="M571.41 207.72L570.4 209.44L575.11 215.62L576.75 215.09L579.45 217.92L580.62 212.96L583.55 213.43L583.43 212.01L578.61 207.79L577.69 210.27L571.41 207.72Z" fill="#D1E5F0"/>
<path d="M569.65 217.95L568.43 219.22L568.55 221.23L570.07 223.36L575.46 229.26L574.64 231.62H573.7L573.23 233.98L576.28 237.88L579.09 238.12L584.72 245.91L587.88 246.15L590.34 247.92L590.46 251.46L600.19 257.13H603.82L606.05 255.24L608.86 255.12L610.5 258.9L621.01 260.36L621.32 256.5L624.8 255.24L624.96 253.86L622.19 250.08L616.02 245.12L619.26 242.17L619.03 240.87L614.97 240.24L613.25 226.54L613.05 223.39L602.04 219.18L597.16 220.28L594.43 223.63L592.01 223.47L591.31 224.06L585.92 223.71L579.12 218.75L576.59 215.98L575.43 216.26L573.34 218.65L569.65 217.95Z" fill="#D1E5F0"/>
<path d="M558.701 209.19L556.471 211.55L548.271 211.31L543.351 208.36L538.551 208.24L533.041 212.14L527.881 212.38L527.411 215.33H521.551L519.211 217.46V218.64L520.621 219.82V221.12L520.031 222.66L520.621 223.96L522.501 223.02L524.381 225.03L523.911 226.45L523.211 227.4L524.261 228.58L529.421 229.64L533.051 228.1V225.86L534.811 226.21L539.031 228.69L543.601 227.98L545.591 226.09L546.881 226.56V228.69H548.641L550.161 225.74L563.521 224.32L569.351 223.61L567.811 221.59L567.781 218.86L568.951 217.46L564.691 214.04L564.921 211.09H562.581L558.701 209.19Z" fill="#D1E5F0"/>
<path d="M571.99 289.23L573.43 293.51V297.69L576.89 300.83L601.27 290.9L601.5 288.17L597.59 281.15L587.78 284.28L582.15 289.82L575.62 285.96L571.99 289.23Z" fill="#D1E5F0"/>
<path d="M598.381 280.84L605.771 276.58L607.081 270.33L605.461 269.4L606.131 262.7L607.541 261.88L609.051 264.25L618.041 268.95V271.56L607.151 287.59L602.141 287.76L598.381 280.84Z" fill="#D1E5F0"/>
<path d="M594.01 264.94L594.88 268.42L604.74 269.29L605.43 262.15L607.33 261.11L607.85 258.5L604.74 259.37L601.28 264.6L594.01 264.94Z" fill="#D1E5F0"/>
<path d="M592.629 259.02L592.109 263.03L593.649 264.2L595.049 264.07L595.569 259.02L594.359 258.15L592.629 259.02Z" fill="#D1E5F0"/>
<path d="M583.29 247.17L581.04 245.95L579.48 247.52L579.651 250.66L583.281 252.05L583.29 247.17Z" fill="#D1E5F0"/>
<path d="M584.001 253.24L591.011 263.01L593.271 264.81L594.281 269.19L605.071 270.04L606.291 270.68L605.081 276.08L597.991 280.26L587.621 283.4L582.091 288.8L575.521 284.97L571.541 288.45L566.001 279.4L562.201 277.66L560.821 275.57V271.04L546.991 254.32L546.471 251.36H550.451L555.291 247.18L555.461 245.09L554.081 243.7L556.851 241.44L562.731 241.79L572.761 250.15L578.681 249.88L579.061 251.34L584.001 253.24Z" fill="#D1E5F0"/>
<path d="M546.67 229.13L546.32 231.67L549.14 232.85L549.02 239.89L551.84 239.83L554.66 237.7L555.72 237.52L562.12 232.43L563.41 225.04L550.62 226.34L549.27 229.3L546.67 229.13Z" fill="#D1E5F0"/>
<path d="M564.309 225.03L562.749 232.74L556.289 238.12L556.699 240.66L563.009 241.09L573.059 249.27L578.679 249.11L578.829 247.22L580.889 245.01L583.769 246.64L584.149 246.28L578.579 238.87L575.939 238.71L572.429 234.2L573.129 230.88L574.199 230.74L574.569 229.27L569.789 224.24L564.309 225.03Z" fill="#D1E5F0"/>
<path d="M548.9 240.78L546.44 249.36L546.33 250.67H550.2L554.53 246.85L554.64 245.4L552.87 243.59L556.04 240.96L555.58 238.52L554.71 238.72L552.07 240.61L548.9 240.78Z" fill="#D1E5F0"/>
<path d="M546.199 232.44L546.259 234.39L545.439 237.35L548.259 237.59L548.439 233.39L546.199 232.44Z" fill="#D1E5F0"/>
<path d="M545.32 238.06L543.74 243.09L545.79 249.12L548.14 240.31V238.42L545.32 238.06Z" fill="#D1E5F0"/>
<path d="M543.211 229.84L544.441 230.73L540.631 234.34L538.811 234.28L537.461 233.33L537.641 231.56L540.401 231.38L543.211 229.84Z" fill="#D1E5F0"/>
<path d="M515.46 102.14L517.48 100.66L517.3 99L516.02 98.26L516.2 96.23H517.3V95.12L512.53 93.83L505.38 94.57L504.65 97.71L503 97.16L501.9 95.31L498.41 95.49L498.04 99L496.39 99.74L495.47 97.89L488.13 103.8L489.6 105.46L486.85 106.75L480.61 119.13L478.41 120.61L478.59 121.72L480.79 122.83L480.24 125.23L476.57 125.04L475.47 123.75L473.09 126.52L471.62 127.63L471.25 130.22L469.97 130.96L466.67 131.7L465.02 136.88L466.12 145.38L467.4 149.26L468.87 150.74L472.17 150.56L476.94 145.94L478.77 142.8L479.32 147.42L482.44 141.88L482.62 126.35L485.16 124.75L485.92 116.18L493.62 105.09L497.29 103.8L498.94 101.77L504.44 103.06L507.19 104.72L508.11 100.1L512.7 97.33L515.46 102.14Z" fill="#D1E5F0"/>
<path d="M446.12 149.08L444.29 151.85L445.02 152.96H449.24V154.81L448.14 156.29L448.87 160.17L451.25 164.79L453.08 169.04L456.01 170.15L457.29 172.37L457.11 174.4L455.28 175.51L455.1 176.43L456.38 177.17L455.28 178.65L452.71 179.76L447.76 179.21L440.05 182.72L437.48 181.43L444.82 177.18L443.9 176.63L440.05 176.26L442.43 172.75L442.8 169.79L445.92 169.42L445.37 163.69L441.7 163.51L440.6 162.22L440.78 157.97L438.58 158.15L440.78 150.76L444.82 147.8L446.12 149.08Z" fill="#D1E5F0"/>
<path d="M438.419 161.47L435.119 161.84L434.939 164.8L437.139 166.28L439.519 165.73L440.439 164.07L438.419 161.47Z" fill="#D1E5F0"/>
<path d="M439.511 166.55L438.601 172.55L430.531 175.51H427.961L426.131 174.22V173.11L430.171 170.52L429.071 168.3L429.251 165.16L432.741 165.34L434.341 161.58L434.131 164.92L436.841 167.07L439.511 166.55Z" fill="#D1E5F0"/>
<path d="M497.72 104.58L499.68 106.39H503.35L505.37 110.27L505.92 116.92L500.97 120.43V123.94L497.48 128.75L495.46 128.93L492.71 133.55L492.89 137.99L497.66 141.5L497.29 143.53L495.46 146.3L492.71 148.7L492.89 156.65L488.67 158.13L487.2 161.27H485.18L484.08 155.73L479.49 148.69L483.26 142.38L483.52 126.79L486.12 125.36L486.75 116.44L494.16 105.83L497.72 104.58Z" fill="#D1E5F0"/>
<path d="M506.79 116.94L508.86 117.85L510.14 120.25L508.86 121.91L502.44 128.93L501.34 132.63L502.81 137.99L507.76 141.69L514.36 138.55L519.68 137.81L524.63 129.86L520.96 121.17L517.47 112.85L518.02 107.49L515.82 107.12L515.25 103.21L512.29 98.38L509.01 100.65L507.72 105.92L504.24 103.83L499.4 102.65L498.32 103.91L500.18 105.59L503.57 105.53L506.3 109.94L506.79 116.94Z" fill="#D1E5F0"/>
<path d="M518.071 151.37L511.221 150.26L511.371 154.09L517.721 157.97L520.321 157.21L520.171 154.29L518.071 151.37Z" fill="#D1E5F0"/>
<path d="M506.761 147.64L505.211 147.59L504.311 148.5L504.961 149.46L506.511 149.56L507.311 148.4L506.761 147.64Z" fill="#D1E5F0"/>
<path d="M506.61 151.72L505.11 151.57L502.41 154.8V156.31L503.31 156.66L505.06 156.71L507.96 154.34L508.36 153.53L506.61 151.72Z" fill="#D1E5F0"/>
<path d="M510.809 154.7L508.659 154.65L505.709 157.47H503.209L503.359 161L501.859 163.77L507.259 163.82L508.809 163.62L510.359 165.49L513.909 165.34L517.309 161.01L517.109 158.44L510.809 154.7Z" fill="#D1E5F0"/>
<path d="M510.66 166.29L512.16 168.76L511.56 170.73L511.66 172.29L512.21 174.16L515.31 172.4L519.16 172.5L521.86 173.61H528.71L530.71 168.82L531.91 167.01V165.8L527.61 159.75L523.81 158.24L520.71 157.89L518.01 158.75L518.11 161.47L514.36 166.21L510.66 166.29Z" fill="#D1E5F0"/>
<path d="M511.459 174.76L512.309 176.32L512.509 177.98L511.809 179.59L510.209 182.67L508.859 183.28L507.109 182.52L506.059 182.57L503.509 183.53L500.609 182.67L495.909 179.34L491.309 176.87L489.459 174.05L489.109 167.4L492.709 164.27L497.409 162.71L499.159 162.51L498.459 163.92L498.909 164.47L506.819 164.62L508.519 164.57L511.319 168.86L510.619 170.62L510.919 172.69L511.459 174.76Z" fill="#D1E5F0"/>
<path d="M448.361 205H435.621L433.051 203.84L431.811 203.93L430.311 207.05L430.841 210.26L435.711 210.71L436.331 212.76L434.211 224.71L434.301 226.85L437.751 228.72L441.731 228.99L449.691 227.03L453.581 222.13L453.671 217.14L460.571 210.9L460.921 208.14L454.641 208.05L448.361 205Z" fill="#D1E5F0"/>
<path d="M430.929 211.24L430.309 219.89L428.539 221.49L428.719 222.47L429.959 224.52L429.159 227.02L430.489 227.47L433.589 227.11L433.409 224.61L435.439 213.02L434.999 211.42L430.929 211.24Z" fill="#D1E5F0"/>
<path d="M461.1 217.21L459.51 217.75L459.86 219.18H462.16L463.13 218.11L461.1 217.21Z" fill="#D1E5F0"/>
<path d="M477.56 213.38L474.91 214.72L475.26 219.89L477.38 220.25L478.97 218.73V213.83L477.56 213.38Z" fill="#D1E5F0"/>
<path d="M477.829 206.96L475.879 208.92L475.699 210.7L477.289 211.68L477.909 211.59L478.259 209L477.829 206.96Z" fill="#D1E5F0"/>
<path d="M460.4 178.7L458.19 179.24L453.77 184.05L452.44 184.14L450.67 182.89L449.52 183.16L448.64 185.92L442.18 186.1L442.36 187.53L446.78 190.47L451.91 194.57L451.82 199.47L449.08 204.28L455.01 207.13L461.03 207.31L462.89 205.17L466.69 205.26L467.75 206.24L471.55 205.97L473.5 203.47L471.02 200.53L470.84 198.66L471.37 196.61L470.13 194.83L468.01 195.45L467.74 193.85L472.43 188.68V185.56L469.33 183.78L467.74 183.51L460.4 178.7Z" fill="#D1E5F0"/>
<path d="M470.09 168.27L465.56 170.5L466.52 171.37L466.62 173.6L465.66 173.41L464.6 171.76L462.07 175.77L465.96 176.58L467.41 178.11L468.18 178.13L468.69 174.67L471.14 173.64L470.09 168.27Z" fill="#D1E5F0"/>
<path d="M461.611 176.52L460.971 178.12L467.851 182.66L469.831 183.13L469.901 180.98L468.171 179.04H467.111L465.661 177.39L461.611 176.52Z" fill="#D1E5F0"/>
<path d="M471.14 167.88L474.71 167.3V164.78L477.7 164.29L479.34 165.94L481.07 166.13L483.77 164.96L486.18 165.64L488.3 167.48L488.59 174.37L490.71 177.19L487.92 177.58L483.29 180.49L483.68 181.46L487.82 185.34L487.53 187.28L483.68 189.22L480.11 189.32L479.24 191.16H477.41L476.54 189.22L473.36 188.44L473.26 185.24L470.56 183.4L470.85 181.07L469.02 178.55L469.5 175.25L472 174.08L471.14 167.88Z" fill="#D1E5F0"/>
<path d="M476.771 151.5L472.621 156.09L472.471 159.08L474.361 164.01L477.321 163.45L476.951 159.42L478.991 157.14L478.951 155.35L477.511 151.62L476.771 151.5Z" fill="#D1E5F0"/>
<path d="M481.439 159.64L480.509 159.6L479.289 160.72L479.439 162.47L482.329 162.55L482.479 160.57L481.439 159.64Z" fill="#D1E5F0"/>
<path d="M498.491 150.17L496.381 151.84L497.441 154.29L499.311 152.47L498.491 150.17Z" fill="#D1E5F0"/>
<path d="M472.911 189.38L468.551 194.02L468.641 194.49L470.431 193.93L472.041 196.17L474.761 195.21L476.641 196.67L477.411 196.23L479.731 192.59L479.141 192.03L476.851 191.97L475.741 189.7L472.911 189.38Z" fill="#D1E5F0"/>
<path d="M488.43 184.87H491.4H492.86L495.23 186.56L499.62 182.91L495.36 179.87L491.14 177.83L488.25 178.35L484.33 180.87L488.43 184.87Z" fill="#D1E5F0"/>
<path d="M495.84 187.13L496.53 187.74L496.62 188.78L504.25 188.61L509.89 186.18L509.8 183.71L508.72 184.19L507.17 183.36L506.22 183.32L503.72 184.32L500.32 183.5L495.84 187.13Z" fill="#D1E5F0"/>
<path d="M480.63 190.12L479.98 191.47L480.54 192.43L482.87 191.95H484.85L487 193.77L491.57 192.94L494.93 190.94L495.79 189.59L495.66 187.85L492.64 185.59L488.59 185.63L488.25 187.93L483.99 190.01L480.63 190.12Z" fill="#D1E5F0"/>
<path d="M496.74 189.6L495.58 191.42L495.67 194.2L497.52 195.15L503.21 195.32L511.14 188.64L511.18 187.16L510.32 186.73L504.59 189.33L496.74 189.6Z" fill="#D1E5F0"/>
<path d="M494.8 191.99L492.26 193.51L487.52 194.55L488.47 197.29L491.79 197.33L494.85 194.77L494.8 191.99Z" fill="#D1E5F0"/>
<path d="M495.62 195.16L492.09 198.07H488.51L488.08 200.59L489.72 201.02L490.54 199.8L491.83 200.93L492.86 204.53L499.93 207.83L500.63 207.03L493.46 199.63L494.19 198.28L501 198.02L501.69 195.85L497.25 195.98L495.62 195.16Z" fill="#D1E5F0"/>
<path d="M494.8 198.94L494.43 199.55L501.14 206.47L503.6 202.85L503.51 201.42L501.36 198.81L494.8 198.94Z" fill="#D1E5F0"/>
<path d="M472.27 196.98L471.65 198.55L471.82 200.26L474.21 203.05L477.97 202.92L486.27 212.56L491.45 214.06L494.51 216.95L495.24 223.54L496.88 222.58L498.3 218.99L497.95 216.41L500.38 216.19L500.73 214.73L493.88 211.45L487.38 205.06L484.79 201.24L484.16 197.61L487.47 196.82L486.62 194.43L484.59 192.72L482.84 192.64L480.4 193.31L478.1 196.53L476.71 197.45L474.56 196.13L472.27 196.98Z" fill="#D1E5F0"/>
<path d="M492.439 223.02L490.989 222.24L486.039 223.02L486.209 224.36L490.659 226.6L491.329 227.33L492.499 227.5L492.439 223.02Z" fill="#D1E5F0"/>
<path d="M492.609 230.47L490.939 230.81L490.999 232.66L492.499 233.16L493.169 232.6L492.609 230.47Z" fill="#D1E5F0"/>
<path d="M515.571 173.15L512.671 174.78L513.391 177.86L510.711 183.51L510.731 186L511.991 186.8L520.071 187.2L522.331 185.33L524.751 186.14L528.221 190.77L525.681 195.33L528.701 196.21L532.651 191.66L534.911 192.07L537.011 193.53L535.161 195.97L537.661 199.87H540.321L541.691 197.27L544.511 196.7L544.591 194.59L539.351 193.78L539.511 191.51H544.591L550.071 187.12L552.491 185.01L552.891 178.35L542.091 177.38L537.661 171.13L534.601 170.08L530.891 170.24L529.221 174.37L521.621 174.47L519.151 173.33L515.571 173.15Z" fill="#D1E5F0"/>
<path d="M520.75 187.71L523.85 192.48L523.59 195.18L524.7 195.23L527.33 190.78L524.17 186.86L522.38 186.12L520.75 187.71Z" fill="#D1E5F0"/>
<path d="M512.181 187.6L511.921 189.08L506.131 193.9L510.971 201L514.071 203.17H519.651L521.491 201.63L523.961 201.31L525.801 202.42L529.061 198.71L528.431 196.85L525.121 196L522.861 195.89L522.971 192.71L519.971 187.99L512.181 187.6Z" fill="#D1E5F0"/>
<path d="M504.902 207.248L504.857 206.312L503.537 204.459L501.4 207.48L501.82 208.75L503.561 209.07L504.902 207.248Z" fill="#D1E5F0"/>
<path d="M505.551 194.539L503.5 196.08H502.5L501.82 198.199L504.24 201.01L504.4 203.24L504.059 203.723L505.695 206.021L505.752 207.24L506.93 208.381L510.77 207.211L510.449 201.75L505.551 194.539Z" fill="#D1E5F0"/>
<path d="M511.439 202.39L511.599 207.37L513.279 210.87L519.589 210.98L522.429 208.97L525.219 207.86L524.539 204.68L525.169 202.98L523.749 202.24L521.799 202.4L520.269 203.94L513.849 203.99L511.439 202.39Z" fill="#D1E5F0"/>
<path d="M504.02 209.76V214.37L505.34 216.86L506.29 216.75L507.92 213.78L506.97 212.45L506.6 209.16L505.34 207.99L504.02 209.76Z" fill="#D1E5F0"/>
<path d="M510.921 208.01L507.551 209.12L507.711 211.98L508.501 212.99L512.501 211.13L510.921 208.01Z" fill="#D1E5F0"/>
<path d="M506.71 217.6L506.6 218.93L511.23 221.26L513.44 222.11L512.28 223.33L509.7 223.59L509.33 224.76L510.22 226.77L513.11 228.31L514.37 228.42L514.53 224.97L516.42 222.69L511.26 216.59L511.94 214.52L513.15 214.47L514.99 215.95L516.15 215.37L516.52 213.3L521.94 213.35L522.15 210.17L519.89 211.76L513.26 211.6L508.95 213.83L506.71 217.6Z" fill="#D1E5F0"/>
<path d="M523.019 209.7L522.859 213.25L525.959 212.3L527.379 211.35L526.959 209.81L525.489 208.64L523.019 209.7Z" fill="#D1E5F0"/>
<path d="M516.761 230.59L518.391 230.64L519.071 231.65H521.441L523.021 231.07L523.551 231.71L522.501 233.09L517.871 233.25L517.031 232.14L516.141 231.61L516.761 230.59Z" fill="#D1E5F0"/>
<path fill-rule="evenodd" clip-rule="evenodd" d="M585.107 311.175L586.599 311.338Z" fill="white"/>
<path d="M583.6 312.893C583.587 312.819 583.576 312.727 583.579 312.622C583.582 312.539 583.595 312.445 583.623 312.344C583.647 312.251 583.685 312.153 583.736 312.048C583.786 311.946 583.849 311.84 583.926 311.728C584.003 311.616 584.092 311.502 584.194 311.381C584.309 311.244 584.432 311.109 584.569 310.961L584.611 310.916C584.647 310.878 584.656 310.841 584.656 310.81C584.656 310.798 584.654 310.788 584.653 310.779C584.651 310.763 584.645 310.748 584.643 310.742C584.637 310.726 584.64 310.732 584.64 310.741C584.64 310.75 584.637 310.766 584.621 310.786C584.621 310.786 584.627 310.782 584.635 310.772C584.648 310.759 584.662 310.745 584.678 310.73C584.708 310.702 584.74 310.673 584.774 310.643C584.819 310.602 584.866 310.561 584.915 310.519C584.948 310.491 584.982 310.462 585.017 310.433C585.039 310.417 585.058 310.401 585.078 310.386C585.091 310.376 585.099 310.37 585.107 310.366C585.395 310.21 585.578 310.112 585.869 309.955C585.883 309.947 585.896 309.94 585.906 309.931C585.946 309.902 585.962 309.873 585.967 309.865C585.983 309.837 585.988 309.814 585.991 309.801C585.999 309.774 586.002 309.752 586.004 309.736C586.006 309.726 586.007 309.727 586.005 309.73C586.004 309.733 586.003 309.739 585.997 309.745C585.995 309.751 585.989 309.756 585.984 309.761C585.962 309.783 585.946 309.791 585.946 309.791C585.938 309.795 585.944 309.792 585.959 309.785C585.978 309.778 586.024 309.758 586.059 309.741C586.081 309.731 586.116 309.714 586.15 309.691C586.166 309.679 586.2 309.654 586.221 309.619C586.229 309.603 586.232 309.6 586.232 309.6C586.245 309.574 586.259 309.551 586.276 309.527C586.292 309.504 586.313 309.48 586.336 309.456C586.368 309.423 586.405 309.39 586.446 309.354C586.481 309.323 586.517 309.292 586.555 309.258C586.56 309.253 586.571 309.244 586.579 309.238C586.574 309.242 586.577 309.239 586.59 309.232C586.603 309.225 586.619 309.216 586.639 309.206C586.668 309.192 586.699 309.177 586.732 309.162C586.797 309.133 586.863 309.105 586.935 309.073C586.964 309.06 586.996 309.047 587.028 309.033C587.049 309.022 587.082 309.008 587.114 308.99C587.122 308.986 587.151 308.97 587.175 308.949C587.199 308.928 587.207 308.917 587.207 308.917C587.231 308.888 587.242 308.863 587.249 308.844C587.26 308.819 587.265 308.796 587.271 308.776C587.276 308.746 587.281 308.717 587.281 308.69C587.284 308.651 587.284 308.614 587.283 308.577C587.281 308.525 587.277 308.474 587.272 308.425C587.264 308.36 587.256 308.296 587.248 308.233C587.242 308.203 587.24 308.174 587.234 308.145C587.232 308.129 587.232 308.115 587.229 308.102C587.228 308.093 587.229 308.087 587.229 308.087C587.234 308.037 587.242 307.99 587.256 307.941C587.272 307.882 587.29 307.823 587.312 307.764C587.346 307.669 587.387 307.575 587.429 307.478C587.45 307.425 587.474 307.372 587.496 307.319C587.554 307.18 587.622 307.041 587.698 306.904C587.788 306.74 587.889 306.576 587.993 306.412C588.129 306.197 588.27 305.983 588.401 305.765C588.493 305.612 588.579 305.459 588.655 305.303C588.723 305.163 588.783 305.021 588.83 304.879C588.849 304.826 588.863 304.773 588.877 304.72C588.888 304.68 588.904 304.638 588.924 304.594C588.954 304.526 588.989 304.46 589.025 304.386C589.049 304.336 589.073 304.285 589.092 304.232C589.103 304.2 589.108 304.17 589.114 304.148C589.122 304.102 589.124 304.058 589.124 304.018C589.126 303.965 589.126 303.912 589.124 303.861C589.122 303.783 589.116 303.705 589.111 303.63C589.103 303.524 589.089 303.419 589.076 303.317C589.06 303.195 589.041 303.076 589.02 302.958C589.001 302.856 588.981 302.756 588.958 302.657C588.942 302.584 588.922 302.514 588.901 302.444C588.885 302.389 588.868 302.336 588.848 302.283C588.832 302.239 588.813 302.195 588.789 302.15C588.776 302.123 588.756 302.092 588.731 302.061C588.718 302.044 588.697 302.02 588.663 301.995C588.65 301.987 588.636 301.977 588.618 301.967C588.556 301.934 588.473 301.915 588.385 301.915C588.298 301.915 588.214 301.934 588.152 301.967C588.09 302 588.055 302.045 588.055 302.093C588.055 302.14 588.09 302.185 588.151 302.218C588.141 302.213 588.135 302.208 588.13 302.205C588.122 302.198 588.119 302.195 588.124 302.202C588.133 302.213 588.141 302.226 588.152 302.247C588.169 302.279 588.184 302.314 588.199 302.354C588.215 302.4 588.232 302.448 588.248 302.499C588.266 302.564 588.284 302.631 588.301 302.701C588.322 302.796 588.343 302.893 588.361 302.992C588.383 303.107 588.4 303.223 588.416 303.342C588.429 303.441 588.44 303.543 588.449 303.645C588.454 303.718 588.46 303.792 588.463 303.866C588.464 303.914 588.465 303.963 588.463 304.011C588.462 304.048 588.46 304.083 588.455 304.117C588.452 304.137 588.449 304.151 588.444 304.162C588.428 304.205 588.408 304.248 588.386 304.295C588.355 304.359 588.313 304.438 588.281 304.511C588.259 304.561 588.238 304.614 588.223 304.669C588.21 304.718 588.195 304.767 588.179 304.816C588.136 304.947 588.08 305.079 588.016 305.212C587.944 305.359 587.861 305.506 587.772 305.655C587.643 305.869 587.506 306.076 587.367 306.297C587.262 306.462 587.158 306.631 587.064 306.802C586.985 306.946 586.912 307.092 586.851 307.241C586.829 307.292 586.808 307.344 586.785 307.397C586.743 307.493 586.7 307.593 586.663 307.694C586.639 307.759 586.618 307.825 586.601 307.892C586.587 307.948 586.576 308.006 586.569 308.064C586.567 308.083 586.568 308.102 586.569 308.114C586.57 308.133 586.571 308.152 586.574 308.168C586.577 308.199 586.582 308.23 586.587 308.26C586.595 308.323 586.606 308.384 586.612 308.445C586.617 308.492 586.62 308.537 586.622 308.583C586.623 308.615 586.623 308.646 586.621 308.676C586.62 308.698 586.619 308.717 586.613 308.735C586.611 308.748 586.608 308.758 586.605 308.767C586.602 308.774 586.6 308.777 586.603 308.774C586.6 308.777 586.602 308.773 586.616 308.761C586.638 308.743 586.646 308.739 586.64 308.742C586.635 308.745 586.624 308.751 586.601 308.761C586.577 308.772 586.551 308.783 586.522 308.796C586.455 308.824 586.381 308.856 586.309 308.889C586.271 308.906 586.231 308.924 586.192 308.944C586.165 308.957 586.136 308.972 586.107 308.989C586.082 309.002 586.049 309.023 586.018 309.05C586.005 309.06 586 309.065 585.992 309.073C585.957 309.104 585.92 309.135 585.884 309.168C585.84 309.206 585.794 309.247 585.751 309.292C585.719 309.325 585.689 309.36 585.662 309.396C585.635 309.432 585.613 309.47 585.594 309.507C585.592 309.515 585.589 309.517 585.592 309.515C585.611 309.485 585.629 309.472 585.629 309.472C585.637 309.468 585.637 309.466 585.624 309.474C585.602 309.484 585.586 309.49 585.545 309.508C585.528 309.515 585.498 309.528 585.467 309.545C585.456 309.551 585.422 309.571 585.395 309.6C585.389 309.606 585.384 309.613 585.378 309.62C585.37 309.631 585.365 309.64 585.365 309.645C585.354 309.667 585.351 309.686 585.349 309.693C585.343 309.718 585.341 309.737 585.338 309.751C585.335 309.761 585.335 309.763 585.336 309.76C585.336 309.76 585.341 309.744 585.372 309.722C585.38 309.714 585.391 309.709 585.402 309.703C585.175 309.825 584.864 309.993 584.637 310.115C584.626 310.121 584.613 310.128 584.6 310.137C584.576 310.152 584.555 310.168 584.541 310.178C584.514 310.199 584.49 310.218 584.468 310.236C584.429 310.268 584.392 310.299 584.357 310.329C584.305 310.373 584.256 310.416 584.208 310.459C584.173 310.49 584.139 310.521 584.106 310.552C584.087 310.569 584.07 310.586 584.053 310.603C584.045 310.612 584.029 310.626 584.016 310.643C583.987 310.678 583.98 310.712 583.98 310.735C583.978 310.769 583.99 310.8 583.993 310.807C583.996 310.815 583.996 310.82 583.996 310.817C583.996 310.817 583.995 310.814 583.995 310.809C583.995 310.798 583.998 310.779 584.019 310.756C584.021 310.753 583.974 310.804 583.977 310.801C583.839 310.95 583.712 311.09 583.591 311.233C583.485 311.359 583.39 311.481 583.306 311.603C583.222 311.725 583.152 311.842 583.096 311.956C583.038 312.074 582.997 312.185 582.968 312.291C582.936 312.408 582.921 312.516 582.917 312.613C582.912 312.736 582.925 312.842 582.941 312.929C582.951 312.976 582.995 313.018 583.062 313.048C583.13 313.077 583.217 313.091 583.303 313.086C583.39 313.081 583.469 313.058 583.525 313.022C583.58 312.986 583.606 312.939 583.598 312.892L583.6 312.893Z" fill="white"/>
</g>
<defs>
<clipPath id="clip0_307_1559">
<rect width="950" height="620" fill="white"/>
</clipPath>
</defs>
</svg>
