<svg width="123" height="123" viewBox="0 0 123 123" fill="none" xmlns="http://www.w3.org/2000/svg">
<g clip-path="url(#clip0_343_1559)">
<path d="M61.44 122.88C95.3724 122.88 122.88 95.3724 122.88 61.44C122.88 27.5076 95.3724 0 61.44 0C27.5076 0 0 27.5076 0 61.44C0 95.3724 27.5076 122.88 61.44 122.88Z" fill="#FECB00"/>
<path d="M61.4402 114.406C90.6923 114.406 114.406 90.6923 114.406 61.4402C114.406 32.1881 90.6923 8.47461 61.4402 8.47461C32.1881 8.47461 8.47461 32.1881 8.47461 61.4402C8.47461 90.6923 32.1881 114.406 61.4402 114.406Z" fill="#FFC850"/>
<path d="M61.87 112.74C89.9647 112.74 112.74 89.9647 112.74 61.87C112.74 33.7753 89.9647 11 61.87 11C33.7753 11 11 33.7753 11 61.87C11 89.9647 33.7753 112.74 61.87 112.74Z" fill="#DB9300"/>
<path d="M82.5209 35.6753C81.1594 34.5662 79.1606 34.7647 78.0478 36.1224L61.44 56.4206L44.8325 36.1221C43.7194 34.7649 41.7206 34.5662 40.3594 35.675C39.0022 36.786 38.8013 38.7888 39.9122 40.1481L54.7327 58.2619H44.491C42.7366 58.2619 41.3131 59.6853 41.3131 61.4397C41.3131 63.1941 42.7366 64.6176 44.491 64.6176H58.2619V68.8548H44.491C42.7366 68.8548 41.3131 70.2782 41.3131 72.0326C41.3131 73.787 42.7366 75.2105 44.491 75.2105H58.2619V91.1002C58.2619 92.8546 59.6854 94.278 61.4398 94.278C63.1942 94.278 64.6176 92.8546 64.6176 91.1002V75.2105H78.3886C80.143 75.2105 81.5664 73.787 81.5664 72.0326C81.5664 70.2782 80.143 68.8548 78.3886 68.8548H64.6176V64.6176H78.3886C80.143 64.6176 81.5664 63.1941 81.5664 61.4397C81.5664 59.6853 80.143 58.2619 78.3886 58.2619H68.1468L82.967 40.1481C84.0785 38.789 83.8781 36.7862 82.5209 35.6753Z" fill="#FECB00"/>
<path fill-rule="evenodd" clip-rule="evenodd" d="M60.6901 9.00991C67.4798 9.0086 74.2032 10.3579 80.4763 12.9807C86.7494 15.6036 92.4493 19.4486 97.2503 24.296C102.051 29.1435 105.859 34.8985 108.457 41.2323C111.055 47.5661 112.391 54.3545 112.39 61.2099C112.39 61.517 112.39 61.8141 112.39 62.1212C112.213 52.2365 109.16 42.6229 103.61 34.4779C98.0605 26.3329 90.26 20.0166 81.1803 16.3159C72.1006 12.6152 62.1432 11.6937 52.5485 13.6662C42.9538 15.6386 34.146 20.4179 27.2223 27.4085C20.2987 34.3992 15.5652 43.2922 13.6116 52.9797C11.6581 62.6672 12.5708 72.7209 16.236 81.8884C19.9012 91.0559 26.157 98.9319 34.224 104.535C42.2909 110.139 51.8125 113.222 61.6024 113.4H60.6999C46.9882 113.4 33.8382 107.9 24.1426 98.111C14.4469 88.3216 9 75.0443 9 61.2C9 47.3557 14.4469 34.0784 24.1426 24.289C33.8382 14.4996 46.9882 9 60.6999 9L60.6901 9.00991Z" fill="#D08B00"/>
</g>
<defs>
<clipPath id="clip0_343_1559">
<rect width="122.88" height="122.88" fill="white"/>
</clipPath>
</defs>
</svg>
