<svg width="759" height="684" viewBox="0 0 759 684" fill="none" xmlns="http://www.w3.org/2000/svg">
<g clip-path="url(#clip0_338_1637)">
<path d="M728.113 271C728.113 389.6 651.933 490.4 545.833 527.14C503.126 541.845 457.435 545.714 412.863 538.4C408.633 537.71 404.433 536.917 400.263 536.02C394.613 534.82 389.03 533.44 383.513 531.88C269.603 499.82 186.113 395.16 186.113 271C186.113 121.33 307.443 0 457.113 0C606.783 0 728.113 121.33 728.113 271Z" fill="#E6E6E6"/>
<path d="M287.376 354.643C286.899 354.898 286.542 355.332 286.385 355.85C286.228 356.368 286.282 356.927 286.537 357.405L388.425 548.244C388.681 548.721 389.115 549.077 389.633 549.235C390.15 549.392 390.71 549.338 391.187 549.083L535.217 472.186C535.694 471.931 536.05 471.496 536.208 470.979C536.365 470.461 536.31 469.902 536.056 469.424L434.167 278.585C433.912 278.108 433.478 277.751 432.96 277.594C432.442 277.437 431.883 277.491 431.406 277.746L287.376 354.643Z" fill="#4A8ACF"/>
<path d="M300.764 360.219L394.003 534.854L521.829 466.609L428.59 291.973L300.764 360.219ZM292.664 364.543L292.682 364.534L292.662 364.544L292.664 364.543Z" fill="white"/>
<path d="M332.994 379.418C331.008 380.479 330.585 383.574 332.05 386.317C333.515 389.06 336.322 390.431 338.308 389.371L431.927 339.387C433.913 338.327 434.335 335.232 432.871 332.489C431.406 329.746 428.599 328.375 426.613 329.435L332.994 379.418Z" fill="#356BB3"/>
<path d="M344.529 401.023C342.543 402.083 342.121 405.178 343.585 407.922C345.05 410.665 347.857 412.035 349.843 410.975L443.462 360.992C445.448 359.932 445.871 356.837 444.406 354.093C442.941 351.35 440.134 349.98 438.149 351.04L344.529 401.023Z" fill="#356BB3"/>
<path d="M356.062 422.628C354.077 423.688 353.654 426.783 355.118 429.526C356.583 432.269 359.39 433.64 361.376 432.58L454.995 382.596C456.981 381.536 457.404 378.441 455.939 375.698C454.475 372.955 451.668 371.584 449.682 372.644L356.062 422.628Z" fill="#356BB3"/>
<path d="M367.598 444.232C365.612 445.292 365.189 448.387 366.654 451.13C368.118 453.873 370.925 455.244 372.911 454.184L466.53 404.201C468.516 403.141 468.939 400.046 467.474 397.302C466.01 394.559 463.203 393.189 461.217 394.249L367.598 444.232Z" fill="#356BB3"/>
<path d="M379.133 465.836C377.147 466.897 376.724 469.992 378.189 472.735C379.653 475.478 382.46 476.849 384.446 475.788L478.066 425.805C480.051 424.745 480.474 421.65 479.01 418.907C477.545 416.164 474.738 414.793 472.752 415.853L379.133 465.836Z" fill="#356BB3"/>
<path d="M397.312 272.193L482.142 277.373L505.899 206.525L431.494 190.804L397.312 272.193Z" fill="#293148"/>
<path d="M458.492 254.278C477.229 254.278 492.419 239.088 492.419 220.351C492.419 201.613 477.229 186.423 458.492 186.423C439.754 186.423 424.564 201.613 424.564 220.351C424.564 239.088 439.754 254.278 458.492 254.278Z" fill="#FFB8B8"/>
<path d="M545.614 524.5L545.834 527.14C503.126 541.845 457.436 545.714 412.864 538.4L400.264 536.02L412.254 509.43L420.114 492L417.284 431.7L416.984 425.46L416.614 417.5L421.734 417.47L458.134 417.25L492.824 417.03L498.114 417C531.284 457.8 558.654 490.96 545.614 524.5Z" fill="#293148"/>
<path d="M497.612 416.5L416.612 425.5L413.612 369.5C404.106 345.256 410.381 323.616 430.11 304.197L434.121 288.321C435.173 284.154 437.349 280.355 440.41 277.338C443.471 274.321 447.3 272.201 451.482 271.209C464.741 263.605 479.76 259.98 496.612 260.5C503.342 263.128 509.049 267.851 512.889 273.971C516.728 280.091 518.498 287.284 517.937 294.487C514.451 338.496 508.195 379.693 497.612 416.5Z" fill="#356BB3"/>
<path d="M432.826 180.266C432.826 180.266 415.284 186.668 414.833 209.942C414.808 213.859 415.331 217.76 416.387 221.532C417.524 225.809 418.437 235.09 410.787 247.463C405.789 255.493 401.27 263.812 397.254 272.377L417.007 274.283L420.273 241.538C421.857 225.662 425.769 210.106 431.884 195.371L432.012 195.063C432.012 195.063 441.074 210.813 458.297 210.328L451.973 204.35C451.973 204.35 473.545 212.474 485.275 214.105C486.614 214.292 487.876 214.84 488.927 215.69C489.977 216.541 490.775 217.662 491.235 218.933C491.696 220.204 491.801 221.576 491.539 222.902C491.277 224.228 490.658 225.458 489.749 226.458C489.68 226.534 489.61 226.609 489.538 226.685C482.365 234.274 468.087 251.913 477.08 265.203C486.073 278.493 478.795 282.392 478.795 282.392L492.12 274.629L498.167 270.765L498.306 275.686L530.188 271.094C530.188 271.094 538.764 269.622 519.722 249.228C519.722 249.228 514.62 241.243 516.555 234.179C518.157 228.806 518.458 223.129 517.433 217.617C512.649 194.671 495.138 149.276 432.826 180.266Z" fill="#293148"/>
<path d="M457.113 681.157C524.492 681.157 579.113 678.023 579.113 674.157C579.113 670.291 524.492 667.157 457.113 667.157C389.735 667.157 335.113 670.291 335.113 674.157C335.113 678.023 389.735 681.157 457.113 681.157Z" fill="#E6E6E6"/>
<path d="M0.742337 322.533C0.486204 322.601 0.267717 322.768 0.134824 322.998C0.00193086 323.227 -0.0345186 323.5 0.0334903 323.756L27.3236 426.183C27.3922 426.439 27.5595 426.658 27.7889 426.791C28.0183 426.924 28.2911 426.96 28.5474 426.892L105.851 406.296C106.107 406.227 106.325 406.06 106.458 405.83C106.591 405.601 106.627 405.328 106.559 405.072L79.2693 302.645C79.2008 302.389 79.0335 302.171 78.8041 302.038C78.5746 301.905 78.3019 301.868 78.0456 301.936L0.742337 322.533Z" fill="#F2F2F2"/>
<path d="M19.7386 339.449C18.6727 339.733 18.1253 341.162 18.5176 342.634C18.9098 344.107 20.0959 345.074 21.1617 344.79L71.4088 331.403C72.4747 331.119 73.0221 329.689 72.6298 328.217C72.2375 326.745 71.0515 325.777 69.9856 326.061L19.7386 339.449Z" fill="white"/>
<path d="M22.8284 351.044C21.7626 351.328 21.2151 352.757 21.6074 354.23C21.9997 355.702 23.1857 356.669 24.2516 356.386L74.4987 342.998C75.5645 342.714 76.1119 341.285 75.7197 339.812C75.3274 338.34 74.1413 337.372 73.0755 337.656L22.8284 351.044Z" fill="white"/>
<path d="M25.9163 362.64C24.8505 362.924 24.303 364.353 24.6953 365.825C25.0876 367.298 26.2736 368.265 27.3394 367.981L77.5866 354.594C78.6524 354.31 79.1998 352.88 78.8076 351.408C78.4153 349.936 77.2293 348.968 76.1634 349.252L25.9163 362.64Z" fill="white"/>
<path d="M29.0062 374.235C27.9403 374.519 27.3929 375.948 27.7851 377.421C28.1774 378.893 29.3635 379.86 30.4293 379.576L80.6764 366.189C81.7422 365.905 82.2897 364.475 81.8974 363.003C81.5051 361.531 80.3191 360.563 79.2532 360.847L29.0062 374.235Z" fill="white"/>
<path d="M32.096 385.831C31.0301 386.115 30.4827 387.544 30.875 389.016C31.2673 390.489 32.4533 391.456 33.5191 391.172L83.7663 377.784C84.8321 377.5 85.3795 376.071 84.9873 374.599C84.595 373.127 83.4089 372.159 82.3431 372.443L32.096 385.831Z" fill="white"/>
<path d="M35.1858 397.426C34.12 397.71 33.5726 399.14 33.9648 400.612C34.3571 402.084 35.5431 403.052 36.609 402.768L86.8561 389.38C87.9219 389.096 88.4694 387.667 88.0771 386.195C87.6848 384.722 86.4988 383.755 85.4329 384.039L35.1858 397.426Z" fill="white"/>
<path d="M198.297 683.426C198.297 683.553 198.745 683.657 199.297 683.657H305.297C305.849 683.657 306.297 683.553 306.297 683.426V664.889C306.297 664.761 305.849 664.657 305.297 664.657H199.297C198.745 664.657 198.297 664.761 198.297 664.889V683.426Z" fill="#F2F2F2"/>
<path d="M219.533 680.182C219.533 680.437 220.773 680.645 222.297 680.645C223.821 680.645 225.061 680.437 225.061 680.182V668.133C225.061 667.877 223.821 667.669 222.297 667.669C220.773 667.669 219.533 667.877 219.533 668.133V680.182Z" fill="white"/>
<path d="M231.533 680.182C231.533 680.437 232.773 680.645 234.297 680.645C235.821 680.645 237.061 680.437 237.061 680.182V668.133C237.061 667.877 235.821 667.669 234.297 667.669C232.773 667.669 231.533 667.877 231.533 668.133V680.182Z" fill="white"/>
<path d="M243.533 680.182C243.533 680.437 244.773 680.645 246.297 680.645C247.821 680.645 249.061 680.437 249.061 680.182V668.133C249.061 667.877 247.821 667.669 246.297 667.669C244.773 667.669 243.533 667.877 243.533 668.133V680.182Z" fill="white"/>
<path d="M255.533 680.182C255.533 680.437 256.773 680.645 258.297 680.645C259.821 680.645 261.061 680.437 261.061 680.182V668.133C261.061 667.877 259.821 667.669 258.297 667.669C256.773 667.669 255.533 667.877 255.533 668.133V680.182Z" fill="white"/>
<path d="M267.533 680.182C267.533 680.437 268.773 680.645 270.297 680.645C271.821 680.645 273.061 680.437 273.061 680.182V668.133C273.061 667.877 271.821 667.669 270.297 667.669C268.773 667.669 267.533 667.877 267.533 668.133V680.182Z" fill="white"/>
<path d="M279.533 680.182C279.533 680.437 280.773 680.645 282.297 680.645C283.821 680.645 285.061 680.437 285.061 680.182V668.133C285.061 667.877 283.821 667.669 282.297 667.669C280.773 667.669 279.533 667.877 279.533 668.133V680.182Z" fill="white"/>
<path d="M3.5775 248.617C3.34374 248.742 3.16915 248.955 3.09207 249.209C3.01499 249.463 3.04169 249.736 3.16633 249.97L53.0898 343.478C53.2149 343.712 53.4276 343.886 53.6813 343.963C53.935 344.04 54.2089 344.014 54.4429 343.889L125.015 306.211C125.248 306.086 125.423 305.873 125.5 305.62C125.577 305.366 125.55 305.092 125.426 304.858L75.5023 211.35C75.3772 211.117 75.1644 210.942 74.9108 210.865C74.6571 210.788 74.3832 210.815 74.1492 210.939L3.5775 248.617Z" fill="#E6E6E6"/>
<path d="M10.1377 251.35L55.8227 336.917L118.455 303.478L72.7701 217.91L10.1377 251.35ZM6.16895 253.468L6.17773 253.464L6.16797 253.469L6.16895 253.468Z" fill="white"/>
<path d="M25.929 260.757C24.956 261.277 24.7489 262.793 25.4665 264.137C26.1841 265.481 27.5595 266.153 28.5325 265.634L74.4041 241.143C75.3771 240.623 75.5843 239.107 74.8666 237.763C74.149 236.419 72.7736 235.747 71.8006 236.267L25.929 260.757Z" fill="#356BB3"/>
<path d="M31.5814 271.343C30.6084 271.862 30.4012 273.379 31.1188 274.723C31.8364 276.067 33.2118 276.739 34.1848 276.219L80.0564 251.728C81.0294 251.209 81.2366 249.692 80.519 248.348C79.8013 247.004 78.426 246.333 77.453 246.852L31.5814 271.343Z" fill="#356BB3"/>
<path d="M37.2337 281.929C36.2607 282.448 36.0536 283.965 36.7712 285.309C37.4888 286.653 38.8642 287.325 39.8372 286.805L85.7088 262.314C86.6818 261.795 86.889 260.278 86.1714 258.934C85.4538 257.59 84.0784 256.918 83.1054 257.438L37.2337 281.929Z" fill="#356BB3"/>
<path d="M42.8841 292.514C41.9111 293.034 41.7039 294.55 42.4216 295.894C43.1392 297.238 44.5145 297.91 45.4875 297.39L91.3592 272.9C92.3322 272.38 92.5393 270.864 91.8217 269.52C91.1041 268.175 89.7287 267.504 88.7557 268.023L42.8841 292.514Z" fill="#356BB3"/>
<path d="M48.5365 303.1C47.5635 303.62 47.3563 305.136 48.0739 306.48C48.7915 307.824 50.1669 308.496 51.1399 307.976L97.0115 283.486C97.9845 282.966 98.1917 281.45 97.4741 280.106C96.7565 278.761 95.3811 278.09 94.4081 278.609L48.5365 303.1Z" fill="#356BB3"/>
<path d="M54.1888 313.686C53.2158 314.206 53.0086 315.722 53.7263 317.066C54.4439 318.41 55.8193 319.082 56.7923 318.562L102.664 294.072C103.637 293.552 103.844 292.036 103.126 290.691C102.409 289.347 101.033 288.676 100.06 289.195L54.1888 313.686Z" fill="#356BB3"/>
<path d="M689.332 487.575C689.104 487.44 688.832 487.402 688.575 487.468C688.318 487.534 688.098 487.699 687.963 487.927L634.035 579.184C633.901 579.412 633.862 579.685 633.928 579.941C633.994 580.198 634.159 580.418 634.387 580.553L703.26 621.254C703.489 621.388 703.761 621.427 704.018 621.361C704.275 621.295 704.495 621.13 704.63 620.901L758.558 529.645C758.692 529.416 758.731 529.144 758.665 528.887C758.599 528.63 758.434 528.41 758.206 528.275L689.332 487.575Z" fill="#E6E6E6"/>
<path d="M690.409 494.599L641.061 578.108L702.185 614.229L751.534 530.72L690.409 494.599ZM686.536 492.31L686.544 492.315L686.535 492.31L686.536 492.31Z" fill="white"/>
<path d="M690.581 512.98C689.632 512.419 688.229 513.03 687.453 514.342C686.678 515.654 686.82 517.178 687.769 517.739L732.537 544.194C733.486 544.755 734.889 544.144 735.665 542.832C736.44 541.52 736.299 539.996 735.349 539.435L690.581 512.98Z" fill="#356BB3"/>
<path d="M684.476 523.311C683.526 522.75 682.123 523.361 681.348 524.673C680.573 525.985 680.714 527.509 681.664 528.07L726.431 554.525C727.381 555.086 728.784 554.475 729.559 553.163C730.334 551.851 730.193 550.327 729.244 549.766L684.476 523.311Z" fill="#356BB3"/>
<path d="M678.372 533.642C677.423 533.081 676.02 533.692 675.244 535.004C674.469 536.316 674.611 537.84 675.56 538.401L720.328 564.856C721.277 565.417 722.68 564.806 723.456 563.494C724.231 562.182 724.09 560.658 723.14 560.097L678.372 533.642Z" fill="#356BB3"/>
<path d="M672.267 543.973C671.317 543.411 669.914 544.023 669.139 545.335C668.364 546.646 668.505 548.17 669.455 548.732L714.222 575.187C715.172 575.748 716.575 575.136 717.35 573.825C718.125 572.513 717.984 570.989 717.035 570.428L672.267 543.973Z" fill="#356BB3"/>
<path d="M666.161 554.304C665.212 553.742 663.809 554.354 663.033 555.666C662.258 556.977 662.4 558.501 663.349 559.063L708.117 585.518C709.066 586.079 710.469 585.467 711.245 584.156C712.02 582.844 711.879 581.32 710.929 580.759L666.161 554.304Z" fill="#356BB3"/>
<path d="M660.056 564.635C659.106 564.074 657.703 564.685 656.928 565.997C656.153 567.308 656.294 568.833 657.244 569.394L702.011 595.849C702.961 596.41 704.364 595.798 705.139 594.487C705.914 593.175 705.773 591.651 704.824 591.09L660.056 564.635Z" fill="#356BB3"/>
<path d="M440.613 321.5L439.574 327.94L428.613 395.5L421.734 417.47L419.314 425.2L417.284 431.7L392.613 510.5L385.845 526.403C382.131 527.776 378.939 530.276 376.716 533.553C374.493 536.83 373.349 540.719 373.445 544.678C373.541 548.637 374.872 552.466 377.251 555.632C379.63 558.797 382.939 561.139 386.716 562.331C390.492 563.523 394.546 563.506 398.311 562.28C402.077 561.055 405.365 558.684 407.717 555.498C410.068 552.312 411.365 548.471 411.427 544.512C411.488 540.552 410.31 536.673 408.058 533.416L456.344 421.09L458.134 417.25L463.613 405.5L473.964 327.41L474.613 322.5L440.613 321.5Z" fill="#FFB8B8"/>
<path d="M480.613 329.5C464.898 323.852 449.822 323.252 435.613 329.5L440.251 289.305C440.081 284.285 441.887 279.399 445.281 275.698C448.676 271.996 453.388 269.775 458.403 269.511C463.48 269.244 468.456 271.004 472.235 274.406C476.014 277.807 478.288 282.57 478.555 287.648L478.558 287.714L480.613 329.5Z" fill="#356BB3"/>
</g>
<defs>
<clipPath id="clip0_338_1637">
<rect width="758.697" height="683.657" fill="white"/>
</clipPath>
</defs>
</svg>
