<svg width="525" height="401" viewBox="0 0 525 401" fill="none" xmlns="http://www.w3.org/2000/svg">
<g clip-path="url(#clip0_338_1716)">
<path d="M252.765 148.861C255.635 145.7 260.374 146.624 263.528 148.855C267.586 151.726 268.747 156.97 269.345 161.619C270.359 169.488 270.659 180.612 279.582 183.901C283.705 185.421 288.425 184.166 291.907 181.698C295.71 179.002 298.083 174.856 299.672 170.558C301.596 165.354 302.71 159.788 303.654 154.335C304.619 148.759 305.252 143.122 305.536 137.47C305.814 131.94 305.633 126.446 305.413 120.92C305.242 116.605 305.176 112.075 306.634 107.949C308.106 103.782 311.528 100.612 316.028 100.194C320.397 99.7883 324.895 101.63 328.056 104.603C335.638 111.736 335.995 123.381 337.69 132.945C338.58 137.97 339.882 143.054 342.611 147.426C344.855 151.022 347.974 154.036 351.566 156.272C358.811 160.783 368.044 162.099 376.084 159C383.934 155.975 390.253 149.361 392.987 141.411C393.662 139.448 394.079 137.42 394.29 135.357C394.389 134.397 392.888 134.404 392.79 135.357C391.892 144.126 386.262 152.068 378.549 156.227C370.611 160.507 360.999 159.964 353.244 155.527C349.432 153.346 346.116 150.269 343.811 146.517C341.017 141.967 339.82 136.664 338.949 131.456C337.377 122.051 336.664 111.253 329.615 104.032C324.149 98.4315 314.089 96.184 308.214 102.422C302.165 108.845 303.978 119.192 304.171 127.166C304.454 138.844 303.25 150.549 300.581 161.921C299.42 166.871 298.083 171.976 295.168 176.221C292.503 180.1 288.148 183.107 283.299 183.059C278.462 183.011 275.065 179.457 273.348 175.219C271.536 170.748 271.418 165.92 270.791 161.201C270.215 156.869 269.167 152.075 265.918 148.904C263.392 146.439 259.644 144.852 256.089 145.419C254.38 145.692 252.865 146.522 251.704 147.8C251.057 148.514 252.114 149.578 252.765 148.861Z" fill="#356BB3"/>
<path d="M469.54 309.225C468.696 307.802 465.043 309.326 464.372 308.034C463.703 306.747 467.096 304.785 469.035 300.304C469.385 299.496 471.588 294.404 469.957 292.833C466.865 289.854 452.717 302.145 447.766 298.123C446.68 297.24 445.921 295.478 442.632 292.617C441.324 291.479 440.533 290.965 439.767 291.156C438.681 291.428 438.595 292.881 437.43 295.74C435.683 300.028 434.649 299.769 433.632 303.189C432.876 305.728 433.048 307.205 432.159 307.492C430.901 307.899 429.743 305.206 428.148 305.447C426.521 305.693 425.537 308.829 425.227 311.177C424.644 315.583 426.262 318.491 427.158 321.548C428.133 324.87 428.712 329.923 426.461 337.075L404.184 399.842C409.102 386.962 423.342 351.656 429.326 338.536C431.053 334.749 432.96 330.907 436.877 329.391C440.647 327.931 445.825 328.803 452.427 327.212C453.198 327.027 455.338 326.482 455.607 325.224C455.83 324.183 454.571 323.603 454.764 322.628C455.024 321.321 457.499 321.305 460.54 319.797C462.684 318.734 464.02 317.47 465.169 316.382C465.515 316.054 470.664 311.12 469.54 309.225Z" fill="#F2F2F2"/>
<path d="M381.896 342.268C380.953 342.272 380.648 344.504 379.82 344.461C378.995 344.418 379.011 342.186 377.371 339.942C377.076 339.537 375.212 336.986 373.97 337.334C371.616 337.992 373.567 348.482 370.164 349.751C369.417 350.03 368.334 349.894 365.98 350.683C365.044 350.997 364.564 351.237 364.437 351.667C364.257 352.279 364.945 352.741 366.012 354.137C367.612 356.232 367.187 356.664 368.572 358.151C369.601 359.254 370.375 359.595 370.26 360.115C370.096 360.85 368.44 360.641 368.099 361.493C367.75 362.363 369.005 363.751 370.068 364.581C372.062 366.138 373.956 366.183 375.715 366.625C377.627 367.105 380.274 368.279 383.135 371.447L407.513 400.491C402.611 394.361 389.391 377.185 384.679 370.463C383.318 368.522 381.983 366.478 382.369 364.118C382.74 361.846 384.662 359.556 385.786 355.857C385.918 355.425 386.268 354.218 385.728 353.723C385.281 353.313 384.633 353.763 384.211 353.387C383.644 352.883 384.35 351.664 384.488 349.736C384.585 348.377 384.349 347.356 384.147 346.478C384.086 346.214 383.15 342.263 381.896 342.268Z" fill="#F2F2F2"/>
<path d="M400.695 346.488L400.127 341.42L400.386 341.036C401.587 339.259 402.199 337.524 402.206 335.877C402.207 335.615 402.195 335.353 402.183 335.086C402.134 334.029 402.072 332.715 402.758 331.183C403.142 330.329 404.221 328.352 405.844 328.596C406.28 328.658 406.611 328.858 406.862 329.093C406.898 329.034 406.936 328.976 406.977 328.912C407.482 328.141 407.882 327.811 408.268 327.493C408.564 327.248 408.87 326.996 409.349 326.399C409.56 326.137 409.724 325.907 409.862 325.714C410.282 325.129 410.83 324.431 411.796 324.444C412.829 324.492 413.37 325.347 413.729 325.912C414.368 326.92 414.658 327.647 414.851 328.129C414.92 328.305 415 328.503 415.04 328.565C415.373 329.054 418.078 328.596 419.098 328.43C421.387 328.048 423.368 327.718 424.184 329.162C424.769 330.194 424.335 331.56 422.854 333.329C422.393 333.88 421.902 334.298 421.467 334.626C421.828 334.842 422.151 335.172 422.282 335.691C422.59 336.919 421.534 338.15 419.144 339.354C418.551 339.655 417.752 340.057 416.632 340.25C416.105 340.341 415.63 340.363 415.224 340.375C415.215 340.61 415.16 340.864 415.017 341.126C414.597 341.897 413.724 342.264 412.407 342.176C410.958 342.1 409.765 341.824 408.713 341.581C407.794 341.371 407.002 341.192 406.381 341.234C405.228 341.327 404.34 342.249 403.297 343.446L400.695 346.488Z" fill="#F2F2F2"/>
<path d="M403.328 316.312L398.57 318.147L398.132 317.993C396.109 317.283 394.276 317.131 392.681 317.542C392.427 317.607 392.177 317.685 391.922 317.765C390.912 318.08 389.656 318.473 388.001 318.199C387.077 318.044 384.891 317.501 384.716 315.87C384.664 315.432 384.775 315.061 384.938 314.759C384.872 314.739 384.806 314.717 384.734 314.694C383.86 314.401 383.439 314.097 383.033 313.805C382.722 313.581 382.4 313.349 381.701 313.036C381.394 312.899 381.13 312.799 380.908 312.714C380.236 312.457 379.422 312.103 379.189 311.165C378.974 310.154 379.663 309.414 380.119 308.924C380.932 308.049 381.562 307.584 381.979 307.276C382.132 307.164 382.303 307.037 382.352 306.982C382.741 306.536 381.613 304.035 381.193 303.091C380.243 300.974 379.421 299.141 380.611 297.986C381.461 297.158 382.892 297.232 384.979 298.215C385.629 298.522 386.158 298.89 386.586 299.228C386.703 298.825 386.94 298.428 387.409 298.17C388.519 297.56 389.978 298.269 391.748 300.276C392.19 300.773 392.781 301.444 393.252 302.478C393.473 302.965 393.615 303.419 393.73 303.809C393.959 303.758 394.219 303.746 394.509 303.818C395.361 304.029 395.938 304.781 396.187 306.077C396.481 307.497 396.516 308.721 396.548 309.801C396.578 310.743 396.606 311.554 396.804 312.145C397.186 313.236 398.304 313.861 399.726 314.566L403.328 316.312Z" fill="#F2F2F2"/>
<path d="M400.695 301.381L400.127 296.313L400.386 295.929C401.587 294.152 402.199 292.417 402.206 290.77C402.207 290.508 402.195 290.246 402.183 289.979C402.134 288.922 402.072 287.608 402.758 286.076C403.142 285.222 404.221 283.245 405.844 283.49C406.28 283.551 406.611 283.751 406.862 283.986C406.898 283.928 406.936 283.869 406.977 283.805C407.482 283.034 407.882 282.704 408.268 282.386C408.564 282.141 408.87 281.889 409.349 281.292C409.56 281.03 409.724 280.8 409.862 280.607C410.282 280.022 410.83 279.324 411.796 279.337C412.829 279.386 413.37 280.24 413.729 280.805C414.368 281.813 414.658 282.54 414.851 283.022C414.92 283.198 415 283.396 415.04 283.458C415.373 283.947 418.078 283.489 419.098 283.323C421.387 282.941 423.368 282.611 424.184 284.055C424.769 285.087 424.335 286.453 422.854 288.222C422.393 288.773 421.902 289.191 421.467 289.519C421.828 289.735 422.151 290.065 422.282 290.584C422.59 291.812 421.534 293.043 419.144 294.247C418.551 294.548 417.752 294.95 416.632 295.143C416.105 295.234 415.63 295.256 415.224 295.268C415.215 295.503 415.16 295.757 415.017 296.019C414.597 296.79 413.724 297.157 412.407 297.069C410.958 296.993 409.765 296.717 408.713 296.474C407.794 296.264 407.002 296.085 406.381 296.127C405.228 296.22 404.34 297.142 403.297 298.339L400.695 301.381Z" fill="#F2F2F2"/>
<path d="M405.881 399.759L404.819 399.093L403.581 399.235C403.561 399.12 403.494 398.856 403.392 398.442C402.838 396.176 401.148 389.28 399.738 378.419C398.755 370.838 398.198 363.044 398.083 355.249C397.968 347.443 398.337 341.533 398.634 336.783C398.857 333.2 399.129 329.789 399.396 326.465C400.106 317.587 400.775 309.2 400.277 299.915C400.167 297.843 399.935 293.528 397.415 288.937C395.953 286.275 393.939 283.911 391.428 281.914L392.989 279.951C395.76 282.159 397.989 284.777 399.612 287.733C402.407 292.824 402.659 297.525 402.78 299.783C403.287 309.232 402.61 317.699 401.893 326.664C401.629 329.975 401.357 333.371 401.135 336.939C400.841 341.645 400.475 347.504 400.589 355.21C400.701 362.912 401.252 370.61 402.222 378.096C403.615 388.82 405.28 395.614 405.827 397.845C406.118 399.037 406.18 399.287 405.881 399.759Z" fill="#F2F2F2"/>
<path d="M386.831 285.895C386.728 285.895 386.624 285.893 386.519 285.885C384.385 285.77 382.409 284.493 380.644 282.09C379.817 280.959 379.394 279.67 378.55 277.098C378.419 276.701 377.782 274.69 377.396 271.922C377.142 270.113 377.174 269.357 377.533 268.689C377.93 267.945 378.574 267.426 379.298 267.076C379.267 266.836 379.292 266.589 379.396 266.337C379.823 265.292 380.959 265.429 381.573 265.495C381.884 265.535 382.272 265.586 382.69 265.564C383.349 265.532 383.702 265.336 384.238 265.043C384.751 264.761 385.388 264.411 386.334 264.218C388.199 263.829 389.762 264.357 390.277 264.531C392.987 265.434 394.323 267.541 395.87 269.981C396.178 270.47 397.236 272.252 397.935 274.694C398.439 276.456 398.368 277.239 398.217 277.822C397.908 279.019 397.18 279.704 395.331 281.216C393.4 282.8 392.431 283.592 391.599 284.075C389.662 285.193 388.446 285.895 386.831 285.895Z" fill="#F2F2F2"/>
<path d="M333.811 87.3356H299.59C298.727 87.3356 298.025 86.6337 298.025 85.7709C298.025 84.9082 298.727 84.2065 299.59 84.2065H333.811C334.673 84.2065 335.375 84.9082 335.375 85.7709C335.375 86.6337 334.673 87.3356 333.811 87.3356Z" fill="#E6E6E6"/>
<path d="M386.811 178.336H352.59C351.727 178.336 351.025 177.634 351.025 176.771C351.025 175.908 351.727 175.207 352.59 175.207H386.811C387.673 175.207 388.375 175.908 388.375 176.771C388.375 177.634 387.673 178.336 386.811 178.336Z" fill="#E6E6E6"/>
<path d="M414.811 240.336H380.59C379.727 240.336 379.025 239.634 379.025 238.771C379.025 237.908 379.727 237.207 380.59 237.207H414.811C415.673 237.207 416.375 237.908 416.375 238.771C416.375 239.634 415.673 240.336 414.811 240.336Z" fill="#E6E6E6"/>
<path d="M258.811 53.3357H224.59C223.727 53.3357 223.025 52.6337 223.025 51.7709C223.025 50.9082 223.727 50.2065 224.59 50.2065H258.811C259.673 50.2065 260.375 50.9082 260.375 51.7709C260.375 52.6337 259.673 53.3357 258.811 53.3357Z" fill="#E6E6E6"/>
<path d="M0 398.594C0 399.254 0.53003 399.784 1.19006 399.784H523.48C524.14 399.784 524.67 399.254 524.67 398.594C524.67 397.934 524.14 397.404 523.48 397.404H1.19006C0.53003 397.404 0 397.934 0 398.594Z" fill="#CCCCCC"/>
<path d="M397.249 222.18H242.148C241.596 222.18 241.148 221.732 241.148 221.18V73.1797C241.148 72.627 241.596 72.1797 242.148 72.1797C242.701 72.1797 243.148 72.627 243.148 73.1797V133.568C243.148 181.402 281.926 220.18 329.76 220.18H397.249C397.801 220.18 398.249 220.627 398.249 221.18C398.249 221.732 397.801 222.18 397.249 222.18Z" fill="#E6E6E6"/>
<path d="M274.811 162.699H240.59C239.727 162.699 239.025 161.997 239.025 161.134C239.025 160.271 239.727 159.57 240.59 159.57H274.811C275.673 159.57 276.375 160.271 276.375 161.134C276.375 161.997 275.673 162.699 274.811 162.699Z" fill="#E6E6E6"/>
<path d="M240.88 167.152C246.308 165.359 249.782 161.106 248.641 157.653C247.5 154.199 242.176 152.853 236.747 154.647C234.568 155.333 232.586 156.532 230.966 158.142L208.066 166.026L211.995 176.693L234.153 167.788C236.414 168.116 238.721 167.898 240.88 167.152Z" fill="#FFB6B6"/>
<path d="M123.168 228.289C123.353 234.002 126.451 238.537 130.087 238.418C133.722 238.3 136.518 233.573 136.332 227.859C136.289 225.575 135.699 223.335 134.613 221.325L133.522 197.131L122.18 197.885L124.459 221.656C123.505 223.732 123.063 226.007 123.168 228.289Z" fill="#FFB6B6"/>
<path d="M149.354 391.311L159.478 391.31L162.072 352L149.352 352.26L149.354 391.311Z" fill="#FFB6B6"/>
<path d="M184.042 391.082C184.357 391.612 184.523 393.326 184.523 393.943C184.523 395.841 182.985 397.38 181.087 397.38H149.733C148.438 397.38 147.388 396.33 147.388 395.036V393.73C147.388 393.73 145.837 389.807 149.031 384.971C149.031 384.971 153 388.758 158.93 382.827L160.679 379.659L173.339 388.917L180.356 389.781C181.891 389.97 183.252 389.752 184.042 391.082Z" fill="#293148"/>
<path d="M173.354 391.311L183.478 391.31L186.072 352L173.352 352.26L173.354 391.311Z" fill="#FFB6B6"/>
<path d="M208.042 391.082C208.357 391.612 208.523 393.326 208.523 393.943C208.523 395.841 206.985 397.38 205.087 397.38H173.733C172.438 397.38 171.388 396.33 171.388 395.036V393.73C171.388 393.73 169.837 389.807 173.031 384.971C173.031 384.971 177 388.758 182.93 382.827L184.679 379.659L197.339 388.917L204.356 389.781C205.891 389.97 207.252 389.752 208.042 391.082Z" fill="#293148"/>
<path d="M155.245 98.5149C163.47 98.5149 170.138 91.847 170.138 83.6217C170.138 75.3964 163.47 68.7285 155.245 68.7285C147.019 68.7285 140.352 75.3964 140.352 83.6217C140.352 91.847 147.019 98.5149 155.245 98.5149Z" fill="#FFB6B6"/>
<path d="M134.639 207.5L141.639 307.5L145.639 374.5L164.639 373.5L162.639 300.5L166.639 255.5L172.639 373.5H187.761L193.639 208.5L161.139 204L134.639 207.5Z" fill="#293148"/>
<path d="M160.639 95.5002C156.403 99.5777 146.614 96.8741 141.639 95.5002C138.9 94.744 137.248 93.9646 136.639 92.5002C136.215 91.4823 136.456 90.517 135.639 88.5002C135.16 87.3188 134.908 87.2307 134.639 86.5002C133.889 84.4639 134.93 82.6497 135.639 80.5002C137.117 76.015 135.352 75.5113 136.639 72.5002C138.573 67.9733 143.835 66.1315 145.639 65.5002C149.006 64.3214 151.815 64.446 152.639 64.5002C157.914 64.8475 161.441 67.5545 162.639 68.5002C165.066 70.4172 166.257 72.4449 168.639 76.5002C170.711 80.0291 170.862 81.3834 170.639 82.5002C170.298 84.202 169.317 84.2083 168.639 86.5002C167.869 89.1018 168.744 90.4093 167.639 91.5002C166.891 92.2376 166.196 91.9309 164.639 92.5002C162.495 93.2838 161.436 94.7325 160.639 95.5002Z" fill="#293148"/>
<path d="M172.638 110.5C172.638 110.5 157.638 91.5003 138.638 98.5003L132.485 110.5L130.429 112.446C121.805 120.61 117.792 132.52 119.719 144.238L128.638 198.5C128.638 198.5 127.638 219.5 134.638 225.5C134.638 225.5 144.638 206.5 168.638 215.5C192.638 224.5 197.638 219.5 197.638 219.5L189.638 162.5L172.638 110.5Z" fill="#293148"/>
<path d="M167.639 113.5L162.639 124.5L181.639 188.5L233.639 169.5L226.639 157.5L201.639 164.5C201.639 164.5 182.639 108.5 167.639 113.5Z" fill="#293148"/>
<path d="M132.139 214H121.139L119.139 134L132.139 161V214Z" fill="#293148"/>
<path d="M252.639 153C255.124 153 257.139 150.985 257.139 148.5C257.139 146.015 255.124 144 252.639 144C250.153 144 248.139 146.015 248.139 148.5C248.139 150.985 250.153 153 252.639 153Z" fill="#4A8ACF"/>
<path d="M282.639 188C285.124 188 287.139 185.985 287.139 183.5C287.139 181.015 285.124 179 282.639 179C280.153 179 278.139 181.015 278.139 183.5C278.139 185.985 280.153 188 282.639 188Z" fill="#4A8ACF"/>
<path d="M316.639 104C319.124 104 321.139 101.985 321.139 99.5C321.139 97.0147 319.124 95 316.639 95C314.153 95 312.139 97.0147 312.139 99.5C312.139 101.985 314.153 104 316.639 104Z" fill="#4A8ACF"/>
<path d="M366.639 164C369.124 164 371.139 161.985 371.139 159.5C371.139 157.015 369.124 155 366.639 155C364.153 155 362.139 157.015 362.139 159.5C362.139 161.985 364.153 164 366.639 164Z" fill="#4A8ACF"/>
<path d="M395.639 140C398.124 140 400.139 137.985 400.139 135.5C400.139 133.015 398.124 131 395.639 131C393.153 131 391.139 133.015 391.139 135.5C391.139 137.985 393.153 140 395.639 140Z" fill="#4A8ACF"/>
<path d="M387.065 40.0239L395.295 43.9225C391.92 39.2117 389.011 31.8544 387.454 26C384.817 31.4534 380.567 38.1261 376.36 42.1119L385.058 39.8743C379.698 66.1422 359.539 85 336.454 85L336.127 85.9488C360.24 85.9488 381.593 67.3524 387.065 40.0239Z" fill="#4A8ACF"/>
<path d="M362.186 0H414.186C416.391 0 418.186 1.79443 418.186 4C418.186 6.20557 416.391 8 414.186 8H362.186C359.98 8 358.186 6.20557 358.186 4C358.186 1.79443 359.98 0 362.186 0Z" fill="#356BB3"/>
<path d="M397.316 230.364C396.768 230.364 396.215 230.242 395.688 229.995C394.389 229.385 393.573 228.164 393.506 226.731L392.967 215.105C392.898 213.612 393.677 212.254 395.001 211.561C396.325 210.867 397.886 211.002 399.073 211.908L406.991 217.964C407.943 218.692 408.487 219.797 408.483 220.994C408.479 222.194 407.929 223.294 406.972 224.017L399.593 229.588C398.912 230.102 398.119 230.364 397.316 230.364Z" fill="#E6E6E6"/>
<path d="M251.345 74.149C251.345 74.6973 251.223 75.2505 250.976 75.7774C250.365 77.0767 249.145 77.8926 247.711 77.959L236.085 78.4981C234.592 78.5674 233.235 77.7881 232.541 76.4639C231.848 75.1402 231.983 73.5796 232.889 72.3926L238.945 64.4746C239.672 63.5225 240.778 62.9785 241.975 62.9824C243.174 62.9859 244.275 63.5366 244.997 64.4932L250.569 71.8721C251.082 72.5532 251.345 73.3457 251.345 74.149Z" fill="#E6E6E6"/>
<path d="M316.269 63.8526C310.349 62.4344 304.023 63.718 298.963 67.061C293.656 70.5665 290.142 76.18 288.953 82.3989C286.5 95.2291 293.996 108.046 305.843 113.153C318.297 118.521 333.113 114.919 342.158 104.956C346.64 100.017 349.442 93.7701 350.286 87.1635C351.117 80.6551 350.169 73.146 346.228 67.7141C342.319 62.3261 335.809 60.518 329.523 59.635C323.423 58.7783 315.331 58.4059 312.033 64.8623C311.404 66.0932 311.108 67.4198 311.178 68.8004C311.227 69.761 312.727 69.7668 312.678 68.8004C312.526 65.7817 314.538 63.2593 317.118 61.9026C320.108 60.3302 323.714 60.4633 326.974 60.8138C332.86 61.4465 339.543 62.5752 343.788 67.096C348.016 71.5994 349.284 78.462 349.021 84.4398C348.747 90.6794 346.598 96.8207 342.831 101.811C335.397 111.658 322.391 116.343 310.426 113.162C298.767 110.062 298.615 103.144 298.808 90.8911C298.91 84.3546 292.736 74.0659 297.777 69.8063C302.713 65.6359 309.553 63.7859 315.87 65.299C316.808 65.5238 317.209 64.0777 316.269 63.8526Z" fill="#356BB3"/>
</g>
<defs>
<clipPath id="clip0_338_1716">
<rect width="524.67" height="400.491" fill="white"/>
</clipPath>
</defs>
</svg>
