<svg width="826" height="592" viewBox="0 0 826 592" fill="none" xmlns="http://www.w3.org/2000/svg">
<g clip-path="url(#clip0_338_1759)">
<path d="M667.826 376.317C668.563 376.385 669.304 376.225 669.948 375.859C670.592 375.492 671.107 374.936 671.424 374.267C671.742 373.597 671.845 372.846 671.722 372.116C671.598 371.385 671.253 370.711 670.733 370.183C670.658 369.817 670.605 369.554 670.531 369.188C670.567 369.111 670.604 369.034 670.64 368.957C671.467 367.232 672.785 365.791 674.428 364.813C676.072 363.835 677.967 363.364 679.877 363.46C681.787 363.556 683.626 364.215 685.163 365.352C686.7 366.49 687.867 368.057 688.516 369.855C691.113 377.034 694.507 384.263 695.077 391.752C695.328 395.062 695.002 398.391 694.115 401.59C701.681 386.928 706.005 370.81 706.795 354.33C706.989 350.194 706.952 346.051 706.683 341.919C706.46 338.532 706.088 335.162 705.568 331.809C702.726 313.616 695.609 296.356 684.801 281.447C679.387 278.158 675.112 273.288 672.551 267.494C671.623 265.411 671.001 263.204 670.704 260.943C671.327 261.054 671.962 261.135 672.586 261.205C672.781 261.224 672.986 261.244 673.181 261.264L673.254 261.27C673.942 261.333 674.632 261.196 675.244 260.876C675.855 260.555 676.36 260.065 676.699 259.464C677.038 258.863 677.196 258.176 677.154 257.488C677.112 256.799 676.872 256.137 676.462 255.581C676.207 255.236 675.952 254.89 675.697 254.545C675.31 254.012 674.912 253.489 674.525 252.957C674.48 252.906 674.438 252.852 674.399 252.796C673.953 252.189 673.508 251.591 673.062 250.984C673.987 249.685 675.2 248.618 676.605 247.865C681.47 245.312 687.914 247.537 691.135 251.98C694.367 256.423 694.734 262.463 693.293 267.759C691.909 272.259 689.77 276.49 686.966 280.272C687.208 280.612 687.46 280.943 687.701 281.284C692.115 287.539 695.905 294.212 699.017 301.206C698.539 293.511 699.895 285.811 702.974 278.742C706.067 272.164 711.541 266.757 716.401 261.172C722.237 254.464 733.4 258.03 733.96 266.904C733.966 266.99 733.971 267.076 733.976 267.162C733.276 267.515 732.59 267.892 731.917 268.293C731.071 268.803 730.399 269.556 729.989 270.455C729.579 271.353 729.449 272.354 729.618 273.327C729.787 274.3 730.245 275.199 730.933 275.907C731.622 276.615 732.508 277.099 733.476 277.294L733.575 277.315C733.218 279.76 732.675 282.175 731.952 284.538C729.868 291.133 726.444 297.225 721.895 302.434C717.346 307.644 711.77 311.857 705.516 314.81C705.106 314.997 704.706 315.184 704.296 315.361C707.287 325.287 708.976 335.561 709.318 345.923C709.5 352.036 709.188 358.153 708.384 364.215L708.425 364.001C710.055 357.294 713.949 351.355 719.451 347.188C727.618 341.092 738.841 339.23 747.569 334.431C748.498 333.894 749.561 333.634 750.633 333.681C751.704 333.729 752.74 334.082 753.618 334.698C754.496 335.315 755.179 336.17 755.587 337.162C755.995 338.154 756.111 339.243 755.921 340.299C755.906 340.374 755.891 340.449 755.876 340.524C754.587 340.98 753.327 341.516 752.105 342.129C751.405 342.482 750.719 342.859 750.046 343.261C749.201 343.77 748.528 344.524 748.118 345.422C747.708 346.32 747.579 347.321 747.747 348.294C747.916 349.267 748.374 350.167 749.063 350.875C749.751 351.583 750.637 352.066 751.605 352.262L751.705 352.282C751.776 352.296 751.837 352.309 751.908 352.322C749.507 357.383 746.252 361.992 742.287 365.948C737.393 370.732 731.574 374.466 725.186 376.922C718.797 379.377 711.975 380.502 705.137 380.227L705.126 380.226C702.895 388.204 699.841 395.928 696.013 403.274L667.352 401.94C667.264 401.617 667.187 401.284 667.11 400.961C669.755 401.251 672.426 401.217 675.062 400.858C673.057 398.15 671.053 395.421 669.048 392.712C669.003 392.662 668.961 392.608 668.922 392.552C667.905 391.167 666.878 389.791 665.862 388.405L665.861 388.403C665.994 384.307 666.654 380.245 667.825 376.318L667.826 376.317Z" fill="#F2F2F2"/>
<path d="M90.343 128.482C89.611 128.596 88.8616 128.482 88.1965 128.156C87.5314 127.83 86.9826 127.307 86.6246 126.658C86.2665 126.009 86.1165 125.266 86.1949 124.53C86.2732 123.793 86.5761 123.098 87.0626 122.539C87.114 122.17 87.1509 121.904 87.2023 121.534C87.1613 121.459 87.1202 121.385 87.0789 121.31C86.1473 119.64 84.7429 118.282 83.0422 117.408C81.3415 116.533 79.4204 116.181 77.52 116.395C75.6196 116.608 73.8248 117.379 72.361 118.61C70.8972 119.84 69.8297 121.476 69.2926 123.311C67.1447 130.637 64.2032 138.061 64.097 145.572C64.0515 148.891 64.5822 152.193 65.6655 155.332C57.2083 141.165 51.8962 125.345 50.0893 108.945C49.6401 104.829 49.4215 100.691 49.4343 96.5511C49.4478 93.1566 49.6105 89.77 49.9223 86.3914C51.635 68.0572 57.6723 50.3907 67.5385 34.8428C72.7387 31.2251 76.7051 26.1002 78.903 20.1589C79.7009 18.0223 80.1854 15.7815 80.3413 13.5061C79.7266 13.6558 79.0983 13.7758 78.4791 13.8845C78.286 13.9158 78.0826 13.9483 77.8895 13.9797L77.8166 13.9909C77.1345 14.0962 76.4366 14.0022 75.8068 13.72C75.1769 13.4379 74.6421 12.9797 74.2666 12.4007C73.8912 11.8216 73.6911 11.1464 73.6904 10.4563C73.6898 9.76613 73.8887 9.09054 74.2631 8.5108C74.4963 8.15014 74.7297 7.78962 74.9633 7.42926C75.3166 6.87357 75.6813 6.32702 76.0346 5.77142C76.0765 5.71773 76.1153 5.66166 76.1508 5.60353C76.5578 4.96962 76.9657 4.34599 77.3727 3.71208C76.3693 2.47308 75.0933 1.4826 73.6442 0.81784C68.6309 -1.42985 62.3367 1.18914 59.396 5.82263C56.4451 10.4572 56.4516 16.5081 58.2168 21.7055C59.876 26.1109 62.2729 30.2018 65.3049 33.8029C65.0848 34.1579 64.8534 34.5037 64.6335 34.8587C60.6148 41.3747 57.2443 48.2689 54.5705 55.4424C54.5718 47.7317 52.7425 40.1308 49.2331 33.265C45.7399 26.8906 39.9418 21.8326 34.7467 16.5585C28.5065 10.2235 17.5856 14.4724 17.5748 23.3645C17.5747 23.4506 17.5748 23.5367 17.5751 23.6227C18.2952 23.9316 19.0035 24.2656 19.7 24.6247C20.5755 25.0813 21.2928 25.7917 21.7577 26.6629C22.2226 27.5341 22.4135 28.5254 22.3055 29.5069C22.1974 30.4885 21.7953 31.4145 21.1519 32.1636C20.5086 32.9127 19.6539 33.4501 18.7 33.7052L18.6023 33.7313C19.1099 36.1501 19.8007 38.5267 20.6686 40.8408C23.1561 47.2938 26.95 53.1634 31.8122 58.0815C36.6745 62.9997 42.5004 66.8603 48.9246 69.4214C49.3456 69.5824 49.7563 69.7446 50.1762 69.8955C47.8036 79.9882 46.7535 90.3465 47.0522 100.71C47.2479 106.822 47.9376 112.908 49.1145 118.909L49.0605 118.698C47.0192 112.105 42.765 106.418 37.0166 102.598C28.4889 97.019 17.1716 95.8539 8.16408 91.6036C7.20387 91.125 6.12681 90.9309 5.05994 91.0443C3.99306 91.1577 2.98087 91.5739 2.14275 92.2437C1.30462 92.9135 0.675517 93.809 0.329637 94.8246C-0.016243 95.8402 -0.0644771 96.9335 0.190629 97.9756C0.210129 98.0496 0.229833 98.1236 0.249727 98.1976C1.56443 98.5734 2.85444 99.0307 4.11228 99.567C4.83232 99.876 5.54059 100.21 6.23708 100.569C7.11266 101.026 7.82991 101.736 8.29483 102.607C8.75976 103.478 8.95067 104.47 8.84258 105.451C8.73448 106.433 8.33242 107.359 7.68906 108.108C7.04569 108.857 6.19104 109.394 5.23708 109.65L5.13931 109.676C5.06888 109.694 5.00863 109.711 4.93831 109.729C7.64803 114.631 11.1813 119.03 15.3835 122.733C20.5634 127.206 26.6023 130.574 33.13 132.63C39.6576 134.686 46.5364 135.387 53.3447 134.69L53.3549 134.689C56.0747 142.513 59.6003 150.034 63.8748 157.13L92.3983 154.027C92.4661 153.699 92.5225 153.362 92.5801 153.035C89.9579 153.488 87.2902 153.619 84.6364 153.423C86.4702 150.596 88.3017 147.749 90.1356 144.922C90.1775 144.868 90.2163 144.812 90.2518 144.754C91.1807 143.308 92.121 141.872 93.0498 140.426L93.0502 140.424C92.6643 136.344 91.7547 132.331 90.3439 128.483L90.343 128.482Z" fill="#F2F2F2"/>
<path d="M484.42 117.912C485.832 118.3 487.141 118.994 488.256 119.943C489.371 120.892 490.264 122.074 490.873 123.406C491.481 124.738 491.79 126.187 491.778 127.651C491.766 129.116 491.434 130.559 490.803 131.881L506.11 148.898L498.037 160.722L476.759 136.387C474.609 135.181 472.976 133.228 472.169 130.898C471.363 128.568 471.439 126.024 472.383 123.747C473.328 121.469 475.074 119.618 477.293 118.542C479.511 117.467 482.047 117.243 484.42 117.912Z" fill="#A0616A"/>
<path d="M627.715 159.698C626.335 157.452 624.526 155.501 622.39 153.956C620.254 152.411 617.834 151.303 615.27 150.695C612.705 150.087 610.045 149.992 607.443 150.414C604.841 150.836 602.348 151.768 600.107 153.156L549.768 184.333L495.467 138.176L481.957 150.754L541.944 228.584L619.909 187.94C618.09 188.888 629.914 163.277 627.715 159.698Z" fill="#CCCCCC"/>
<path d="M527.991 263.365C527.996 288.226 523.103 312.845 513.591 335.816C504.079 358.786 490.135 379.657 472.555 397.237C454.975 414.817 434.104 428.761 411.134 438.273C388.164 447.784 363.545 452.678 338.683 452.673C234.132 452.673 149.375 367.915 149.375 263.365C149.357 243.028 152.617 222.821 159.03 203.522C171.62 165.831 195.74 133.052 227.979 109.819C260.218 86.586 298.945 74.0756 338.683 74.0567C372.955 74.0447 406.586 83.3398 435.988 100.949C465.389 118.559 489.457 143.823 505.621 174.043C509.629 181.499 513.125 189.219 516.086 197.149C516.496 198.253 516.896 199.357 517.285 200.472V200.483C519.02 205.384 520.549 210.376 521.87 215.459C525.947 231.101 528.004 247.2 527.991 263.365Z" fill="#4A8ACF"/>
<path d="M317.972 135.641C309.464 131.04 300.019 128.443 290.355 128.048C280.691 127.652 271.065 129.469 262.21 133.359C254.414 136.752 246.204 142.839 243.604 153.83C254.123 147.623 267.739 157.431 270.446 173.166L269.814 173.34C268.384 184.239 271.576 196.105 277.755 202.863C278.566 195.843 283.182 191.065 287.721 188.081C292.261 185.097 297.283 182.929 300.749 177.799C304.856 171.718 305.9 162.83 307.531 154.722C309.163 146.614 312.259 137.9 317.972 135.641Z" fill="white"/>
<path d="M259.091 228.384C256.178 232.759 252.286 235.505 248.795 238.923C245.314 242.351 242.001 246.979 241.307 252.921C240.865 256.728 241.548 260.598 241.454 264.448C241.359 268.297 240.076 272.63 237.457 273.587C233.324 275.08 230.169 267.403 225.92 266.866C222.544 266.446 219.505 271.757 220.483 276.363C221.461 280.97 226.057 283.01 228.697 280.002C231.084 284.009 229.401 291.277 225.815 292.507C225.436 295.031 225.058 297.545 224.69 300.069C215.624 293.727 206.463 287.28 198.754 277.994C190.181 267.753 184.863 255.183 183.484 241.899C182.484 231.224 183.967 219.014 179.066 210.8C175.143 204.227 168.412 202.775 162.355 203.186C161.25 203.259 160.136 203.385 159.031 203.522C162.604 192.792 167.141 182.408 172.588 172.497C173.82 171.967 174.966 171.255 175.985 170.383C181.622 165.597 184.125 155.911 188.7 149.212C188.994 148.78 189.299 148.36 189.615 147.95C194.295 141.839 200.563 138.694 206.621 135.771C220.03 129.261 233.829 122.666 247.985 123.571L243.957 123.96C239.256 137.127 234.551 150.295 229.843 163.462C229.128 165.482 228.406 167.504 227.676 169.531C225.005 177.019 222.25 184.991 222.66 193.373C222.902 198.337 224.626 203.638 227.908 205.341C230.968 206.919 234.313 204.984 237.268 203.07C238.52 202.27 239.761 201.471 241.012 200.661C245.503 197.769 250.477 194.803 255.221 196.738C259.564 198.505 262.772 204.405 263.382 210.768C263.941 216.953 262.432 223.149 259.091 228.384Z" fill="white"/>
<path d="M285.799 318.282C272.683 310.206 259.567 302.13 246.451 294.055L246.674 293.481C238.519 296.587 235.133 311.083 236.481 322.937C237.829 334.792 242.399 345.389 244.707 356.94C247.82 372.746 246.645 389.098 241.304 404.297C258.551 384.945 273.814 363.913 286.865 341.517C288.688 338.694 290.077 335.613 290.986 332.378C291.819 328.937 291.691 324.799 290.022 322.039C288.949 320.455 287.497 319.164 285.799 318.282Z" fill="white"/>
<path d="M234.036 171.363C232.644 174.494 232.108 178.67 233.372 181.91C234.662 185.219 237.391 186.714 239.903 187.959L247.15 191.552C249.561 192.747 252.16 193.954 254.618 192.97C257.582 191.785 259.638 187.137 259.106 182.823C258.54 178.231 255.646 175.073 252.97 172.384C249.224 168.62 245.479 164.857 241.733 161.093L239.622 163.679C237.339 165.906 235.45 168.504 234.036 171.363Z" fill="white"/>
<path d="M489.142 220.444C492.403 221.212 495.663 221.979 498.923 222.747C498.355 233.759 492.897 243.95 485.577 247.641C482.527 249.177 479.13 249.745 476.606 252.616C474.324 255.224 473.167 259.284 472.105 263.164C470.243 269.938 468.382 276.711 466.52 283.483C464.522 290.782 461.956 298.891 456.76 301.52C452.301 303.782 447.2 301.015 443.772 296.377C440.343 291.739 438.25 285.503 436.22 279.424C436.346 286.05 433.265 292.549 428.9 294.852C424.525 297.156 419.204 295.073 416.28 289.931C414.176 286.239 413.304 281.369 411.242 277.625C409.181 273.881 404.858 271.736 402.608 275.249C401.125 277.583 401.314 281.159 400.578 284.125C399.431 288.731 395.961 291.624 392.522 291.876C389.093 292.129 385.749 290.151 382.878 287.469C376.956 281.916 372.592 273.103 370.899 263.312C370.152 258.947 369.942 254.193 371.235 250.102C372.529 246.011 375.652 242.856 378.755 243.634C380.795 239.322 376.767 233.601 373.139 234.106C369.5 234.61 366.65 238.512 363.663 241.51C360.686 244.507 356.522 246.684 353.524 243.708C353.545 246.474 351.295 248.304 349.349 248.072C347.414 247.852 345.689 246.295 343.912 245.191C337.044 240.91 328.325 243.75 323.445 251.848C326.495 238.87 330.965 223.978 340.336 220.928C344.164 219.676 348.339 220.707 351.957 218.54C358.362 214.702 359.656 200.198 354.124 194.214C354.828 199.872 354.692 206.477 351.705 210.347C348.718 214.218 342.45 211.694 342.828 205.972C341.966 209.916 337.675 210.516 335.698 207.487C333.71 204.458 333.878 199.504 335.288 195.886C336.697 192.268 339.095 189.671 341.419 187.178C346.415 181.825 351.484 176.409 357.268 173.043C363.063 169.678 369.752 168.542 375.558 171.886C378.618 173.653 381.31 176.598 384.434 178.155C387.558 179.722 391.523 179.522 393.595 175.862C395.919 171.781 394.825 165.723 395.687 160.623C397.233 151.609 406.246 147.392 411.242 153.345C407.509 152.388 403.649 156.805 403.186 162.158C402.713 167.511 405.416 172.917 409.034 174.537C415.112 177.229 421.065 170.456 425.661 164.188C430.457 157.625 435.26 151.066 440.07 144.51C440.838 143.394 441.7 142.346 442.646 141.376C444.153 139.908 446.161 139.067 448.264 139.024C450.367 138.981 452.408 139.739 453.973 141.145C458.832 145.11 461.114 153.24 465.1 158.835C470.885 166.964 479.54 168.942 487.596 170.519C493.602 171.687 499.61 172.861 505.623 174.042C509.631 181.498 513.127 189.218 516.087 197.149C505.907 201.471 496.515 209.559 489.142 220.444Z" fill="white"/>
<path d="M508.557 346.986C504.051 356.135 498.811 364.903 492.887 373.205C489.101 371.585 485.03 374.477 481.486 377.191C477.784 380.03 473.335 382.796 469.539 380.209C465.658 377.559 464.406 370.145 465.637 364.265C466.867 358.397 469.938 353.727 472.915 349.289C476.07 344.577 479.446 339.687 483.831 337.857C488.228 336.027 493.875 338.614 495.158 344.861L498.271 344.756C496.526 342.358 497.441 337.394 499.786 336.521C502.489 335.501 504.834 339.213 506.433 342.495C507.148 343.978 507.874 345.471 508.557 346.986Z" fill="white"/>
<path d="M389.328 302.563C382.637 302.983 377.337 294.746 373.815 286.642C370.292 278.539 367.079 269.271 361.041 265.147C357.591 262.79 353.658 262.466 349.916 261.324C346.174 260.182 342.258 257.819 340.469 253.006L336.224 251.292C330.619 254.444 324.939 257.653 320.109 262.782C314.691 268.537 311.317 275.914 310.506 283.776C309.695 292.272 312.689 301.746 318.284 304.937C322.705 307.459 327.851 305.869 332.329 308.178C337.924 311.063 341.245 319.442 342.502 327.715C343.76 335.988 343.441 344.586 344.341 352.953C345.24 361.32 347.719 370.027 352.85 374.315C359.27 379.68 368.691 375.222 371.572 365.454C372.985 360.663 372.936 355.257 373.993 350.283C375.854 341.525 380.876 335.027 384.859 327.843C388.842 320.658 391.977 310.9 389.328 302.563Z" fill="white"/>
<path d="M323.208 216.5C323.832 217.074 324.415 217.692 324.951 218.349C325.506 219.306 325.789 220.396 325.77 221.502C325.751 222.608 325.431 223.688 324.844 224.625C325.65 224.579 326.437 224.367 327.157 224.001C327.877 223.635 328.513 223.124 329.025 222.5C330.246 221.109 331.321 219.596 332.231 217.984C332.913 216.871 333.639 215.367 333.176 214.045C332.86 213.143 332.112 212.758 331.588 212.079C330.758 211.004 330.552 209.296 330.122 207.82C329.194 204.632 326.969 202.288 324.555 201.953L324.89 202.017C323.882 202.363 323.177 203.964 323.4 205.406C323.603 206.718 324.447 207.808 324.363 209.146C324.242 211.071 322.319 211.974 322.2 213.899C322.181 214.865 322.543 215.799 323.208 216.5Z" fill="white"/>
<path d="M311.744 183.791C311.754 183.788 311.764 183.788 311.774 183.785C311.98 183.598 312.171 183.394 312.345 183.177L311.744 183.791Z" fill="#E6E6E6"/>
<path d="M313.75 192.826C315.23 191.874 316.056 189.243 315.567 187.041C315.081 184.852 313.36 183.381 311.774 183.785C311.313 184.252 310.742 184.594 310.113 184.779C309.484 184.964 308.818 184.986 308.179 184.843C307.197 184.591 306.12 183.94 305.269 184.68C304.783 185.232 304.442 185.897 304.279 186.614C303.964 187.581 303.649 188.548 303.334 189.515C303.184 189.861 303.145 190.245 303.222 190.614C303.282 190.762 303.38 190.892 303.505 190.991C303.63 191.09 303.778 191.156 303.936 191.181C305.826 191.739 307.715 192.296 309.605 192.853C310.982 193.259 312.469 193.65 313.75 192.826Z" fill="white"/>
<path d="M456.406 317.558C455.533 316.128 454.659 314.697 453.786 313.267C452.928 311.611 451.755 310.138 450.333 308.932C450.02 308.67 449.658 308.473 449.268 308.353C448.878 308.233 448.469 308.192 448.063 308.233C447.657 308.273 447.263 308.395 446.905 308.59C446.547 308.785 446.231 309.049 445.977 309.368L446.083 310.185C448.074 312.683 450.18 315.458 450.685 319.165C450.885 320.627 450.815 322.139 450.99 323.607C451.165 325.075 451.661 326.597 452.608 327.23C453.984 328.149 455.599 326.794 456.578 325.141C457.453 323.783 457.846 322.17 457.692 320.562C457.474 319.483 457.036 318.46 456.406 317.558Z" fill="white"/>
<path d="M495.281 262.94C495.534 261.283 495.786 259.627 496.039 257.97C496.449 256.15 496.5 254.268 496.189 252.429C496.119 252.027 495.969 251.644 495.748 251.301C495.527 250.958 495.24 250.663 494.903 250.433C494.566 250.202 494.187 250.042 493.787 249.96C493.388 249.879 492.976 249.878 492.576 249.958L492.131 250.651C492.046 253.844 491.87 257.324 489.869 260.486C489.081 261.732 488.053 262.845 487.242 264.08C486.43 265.315 485.83 266.8 486.147 267.894C486.607 269.483 488.715 269.486 490.529 268.852C492.073 268.377 493.412 267.395 494.33 266.066C494.858 265.1 495.182 264.036 495.281 262.94Z" fill="#E6E6E6"/>
<path d="M470.11 319.418C470.537 318.191 469.92 316.783 469.79 315.426C469.728 313.673 470.192 311.942 471.124 310.457C472.049 309.055 472.751 307.518 473.202 305.9C473.393 305.163 473.358 304.386 473.103 303.669C472.813 303.019 472.113 302.723 471.711 303.237L472.571 303.791C471.41 303.584 470.218 303.642 469.082 303.96C468.435 304.208 467.856 304.608 467.396 305.127C466.936 305.646 466.607 306.268 466.438 306.941C466.296 307.989 466.064 309.024 465.745 310.033C465.232 311.087 464.24 311.438 463.616 312.363C463.19 313.183 462.976 314.096 462.991 315.02C463.006 315.943 463.251 316.849 463.704 317.655C464.487 318.972 465.732 319.952 467.197 320.402C468.247 320.779 469.63 320.799 470.11 319.418Z" fill="white"/>
<path d="M494.511 326.781C494.891 327.769 495.399 328.702 496.023 329.556C497.192 330.733 498.779 330.01 500.197 329.724C501.483 329.521 502.8 329.67 504.008 330.154C505.217 330.639 506.272 331.442 507.061 332.477C506.511 329.736 505.312 327.167 503.563 324.985C501.815 322.804 499.568 321.074 497.012 319.941C493.671 318.579 490.153 318.447 486.678 318.325L486.078 318.479C487.607 322.93 492.409 322.83 494.511 326.781Z" fill="white"/>
<path d="M391.158 335.886L391.167 335.906C391.225 335.794 391.283 335.681 391.342 335.569L391.158 335.886Z" fill="#E6E6E6"/>
<path d="M387.456 343.051C386.649 344.517 385.955 346.042 385.379 347.614C384.618 350.159 384.114 352.774 383.874 355.42C383.686 356.924 383.628 358.846 384.571 359.579C384.841 359.759 385.168 359.834 385.49 359.79C385.812 359.746 386.107 359.587 386.32 359.341C386.843 358.787 387.272 358.151 387.588 357.457C389.44 354.266 390.879 350.852 391.868 347.298C392.77 343.554 392.762 339.147 391.167 335.905C389.93 338.287 388.693 340.669 387.456 343.051Z" fill="white"/>
<path d="M351.745 152.149C352.333 152.724 353.076 153.114 353.883 153.272C354.69 153.429 355.526 153.347 356.287 153.036C357.863 152.347 359.309 151.392 360.561 150.213C361.598 149.446 362.477 148.486 363.151 147.387C363.523 146.73 363.761 146.006 363.852 145.256C363.943 144.507 363.885 143.747 363.681 143.02C363.096 141.308 361.611 140.735 360.301 140.346C358.203 139.724 356.106 139.102 354.009 138.48L355.526 137.113C353.965 136.275 352.238 137.83 351.262 139.755C350.636 141.012 350.2 142.354 349.968 143.739C349.445 146.761 349.956 150.359 351.745 152.149Z" fill="#E6E6E6"/>
<path d="M388.775 139.718C389.366 140.37 390.183 140.772 391.06 140.843C391.937 140.915 392.809 140.65 393.497 140.102C394.09 139.657 394.583 139.092 394.942 138.444C395.302 137.795 395.522 137.079 395.586 136.34C395.734 134.69 394.919 132.856 393.754 132.714L394.02 131.169C391.776 130.764 389.014 130.683 387.811 133.408C387.406 134.452 387.281 135.585 387.45 136.692C387.619 137.799 388.076 138.843 388.775 139.718Z" fill="#E6E6E6"/>
<path d="M383.829 57.5741C370.671 56.0899 357.463 59.8934 347.11 68.1477C336.756 76.4021 330.106 88.4313 328.622 101.589C325.531 128.988 339.966 188.487 366.284 213.117C378.675 165.928 422.098 137.938 427.844 112.781C433.983 85.9003 411.228 60.6648 383.829 57.5741Z" fill="#356BB3"/>
<path d="M374.728 118.486C383.72 118.486 391.01 111.196 391.01 102.203C391.01 93.2108 383.72 85.9209 374.728 85.9209C365.735 85.9209 358.445 93.2108 358.445 102.203C358.445 111.196 365.735 118.486 374.728 118.486Z" fill="white"/>
<path d="M357.608 236.594C363.498 236.594 368.273 231.819 368.273 225.929C368.273 220.039 363.498 215.265 357.608 215.265C351.718 215.265 346.943 220.039 346.943 225.929C346.943 231.819 351.718 236.594 357.608 236.594Z" fill="#356BB3"/>
<path opacity="0.2" d="M388.2 90.5378C390.033 91.6391 391.631 93.0906 392.903 94.8094C394.175 96.5282 395.095 98.4808 395.613 100.555C396.13 102.63 396.233 104.786 395.917 106.901C395.601 109.016 394.872 111.048 393.77 112.88C392.669 114.713 391.217 116.311 389.499 117.583C387.78 118.855 385.827 119.775 383.753 120.293C379.563 121.337 375.129 120.675 371.428 118.45C375.202 119.29 379.151 118.759 382.57 116.953C385.988 115.146 388.652 112.182 390.084 108.591C391.517 105 391.624 101.017 390.388 97.3533C389.152 93.69 386.652 90.5863 383.337 88.5977C385.052 88.9778 386.694 89.6329 388.2 90.5378Z" fill="#231F20"/>
<path opacity="0.2" d="M427.906 112.834C422.161 137.991 378.738 165.981 366.346 213.17C363.871 210.831 361.572 208.313 359.469 205.635C373.393 161.278 414.114 134.326 419.665 110.02C424.634 88.2656 410.677 67.591 390.65 58.8574C414.892 64.9514 433.533 88.2 427.906 112.834Z" fill="#231F20"/>
<path d="M231.245 121.106C221.364 119.991 211.445 122.847 203.67 129.046C195.895 135.245 190.901 144.278 189.787 154.159C187.466 174.735 198.306 219.417 218.069 237.913C227.375 202.476 259.984 181.456 264.299 162.564C268.909 142.378 251.821 123.427 231.245 121.106Z" fill="#356BB3"/>
<path d="M224.411 166.848C231.164 166.848 236.639 161.374 236.639 154.621C236.639 147.868 231.164 142.393 224.411 142.393C217.658 142.393 212.184 147.868 212.184 154.621C212.184 161.374 217.658 166.848 224.411 166.848Z" fill="white"/>
<path d="M211.556 255.543C215.979 255.543 219.564 251.958 219.564 247.535C219.564 243.112 215.979 239.526 211.556 239.526C207.133 239.526 203.547 243.112 203.547 247.535C203.547 251.958 207.133 255.543 211.556 255.543Z" fill="#356BB3"/>
<path opacity="0.2" d="M234.529 145.86C235.906 146.687 237.105 147.777 238.061 149.068C239.016 150.359 239.707 151.825 240.096 153.383C240.484 154.941 240.562 156.561 240.324 158.149C240.087 159.737 239.539 161.262 238.712 162.639C237.885 164.015 236.795 165.215 235.504 166.17C234.213 167.125 232.747 167.817 231.189 168.205C229.631 168.594 228.012 168.671 226.424 168.434C224.836 168.197 223.31 167.649 221.934 166.822C224.768 167.452 227.734 167.053 230.301 165.697C232.868 164.34 234.868 162.114 235.944 159.418C237.02 156.721 237.101 153.729 236.172 150.979C235.244 148.228 233.367 145.897 230.877 144.403C232.165 144.689 233.398 145.181 234.529 145.86Z" fill="#231F20"/>
<path opacity="0.2" d="M264.348 162.604C260.033 181.496 227.424 202.515 218.118 237.952C216.259 236.196 214.533 234.305 212.953 232.294C223.41 198.984 253.99 178.744 258.158 160.491C261.89 144.154 251.409 128.628 236.369 122.069C254.574 126.646 268.573 144.105 264.348 162.604Z" fill="#231F20"/>
<path d="M614.062 564.054H600.637L594.25 512.27L614.065 512.271L614.062 564.054Z" fill="#A0616A"/>
<path d="M621.286 589.546H611.76L610.059 580.552L605.704 589.546H580.438C579.227 589.546 578.047 589.159 577.072 588.441C576.096 587.723 575.376 586.712 575.015 585.556C574.655 584.4 574.673 583.159 575.068 582.014C575.463 580.869 576.214 579.88 577.21 579.192L597.387 565.257V556.165L618.61 557.431L621.286 589.546Z" fill="#293148"/>
<path d="M562.062 564.054H548.637L542.25 512.27L562.065 512.271L562.062 564.054Z" fill="#A0616A"/>
<path d="M569.286 589.546H559.76L558.059 580.552L553.704 589.546H528.438C527.227 589.546 526.047 589.159 525.072 588.441C524.096 587.723 523.376 586.712 523.015 585.556C522.655 584.4 522.673 583.159 523.068 582.014C523.463 580.869 524.214 579.88 525.21 579.192L545.387 565.257V556.165L566.61 557.431L569.286 589.546Z" fill="#293148"/>
<path d="M511.059 427.333C513.629 431.187 541.578 537.127 541.578 537.127L566.361 539.953L563.419 513.298L558.923 466.128L551.961 434.642C551.961 434.642 576.548 378.686 578.102 374.228L579.207 371.03L586.889 440.744C587.801 443.233 588.199 445.882 588.058 448.529C587.826 452.884 592.194 518.397 592.194 518.397L594.294 541.893L615.527 544.842L624.142 504.19C631.335 490.984 627.212 444.058 624.27 439.691C621.329 435.323 622.497 404.904 622.497 404.904C626.254 403.582 648.654 327.198 637.45 327.649C638.169 323.577 638.734 319.942 638.734 319.942L619.286 304.257L570.613 291.604L558.333 285.708C558.333 285.708 536.401 326.262 536.62 328.279C536.922 330.833 536.337 333.414 534.963 335.588L512.819 409.696C512.819 409.696 508.465 423.441 511.059 427.333Z" fill="#293148"/>
<path d="M633.342 162.148L625.598 145.708L599.244 146.72L590.648 163.824C590.648 163.824 566.081 193.166 565.286 202.708C564.286 214.708 572.597 273.52 564.286 269.708C564.286 269.708 544.691 292.708 556.286 292.708C567.88 292.708 620.328 325.632 623.77 329.334C627.211 333.037 642.574 335.437 641.286 327.708C639.997 319.978 633.342 278.174 633.342 278.174L651.36 212.441C656.546 198.249 658.16 182.33 646.437 172.797L633.342 162.148Z" fill="#CCCCCC"/>
<path d="M535.721 113.76C532.196 112.36 528.43 111.669 524.638 111.725C520.846 111.782 517.102 112.584 513.62 114.087C510.138 115.591 506.986 117.765 504.344 120.486C501.702 123.207 499.622 126.422 498.223 129.947C492.338 144.772 491.363 180.175 502.314 197.919C516.395 173.46 544.883 164.428 551.909 151.258C559.417 137.185 550.546 119.644 535.721 113.76Z" fill="#356BB3"/>
<path d="M523.868 146.709C529.07 146.709 533.287 142.492 533.287 137.29C533.287 132.088 529.07 127.871 523.868 127.871C518.666 127.871 514.449 132.088 514.449 137.29C514.449 142.492 518.666 146.709 523.868 146.709Z" fill="white"/>
<path d="M495.529 209.923C498.936 209.923 501.698 207.161 501.698 203.754C501.698 200.347 498.936 197.585 495.529 197.585C492.121 197.585 489.359 200.347 489.359 203.754C489.359 207.161 492.121 209.923 495.529 209.923Z" fill="#356BB3"/>
<path opacity="0.2" d="M533.158 132.824C534.884 134.628 535.823 137.043 535.768 139.539C535.714 142.034 534.671 144.407 532.869 146.134C531.067 147.861 528.653 148.802 526.157 148.751C523.661 148.699 521.288 147.659 519.559 145.858C521.538 146.9 523.823 147.203 526.005 146.713C528.187 146.224 530.124 144.974 531.469 143.187C532.814 141.4 533.479 139.193 533.345 136.96C533.211 134.728 532.287 132.616 530.738 131.002C531.638 131.475 532.455 132.09 533.158 132.824Z" fill="#231F20"/>
<path opacity="0.2" d="M551.938 151.297C544.912 164.467 516.424 173.499 502.344 197.958C501.317 196.277 500.416 194.522 499.648 192.708C514.155 170.063 540.976 161.2 547.765 148.475C553.841 137.086 549.189 123.427 539.337 115.512C551.943 122.594 558.819 138.401 551.938 151.297Z" fill="#231F20"/>
<path d="M492.748 201.63C494.182 201.334 495.663 201.356 497.088 201.695C498.512 202.034 499.845 202.681 500.993 203.591C502.14 204.501 503.074 205.651 503.729 206.961C504.383 208.27 504.743 209.708 504.782 211.172L526.151 219.374L524.333 233.575L494.32 221.568C491.856 221.471 489.514 220.473 487.737 218.765C485.96 217.056 484.871 214.755 484.678 212.297C484.484 209.839 485.198 207.396 486.686 205.43C488.173 203.464 490.33 202.112 492.748 201.63Z" fill="#A0616A"/>
<path d="M642.053 172.365C639.803 170.992 637.304 170.076 634.7 169.67C632.095 169.265 629.436 169.377 626.875 170.001C624.314 170.626 621.902 171.749 619.776 173.308C617.65 174.867 615.853 176.83 614.488 179.084L583.816 229.734L514.47 213.296L508.152 230.64L596.958 272.706L641.935 201.069C648.669 191.606 651.966 178.417 642.053 172.365Z" fill="#CCCCCC"/>
<path d="M643.198 110.293C643.2 115.175 642.004 119.982 639.714 124.294C637.424 128.605 634.111 132.288 630.065 135.02C626.019 137.752 621.365 139.449 616.51 139.962C611.656 140.475 606.749 139.789 602.222 137.963C597.695 136.137 593.685 133.228 590.544 129.491C587.403 125.753 585.228 121.302 584.209 116.528C583.191 111.754 583.359 106.803 584.701 102.109C586.042 97.4153 588.515 93.1227 591.903 89.6079L592.046 89.4649C592.285 89.2143 592.524 88.9638 592.774 88.7251C592.776 88.7252 592.777 88.7249 592.779 88.7243C592.78 88.7237 592.781 88.7228 592.783 88.7217C592.784 88.7206 592.784 88.7193 592.785 88.7178C592.786 88.7163 592.786 88.7148 592.786 88.7132C593.096 88.4269 593.406 88.1406 593.728 87.8663C598.038 84.0882 603.345 81.6321 609.014 80.7922C614.683 79.9522 620.474 80.764 625.694 83.1304C630.914 85.4967 635.341 89.3172 638.445 94.1346C641.55 98.952 643.2 104.562 643.198 110.293Z" fill="#293148"/>
<path d="M606.027 142.201C619.839 142.201 631.035 131.005 631.035 117.193C631.035 103.382 619.839 92.1855 606.027 92.1855C592.216 92.1855 581.02 103.382 581.02 117.193C581.02 131.005 592.216 142.201 606.027 142.201Z" fill="#9E616A"/>
<path d="M632.583 124.325L628.44 123.593C626.125 123.172 623.993 122.055 622.33 120.39C620.668 118.724 619.553 116.591 619.135 114.276L615.092 121.052L614.915 121.11C605.283 124.308 595.26 123.352 584.282 118.19C581.143 116.701 578.098 115.022 575.163 113.162L574.947 113.027L574.929 112.773C574.37 104.637 576.195 97.8411 580.071 93.6355C581.559 92.0532 583.364 90.8033 585.369 89.9675C587.374 89.1318 589.533 88.7291 591.704 88.7859C591.859 88.7456 592.001 88.6672 592.118 88.5579C592.173 88.5169 592.229 88.4764 592.285 88.4378V88.3958L592.572 88.2605C593.189 87.9705 593.818 87.6927 594.447 87.4388C599.395 85.5232 604.783 85.0427 609.993 86.0524C615.202 87.0621 620.021 89.5211 623.895 93.1468C631.598 100.501 635.131 112.842 632.687 123.858L632.583 124.325Z" fill="#293148"/>
<path d="M685.331 145.632C676.821 141.239 687.765 125.297 685.566 115.976C683.367 106.656 667.529 103.658 666.52 94.1341C665.511 84.6106 663.138 74.7881 656.853 67.5616C652.838 62.9439 646.921 59.5349 640.828 60.1133C638.767 60.309 636.772 60.9467 634.98 61.9829C633.187 63.019 631.639 64.4294 630.44 66.1178C629.242 67.8063 628.422 69.7332 628.035 71.7674C627.648 73.8015 627.705 75.895 628.2 77.9054C626.466 75.4477 621.977 75.9803 620.866 78.7759C619.878 81.2612 622.06 84.2716 624.628 84.4915C627.989 88.6415 631.837 93.0458 637.101 93.8829C637.94 94.0756 638.812 94.0751 639.651 93.8815C640.489 93.6879 641.273 93.3064 641.942 92.7656C643.181 91.5762 643.277 89.1982 641.808 88.3093C648.424 90.9375 652.303 98.0909 653.285 105.142C654.266 112.193 652.908 119.327 652.013 126.39C651.118 133.452 650.733 140.882 653.502 147.44C656.774 155.189 664.306 160.743 672.527 162.524C680.748 164.305 689.503 162.564 696.944 158.642C704.385 154.72 710.59 148.733 715.659 142.021C706.927 148.221 694.847 150.543 685.331 145.632Z" fill="#293148"/>
<path d="M631.521 123.629C631.521 123.629 624.112 95.9778 592.357 89.5956C592.321 89.5838 592.202 89.536 592.047 89.4646C591.952 89.4049 591.832 89.3452 591.713 89.2856C592.071 89.0827 592.417 88.9039 592.775 88.7248L592.779 88.7239L592.783 88.7214L592.786 88.7175L592.786 88.7129C593.097 88.4266 593.407 88.1403 593.729 87.8659L594.636 87.9018C594.636 87.9018 626.498 82.8557 631.521 123.629Z" fill="#FD6584"/>
<path opacity="0.2" d="M614.933 212.357L596.998 233.136L567.363 224.385L599.67 239.273L614.933 212.357Z" fill="black"/>
<path d="M722.586 591.112L446.836 591.419C446.521 591.418 446.219 591.292 445.996 591.069C445.773 590.846 445.648 590.544 445.648 590.228C445.648 589.913 445.773 589.611 445.996 589.388C446.219 589.165 446.521 589.039 446.836 589.038L722.586 588.73C722.901 588.73 723.204 588.856 723.428 589.079C723.651 589.302 723.776 589.605 723.776 589.921C723.776 590.237 723.651 590.54 723.428 590.763C723.204 590.986 722.901 591.112 722.586 591.112Z" fill="#CACACA"/>
<path d="M734.69 406.072C721.778 406.072 707.626 405.584 692.234 404.608C612.62 399.552 509.496 381.975 401.858 355.116C294.22 328.256 194.927 295.322 122.272 262.381C86.8795 246.334 59.7159 231.145 41.5367 217.234C22.2896 202.507 13.8707 189.67 16.5128 179.081C21.6608 158.452 67.2438 153.939 104.577 153.786L104.589 156.786C53.3214 156.996 23.0758 165.172 19.4239 179.808C14.7721 198.448 52.7106 227.548 123.511 259.649C196.006 292.517 295.116 325.388 402.584 352.206C510.051 379.022 612.985 396.569 692.424 401.614C770.003 406.542 817.167 398.676 821.818 380.036C825.68 364.559 800.22 341.76 750.129 315.837L751.508 313.173C787.905 332.009 830.153 359.025 824.73 380.762C822.087 391.351 808.624 398.727 784.715 402.685C771.085 404.941 754.344 406.072 734.69 406.072Z" fill="#356BB3"/>
</g>
<defs>
<clipPath id="clip0_338_1759">
<rect width="825.202" height="591.419" fill="white"/>
</clipPath>
</defs>
</svg>
