<svg width="811" height="600" viewBox="0 0 811 600" fill="none" xmlns="http://www.w3.org/2000/svg">
<g clip-path="url(#clip0_338_1559)">
<path d="M236.396 59.0004L244.959 72.3833L275.507 57.2391L291.213 52.437C293.254 51.8131 295.095 50.6646 296.552 49.1063C298.01 47.548 299.033 45.6344 299.519 43.5568C300.006 41.4792 299.938 39.3104 299.324 37.267C298.71 35.2236 297.57 33.3773 296.018 31.9125C293.719 29.7419 290.666 28.5494 287.504 28.5868C284.343 28.6242 281.319 29.8884 279.072 32.1128L265.892 45.1586L236.396 59.0004Z" fill="#A0616A"/>
<path d="M250.848 71.7599L239.431 53.916L196.142 72.961C193.033 74.3286 190.331 76.4762 188.297 79.1956C186.262 81.915 184.965 85.1139 184.531 88.4822C183.996 92.6353 184.797 96.8511 186.819 100.518C188.84 104.185 191.977 107.113 195.775 108.878L264.783 139.91C269.546 142.122 274.985 142.385 279.939 140.641C284.893 138.898 288.969 135.286 291.296 130.578C292.547 128.046 293.252 125.278 293.363 122.456C293.474 119.633 292.99 116.819 291.942 114.196C290.893 111.573 289.304 109.201 287.278 107.233C285.252 105.264 282.835 103.745 280.183 102.773L228.418 84.8535L250.848 71.7599Z" fill="#356BB3"/>
<path d="M707.723 374.685C707.723 369.325 705.923 364.975 703.713 364.965H101.223C99.0031 364.975 97.2131 369.325 97.2031 374.685V595.328C97.2032 595.825 97.0181 596.305 96.6837 596.674C96.3493 597.042 95.8897 597.273 95.3944 597.321C93.7773 597.476 92.1602 597.621 90.5432 597.755C90.5032 597.755 90.4632 597.765 90.4231 597.765C89.5432 597.845 88.6632 597.905 87.7831 597.975H87.7731C87.3205 597.138 86.8731 596.293 86.4309 595.442C86.2814 595.155 86.2032 594.836 86.2031 594.513V362.075C86.2031 360.595 86.2631 359.105 86.3631 357.635C86.5059 355.616 86.7562 353.607 87.1131 351.615C88.8031 342.325 92.6231 336.035 96.9631 336.015H707.963C708.597 336.019 709.222 336.151 709.803 336.405C710.656 336.782 711.427 337.322 712.073 337.995C712.95 338.906 713.7 339.932 714.303 341.045C716.443 344.815 717.973 350.435 718.513 356.975C718.513 357.035 718.523 357.095 718.523 357.155C718.663 358.775 718.733 360.425 718.723 362.075L718.863 383.505L718.953 396.285L719.223 436.385L719.323 450.625L719.763 596.825C719.763 597.355 719.552 597.864 719.177 598.239C718.802 598.614 718.294 598.825 717.763 598.825H709.723C709.193 598.825 708.684 598.614 708.309 598.239C707.934 597.864 707.723 597.355 707.723 596.825V374.685Z" fill="#E6E6E6"/>
<path d="M101.479 483.961L88.5156 481.633L91.3256 430.523L110.459 433.959L101.479 483.961Z" fill="#A0616A"/>
<path d="M99.5066 497.566L59.6426 490.408L59.7331 489.904C60.4722 485.789 62.8155 482.136 66.2477 479.748C69.6799 477.361 73.9199 476.435 78.035 477.173L78.036 477.174L86.3095 472.957L98.9036 480.921L102.383 481.546L99.5066 497.566Z" fill="#293148"/>
<path d="M415.872 430.015H336.383C334.252 430.012 332.21 429.165 330.704 427.659C329.197 426.152 328.35 424.11 328.348 421.979V349.25C328.35 347.12 329.197 345.078 330.704 343.571C332.21 342.065 334.252 341.218 336.383 341.215H415.872C418.002 341.218 420.045 342.065 421.551 343.571C423.058 345.078 423.905 347.12 423.907 349.25V421.979C423.905 424.11 423.058 426.152 421.551 427.659C420.045 429.165 418.002 430.012 415.872 430.015Z" fill="#4A8ACF"/>
<path d="M410.285 423.318H341.97C340.079 423.316 338.265 422.563 336.928 421.226C335.59 419.888 334.838 418.075 334.836 416.183V355.046C334.838 353.155 335.59 351.342 336.928 350.004C338.265 348.667 340.079 347.914 341.97 347.912H410.285C412.176 347.914 413.99 348.667 415.327 350.004C416.665 351.342 417.417 353.155 417.419 355.046V416.183C417.417 418.075 416.665 419.888 415.327 421.226C413.99 422.563 412.176 423.316 410.285 423.318Z" fill="white"/>
<path d="M403.47 365.711H348.785C348.312 365.711 347.859 365.524 347.524 365.189C347.19 364.855 347.002 364.401 347.002 363.928C347.002 363.455 347.19 363.001 347.524 362.667C347.859 362.332 348.312 362.145 348.785 362.145H403.47C403.943 362.145 404.397 362.332 404.731 362.667C405.066 363.001 405.254 363.455 405.254 363.928C405.254 364.401 405.066 364.855 404.731 365.189C404.397 365.524 403.943 365.711 403.47 365.711Z" fill="#356BB3"/>
<path d="M403.47 372.759H348.785C348.312 372.759 347.859 372.571 347.524 372.237C347.19 371.902 347.002 371.448 347.002 370.975C347.002 370.502 347.19 370.049 347.524 369.714C347.859 369.38 348.312 369.192 348.785 369.192H403.47C403.943 369.192 404.397 369.38 404.731 369.714C405.066 370.049 405.254 370.502 405.254 370.975C405.254 371.448 405.066 371.902 404.731 372.237C404.397 372.571 403.943 372.759 403.47 372.759Z" fill="#356BB3"/>
<path d="M372.49 379.806H348.785C348.312 379.806 347.859 379.618 347.524 379.284C347.19 378.949 347.002 378.496 347.002 378.023C347.002 377.55 347.19 377.096 347.524 376.762C347.859 376.427 348.312 376.239 348.785 376.239H372.49C372.963 376.239 373.417 376.427 373.751 376.762C374.086 377.096 374.274 377.55 374.274 378.023C374.274 378.496 374.086 378.949 373.751 379.284C373.417 379.618 372.963 379.806 372.49 379.806Z" fill="#356BB3"/>
<path d="M403.47 394.566H348.785C348.312 394.566 347.859 394.378 347.524 394.044C347.19 393.709 347.002 393.255 347.002 392.782C347.002 392.309 347.19 391.856 347.524 391.521C347.859 391.187 348.312 390.999 348.785 390.999H403.47C403.943 390.999 404.397 391.187 404.731 391.521C405.066 391.856 405.254 392.309 405.254 392.782C405.254 393.255 405.066 393.709 404.731 394.044C404.397 394.378 403.943 394.566 403.47 394.566Z" fill="#E4E4E4"/>
<path d="M403.471 401.613H348.786C348.551 401.614 348.319 401.568 348.102 401.479C347.885 401.39 347.688 401.258 347.522 401.093C347.356 400.927 347.224 400.73 347.134 400.513C347.044 400.297 346.998 400.064 346.998 399.83C346.998 399.595 347.044 399.363 347.134 399.146C347.224 398.93 347.356 398.733 347.522 398.567C347.688 398.402 347.885 398.27 348.102 398.181C348.319 398.092 348.551 398.046 348.786 398.046H403.471C403.944 398.046 404.397 398.234 404.732 398.569C405.066 398.903 405.254 399.357 405.254 399.83C405.254 400.303 405.066 400.757 404.732 401.091C404.397 401.426 403.944 401.613 403.471 401.613Z" fill="#E4E4E4"/>
<path d="M372.49 408.66H348.785C348.312 408.66 347.859 408.472 347.524 408.138C347.19 407.804 347.002 407.35 347.002 406.877C347.002 406.404 347.19 405.95 347.524 405.616C347.859 405.281 348.312 405.093 348.785 405.093H372.49C372.963 405.093 373.417 405.281 373.751 405.616C374.086 405.95 374.274 406.404 374.274 406.877C374.274 407.35 374.086 407.804 373.751 408.138C373.417 408.472 372.963 408.66 372.49 408.66Z" fill="#E4E4E4"/>
<path d="M544.007 235.739H479.087C478.169 235.74 477.289 236.106 476.64 236.756C475.992 237.407 475.628 238.288 475.629 239.206V341.76H547.474V239.206C547.475 238.751 547.385 238.3 547.211 237.879C547.037 237.458 546.781 237.076 546.459 236.754C546.137 236.432 545.755 236.176 545.334 236.002C544.913 235.828 544.462 235.739 544.007 235.739ZM511.766 294.008C509.735 293.999 507.791 293.188 506.355 291.753C504.92 290.317 504.109 288.373 504.1 286.343V274.514C504.102 272.482 504.911 270.535 506.348 269.099C507.785 267.663 509.734 266.857 511.766 266.857C513.797 266.857 515.746 267.663 517.183 269.099C518.62 270.535 519.429 272.482 519.431 274.514V286.343C519.422 288.373 518.611 290.317 517.176 291.753C515.74 293.188 513.796 293.999 511.766 294.008Z" fill="#293148"/>
<path d="M475.406 338.479V348.374C475.407 348.887 475.611 349.378 475.974 349.74C476.336 350.103 476.828 350.307 477.341 350.308H545.763C546.275 350.306 546.766 350.101 547.128 349.739C547.49 349.377 547.695 348.886 547.697 348.374V338.479H475.406Z" fill="#4A8ACF"/>
<path d="M651.509 75.6924H374.004C371.62 75.6962 369.334 76.645 367.648 78.3309C365.962 80.0167 365.014 82.3022 365.01 84.6864V271.948C365.012 274.333 365.96 276.619 367.647 278.305C369.333 279.991 371.619 280.94 374.004 280.942H651.509C653.893 280.94 656.18 279.991 657.866 278.305C659.552 276.619 660.501 274.333 660.503 271.948V84.6864C660.499 82.3022 659.55 80.0167 657.864 78.3309C656.178 76.645 653.893 75.6962 651.509 75.6924Z" fill="#4A8ACF"/>
<path d="M649.192 82.189H376.322C375.045 82.1917 373.822 82.7008 372.92 83.6044C372.018 84.508 371.512 85.7324 371.512 87.009V269.629C371.514 270.904 372.021 272.126 372.923 273.028C373.824 273.929 375.047 274.437 376.322 274.439H649.192C650.467 274.437 651.689 273.929 652.59 273.028C653.492 272.126 654 270.904 654.002 269.629V87.009C654.002 85.7324 653.495 84.508 652.593 83.6044C651.692 82.7008 650.468 82.1917 649.192 82.189Z" fill="white"/>
<path d="M596.042 353.751H433.699C433.255 353.751 432.816 353.652 432.415 353.461C432.014 353.27 431.66 352.991 431.38 352.646C431.1 352.301 430.901 351.898 430.796 351.466C430.692 351.034 430.685 350.584 430.777 350.149L433.296 338.186C433.439 337.516 433.807 336.916 434.339 336.485C434.87 336.053 435.533 335.817 436.218 335.814H593.524C594.208 335.817 594.871 336.053 595.403 336.485C595.934 336.916 596.302 337.516 596.445 338.186L598.964 350.149C599.056 350.584 599.049 351.034 598.945 351.466C598.841 351.898 598.641 352.301 598.361 352.646C598.081 352.991 597.728 353.27 597.326 353.461C596.925 353.652 596.486 353.751 596.042 353.751Z" fill="#293148"/>
<path d="M441.881 337.969H437.857C437.588 337.969 437.369 338.187 437.369 338.457V340.481C437.369 340.75 437.588 340.969 437.857 340.969H441.881C442.151 340.969 442.369 340.75 442.369 340.481V338.457C442.369 338.187 442.151 337.969 441.881 337.969Z" fill="#4A8ACF"/>
<path d="M451.881 337.969H447.857C447.588 337.969 447.369 338.187 447.369 338.457V340.481C447.369 340.75 447.588 340.969 447.857 340.969H451.881C452.151 340.969 452.369 340.75 452.369 340.481V338.457C452.369 338.187 452.151 337.969 451.881 337.969Z" fill="#4A8ACF"/>
<path d="M461.881 337.969H457.857C457.588 337.969 457.369 338.187 457.369 338.457V340.481C457.369 340.75 457.588 340.969 457.857 340.969H461.881C462.151 340.969 462.369 340.75 462.369 340.481V338.457C462.369 338.187 462.151 337.969 461.881 337.969Z" fill="#4A8ACF"/>
<path d="M471.881 337.969H467.857C467.588 337.969 467.369 338.187 467.369 338.457V340.481C467.369 340.75 467.588 340.969 467.857 340.969H471.881C472.151 340.969 472.369 340.75 472.369 340.481V338.457C472.369 338.187 472.151 337.969 471.881 337.969Z" fill="#4A8ACF"/>
<path d="M481.881 337.969H477.857C477.588 337.969 477.369 338.187 477.369 338.457V340.481C477.369 340.75 477.588 340.969 477.857 340.969H481.881C482.151 340.969 482.369 340.75 482.369 340.481V338.457C482.369 338.187 482.151 337.969 481.881 337.969Z" fill="#4A8ACF"/>
<path d="M491.881 337.969H487.857C487.588 337.969 487.369 338.187 487.369 338.457V340.481C487.369 340.75 487.588 340.969 487.857 340.969H491.881C492.151 340.969 492.369 340.75 492.369 340.481V338.457C492.369 338.187 492.151 337.969 491.881 337.969Z" fill="#4A8ACF"/>
<path d="M501.881 337.969H497.857C497.588 337.969 497.369 338.187 497.369 338.457V340.481C497.369 340.75 497.588 340.969 497.857 340.969H501.881C502.151 340.969 502.369 340.75 502.369 340.481V338.457C502.369 338.187 502.151 337.969 501.881 337.969Z" fill="#4A8ACF"/>
<path d="M511.881 337.969H507.857C507.588 337.969 507.369 338.187 507.369 338.457V340.481C507.369 340.75 507.588 340.969 507.857 340.969H511.881C512.151 340.969 512.369 340.75 512.369 340.481V338.457C512.369 338.187 512.151 337.969 511.881 337.969Z" fill="#4A8ACF"/>
<path d="M521.883 337.969H517.859C517.59 337.969 517.371 338.187 517.371 338.457V340.481C517.371 340.75 517.59 340.969 517.859 340.969H521.883C522.152 340.969 522.371 340.75 522.371 340.481V338.457C522.371 338.187 522.152 337.969 521.883 337.969Z" fill="#4A8ACF"/>
<path d="M531.883 337.969H527.859C527.59 337.969 527.371 338.187 527.371 338.457V340.481C527.371 340.75 527.59 340.969 527.859 340.969H531.883C532.152 340.969 532.371 340.75 532.371 340.481V338.457C532.371 338.187 532.152 337.969 531.883 337.969Z" fill="#4A8ACF"/>
<path d="M541.883 337.969H537.859C537.59 337.969 537.371 338.187 537.371 338.457V340.481C537.371 340.75 537.59 340.969 537.859 340.969H541.883C542.152 340.969 542.371 340.75 542.371 340.481V338.457C542.371 338.187 542.152 337.969 541.883 337.969Z" fill="#4A8ACF"/>
<path d="M551.883 337.969H547.859C547.59 337.969 547.371 338.187 547.371 338.457V340.481C547.371 340.75 547.59 340.969 547.859 340.969H551.883C552.152 340.969 552.371 340.75 552.371 340.481V338.457C552.371 338.187 552.152 337.969 551.883 337.969Z" fill="#4A8ACF"/>
<path d="M561.883 337.969H557.859C557.59 337.969 557.371 338.187 557.371 338.457V340.481C557.371 340.75 557.59 340.969 557.859 340.969H561.883C562.152 340.969 562.371 340.75 562.371 340.481V338.457C562.371 338.187 562.152 337.969 561.883 337.969Z" fill="#4A8ACF"/>
<path d="M571.883 337.969H567.859C567.59 337.969 567.371 338.187 567.371 338.457V340.481C567.371 340.75 567.59 340.969 567.859 340.969H571.883C572.152 340.969 572.371 340.75 572.371 340.481V338.457C572.371 338.187 572.152 337.969 571.883 337.969Z" fill="#4A8ACF"/>
<path d="M581.883 337.969H577.859C577.59 337.969 577.371 338.187 577.371 338.457V340.481C577.371 340.75 577.59 340.969 577.859 340.969H581.883C582.152 340.969 582.371 340.75 582.371 340.481V338.457C582.371 338.187 582.152 337.969 581.883 337.969Z" fill="#4A8ACF"/>
<path d="M591.883 337.969H587.859C587.59 337.969 587.371 338.187 587.371 338.457V340.481C587.371 340.75 587.59 340.969 587.859 340.969H591.883C592.152 340.969 592.371 340.75 592.371 340.481V338.457C592.371 338.187 592.152 337.969 591.883 337.969Z" fill="#4A8ACF"/>
<path d="M441.764 342.969H437.74C437.471 342.969 437.252 343.187 437.252 343.457V345.481C437.252 345.75 437.471 345.969 437.74 345.969H441.764C442.033 345.969 442.252 345.75 442.252 345.481V343.457C442.252 343.187 442.033 342.969 441.764 342.969Z" fill="#4A8ACF"/>
<path d="M451.764 342.969H447.74C447.471 342.969 447.252 343.187 447.252 343.457V345.481C447.252 345.75 447.471 345.969 447.74 345.969H451.764C452.033 345.969 452.252 345.75 452.252 345.481V343.457C452.252 343.187 452.033 342.969 451.764 342.969Z" fill="#4A8ACF"/>
<path d="M461.764 342.969H457.74C457.471 342.969 457.252 343.187 457.252 343.457V345.481C457.252 345.75 457.471 345.969 457.74 345.969H461.764C462.033 345.969 462.252 345.75 462.252 345.481V343.457C462.252 343.187 462.033 342.969 461.764 342.969Z" fill="#4A8ACF"/>
<path d="M471.764 342.969H467.74C467.471 342.969 467.252 343.187 467.252 343.457V345.481C467.252 345.75 467.471 345.969 467.74 345.969H471.764C472.033 345.969 472.252 345.75 472.252 345.481V343.457C472.252 343.187 472.033 342.969 471.764 342.969Z" fill="#4A8ACF"/>
<path d="M481.764 342.969H477.74C477.471 342.969 477.252 343.187 477.252 343.457V345.481C477.252 345.75 477.471 345.969 477.74 345.969H481.764C482.033 345.969 482.252 345.75 482.252 345.481V343.457C482.252 343.187 482.033 342.969 481.764 342.969Z" fill="#4A8ACF"/>
<path d="M491.764 342.969H487.74C487.471 342.969 487.252 343.187 487.252 343.457V345.481C487.252 345.75 487.471 345.969 487.74 345.969H491.764C492.033 345.969 492.252 345.75 492.252 345.481V343.457C492.252 343.187 492.033 342.969 491.764 342.969Z" fill="#4A8ACF"/>
<path d="M501.764 342.969H497.74C497.471 342.969 497.252 343.187 497.252 343.457V345.481C497.252 345.75 497.471 345.969 497.74 345.969H501.764C502.033 345.969 502.252 345.75 502.252 345.481V343.457C502.252 343.187 502.033 342.969 501.764 342.969Z" fill="#4A8ACF"/>
<path d="M511.764 342.969H507.74C507.471 342.969 507.252 343.187 507.252 343.457V345.481C507.252 345.75 507.471 345.969 507.74 345.969H511.764C512.033 345.969 512.252 345.75 512.252 345.481V343.457C512.252 343.187 512.033 342.969 511.764 342.969Z" fill="#4A8ACF"/>
<path d="M521.764 342.969H517.74C517.47 342.969 517.252 343.187 517.252 343.457V345.481C517.252 345.75 517.47 345.969 517.74 345.969H521.764C522.033 345.969 522.252 345.75 522.252 345.481V343.457C522.252 343.187 522.033 342.969 521.764 342.969Z" fill="#4A8ACF"/>
<path d="M531.764 342.969H527.74C527.47 342.969 527.252 343.187 527.252 343.457V345.481C527.252 345.75 527.47 345.969 527.74 345.969H531.764C532.033 345.969 532.252 345.75 532.252 345.481V343.457C532.252 343.187 532.033 342.969 531.764 342.969Z" fill="#4A8ACF"/>
<path d="M541.764 342.969H537.74C537.47 342.969 537.252 343.187 537.252 343.457V345.481C537.252 345.75 537.47 345.969 537.74 345.969H541.764C542.033 345.969 542.252 345.75 542.252 345.481V343.457C542.252 343.187 542.033 342.969 541.764 342.969Z" fill="#4A8ACF"/>
<path d="M551.764 342.969H547.74C547.47 342.969 547.252 343.187 547.252 343.457V345.481C547.252 345.75 547.47 345.969 547.74 345.969H551.764C552.033 345.969 552.252 345.75 552.252 345.481V343.457C552.252 343.187 552.033 342.969 551.764 342.969Z" fill="#4A8ACF"/>
<path d="M561.764 342.969H557.74C557.47 342.969 557.252 343.187 557.252 343.457V345.481C557.252 345.75 557.47 345.969 557.74 345.969H561.764C562.033 345.969 562.252 345.75 562.252 345.481V343.457C562.252 343.187 562.033 342.969 561.764 342.969Z" fill="#4A8ACF"/>
<path d="M571.764 342.969H567.74C567.47 342.969 567.252 343.187 567.252 343.457V345.481C567.252 345.75 567.47 345.969 567.74 345.969H571.764C572.033 345.969 572.252 345.75 572.252 345.481V343.457C572.252 343.187 572.033 342.969 571.764 342.969Z" fill="#4A8ACF"/>
<path d="M581.764 342.969H577.74C577.47 342.969 577.252 343.187 577.252 343.457V345.481C577.252 345.75 577.47 345.969 577.74 345.969H581.764C582.033 345.969 582.252 345.75 582.252 345.481V343.457C582.252 343.187 582.033 342.969 581.764 342.969Z" fill="#4A8ACF"/>
<path d="M591.764 342.969H587.74C587.47 342.969 587.252 343.187 587.252 343.457V345.481C587.252 345.75 587.47 345.969 587.74 345.969H591.764C592.033 345.969 592.252 345.75 592.252 345.481V343.457C592.252 343.187 592.033 342.969 591.764 342.969Z" fill="#4A8ACF"/>
<path d="M524.764 348.969H485.74C485.471 348.969 485.252 349.187 485.252 349.457V351.481C485.252 351.75 485.471 351.969 485.74 351.969H524.764C525.033 351.969 525.252 351.75 525.252 351.481V349.457C525.252 349.187 525.033 348.969 524.764 348.969Z" fill="#4A8ACF"/>
<path d="M630.4 581.986L622.69 569.596L621.15 576.676C620.88 577.916 620.61 579.176 620.36 580.426C618.17 578.556 615.84 576.826 613.561 575.166C606.561 570.086 599.564 565 592.57 559.906L594.76 572.606C596.11 580.426 597.521 588.406 600.86 595.556C601.23 596.366 601.63 597.166 602.061 597.946H634.601C634.862 597.222 635.043 596.471 635.141 595.706C635.149 595.657 635.152 595.606 635.15 595.556C635.661 590.706 632.98 586.136 630.4 581.986Z" fill="#F0F0F0"/>
<path d="M190.398 581.986L182.688 569.596L181.148 576.676C180.878 577.916 180.608 579.176 180.358 580.426C178.168 578.556 175.838 576.826 173.559 575.166C166.559 570.086 159.562 565 152.568 559.906L154.758 572.606C156.108 580.426 157.519 588.406 160.858 595.556C161.229 596.366 161.628 597.166 162.059 597.946H194.599C194.86 597.222 195.041 596.471 195.139 595.706C195.147 595.657 195.15 595.606 195.148 595.556C195.659 590.706 192.978 586.136 190.398 581.986Z" fill="#F0F0F0"/>
<path d="M808.941 599.301L533.191 599.609C532.875 599.609 532.572 599.483 532.349 599.26C532.125 599.037 532 598.734 532 598.418C532 598.102 532.125 597.799 532.349 597.576C532.572 597.353 532.875 597.227 533.191 597.227L808.941 596.92C809.256 596.92 809.559 597.045 809.783 597.269C810.006 597.492 810.131 597.795 810.131 598.111C810.131 598.426 810.006 598.729 809.783 598.953C809.559 599.176 809.256 599.301 808.941 599.301Z" fill="#CACACA"/>
<path d="M635.475 107.35H380.151C379.886 107.344 379.633 107.234 379.448 107.044C379.262 106.855 379.158 106.6 379.158 106.334C379.158 106.069 379.262 105.814 379.448 105.624C379.633 105.434 379.886 105.325 380.151 105.319H635.475C635.74 105.325 635.993 105.434 636.178 105.624C636.364 105.814 636.468 106.069 636.468 106.334C636.468 106.6 636.364 106.855 636.178 107.044C635.993 107.234 635.74 107.344 635.475 107.35Z" fill="#CACACA"/>
<path d="M397.532 100.135C400.819 100.135 403.483 97.4114 403.483 94.0518C403.483 90.6922 400.819 87.9688 397.532 87.9688C394.246 87.9688 391.582 90.6922 391.582 94.0518C391.582 97.4114 394.246 100.135 397.532 100.135Z" fill="#4A8ACF"/>
<path d="M418.087 100.135C421.373 100.135 424.038 97.4114 424.038 94.0518C424.038 90.6922 421.373 87.9688 418.087 87.9688C414.801 87.9688 412.137 90.6922 412.137 94.0518C412.137 97.4114 414.801 100.135 418.087 100.135Z" fill="#4A8ACF"/>
<path d="M438.644 100.135C441.93 100.135 444.594 97.4114 444.594 94.0518C444.594 90.6922 441.93 87.9688 438.644 87.9688C435.357 87.9688 432.693 90.6922 432.693 94.0518C432.693 97.4114 435.357 100.135 438.644 100.135Z" fill="#4A8ACF"/>
<path d="M623.098 89.4766H608.496C608.206 89.4823 607.931 89.6014 607.728 89.8081C607.526 90.0148 607.412 90.2927 607.412 90.5822C607.412 90.8717 607.526 91.1496 607.728 91.3563C607.931 91.563 608.206 91.682 608.496 91.6878H623.098C623.387 91.682 623.663 91.563 623.865 91.3563C624.068 91.1496 624.182 90.8717 624.182 90.5822C624.182 90.2927 624.068 90.0148 623.865 89.8081C623.663 89.6014 623.387 89.4823 623.098 89.4766Z" fill="#4A8ACF"/>
<path d="M623.098 93.627H608.496C608.206 93.6327 607.931 93.7517 607.728 93.9585C607.526 94.1652 607.412 94.4431 607.412 94.7326C607.412 95.0221 607.526 95.3 607.728 95.5067C607.931 95.7134 608.206 95.8324 608.496 95.8382H623.098C623.387 95.8324 623.663 95.7134 623.865 95.5067C624.068 95.3 624.182 95.0221 624.182 94.7326C624.182 94.4431 624.068 94.1652 623.865 93.9585C623.663 93.7517 623.387 93.6327 623.098 93.627Z" fill="#4A8ACF"/>
<path d="M623.098 97.7715H608.496C608.206 97.7773 607.931 97.8963 607.728 98.103C607.526 98.3097 607.412 98.5876 607.412 98.8771C607.412 99.1666 607.526 99.4445 607.728 99.6512C607.931 99.8579 608.206 99.977 608.496 99.9827H623.098C623.387 99.977 623.663 99.8579 623.865 99.6512C624.068 99.4445 624.182 99.1666 624.182 98.8771C624.182 98.5876 624.068 98.3097 623.865 98.103C623.663 97.8963 623.387 97.7773 623.098 97.7715Z" fill="#4A8ACF"/>
<path d="M528.428 162.667H496.525C494.128 162.667 492.186 164.61 492.186 167.006C492.186 169.403 494.128 171.345 496.525 171.345H528.428C530.825 171.345 532.767 169.403 532.767 167.006C532.767 164.61 530.825 162.667 528.428 162.667Z" fill="#356BB3"/>
<path d="M549.039 180.023H475.915C473.519 180.023 471.576 181.966 471.576 184.362C471.576 186.759 473.519 188.701 475.915 188.701H549.039C551.436 188.701 553.378 186.759 553.378 184.362C553.378 181.966 551.436 180.023 549.039 180.023Z" fill="#E6E6E6"/>
<path d="M549.039 197.379H475.915C473.519 197.379 471.576 199.322 471.576 201.718C471.576 204.115 473.519 206.057 475.915 206.057H549.039C551.436 206.057 553.378 204.115 553.378 201.718C553.378 199.322 551.436 197.379 549.039 197.379Z" fill="#E6E6E6"/>
<path d="M406.252 263.969C406.258 267.543 405.621 271.09 404.372 274.439H376.322C375.047 274.437 373.824 273.929 372.923 273.027C372.021 272.126 371.514 270.904 371.512 269.629V234.349C373.079 234.095 374.664 233.968 376.252 233.969C380.191 233.969 384.093 234.744 387.732 236.252C391.372 237.759 394.68 239.969 397.465 242.755C400.251 245.541 402.461 248.848 403.969 252.488C405.476 256.128 406.252 260.029 406.252 263.969Z" fill="#E6E6E6"/>
<path d="M350.908 291.862C350.488 304.012 324.648 336.792 311.058 341.492C308.748 342.292 307.398 342.732 307.398 342.732L302.668 341.302L245.388 323.972C235.358 329.872 205.438 332.872 180.888 334.372C161.348 335.562 145.198 335.802 145.198 335.802C139.434 379.643 128.073 421.581 108.908 460.862L85.9082 456.862L107.637 310.542C108.106 307.383 109.493 304.43 111.626 302.052C113.759 299.675 116.544 297.976 119.635 297.168L275.938 256.282C275.938 256.282 284.558 254.722 302.738 263.492C332.668 277.932 351.208 283.022 350.908 291.862Z" fill="#293148"/>
<path d="M297.161 567.951L285.481 574.036L256.449 531.879L273.689 522.897L297.161 567.951Z" fill="#A0616A"/>
<path d="M303.922 579.921L268.003 598.636L267.766 598.181C265.834 594.474 265.455 590.15 266.71 586.162C267.966 582.175 270.754 578.849 274.462 576.917L278.43 568.52L293.265 567.12L296.401 565.486L303.922 579.921Z" fill="#293148"/>
<path d="M321.042 289.511C326.284 300.48 318.516 341.491 308.636 351.939L306.013 353.723L305.127 354.185C299.2 374.233 235.597 432.869 235.597 432.869C257.081 460.237 270.471 493.886 279.013 531.296L259.928 540.113L190.002 435.723C188.17 432.989 187.209 429.764 187.245 426.473C187.281 423.182 188.312 419.98 190.203 417.286L218.73 376.651L265.214 286.611C298.43 285.587 317.223 281.533 321.042 289.511Z" fill="#293148"/>
<path d="M349.301 296.13C248.908 280.862 239.761 267.132 238.78 267.377L237.908 267.594L252.453 243.009L257.788 236.707L253.685 233.774L255.313 221.591C256.583 216.655 257.611 210.842 257.063 210.064C255.931 208.811 253.413 206.533 253.388 206.511L253.064 206.218L256.845 197.396L261.908 126.862L274.963 100.836L301.908 84.8623L325.658 85.1498L346.53 104.509C355.392 108.772 362.599 115.839 367.035 124.615C371.47 133.391 372.887 143.385 371.064 153.048L360.462 209.046L356.562 237.909L362.926 244.273L358.966 248.232L356.612 261.716L359.023 276.987C360.908 290.862 352.527 291.689 351.908 291.862C351.871 291.873 350.051 296.639 349.974 296.639C349.781 296.639 349.765 296.2 349.301 296.13Z" fill="#356BB3"/>
<path d="M344.031 351.804C345.178 350.684 346.065 349.327 346.63 347.827C347.195 346.327 347.424 344.722 347.302 343.124C347.179 341.526 346.708 339.975 345.921 338.579C345.134 337.183 344.05 335.976 342.746 335.044L353.759 297.678L334.398 303.59L326.909 338.168C325.488 340.462 324.959 343.197 325.42 345.855C325.882 348.514 327.303 350.91 329.413 352.591C331.524 354.272 334.178 355.12 336.872 354.975C339.566 354.83 342.114 353.702 344.031 351.804Z" fill="#A0616A"/>
<path d="M345.819 325.877L324.892 316.49L341.678 246.78L310.417 170.894C308.872 167.143 308.172 163.097 308.366 159.045C308.56 154.993 309.643 151.033 311.54 147.447C313.436 143.861 316.099 140.736 319.339 138.294C322.579 135.853 326.317 134.155 330.287 133.32C337.46 131.821 344.934 133.228 351.07 137.233C357.206 141.238 361.503 147.514 363.018 154.683L382.03 245.15L345.819 325.877Z" fill="#356BB3"/>
<path d="M263.188 59.5938L270.838 27.7802C271.101 26.6921 271.784 25.7526 272.739 25.168C273.694 24.5835 274.842 24.4014 275.93 24.662L282.864 26.3291C283.952 26.592 284.891 27.2758 285.476 28.2306C286.061 29.1853 286.243 30.3329 285.982 31.4216L278.333 63.2352C278.07 64.3233 277.386 65.2628 276.431 65.8474C275.477 66.432 274.329 66.614 273.24 66.3534L266.307 64.6863C265.218 64.4234 264.279 63.7396 263.694 62.7848C263.11 61.8301 262.928 60.6825 263.188 59.5938Z" fill="#4A8ACF"/>
<path d="M276.351 26.4795C275.764 26.3392 275.146 26.4373 274.631 26.7523C274.117 27.0673 273.748 27.5735 273.606 28.1599L265.957 59.9735C265.817 60.5602 265.915 61.1786 266.23 61.6931C266.545 62.2075 267.051 62.576 267.637 62.7177L274.571 64.3849C275.158 64.5252 275.776 64.4272 276.291 64.1121C276.805 63.7971 277.174 63.2909 277.315 62.7045L284.965 30.8909C285.105 30.3042 285.007 29.6858 284.692 29.1713C284.377 28.6569 283.871 28.2884 283.284 28.1467L276.351 26.4795Z" fill="#356BB3"/>
<path d="M308.432 79.6562C327.186 79.6562 342.39 64.4529 342.39 45.6987C342.39 26.9445 327.186 11.7412 308.432 11.7412C289.678 11.7412 274.475 26.9445 274.475 45.6987C274.475 64.4529 289.678 79.6562 308.432 79.6562Z" fill="#A0616A"/>
<path d="M324.095 68.4042L325.318 61.5263C326.07 56.9652 325.289 52.2835 323.097 48.2134C320.906 44.1432 317.427 40.914 313.206 39.0307L312.157 38.5234L313.021 38.0614C313.296 37.9145 313.51 37.676 313.628 37.3873C313.745 37.0986 313.758 36.7779 313.663 36.4809C313.569 36.1839 313.374 35.9293 313.111 35.7612C312.849 35.5932 312.536 35.5223 312.227 35.561L311.245 35.683C310.576 35.7649 309.898 35.6516 309.292 35.3567C308.686 35.0618 308.178 34.598 307.83 34.0211C307.481 33.4442 307.307 32.7788 307.328 32.1052C307.349 31.4316 307.565 30.7785 307.949 30.2245C304.559 31.6292 300.942 32.4069 297.274 32.5199C291.966 32.4799 287.354 29.8925 285.524 25.9277C285.079 24.9419 284.805 23.8874 284.714 22.8095C279.107 25.019 276.083 31.642 276.052 31.7113L274.395 35.4106L275.104 31.4193C275.125 31.2978 277.296 19.2099 280.442 11.7104C283.826 3.64688 297.91 -0.603123 319.067 0.0692371C339.732 0.718647 344.317 24.2811 344.71 26.5609C350.582 32.2099 348.448 42.9052 346.643 48.8041C343.718 58.3573 337.948 67.8632 334.768 68.3637C334.483 68.4171 334.189 68.3852 333.923 68.2718C333.656 68.1584 333.429 67.9686 333.271 67.7265C332.952 67.2204 332.53 66.7876 332.032 66.4569C331.534 66.1262 330.971 65.905 330.381 65.808C327.812 65.4428 325.16 67.5492 325.134 67.5702L324.095 68.4042Z" fill="#293148"/>
<path d="M276.941 599.301L1.19115 599.609C0.875955 599.608 0.573992 599.482 0.35144 599.259C0.128889 599.035 0.00390625 598.733 0.00390625 598.418C0.00390625 598.103 0.128889 597.8 0.35144 597.577C0.573992 597.354 0.875955 597.228 1.19115 597.227L276.941 596.92C277.257 596.92 277.56 597.045 277.783 597.269C278.006 597.492 278.132 597.795 278.132 598.111C278.132 598.426 278.006 598.729 277.783 598.953C277.56 599.176 277.257 599.301 276.941 599.301Z" fill="#CACACA"/>
</g>
<defs>
<clipPath id="clip0_338_1559">
<rect width="810.131" height="599.609" fill="white"/>
</clipPath>
</defs>
</svg>
