<svg width="741" height="598" viewBox="0 0 741 598" fill="none" xmlns="http://www.w3.org/2000/svg">
<g clip-path="url(#clip0_338_1854)">
<path d="M421.949 528.307C416.828 521.135 409.894 515.888 401.178 513.924C393.578 512.211 385.762 512.503 378.036 512.563L280.344 513.316C271.977 513.381 263.955 520.629 264.344 529.316C264.729 537.93 271.375 545.385 280.344 545.316C308.961 545.095 337.578 544.875 366.195 544.654C372.941 544.602 379.692 544.48 386.439 544.503C387.954 544.507 389.463 544.587 390.976 544.605C391.343 544.609 391.608 544.605 391.795 544.598C391.842 544.612 391.881 544.625 391.942 544.642C392.732 544.858 393.542 545.008 394.336 545.214C394.058 545.222 394.851 545.717 395.25 545.885C395.305 545.993 395.421 546.184 395.616 546.48C395.888 546.99 396.693 548.539 396.726 548.49C397.936 551.549 398.934 554.687 399.713 557.883C401.573 564.93 401.981 566.403 402.249 573.015C402.587 581.367 409.366 589.412 418.249 589.015C426.628 588.639 434.612 581.972 434.249 573.015C433.638 557.92 430.988 540.965 421.949 528.307Z" fill="#E6E6E6"/>
<path d="M286.087 564.413C284.252 553.293 282.452 542.166 280.582 531.053C278.684 519.779 274.807 509.455 266.034 502.056C263.689 500.079 261.259 498.233 258.818 496.393C257.959 495.746 257.103 495.098 256.254 494.437C256.204 494.398 256.171 494.373 256.127 494.339C256.034 494.258 255.922 494.163 255.772 494.036C252.115 490.941 248.582 487.709 245.216 484.273C242.228 481.221 239.369 478.04 236.642 474.728C235.96 473.901 235.287 473.066 234.623 472.224C234.509 472.079 233.894 471.284 233.488 470.765C233.111 470.246 232.422 469.308 232.307 469.145C231.531 468.047 230.769 466.94 230.02 465.823C224.924 458.187 220.512 450.118 216.834 441.707C216.469 440.873 216.113 440.034 215.765 439.19C215.672 438.932 215.551 438.602 215.391 438.161C214.65 436.123 213.91 434.087 213.232 432.025C211.792 427.644 210.555 423.198 209.519 418.688C209.006 416.461 208.545 414.223 208.135 411.974C207.924 410.817 207.726 409.657 207.542 408.496C207.512 408.303 207.332 407.05 207.226 406.341C207.148 405.63 207.002 404.37 206.983 404.175C206.866 403.004 206.762 401.832 206.671 400.659C206.466 398.019 206.328 395.374 206.256 392.725C206.133 388.018 206.217 383.311 206.509 378.604C206.675 375.959 206.911 373.321 207.202 370.688C207.22 370.527 207.233 370.398 207.246 370.282C207.264 370.164 207.284 370.031 207.309 369.865C207.524 368.41 207.751 366.957 208.004 365.508C208.964 360.009 210.212 354.563 211.743 349.195C212.468 346.656 213.256 344.137 214.106 341.639C214.485 340.531 214.876 339.426 215.279 338.326C215.253 338.397 216.461 335.31 216.477 335.206C221.272 323.877 229.115 313.549 229.126 300.68C229.133 291.966 221.761 283.62 213.126 284.022C208.82 284.184 204.745 286.012 201.761 289.119C198.776 292.226 197.114 296.371 197.126 300.68C197.126 300.875 197.125 301.042 197.124 301.204C197.044 301.476 196.976 301.702 196.916 301.902C195.981 303.934 194.835 305.865 193.809 307.846C190.998 313.27 188.599 318.871 186.32 324.555C182.59 333.81 179.734 343.395 177.791 353.183C173.568 374.629 173.24 396.661 176.823 418.223C183.027 456.036 203.485 492.232 231.926 516.563C234.395 518.674 236.923 520.714 239.475 522.714C240.531 523.541 241.596 524.353 242.667 525.159C243.172 525.541 245.268 527.193 244.346 526.393C246.329 528.084 247.163 528.936 247.672 530.182C247.746 530.47 247.847 530.86 247.983 531.393C248.342 532.798 248.683 534.2 248.966 535.625C251.441 548.077 253.162 560.737 255.23 573.269C256.651 581.88 267.252 587.484 274.912 584.903C283.828 581.899 287.61 573.639 286.087 564.413Z" fill="#E6E6E6"/>
<path d="M423.567 596.708C416.848 596.725 410.396 594.077 405.626 589.343C400.857 584.609 398.16 578.177 398.127 571.458V553.206C379.019 555.345 313.584 554.85 294.828 551.836V570.728C294.777 577.442 292.075 583.864 287.309 588.594C282.544 593.324 276.102 595.978 269.387 595.978C262.673 595.978 256.231 593.324 251.466 588.594C246.7 583.864 243.998 577.442 243.947 570.728V533.636C218.543 519.523 197.365 498.887 182.599 473.856C167.832 448.826 160.013 420.309 159.947 391.248C159.947 341.418 182.53 294.933 221.906 263.714C247.508 243.347 278.614 231.098 311.228 228.541C315.655 228.194 320.109 228.018 324.467 228.018C339.82 228.018 409.086 230.389 426.465 235.389L466.093 196.068C466.676 195.482 467.419 195.083 468.23 194.921C469.04 194.76 469.88 194.843 470.643 195.161C471.411 195.467 472.07 195.998 472.531 196.684C472.992 197.371 473.235 198.181 473.227 199.008V205.26L480.944 197.617C481.525 197.031 482.268 196.631 483.078 196.469C483.888 196.308 484.728 196.391 485.49 196.709C486.259 197.015 486.918 197.546 487.38 198.233C487.842 198.919 488.085 199.73 488.078 200.557V270.422C507.962 288.349 523.118 310.903 532.201 336.088C541.285 361.272 544.015 388.308 540.151 414.8C536.287 441.292 525.948 466.422 510.049 487.962C494.151 509.503 473.184 526.789 449.007 538.288V571.458C448.974 578.177 446.277 584.609 441.508 589.343C436.739 594.077 430.287 596.725 423.567 596.708ZM400.127 550.938V571.458C400.178 577.641 402.67 583.554 407.06 587.909C411.45 592.264 417.384 594.707 423.567 594.707C429.751 594.707 435.684 592.264 440.075 587.909C444.465 583.554 446.957 577.641 447.007 571.458V537.025L447.578 536.754C474.706 523.881 497.735 503.742 514.109 478.572C534.974 446.454 543.651 407.927 538.57 369.965C533.489 332.003 514.986 297.114 486.41 271.612L486.077 271.314V200.557C486.085 200.127 485.96 199.706 485.72 199.349C485.48 198.992 485.137 198.717 484.736 198.562C484.337 198.391 483.897 198.345 483.472 198.43C483.047 198.514 482.657 198.725 482.354 199.035L471.227 210.055V199.008C471.235 198.578 471.11 198.156 470.87 197.799C470.63 197.442 470.286 197.168 469.886 197.012C469.486 196.842 469.045 196.796 468.619 196.881C468.194 196.966 467.804 197.178 467.5 197.488L427.024 237.652L426.449 237.472C410.293 232.415 339.936 230.018 324.467 230.018C320.161 230.018 315.76 230.192 311.386 230.535C279.167 233.061 248.439 245.161 223.149 265.281C184.254 296.119 161.947 342.032 161.947 391.248C162.014 420.052 169.791 448.313 184.472 473.094C199.153 497.876 220.202 518.275 245.431 532.173L245.947 532.458V570.728C245.999 576.911 248.491 582.823 252.881 587.177C257.272 591.53 263.204 593.973 269.387 593.973C275.57 593.973 281.503 591.53 285.893 587.177C290.284 582.823 292.776 576.911 292.828 570.728V549.442L294.012 549.665C310.868 552.836 381.844 553.336 398.997 551.086L400.127 550.938Z" fill="#4A8ACF"/>
<path d="M287.997 119.118L177.257 152.398C173.735 153.46 170.778 155.878 169.037 159.119C167.296 162.36 166.913 166.16 167.972 169.683C169.031 173.207 171.445 176.166 174.684 177.91C177.923 179.655 181.723 180.042 185.247 178.988L282.157 149.858L284.187 149.248C284.598 138.786 287.436 128.564 292.477 119.388C291.844 119.103 291.168 118.927 290.477 118.868C289.642 118.787 288.799 118.872 287.997 119.118Z" fill="#356BB3"/>
<path d="M183.332 186.083C181.862 186.079 180.43 185.614 179.239 184.752C178.048 183.891 177.158 182.677 176.694 181.282L169.77 160.386C169.48 159.513 169.366 158.592 169.433 157.675C169.499 156.758 169.746 155.863 170.159 155.042C170.571 154.22 171.142 153.488 171.837 152.887C172.533 152.286 173.34 151.828 174.213 151.539L264.344 121.669C265.217 121.38 266.138 121.265 267.054 121.332C267.971 121.398 268.866 121.645 269.687 122.057C270.509 122.47 271.241 123.04 271.842 123.736C272.443 124.431 272.901 125.238 273.191 126.111L280.115 147.007C280.692 148.725 280.576 150.601 279.793 152.236C279.011 153.871 277.622 155.137 275.922 155.766C275.839 155.797 275.755 155.827 275.67 155.854L185.541 185.723C184.829 185.961 184.083 186.082 183.332 186.083Z" fill="#293148"/>
<path d="M352.127 82.0076C333.936 82.0146 316.461 89.0998 303.402 101.763C290.343 114.427 282.723 131.675 282.157 149.858C282.137 150.568 282.127 151.288 282.127 152.008C282.127 165.852 286.232 179.386 293.924 190.897C301.616 202.409 312.548 211.381 325.339 216.679C338.13 221.977 352.205 223.364 365.783 220.663C379.362 217.962 391.835 211.295 401.624 201.505C411.414 191.715 418.081 179.243 420.782 165.664C423.483 152.085 422.097 138.011 416.798 125.22C411.5 112.429 402.528 101.496 391.017 93.8047C379.505 86.113 365.972 82.0076 352.127 82.0076ZM352.127 220.008C334.098 219.989 316.813 212.818 304.064 200.07C291.316 187.322 284.146 170.037 284.127 152.008C284.127 151.078 284.147 150.158 284.187 149.248C284.728 135.927 289.174 123.06 296.969 112.246C304.765 101.432 315.568 93.1477 328.034 88.4238C340.5 83.6999 354.08 82.7445 367.084 85.6766C380.089 88.6087 391.945 95.2988 401.178 104.915C410.411 114.531 416.614 126.649 419.015 139.763C421.416 152.876 419.909 166.406 414.683 178.669C409.456 190.933 400.74 201.39 389.618 208.74C378.495 216.09 365.458 220.008 352.127 220.008Z" fill="#4A8ACF"/>
<path d="M411.127 152.008C411.127 167.655 404.911 182.662 393.846 193.727C382.782 204.792 367.775 211.008 352.127 211.008C336.479 211.008 321.472 204.792 310.408 193.727C299.343 182.662 293.127 167.655 293.127 152.008C293.127 150.138 293.217 148.298 293.387 146.478C294.809 131.376 301.992 117.402 313.446 107.457C324.899 97.5125 339.743 92.3612 354.895 93.0728C370.047 93.7845 384.342 100.304 394.814 111.279C405.285 122.253 411.127 136.839 411.127 152.008Z" fill="#E6E6E6"/>
<path d="M369.698 155.928C368.268 154.047 366.386 152.558 364.228 151.598C361.566 150.476 358.817 149.573 356.008 148.898V132.838C360.325 133.489 364.375 135.335 367.698 138.168L370.958 131.218C369.083 129.547 366.93 128.217 364.598 127.288C362.012 126.241 359.298 125.544 356.528 125.218V117.078H348.978V125.298C346.063 125.625 343.25 126.569 340.728 128.068C338.45 129.416 336.531 131.296 335.138 133.548C333.808 135.745 333.118 138.27 333.148 140.838C333.018 143.621 333.824 146.367 335.438 148.638C336.923 150.604 338.885 152.159 341.138 153.158C343.842 154.313 346.639 155.239 349.498 155.928V171.318C344.403 170.933 339.548 168.996 335.588 165.768L332.328 172.728C334.542 174.558 337.061 175.987 339.768 176.948C342.735 178.009 345.834 178.655 348.978 178.868V186.938H356.528V178.718C360.721 178.259 364.654 176.456 367.738 173.578C369.096 172.275 370.169 170.705 370.888 168.966C371.608 167.228 371.958 165.359 371.918 163.478C372.043 160.783 371.262 158.125 369.698 155.928ZM349.498 147.198C347.659 146.64 345.949 145.722 344.468 144.498C343.881 143.975 343.417 143.33 343.109 142.607C342.802 141.884 342.658 141.103 342.688 140.318C342.633 138.537 343.288 136.807 344.508 135.508C345.86 134.145 347.605 133.239 349.498 132.918V147.198ZM360.748 168.478C359.472 169.786 357.811 170.652 356.008 170.948V157.708C357.731 158.17 359.344 158.976 360.748 160.078C361.28 160.532 361.703 161.101 361.985 161.742C362.268 162.382 362.402 163.078 362.378 163.778C362.447 165.494 361.865 167.173 360.748 168.478Z" fill="#356BB3"/>
<path d="M186.547 270.772C185.001 270.769 183.499 270.257 182.275 269.314C181.05 268.371 180.17 267.05 179.772 265.556L176.002 251.286C175.53 249.492 175.789 247.585 176.722 245.982C177.654 244.379 179.185 243.211 180.977 242.735L299.918 211.305C301.713 210.837 303.62 211.098 305.222 212.032C306.825 212.967 307.992 214.498 308.469 216.29L311.663 228.38L311.064 228.427C280.56 230.798 251.373 241.858 226.957 260.298L226.783 260.382L188.323 270.541C187.744 270.694 187.147 270.772 186.547 270.772Z" fill="#293148"/>
<path d="M166.847 341.258C152.895 339.197 139.551 334.151 127.725 326.466C121.866 322.661 116.443 318.225 111.551 313.238C106.723 308.313 102.105 302.716 99.7135 296.158C97.4127 290.091 97.5313 283.371 100.045 277.389C102.524 271.443 107.26 266.723 113.213 264.263C119.203 261.875 126.44 261.619 132.269 264.235C135.047 265.453 137.45 267.388 139.233 269.841C140.062 270.972 140.676 272.246 141.044 273.599C141.385 274.825 141.416 276.117 141.134 277.358C140.792 278.598 140.189 279.749 139.366 280.736C138.543 281.723 137.518 282.523 136.36 283.081C133.812 284.389 131.052 285.23 128.208 285.568C125.348 285.958 121.239 286.313 118.94 284.017C118.467 283.562 118.094 283.014 117.847 282.406C117.674 281.941 117.615 281.441 117.675 280.948C117.641 281.165 117.814 280.475 117.804 280.503C117.767 280.605 117.61 280.853 117.834 280.472C117.904 280.346 117.982 280.225 118.067 280.109C117.991 280.207 117.824 280.371 118.122 280.089C118.368 279.82 118.685 279.624 119.036 279.525C119.175 279.485 119.315 279.453 119.454 279.415C119.807 279.318 119.102 279.42 119.463 279.408C119.603 279.404 119.743 279.407 119.882 279.401C120.236 279.385 119.533 279.305 119.872 279.39C120.004 279.423 120.135 279.455 120.264 279.496C120.546 279.585 120.065 279.289 120.256 279.511C120.48 279.77 120.02 279.258 120.275 279.51C120.402 279.634 120.521 279.766 120.633 279.904C121.074 280.34 121.67 280.584 122.29 280.584C122.911 280.584 123.506 280.34 123.948 279.904C124.374 279.457 124.612 278.864 124.612 278.246C124.612 277.629 124.374 277.035 123.948 276.589C121.636 273.723 117.071 274.431 114.732 276.853C111.75 279.942 112.931 284.836 115.832 287.531C119.116 290.582 123.766 290.794 127.99 290.282C131.56 289.94 135.039 288.957 138.26 287.38C141.46 285.808 143.963 283.104 145.284 279.792C145.88 278.025 146.094 276.151 145.912 274.294C145.73 272.438 145.156 270.641 144.227 269.023C140.498 262.012 132.776 258.418 125.143 257.795C121.213 257.487 117.261 257.962 113.516 259.191C109.771 260.421 106.307 262.381 103.324 264.958C97.575 270.133 94.0349 277.32 93.4357 285.033C92.7695 293.029 95.8718 300.794 100.395 307.247C105.13 313.804 110.781 319.647 117.174 324.6C129.674 334.579 144.336 341.494 159.986 344.791C161.848 345.176 163.72 345.505 165.601 345.779C166.2 345.924 166.831 345.835 167.367 345.531C167.903 345.227 168.302 344.73 168.485 344.141C168.645 343.542 168.564 342.904 168.257 342.364C167.951 341.824 167.444 341.427 166.847 341.258Z" fill="#4A8ACF"/>
<path d="M390.232 239.382C369.79 239.093 349.412 239.612 329.099 240.938C322.156 241.391 316.148 243.846 316.148 247.97C316.148 251.419 322.108 255.459 329.099 255.002C349.402 253.676 369.78 253.158 390.232 253.446C406.906 253.681 406.896 239.617 390.232 239.382Z" fill="#CCCCCC"/>
<path d="M360.02 252.749C357.811 252.749 305.914 252.667 305.914 245.498C305.914 238.33 357.811 238.248 360.02 238.248C362.229 238.248 414.125 238.33 414.125 245.498C414.125 252.667 362.229 252.749 360.02 252.749ZM307.943 245.498C309.364 247.672 328.44 250.749 360.02 250.749C391.6 250.749 410.676 247.672 412.096 245.498C410.676 243.325 391.6 240.248 360.02 240.248C328.44 240.248 309.364 243.325 307.943 245.498Z" fill="#4A8ACF"/>
<path d="M524.674 441.2C536.162 440.881 550.46 440.482 561.475 432.436C564.755 429.941 567.45 426.76 569.371 423.115C571.292 419.469 572.392 415.448 572.595 411.332C572.82 404.978 570.524 399.431 566.131 395.718C560.377 390.857 551.977 389.717 542.923 392.377L552.303 323.829L545.417 322.886L534.39 403.473L540.14 400.834C546.807 397.776 555.958 396.22 561.644 401.026C563.041 402.282 564.128 403.844 564.823 405.589C565.518 407.334 565.801 409.216 565.65 411.088C565.481 414.151 564.655 417.142 563.227 419.857C561.799 422.572 559.803 424.948 557.375 426.823C548.803 433.084 537.406 433.892 524.48 434.253L524.674 441.2Z" fill="#4A8ACF"/>
<path d="M505.635 329.741H468.203V336.691H505.635V329.741Z" fill="#4A8ACF"/>
<path d="M203.485 302.738C201.819 302.732 200.209 302.134 198.944 301.05C197.679 299.965 196.841 298.466 196.581 296.82L194.296 282.239C194.011 280.405 194.465 278.532 195.558 277.033C196.651 275.533 198.295 274.528 200.128 274.239L321.66 255.197C323.494 254.911 325.366 255.365 326.865 256.458C328.365 257.552 329.37 259.195 329.659 261.029L331.944 275.611C332.229 277.444 331.775 279.317 330.682 280.816C329.589 282.316 327.945 283.321 326.112 283.61L204.58 302.652C204.218 302.709 203.852 302.737 203.485 302.738Z" fill="#293148"/>
<path d="M153.189 131.855C181.356 131.855 204.189 109.021 204.189 80.8547C204.189 52.6882 181.356 29.8547 153.189 29.8547C125.023 29.8547 102.189 52.6882 102.189 80.8547C102.189 109.021 125.023 131.855 153.189 131.855Z" fill="#356BB3"/>
<path d="M182.065 94.0507C183.695 93.4806 185.184 92.5681 186.432 91.3746C187.258 90.5236 187.887 89.5025 188.277 88.3826C188.666 87.2627 188.806 86.0712 188.687 84.8916C188.618 84.0508 188.355 83.2375 187.919 82.5151C187.483 81.7927 186.886 81.1809 186.175 80.7275C184.329 79.5924 181.89 79.6353 179.428 80.7768L179.144 60.8689L177.144 60.8974L177.478 84.3012L179 83.3027C180.766 82.1468 183.302 81.3087 185.127 82.4312C185.578 82.7283 185.955 83.1256 186.228 83.592C186.501 84.0585 186.662 84.5816 186.7 85.1207C186.784 85.9995 186.678 86.8861 186.389 87.7202C186.099 88.5543 185.634 89.3163 185.024 89.9543C182.856 92.1055 179.647 92.8262 175.984 93.4855L176.339 95.4536C178.286 95.158 180.202 94.6885 182.065 94.0507Z" fill="#293148"/>
<path d="M199.736 59.4716L189.086 61.0845L189.385 63.0617L200.036 61.4488L199.736 59.4716Z" fill="#293148"/>
<path d="M166.121 64.5614L155.471 66.1743L155.77 68.1515L166.42 66.5386L166.121 64.5614Z" fill="#293148"/>
<path d="M186.892 301.846C185.058 301.842 183.269 301.28 181.762 300.234C180.255 299.188 179.103 297.708 178.458 295.991L143.295 201.822C138.997 190.273 139.456 177.49 144.571 166.279C149.686 155.068 159.039 146.343 170.579 142.02L199.171 131.344C200.276 130.928 201.453 130.735 202.634 130.776C203.814 130.817 204.975 131.091 206.049 131.582C207.12 132.061 208.086 132.749 208.888 133.605C209.691 134.461 210.315 135.468 210.724 136.568L275.861 259.552C276.283 260.661 276.483 261.843 276.447 263.029C276.412 264.216 276.142 265.383 275.653 266.465C275.165 267.546 274.467 268.521 273.601 269.332C272.734 270.143 271.716 270.774 270.604 271.19L190.038 301.274C189.032 301.652 187.967 301.845 186.892 301.846Z" fill="#293148"/>
<path d="M190.496 134.583L255.125 221.008L211.393 135.49C211.032 134.492 210.478 133.575 209.762 132.791C209.047 132.008 208.184 131.373 207.223 130.923C206.262 130.473 205.222 130.217 204.161 130.169C203.101 130.121 202.042 130.282 201.044 130.644L190.496 134.583Z" fill="#E6E6E6"/>
<path d="M292.828 200.218L177.433 192.784C175.614 192.667 173.836 192.193 172.2 191.389C170.564 190.584 169.103 189.466 167.9 188.097C166.697 186.728 165.775 185.135 165.187 183.41C164.599 181.685 164.357 179.86 164.474 178.042C164.591 176.223 165.065 174.445 165.87 172.809C166.674 171.173 167.793 169.712 169.162 168.509C170.531 167.306 172.123 166.384 173.849 165.796C175.574 165.208 177.398 164.966 179.217 165.083L294.612 172.515C295.464 172.57 296.297 172.792 297.063 173.169C297.829 173.546 298.513 174.069 299.077 174.711C299.64 175.352 300.072 176.097 300.347 176.905C300.622 177.713 300.736 178.568 300.681 179.42L299.732 194.149C299.622 195.869 298.832 197.475 297.537 198.613C296.242 199.751 294.548 200.328 292.828 200.218Z" fill="#356BB3"/>
<path d="M261.993 204.983C261.841 204.983 261.688 204.978 261.535 204.968L166.779 198.865C165.861 198.806 164.965 198.567 164.14 198.161C163.315 197.755 162.578 197.191 161.971 196.501C161.364 195.81 160.899 195.007 160.602 194.137C160.306 193.267 160.184 192.347 160.243 191.43L161.863 166.271C161.922 165.354 162.162 164.457 162.567 163.632C162.973 162.807 163.537 162.071 164.228 161.464C164.918 160.857 165.722 160.392 166.592 160.095C167.462 159.799 168.382 159.677 169.299 159.736L264.055 165.839C265.907 165.961 267.635 166.811 268.86 168.205C270.086 169.599 270.708 171.422 270.591 173.274L268.971 198.433C268.881 199.781 268.405 201.075 267.598 202.159C266.792 203.243 265.69 204.071 264.424 204.544C263.647 204.835 262.823 204.983 261.993 204.983Z" fill="#293148"/>
<path d="M152.605 46.9405C159.314 41.1702 168.527 46.3321 176.222 45.4285C183.583 44.5639 189.395 37.9609 190.88 30.9461C192.612 22.7621 188.365 14.5629 182.104 9.46034C175.246 3.87176 166.151 2.26741 157.533 3.30134C147.655 4.48634 138.622 9.09069 130.516 14.6599C122.692 19.869 115.497 25.9659 109.074 32.8291C103.323 39.1807 98.4507 46.7517 96.8947 55.2988C95.4807 63.0663 96.5604 71.6738 101.152 78.254C103.587 81.6266 106.85 84.3148 110.626 86.0592C114.564 87.9927 118.764 89.3749 122.579 91.5609C128.346 94.8662 133.952 101.72 132.145 108.852C131.758 110.41 130.994 111.849 129.919 113.042C128.629 114.475 126.301 112.581 127.595 111.145C129.868 108.622 129.778 105.257 128.567 102.245C127.126 98.8502 124.576 96.0456 121.333 94.2903C117.34 92.0073 112.932 90.5982 108.839 88.5187C104.922 86.6191 101.522 83.8013 98.9278 80.3049C94.0296 73.4979 92.5645 64.639 93.6753 56.4439C94.8775 47.5755 99.434 39.5167 105.146 32.7634C111.362 25.414 118.998 19.1929 126.798 13.6041C135.169 7.60721 144.416 2.53729 154.649 0.70358C163.519 -0.88596 173.133 0.0926609 180.89 4.92651C188.13 9.4386 193.682 17.2003 194.234 25.8732C194.433 29.8194 193.576 33.7471 191.752 37.2521C189.928 40.7572 187.203 43.7129 183.858 45.8153C180.425 47.8695 176.434 48.794 172.448 48.4586C168.186 48.1858 163.921 46.8808 159.632 47.2431C157.691 47.3609 155.842 48.1082 154.364 49.3716C152.898 50.6324 151.151 48.1909 152.605 46.9405Z" fill="#293148"/>
<path d="M739.485 597.175H1.19115C0.875955 597.174 0.573992 597.049 0.35144 596.825C0.128889 596.602 0.00390625 596.3 0.00390625 595.985C0.00390625 595.669 0.128889 595.367 0.35144 595.144C0.573992 594.921 0.875955 594.795 1.19115 594.794H739.485C739.801 594.794 740.104 594.919 740.327 595.143C740.55 595.366 740.676 595.669 740.676 595.985C740.676 596.3 740.55 596.603 740.327 596.827C740.104 597.05 739.801 597.175 739.485 597.175Z" fill="#4A8ACF"/>
</g>
<defs>
<clipPath id="clip0_338_1854">
<rect width="740.675" height="597.175" fill="white"/>
</clipPath>
</defs>
</svg>
