<svg width="906" height="750" viewBox="0 0 906 750" fill="none" xmlns="http://www.w3.org/2000/svg">
<g clip-path="url(#clip0_338_1814)">
<path d="M675.42 719.042C704.003 741.19 739.916 751.687 775.927 748.419C811.939 745.152 845.376 728.362 869.505 701.431C893.634 674.499 906.665 639.427 905.973 603.274C905.281 567.121 890.918 532.572 865.776 506.584L675.42 719.042Z" fill="#F2F2F2"/>
<path d="M325.709 222.811L148.992 417.621C158.636 438.579 173.19 456.904 191.421 471.042L381.776 258.584C366.157 242.421 346.949 230.165 325.709 222.811Z" fill="#F2F2F2"/>
<path d="M325 222.913V109H232V222.561C262.181 212.36 294.897 212.484 325 222.913Z" fill="#356BB3"/>
<path d="M232 491.439V608H325V491.086C294.897 501.516 262.181 501.64 232 491.439Z" fill="#356BB3"/>
<path d="M279 500.5C199.874 500.5 135.5 436.126 135.5 357C135.5 277.874 199.874 213.5 279 213.5C358.126 213.5 422.5 277.874 422.5 357C422.5 436.126 358.126 500.5 279 500.5ZM279 214.5C200.425 214.5 136.5 278.425 136.5 357C136.5 435.575 200.425 499.5 279 499.5C357.575 499.5 421.5 435.575 421.5 357C421.5 278.425 357.575 214.5 279 214.5Z" fill="black"/>
<path d="M178 357C178 383.787 188.641 409.477 207.582 428.418C226.523 447.359 252.213 458 279 458V256C252.213 256 226.523 266.641 207.582 285.582C188.641 304.523 178 330.213 178 357Z" fill="#575A89"/>
<path d="M279 256V458C305.787 458 331.477 447.359 350.418 428.418C369.359 409.477 380 383.787 380 357C380 330.213 369.359 304.523 350.418 285.582C331.477 266.641 305.787 256 279 256Z" fill="#356BB3"/>
<path d="M279 376C286.732 376 293 369.732 293 362C293 354.268 286.732 348 279 348C271.268 348 265 354.268 265 362C265 369.732 271.268 376 279 376Z" fill="#293148"/>
<path d="M278.976 310.658L282.464 338.329L285.952 366H278.976H272L275.488 338.329L278.976 310.658Z" fill="#293148"/>
<path d="M362.474 362.786L316.962 364.488L271.451 366.189L271.476 362.214L271.501 358.238L316.987 360.512L362.474 362.786Z" fill="#293148"/>
<path d="M427.499 369C425.184 369 424.249 367.409 423.065 365.396C422.77 364.893 422.449 364.347 422.078 363.771L422.92 363.229C423.299 363.818 423.626 364.375 423.928 364.889C425.106 366.895 425.756 368 427.499 368C433.289 368 437.999 358.355 437.999 346.5C437.999 334.645 433.289 325 427.499 325C424.156 325 421.832 327.062 419.963 331.688L419.035 331.312C421.079 326.255 423.689 324 427.499 324C433.84 324 438.999 334.093 438.999 346.5C438.999 358.907 433.84 369 427.499 369Z" fill="black"/>
<path d="M293 714C368.111 714 429 711.761 429 709C429 706.239 368.111 704 293 704C217.889 704 157 706.239 157 709C157 711.761 217.889 714 293 714Z" fill="#F2F2F2"/>
<path d="M774 181C785.598 181 795 171.598 795 160C795 148.402 785.598 139 774 139C762.402 139 753 148.402 753 160C753 171.598 762.402 181 774 181Z" fill="#F2F2F2"/>
<path d="M143 5.94444e-05C119.034 0.00893048 95.4542 6.03885 74.4261 17.5361C53.3979 29.0334 35.5952 45.6295 22.6529 65.8004C9.71055 85.9714 2.04334 109.071 0.355313 132.977C-1.33271 156.884 3.01255 180.831 12.9921 202.621L189.709 7.81112C174.683 2.62554 158.896 -0.0144452 143 5.94444e-05Z" fill="#F2F2F2"/>
<path d="M618.136 265.696C635.388 265.696 649.373 251.71 649.373 234.458C649.373 217.206 635.388 203.221 618.136 203.221C600.884 203.221 586.898 217.206 586.898 234.458C586.898 251.71 600.884 265.696 618.136 265.696Z" fill="#293148"/>
<path d="M565.584 430.283C565.584 430.283 590.524 493.29 593.149 493.29C595.775 493.29 599.712 469.662 599.712 469.662L583.961 425.033L565.584 430.283Z" fill="#FFB9B9"/>
<path d="M602.338 258.328C602.338 258.328 608.901 285.894 606.276 291.144C603.651 296.395 611.526 304.271 611.526 304.271H629.903L643.03 283.268L645.655 274.08C645.655 274.08 637.779 253.078 639.092 250.453C640.404 247.827 602.338 258.328 602.338 258.328Z" fill="#FFB9B9"/>
<path opacity="0.1" d="M602.338 258.328C602.338 258.328 608.901 285.894 606.276 291.144C603.651 296.395 611.526 304.271 611.526 304.271H629.903L643.03 283.268L645.655 274.08C645.655 274.08 637.779 253.078 639.092 250.453C640.404 247.827 602.338 258.328 602.338 258.328Z" fill="black"/>
<path d="M675.846 704.624V719.063L692.91 723.001L694.223 704.624H675.846Z" fill="#575A89"/>
<path d="M606.275 446.035C606.275 446.035 587.898 478.851 594.461 495.915C601.024 512.979 625.964 596.988 625.964 596.988C625.964 596.988 640.403 644.243 640.403 646.868C640.403 649.493 652.217 707.249 656.155 708.562C660.093 709.874 695.534 713.812 696.847 709.874C698.159 705.936 699.472 684.934 695.534 680.996C691.596 677.058 670.594 554.983 670.594 554.983L667.969 514.292L700.785 615.365C700.785 615.365 709.973 675.746 713.911 679.684C717.849 683.621 706.035 687.559 709.973 691.497C713.911 695.435 728.35 705.936 727.037 709.874C725.725 713.812 758.54 713.812 762.478 711.187C766.416 708.561 765.104 667.87 765.104 667.87L746.727 612.739L725.725 478.851C725.725 478.851 719.161 439.472 713.911 439.472C708.66 439.472 606.275 446.035 606.275 446.035Z" fill="#293148"/>
<path d="M679.784 713.812C679.784 713.812 669.282 704.624 664.032 707.249C658.781 709.874 641.717 734.814 636.467 733.502C631.216 732.189 623.34 747.628 636.467 748.941C649.593 750.253 670.595 747.628 670.595 747.628C674.937 748.35 679.322 748.789 683.721 748.941C688.972 748.941 700.786 750.253 700.786 748.941C700.786 747.628 698.16 717.75 696.848 717.75C695.535 717.75 681.096 717.75 679.784 713.812Z" fill="#293148"/>
<path d="M751.977 704.624C751.977 704.624 738.85 701.999 737.538 704.624C736.225 707.249 730.975 715.125 730.975 716.438C730.975 717.75 733.6 733.502 733.6 734.814C733.6 736.127 736.225 740.065 738.85 742.69C739.592 743.317 740.118 744.162 740.353 745.104C740.589 746.046 740.522 747.038 740.163 747.941C740.163 747.941 774.292 751.879 774.292 746.628C774.292 741.378 770.354 729.564 767.728 726.939C765.103 724.313 759.853 705.936 751.977 704.624Z" fill="#293148"/>
<path d="M618.089 270.142C633.313 270.142 645.654 257.801 645.654 242.577C645.654 227.353 633.313 215.012 618.089 215.012C602.865 215.012 590.523 227.353 590.523 242.577C590.523 257.801 602.865 270.142 618.089 270.142Z" fill="#FFB9B9"/>
<path d="M607.589 292.457C607.589 292.457 623.34 301.645 632.529 287.206C641.717 272.768 670.595 316.084 670.595 316.084L678.471 449.973C678.471 449.973 664.032 451.286 639.092 457.849C614.152 464.412 602.338 448.66 602.338 448.66L601.026 372.528L603.651 337.087L599.713 308.209L602.338 291.144L607.589 292.457Z" fill="#356BB3"/>
<path d="M578.709 309.521C578.709 309.521 568.208 312.146 565.583 330.523C562.958 348.9 557.707 404.031 557.707 404.031L564.27 436.846C564.27 436.846 582.647 422.407 589.21 428.971L585.272 409.281L589.21 397.467L577.396 346.275L578.709 309.521Z" fill="#356BB3"/>
<path d="M604.816 270.142C604.816 270.142 602.337 270.142 602.337 279.331C602.337 288.519 577.397 301.645 577.397 301.645C577.397 301.645 574.771 305.583 574.771 316.084C574.771 326.585 574.771 351.525 577.397 359.401C580.022 367.277 583.96 393.53 585.273 396.155C586.585 398.78 586.585 410.594 583.96 413.219C581.335 415.844 590.523 431.596 593.148 432.909C595.774 434.221 583.96 468.35 590.523 469.662C597.086 470.975 608.9 453.911 612.838 444.722C616.776 435.534 614.15 308.209 612.838 299.02C611.525 289.832 604.816 270.142 604.816 270.142Z" fill="#575A89"/>
<path d="M641.386 261.695C641.386 261.695 640.403 255.703 646.967 260.954C653.53 266.204 654.842 270.142 654.842 270.142C654.842 270.142 688.971 270.142 690.284 274.08C691.596 278.018 689.501 311.53 689.501 311.53L706.751 375.665C706.751 375.665 730.975 449.973 733.6 452.598C736.226 455.223 712.598 440.784 699.472 451.286C686.346 461.787 662.718 467.037 660.093 460.474C657.468 453.911 628.59 301.645 628.59 301.645C628.59 301.645 628.59 276.705 632.528 274.08C636.466 271.455 641.386 261.695 641.386 261.695Z" fill="#575A89"/>
<path d="M711.286 385.654L706.035 446.035L704.723 451.286L724.412 477.538C724.412 477.538 728.35 463.099 727.037 457.849C725.725 452.598 733.601 393.53 733.601 393.53L711.286 385.654Z" fill="#FFB9B9"/>
<path d="M596.507 222.982C596.507 222.982 590.129 206.4 599.376 200.979L601.928 208.313C601.928 208.313 625.206 194.283 631.264 197.471L625.525 205.125C625.525 205.125 652.63 205.125 654.543 215.648L644.976 215.967C644.976 215.967 655.181 222.663 655.499 233.505L635.091 234.781L644.976 240.52C644.976 240.52 607.986 245.622 599.058 230.954L596.507 222.982Z" fill="#293148"/>
<path d="M590.982 223.637C590.982 223.637 598.332 238.337 608.132 234.662C617.932 230.987 608.132 217.512 608.132 217.512L601.599 214.246L590.982 223.637Z" fill="#293148"/>
<path d="M827 748.5H541V749.5H827V748.5Z" fill="black"/>
<path d="M687.658 276.705C687.658 276.705 695.534 278.018 700.785 287.206C706.035 296.395 732.288 356.776 733.6 359.401C734.913 362.026 734.913 397.467 734.913 397.467C734.913 397.467 716.536 386.966 708.66 393.529L707.348 377.778L690.284 317.397L687.658 297.707L687.658 276.705Z" fill="#356BB3"/>
</g>
<defs>
<clipPath id="clip0_338_1814">
<rect width="906" height="749.524" fill="white"/>
</clipPath>
</defs>
</svg>
