<svg width="965" height="806" viewBox="0 0 965 806" fill="none" xmlns="http://www.w3.org/2000/svg">
<g clip-path="url(#clip0_338_1684)">
<path d="M209.413 503.689L225.886 513.155C227.553 514.113 229.409 514.695 231.324 514.862C233.239 515.029 235.168 514.776 236.975 514.121C238.782 513.466 240.425 512.425 241.789 511.07C243.152 509.715 244.204 508.079 244.87 506.276C245.587 504.335 245.839 502.253 245.605 500.197C245.37 498.141 244.657 496.17 243.521 494.44C242.386 492.71 240.86 491.272 239.067 490.239C237.274 489.207 235.264 488.61 233.198 488.496L213.249 487.399L153.158 469.21L143.47 432.937L118.137 447.167L135.555 488.406L209.413 503.689Z" fill="#FFB8B8"/>
<path d="M130.875 315.42C127.065 319.74 127.753 324.937 130.528 329.155C133.303 333.374 137.922 336.884 141.964 340.606C144.56 342.997 146.962 345.535 148.125 348.412C148.766 349.883 148.976 351.506 148.73 353.091C148.484 354.677 147.793 356.16 146.737 357.368C144.09 360.499 139.16 362.619 134.349 364.437C120.594 369.597 106.4 373.506 91.9414 376.114C104.122 361.882 110.219 345.853 109.326 330.414C109.139 327.174 108.657 323.903 109.789 320.656C110.566 318.707 111.795 316.969 113.374 315.588C114.954 314.206 116.838 313.218 118.874 312.707C123.715 311.317 130.092 312.692 130.835 315.864" fill="#293148"/>
<path d="M26.5234 772.15L43.9534 772.908L78.3554 614.001L48.5004 615.284L26.5234 772.15Z" fill="#FFB8B8"/>
<path d="M200.819 738.049L186.42 745.627L96.3555 612.001L125.038 599.37L200.819 738.049Z" fill="#FFB8B8"/>
<path d="M100.428 365.44C115.654 365.44 127.998 353.096 127.998 337.87C127.998 322.643 115.654 310.3 100.428 310.3C85.201 310.3 72.8574 322.643 72.8574 337.87C72.8574 353.096 85.201 365.44 100.428 365.44Z" fill="#FFB8B8"/>
<path d="M86.3901 352.325C86.3901 352.325 76.5386 372.785 62.8981 372.028C62.8981 372.028 37.1327 361.418 28.7968 390.215L19.7031 412.949L140.194 433.41C140.194 433.41 133.374 391.731 117.46 390.973C117.46 390.973 99.2728 389.457 101.546 382.637C103.82 375.817 112.156 359.903 112.156 359.903L86.3901 352.325Z" fill="#FFB8B8"/>
<path d="M126.554 456.902L108.367 496.308L123.355 560.001L196.355 697.001C196.355 697.001 162.736 727.164 154.355 732.001C147.086 736.198 86.5655 622.447 84.3555 599.001C83.6261 591.264 70.3555 748.001 70.3555 748.001C70.3555 748.001 20.3259 739.746 6.35547 737.001C6.35547 737.001 16.4206 665.71 22.3555 599.001C26.9302 547.581 22.7704 500.98 48.5 478.879L46.2265 434.926L106.851 432.652L126.554 456.902Z" fill="#293148"/>
<path d="M32.3918 801.378L60.2176 805.418C62.3738 806.222 64.7519 806.194 66.8886 805.339C69.0253 804.485 70.7674 802.866 71.7757 800.798C72.5947 799.118 72.8861 797.229 72.6116 795.38C72.3371 793.531 71.5094 791.809 70.2375 790.439L58.4269 777.72L49.9266 759.378C44.8429 754.185 41.3678 756.022 39.425 764.553L25.8366 760.286L22.2737 784.235C21.7405 787.819 22.4546 791.478 24.2965 794.599C26.1384 797.719 28.9963 800.112 32.3918 801.378Z" fill="#293148"/>
<path d="M190.993 776.318L219.111 776.219C221.362 776.697 223.71 776.319 225.698 775.16C227.685 774.001 229.17 772.143 229.863 769.949C230.426 768.167 230.436 766.256 229.893 764.467C229.349 762.679 228.277 761.097 226.818 759.929L213.264 749.086L202.157 732.195C196.365 727.807 193.198 730.135 192.531 738.859L178.463 736.637V760.85C178.463 764.474 179.708 767.988 181.989 770.803C184.27 773.619 187.449 775.566 190.993 776.318Z" fill="#293148"/>
<path d="M86.5022 295.49C81.8192 293.443 76.2464 294.246 71.7252 296.628C67.2039 299.011 63.5915 302.811 60.4299 306.826C49.5434 320.721 43.1952 337.628 42.2468 355.254C41.9991 360.072 42.2315 365.164 44.7399 369.285C47.4964 373.814 52.5418 376.414 57.5394 378.184C74.2945 384.022 92.6769 383.011 108.691 375.37C100.27 368.542 92.4794 360.974 85.4111 352.755C84.0866 351.214 82.7016 349.237 83.3753 347.32C83.7994 346.388 84.457 345.58 85.2845 344.976L101.517 330.88L101.108 336.582C104.336 336.394 107.438 335.263 110.031 333.331C112.624 331.398 114.593 328.748 115.696 325.709C114.913 327.288 116.408 329.228 118.134 329.584C119.861 329.939 121.609 329.227 123.229 328.53C127.156 326.84 131.422 324.828 133.165 320.923C133.713 319.547 133.975 318.073 133.936 316.592C133.896 315.111 133.555 313.653 132.934 312.308C131.674 309.624 129.876 307.226 127.651 305.265C122.192 300.225 115.55 296.643 108.339 294.85C101.128 293.057 93.5819 293.112 86.3978 295.008" fill="#293148"/>
<path d="M80.9946 499.744L93.1001 514.387C94.325 515.868 95.8583 517.065 97.5932 517.893C99.3281 518.721 101.223 519.161 103.145 519.182C105.067 519.202 106.971 518.804 108.723 518.013C110.476 517.222 112.034 516.059 113.291 514.604C114.643 513.038 115.609 511.177 116.111 509.17C116.612 507.162 116.636 505.065 116.179 503.047C115.723 501.029 114.799 499.147 113.482 497.551C112.165 495.955 110.491 494.691 108.597 493.86L90.3008 485.835L40.4085 447.722L44.0607 410.355L15.3457 414.794L17.1911 459.524L80.9946 499.744Z" fill="#FFB8B8"/>
<path d="M156.108 466.754C156.108 466.754 144.309 423.538 138.084 423.549C131.858 423.559 123.523 422.801 123.523 422.801C123.523 422.801 113.671 394.004 62.898 403.098C12.125 412.192 34.1013 394.762 19.703 401.582C5.30465 408.403 0 456.145 0 456.145C0 456.145 78.0541 430.379 94.7258 444.777C104.3 453.151 114.712 460.515 125.796 466.754C125.796 466.754 118.218 485.699 156.108 466.754Z" fill="#293148"/>
<path d="M426.701 773.947H120.701V775.947H426.701V773.947Z" fill="#4A8ACF"/>
<path d="M661.701 428.947C763.874 428.947 846.701 346.12 846.701 243.947C846.701 141.775 763.874 58.9473 661.701 58.9473C559.529 58.9473 476.701 141.775 476.701 243.947C476.701 346.12 559.529 428.947 661.701 428.947Z" fill="#E6E6E6"/>
<path d="M626.701 140.947H320.701V142.947H626.701V140.947Z" fill="#4A8ACF"/>
<path d="M921.701 195.947H320.701V197.947H921.701V195.947Z" fill="#4A8ACF"/>
<path d="M736.701 392.947C634.141 392.947 550.701 309.508 550.701 206.947C550.701 104.387 634.141 20.9473 736.701 20.9473C839.262 20.9473 922.701 104.387 922.701 206.947C922.701 309.508 839.262 392.947 736.701 392.947ZM736.701 22.9473C635.243 22.9473 552.701 105.489 552.701 206.947C552.701 308.405 635.243 390.947 736.701 390.947C838.159 390.947 920.701 308.405 920.701 206.947C920.701 105.489 838.159 22.9473 736.701 22.9473Z" fill="#4A8ACF"/>
<path d="M719.54 48.8409C733.027 48.8409 743.96 37.9075 743.96 24.4204C743.96 10.9334 733.027 0 719.54 0C706.053 0 695.119 10.9334 695.119 24.4204C695.119 37.9075 706.053 48.8409 719.54 48.8409Z" fill="#356BB3"/>
<path d="M551.399 209.66C560.126 209.66 567.201 202.585 567.201 193.859C567.201 185.132 560.126 178.057 551.399 178.057C542.672 178.057 535.598 185.132 535.598 193.859C535.598 202.585 542.672 209.66 551.399 209.66Z" fill="#FF6584"/>
<path d="M928.622 230.205C948.553 230.205 964.71 214.049 964.71 194.118C964.71 174.188 948.553 158.031 928.622 158.031C908.692 158.031 892.535 174.188 892.535 194.118C892.535 214.049 908.692 230.205 928.622 230.205Z" fill="#356BB3"/>
<path d="M421.363 336.508H311.864V338.508H421.363C426.754 338.508 431.924 340.65 435.736 344.462C439.548 348.274 441.69 353.444 441.69 358.835C441.69 364.226 439.548 369.396 435.736 373.208C431.924 377.02 426.754 379.162 421.363 379.162H255.672C250.281 379.162 245.111 377.02 241.299 373.208C237.487 369.396 235.346 364.226 235.346 358.835C235.346 353.444 237.487 348.274 241.299 344.462C245.111 340.65 250.281 338.508 255.672 338.508H261.864V336.508H255.672C249.751 336.508 244.072 338.861 239.885 343.048C235.698 347.235 233.346 352.914 233.346 358.835C233.346 364.756 235.698 370.435 239.885 374.622C244.072 378.809 249.751 381.162 255.672 381.162H421.363C427.285 381.162 432.964 378.809 437.151 374.622C441.338 370.435 443.69 364.756 443.69 358.835C443.69 352.914 441.338 347.235 437.151 343.048C432.964 338.861 427.285 336.508 421.363 336.508Z" fill="#4A8ACF"/>
<path d="M421.363 405.508H311.864V407.508H421.363C426.754 407.508 431.924 409.65 435.736 413.462C439.548 417.274 441.69 422.444 441.69 427.835C441.69 433.226 439.548 438.396 435.736 442.208C431.924 446.02 426.754 448.162 421.363 448.162H255.672C250.281 448.162 245.111 446.02 241.299 442.208C237.487 438.396 235.346 433.226 235.346 427.835C235.346 422.444 237.487 417.274 241.299 413.462C245.111 409.65 250.281 407.508 255.672 407.508H261.864V405.508H255.672C249.751 405.508 244.072 407.861 239.885 412.048C235.698 416.235 233.346 421.914 233.346 427.835C233.346 433.756 235.698 439.435 239.885 443.622C244.072 447.809 249.751 450.162 255.672 450.162H421.363C427.285 450.162 432.964 447.809 437.151 443.622C441.338 439.435 443.69 433.756 443.69 427.835C443.69 421.914 441.338 416.235 437.151 412.048C432.964 407.861 427.285 405.508 421.363 405.508Z" fill="#4A8ACF"/>
<path d="M421.363 474.508H311.864V476.508H421.363C426.754 476.508 431.924 478.65 435.736 482.462C439.548 486.274 441.69 491.444 441.69 496.835C441.69 502.226 439.548 507.396 435.736 511.208C431.924 515.02 426.754 517.162 421.363 517.162H255.672C250.281 517.162 245.111 515.02 241.299 511.208C237.487 507.396 235.346 502.226 235.346 496.835C235.346 491.444 237.487 486.274 241.299 482.462C245.111 478.65 250.281 476.508 255.672 476.508H261.864V474.508H255.672C249.751 474.508 244.072 476.861 239.885 481.048C235.698 485.235 233.346 490.914 233.346 496.835C233.346 502.756 235.698 508.435 239.885 512.622C244.072 516.809 249.751 519.162 255.672 519.162H421.363C427.285 519.162 432.964 516.809 437.151 512.622C441.338 508.435 443.69 502.756 443.69 496.835C443.69 490.914 441.338 485.235 437.151 481.048C432.964 476.861 427.285 474.508 421.363 474.508Z" fill="#4A8ACF"/>
<path d="M274.224 331.224C272.665 331.251 271.178 331.888 270.084 333.001C268.99 334.113 268.377 335.61 268.377 337.17C268.377 338.73 268.99 340.228 270.084 341.34C271.178 342.452 272.665 343.09 274.224 343.116H300.31C301.884 343.137 303.402 342.534 304.531 341.437C305.661 340.341 306.31 338.842 306.335 337.268C306.361 335.694 305.762 334.174 304.669 333.041C303.576 331.909 302.079 331.255 300.505 331.224C300.44 331.223 300.375 331.223 300.31 331.224H274.224Z" fill="#356BB3"/>
<path d="M274.224 401.224C272.665 401.251 271.178 401.888 270.084 403.001C268.99 404.113 268.377 405.61 268.377 407.17C268.377 408.73 268.99 410.228 270.084 411.34C271.178 412.452 272.665 413.09 274.224 413.116H300.31C301.884 413.137 303.402 412.534 304.531 411.437C305.661 410.341 306.31 408.842 306.335 407.268C306.361 405.694 305.762 404.174 304.669 403.041C303.576 401.909 302.079 401.255 300.505 401.224C300.44 401.223 300.375 401.223 300.31 401.224H274.224Z" fill="#FF6584"/>
<path d="M274.224 469.224C272.664 469.25 271.176 469.888 270.082 471C268.988 472.113 268.375 473.61 268.375 475.171C268.375 476.731 268.988 478.228 270.082 479.341C271.176 480.453 272.664 481.091 274.224 481.117H300.31C301.886 481.141 303.407 480.538 304.539 479.442C305.671 478.345 306.321 476.844 306.347 475.268C306.373 473.692 305.772 472.17 304.677 471.037C303.581 469.904 302.081 469.252 300.505 469.224C300.44 469.223 300.375 469.223 300.31 469.224H274.224Z" fill="#4A8ACF"/>
<path d="M263.877 352.889C262.317 352.915 260.83 353.553 259.736 354.665C258.642 355.777 258.029 357.275 258.029 358.835C258.029 360.395 258.642 361.893 259.736 363.005C260.83 364.117 262.317 364.755 263.877 364.781H412.963C413.745 364.796 414.522 364.656 415.25 364.37C415.978 364.084 416.643 363.657 417.206 363.114C417.768 362.571 418.219 361.922 418.53 361.204C418.842 360.487 419.009 359.715 419.022 358.933C419.034 358.151 418.893 357.374 418.605 356.647C418.317 355.919 417.889 355.256 417.344 354.694C416.799 354.133 416.149 353.685 415.431 353.375C414.713 353.065 413.94 352.9 413.158 352.889C413.093 352.888 413.028 352.888 412.963 352.889H263.877Z" fill="#E6E6E6"/>
<path d="M263.877 421.889C262.317 421.915 260.83 422.553 259.736 423.665C258.642 424.777 258.029 426.275 258.029 427.835C258.029 429.395 258.642 430.893 259.736 432.005C260.83 433.117 262.317 433.755 263.877 433.781H412.963C413.745 433.796 414.522 433.656 415.25 433.37C415.978 433.084 416.643 432.657 417.206 432.114C417.768 431.571 418.219 430.922 418.53 430.204C418.842 429.487 419.009 428.715 419.022 427.933C419.034 427.151 418.893 426.374 418.605 425.647C418.317 424.919 417.889 424.256 417.344 423.694C416.799 423.133 416.149 422.685 415.431 422.375C414.713 422.065 413.94 421.9 413.158 421.889C413.093 421.888 413.028 421.888 412.963 421.889H263.877Z" fill="#E6E6E6"/>
<path d="M263.877 490.889C262.317 490.915 260.83 491.553 259.736 492.665C258.642 493.777 258.029 495.275 258.029 496.835C258.029 498.395 258.642 499.893 259.736 501.005C260.83 502.117 262.317 502.755 263.877 502.781H412.963C413.745 502.796 414.522 502.656 415.25 502.37C415.978 502.084 416.643 501.657 417.206 501.114C417.768 500.571 418.219 499.922 418.53 499.204C418.842 498.487 419.009 497.715 419.022 496.933C419.034 496.151 418.893 495.374 418.605 494.647C418.317 493.919 417.889 493.256 417.344 492.694C416.799 492.133 416.149 491.685 415.431 491.375C414.713 491.065 413.94 490.9 413.158 490.889C413.093 490.888 413.028 490.888 412.963 490.889H263.877Z" fill="#E6E6E6"/>
<path d="M415.349 714.254C413.794 704.233 410.762 694.498 406.351 685.367L405.708 684.037L400.931 689.333L404.47 681.445L404.239 680.987C401.116 674.805 397.655 668.799 393.871 662.998L393.169 661.924L392.233 662.961L392.889 661.5L392.561 661.008C387.875 653.979 384.274 649.534 384.239 649.489L383.221 648.237L382.566 649.73C382.446 650.004 370.547 677.423 368.971 704.516L368.946 704.939L376.954 714.619L368.787 709.492L368.801 711.353C368.826 714.537 369.043 717.717 369.45 720.875C369.81 723.592 370.233 726.244 370.72 728.832C371.492 728.856 372.243 729.09 372.892 729.509C372.328 726.618 371.841 723.646 371.432 720.593C371.117 718.157 370.918 715.681 370.839 713.213L386.636 723.131L370.992 704.221C372.416 681.314 381.257 658.235 383.739 652.144C385.071 653.872 387.583 657.225 390.589 661.705L385.125 673.887L392.915 665.249C396.293 670.506 399.404 675.931 402.237 681.501L393.823 700.258L405.2 687.643C409.173 696.188 411.924 705.251 413.371 714.563C415.362 729.604 414.973 744.053 412.276 755.249C409.692 765.974 405.139 772.566 399.783 773.336C398.681 773.489 397.559 773.422 396.483 773.14C395.62 773.754 394.581 774.071 393.522 774.044H393.23C394.892 774.966 396.754 775.466 398.654 775.501C399.123 775.5 399.592 775.467 400.057 775.4C406.354 774.495 411.382 767.519 414.216 755.757C416.974 744.307 417.377 729.576 415.349 714.254Z" fill="#4A8ACF"/>
<path d="M397.725 774.709C389.488 774.709 377.612 770.178 365.833 761.93C364.099 760.706 362.444 759.375 360.876 757.945L359.557 756.74L364.545 755.303L357.903 755.06L357.623 754.766C345.172 741.727 337.425 723.309 337.348 723.125L336.742 721.67L338.316 721.742C338.473 721.749 342.216 721.925 347.841 722.723L348.191 722.773V722.77L349.425 722.958C354.018 723.656 358.568 724.612 363.054 725.822L363.533 725.952L365.03 729.638L364.803 726.332L366.176 726.728C372.684 728.607 378.865 731.472 384.503 735.225C402.417 747.769 412.329 763.447 407.089 770.929C405.298 773.487 402.001 774.708 397.725 774.709ZM363.582 757.662C364.676 758.588 365.815 759.47 366.983 760.293C383.39 771.783 401.006 776.127 405.451 769.783C409.894 763.437 399.785 748.368 383.376 736.877C378.314 733.51 372.798 730.878 366.995 729.063L367.882 741.98L362.054 727.624C358.216 726.606 354.289 725.768 350.358 725.128L351.002 734.503L346.991 724.623C343.883 724.197 341.377 723.965 339.853 723.847C341.931 728.41 348.796 742.498 358.79 753.091L377.12 753.762L363.582 757.662Z" fill="#4A8ACF"/>
</g>
<defs>
<clipPath id="clip0_338_1684">
<rect width="964.71" height="806.003" fill="white"/>
</clipPath>
</defs>
</svg>
